<?xml version="1.0" encoding="UTF-8" standalone="no"?>
<!-- Generator: Adobe Illustrator 13.0.0, SVG Export Plug-In . SVG Version: 6.00 Build 14948)  -->

<svg
   xmlns:dc="http://purl.org/dc/elements/1.1/"
   xmlns:cc="http://creativecommons.org/ns#"
   xmlns:rdf="http://www.w3.org/1999/02/22-rdf-syntax-ns#"
   xmlns:svg="http://www.w3.org/2000/svg"
   xmlns="http://www.w3.org/2000/svg"
   xmlns:sodipodi="http://sodipodi.sourceforge.net/DTD/sodipodi-0.dtd"
   xmlns:inkscape="http://www.inkscape.org/namespaces/inkscape"
   version="1.1"
   x="0px"
   y="0px"
   width="800px"
   height="800px"
   viewBox="0 0 800 800"
   enable-background="new 0 0 800 800"
   xml:space="preserve"
   id="svg2"
   inkscape:version="0.48.0 r9654"
   sodipodi:docname="Simbolo_di_neutralita_della_rete_in_italiano.svg"
   inkscape:export-filename="/home/alessandro/Documenti/[ In lavorazione ]/NINUX/Volantino Ninux/Simbolo_di_neutralita_della_rete_in_italiano.png"
   inkscape:export-xdpi="90"
   inkscape:export-ydpi="90"><metadata
   id="metadata118"><rdf:RDF><cc:Work
       rdf:about=""><dc:format>image/svg+xml</dc:format><dc:type
         rdf:resource="http://purl.org/dc/dcmitype/StillImage" /><dc:title></dc:title></cc:Work></rdf:RDF></metadata><defs
   id="defs116" /><sodipodi:namedview
   pagecolor="#ffffff"
   bordercolor="#666666"
   borderopacity="1"
   objecttolerance="10"
   gridtolerance="10"
   guidetolerance="10"
   inkscape:pageopacity="0"
   inkscape:pageshadow="2"
   inkscape:window-width="1280"
   inkscape:window-height="723"
   id="namedview114"
   showgrid="false"
   inkscape:zoom="0.45431611"
   inkscape:cx="631.30567"
   inkscape:cy="384.52917"
   inkscape:window-x="0"
   inkscape:window-y="24"
   inkscape:window-maximized="1"
   inkscape:current-layer="svg2" />




<g
   id="g3128"><g
     id="Layer_5">
	<radialGradient
   gradientUnits="userSpaceOnUse"
   r="232.0163"
   cy="394.9155"
   cx="400.5361"
   id="SVGID_1_">
		<stop
   id="stop6"
   style="stop-color:#C7F7BF"
   offset="0" />
		<stop
   id="stop8"
   style="stop-color:#C5F6BD"
   offset="0.3949" />
		<stop
   id="stop10"
   style="stop-color:#BFF2B6"
   offset="0.5372" />
		<stop
   id="stop12"
   style="stop-color:#B3EAAB"
   offset="0.6386" />
		<stop
   id="stop14"
   style="stop-color:#A3E09A"
   offset="0.7206" />
		<stop
   id="stop16"
   style="stop-color:#8ED284"
   offset="0.7909" />
		<stop
   id="stop18"
   style="stop-color:#74C168"
   offset="0.8531" />
		<stop
   id="stop20"
   style="stop-color:#56AC48"
   offset="0.9093" />
		<stop
   id="stop22"
   style="stop-color:#339524"
   offset="0.9593" />
		<stop
   id="stop24"
   style="stop-color:#117F00"
   offset="1" />
	</radialGradient>
	<circle
   id="circle26"
   r="232.017"
   cy="394.916"
   cx="400.536"
   fill="url(#SVGID_1_)" />
</g><g
     id="Layer_1">
	<circle
   fill="#606060"
   id="circle29"
   r="33.572"
   cy="521.56"
   cx="261.868" />
	<circle
   fill="#606060"
   id="circle31"
   r="33.573"
   cy="262.06"
   cx="537.369" />
	<circle
   id="circle33"
   r="33.572"
   cy="393.059"
   cx="589.369" />
	<circle
   id="circle35"
   r="33.573"
   cy="393.059"
   cx="209.369" />
	<circle
   id="circle37"
   r="33.572"
   cy="583.059"
   cx="399.368" />
	<circle
   id="circle39"
   r="33.573"
   cy="203.059"
   cx="399.369" />
	<path
   fill="#FFFFFF"
   id="path41"
   d="M213.404,374.84v35.918H203.22V374.84H213.404z" />
	<path
   fill="#FFFFFF"
   id="path43"
   d="M405.404,565.34v35.918H395.22V565.34H405.404z" />
	<path
   fill="#FFFFFF"
   id="path45"
   d="M596.404,374.84v35.918h-10.184V374.84H596.404z" />
	<path
   fill="#FFFFFF"
   id="path47"
   d="M405.404,184.34v35.918H395.22V184.34H405.404z" />
	<path
   fill="#FFFFFF"
   id="path49"
   d="M247.391,526.156v-8.789c0-5.117,1.274-9.16,3.823-12.129s6.021-4.453,10.415-4.453   s7.871,1.484,10.43,4.453c2.559,2.969,3.838,7.012,3.838,12.129v8.789c0,5.117-1.279,9.165-3.838,12.144   c-2.559,2.979-6.035,4.468-10.43,4.468s-7.866-1.489-10.415-4.468S247.391,531.273,247.391,526.156z M258.787,515.023V528.5   c0,2.441,0.947,3.662,2.842,3.662c1.914,0,2.871-1.221,2.871-3.662v-13.477c0-2.441-0.957-3.662-2.871-3.662   C259.734,511.361,258.787,512.582,258.787,515.023z" />
	<path
   fill="#FFFFFF"
   id="path51"
   d="M524.391,266.156v-8.789c0-5.117,1.274-9.16,3.823-12.129s6.021-4.453,10.415-4.453   s7.871,1.484,10.43,4.453s3.838,7.012,3.838,12.129v8.789c0,5.117-1.279,9.165-3.838,12.144s-6.035,4.468-10.43,4.468   s-7.866-1.489-10.415-4.468S524.391,271.273,524.391,266.156z M535.787,255.023V268.5c0,2.441,0.947,3.662,2.842,3.662   c1.914,0,2.871-1.221,2.871-3.662v-13.477c0-2.441-0.957-3.662-2.871-3.662C536.734,251.361,535.787,252.582,535.787,255.023z" />
</g><g
     id="Layer_3">
	<polygon
   fill="#606060"
   id="polygon54"
   points="528.262,284.392 499.782,311.708 499.782,497.922 323.789,338.293 323.789,487.922 288.66,514.207    272.739,497.608 302.534,473.233 302.534,290.178 477.532,449.565 477.532,300.178 512.341,267.793  " />
	<polygon
   id="polygon56"
   points="414.387,226.164 472.502,296.986 472.365,436.201 296.509,276.572 296.509,405.254 236.223,405.254    234.749,381.512 275.253,381.512 275.253,230.457 450.252,389.844 450.252,304.457 392.743,233.274  " />
	<polygon
   id="polygon58"
   points="387.836,562.077 329.534,491.408 329.534,352.193 505.523,511.355 505.523,381.512 565.528,381.512    567.058,405.254 526.554,405.254 526.905,557.416 351.591,398.491 351.764,483.878 409.462,554.909  " />
</g><g
     id="Layer_4">
	<g
   id="g61">
		<path
   id="path63"
   d="M184.896,598.022l12.579,12c3.271,3.122,5.788,6.103,7.55,8.942c1.761,2.839,2.799,6.002,3.115,9.49    c0.909,8.98-2.77,17.807-11.039,26.473c-2.729,2.86-5.47,5.234-8.221,7.12c-2.752,1.886-5.552,3.281-8.401,4.186    c-2.849,0.903-5.799,1.327-8.851,1.271c-2.375-0.071-4.65-0.483-6.828-1.236c-2.178-0.754-4.274-1.823-6.287-3.204    c-2.013-1.384-4.114-3.119-6.302-5.207l-12.578-12.001c-1.755-1.674-2.824-3.2-3.206-4.578c-0.382-1.38-0.249-2.68,0.401-3.902    c0.647-1.222,1.707-2.604,3.175-4.143l33.335-34.939c1.985-2.079,3.887-3.142,5.708-3.185    C180.865,595.066,182.815,596.037,184.896,598.022z M181.346,609.226l-30.854,32.341l7.313,6.977    c1.604,1.53,2.901,2.688,3.895,3.469c0.992,0.781,2.142,1.463,3.448,2.047c1.305,0.584,2.616,0.902,3.931,0.957    c5.833,0.348,11.933-2.813,18.301-9.486c4.486-4.702,7.135-8.9,7.949-12.595s0.485-6.854-0.985-9.478    c-1.471-2.623-3.679-5.342-6.625-8.152L181.346,609.226z" />
		<path
   id="path65"
   d="M255.583,665.896l-25.438-16.001l-8.611,13.688l23.423,14.735c1.724,1.085,2.767,2.28,3.13,3.587    c0.362,1.309,0.145,2.595-0.652,3.861c-0.798,1.269-1.866,2.038-3.204,2.311c-1.339,0.271-2.883-0.141-4.632-1.241L216.175,672.1    l-9.974,15.857l26.313,16.551c1.774,1.116,2.852,2.371,3.234,3.76c0.381,1.39,0.142,2.771-0.719,4.138    c-0.83,1.318-1.954,2.107-3.372,2.365c-1.418,0.258-3.015-0.172-4.789-1.288l-30.687-19.303c-2.459-1.547-3.884-3.204-4.275-4.973    c-0.393-1.767,0.178-3.867,1.709-6.302l26.358-41.902c1.021-1.622,2.095-2.795,3.222-3.52c1.127-0.724,2.352-0.997,3.674-0.82    c1.321,0.178,2.78,0.769,4.378,1.772l29.811,18.753c1.8,1.133,2.886,2.373,3.258,3.722c0.373,1.348,0.152,2.669-0.661,3.962    c-0.829,1.318-1.932,2.101-3.309,2.35C258.971,667.471,257.383,667.027,255.583,665.896z" />
		<path
   id="path67"
   d="M281.434,674.073l-17.772,44.515l25.115,10.028c2.002,0.799,3.345,1.899,4.027,3.3c0.681,1.402,0.729,2.839,0.14,4.313    c-0.6,1.501-1.614,2.507-3.042,3.018c-1.43,0.509-3.159,0.359-5.189-0.452l-29.913-11.943c-2.697-1.076-4.399-2.448-5.104-4.116    c-0.706-1.668-0.524-3.838,0.542-6.508l18.806-47.102c1-2.503,2.313-4.155,3.938-4.958c1.626-0.802,3.357-0.836,5.193-0.104    c1.863,0.744,3.125,1.967,3.785,3.665S282.445,671.543,281.434,674.073z" />
		<path
   id="path69"
   d="M330.068,690.143l-9.964,46.886l26.453,5.622c2.108,0.448,3.618,1.305,4.528,2.569c0.909,1.266,1.2,2.673,0.87,4.226    c-0.336,1.582-1.166,2.746-2.487,3.49c-1.322,0.745-3.052,0.891-5.19,0.436l-31.506-6.695c-2.842-0.604-4.751-1.667-5.728-3.193    c-0.978-1.523-1.167-3.691-0.569-6.504l10.543-49.608c0.56-2.638,1.574-4.488,3.041-5.554c1.466-1.066,3.166-1.395,5.1-0.982    c1.962,0.416,3.413,1.406,4.352,2.967C330.448,685.363,330.634,687.479,330.068,690.143z" />
		<path
   id="path71"
   d="M406.824,750.041l-2.923-8.347l-26.763-0.713l-3.369,8.357c-1.316,3.261-2.422,5.456-3.321,6.586    c-0.9,1.128-2.336,1.667-4.313,1.615c-1.677-0.045-3.142-0.699-4.396-1.96c-1.255-1.262-1.862-2.671-1.82-4.228    c0.024-0.897,0.198-1.821,0.524-2.773c0.323-0.949,0.854-2.269,1.588-3.956l17.979-42.302c0.512-1.216,1.127-2.674,1.847-4.378    c0.72-1.703,1.476-3.113,2.27-4.23c0.793-1.117,1.821-2.012,3.083-2.682c1.261-0.67,2.804-0.98,4.631-0.933    c1.856,0.049,3.396,0.443,4.619,1.179c1.224,0.737,2.203,1.67,2.937,2.798c0.734,1.127,1.346,2.335,1.836,3.621    c0.488,1.287,1.11,3.003,1.861,5.149l16.068,42.939c1.26,3.27,1.872,5.639,1.832,7.104c-0.041,1.528-0.714,2.91-2.02,4.148    c-1.308,1.239-2.857,1.835-4.654,1.787c-1.049-0.028-1.941-0.24-2.68-0.634c-0.738-0.395-1.354-0.92-1.844-1.577    c-0.493-0.657-1.014-1.66-1.563-3.008C407.688,752.259,407.217,751.069,406.824,750.041z M380.907,731.061l19.669,0.523    l-9.201-27.432L380.907,731.061z" />
		<path
   id="path73"
   d="M473.205,720.801l-4.527,1.157l5.242,20.499c0.689,2.698,0.602,4.839-0.26,6.42c-0.865,1.579-2.254,2.615-4.168,3.105    c-2.061,0.525-3.827,0.266-5.299-0.778c-1.474-1.046-2.539-2.859-3.2-5.441l-12.552-49.094c-0.711-2.786-0.604-4.961,0.324-6.528    c0.93-1.566,2.787-2.705,5.572-3.418l21.021-5.375c2.901-0.741,5.413-1.252,7.537-1.531c2.123-0.28,4.108-0.255,5.954,0.076    c2.219,0.331,4.295,1.081,6.234,2.256c1.938,1.174,3.57,2.695,4.9,4.565c1.326,1.871,2.287,3.967,2.883,6.288    c1.216,4.759,0.846,8.902-1.111,12.433c-1.957,3.529-5.512,6.585-10.662,9.17c2.604,0.633,5.255,1.872,7.953,3.716    c2.697,1.846,5.207,3.901,7.533,6.165c2.326,2.266,4.221,4.361,5.688,6.29c1.468,1.928,2.304,3.298,2.511,4.11    c0.217,0.842,0.161,1.744-0.165,2.708c-0.325,0.965-0.892,1.805-1.696,2.52c-0.807,0.717-1.818,1.231-3.037,1.542    c-1.451,0.371-2.758,0.342-3.918-0.087c-1.16-0.431-2.23-1.076-3.209-1.94c-0.978-0.861-2.335-2.153-4.072-3.872l-7.383-7.293    c-2.666-2.688-4.941-4.672-6.83-5.951c-1.889-1.28-3.664-2.03-5.328-2.254C477.475,720.034,475.496,720.215,473.205,720.801z     M473.748,692.1l-11.924,3.05l4.484,17.539l11.576-2.96c3.104-0.794,5.648-1.73,7.628-2.808c1.981-1.079,3.366-2.406,4.153-3.983    c0.785-1.575,0.891-3.496,0.311-5.76c-0.451-1.77-1.301-3.215-2.545-4.333c-1.244-1.12-2.75-1.809-4.516-2.068    C481.243,690.523,478.188,690.965,473.748,692.1z" />
		<path
   id="path75"
   d="M547.846,663.389l-27.098,12.995l6.992,14.581L552.691,679c1.837-0.881,3.404-1.125,4.705-0.736    c1.299,0.391,2.272,1.261,2.92,2.61c0.647,1.351,0.73,2.664,0.246,3.941c-0.482,1.279-1.656,2.364-3.52,3.258l-24.951,11.966    l8.1,16.891l28.03-13.441c1.89-0.907,3.524-1.149,4.903-0.733c1.381,0.419,2.42,1.356,3.119,2.814    c0.674,1.404,0.74,2.775,0.203,4.112c-0.537,1.339-1.752,2.46-3.643,3.365l-32.688,15.676c-2.619,1.257-4.78,1.579-6.484,0.968    c-1.705-0.61-3.18-2.212-4.422-4.804l-21.406-44.638c-0.828-1.728-1.25-3.263-1.26-4.603c-0.012-1.34,0.41-2.521,1.264-3.545    c0.855-1.023,2.132-1.943,3.833-2.76l31.756-15.229c1.917-0.918,3.547-1.177,4.886-0.772s2.34,1.294,3,2.671    c0.672,1.404,0.748,2.756,0.225,4.054C550.982,661.361,549.764,662.469,547.846,663.389z" />
		<path
   id="path77"
   d="M594.975,631.715l-11.765,8.569l28.169,38.671c1.621,2.228,2.33,4.24,2.121,6.04c-0.208,1.801-1.098,3.273-2.671,4.42    c-1.598,1.163-3.296,1.567-5.094,1.21c-1.799-0.357-3.5-1.637-5.104-3.841l-28.168-38.67l-11.765,8.569    c-1.841,1.34-3.504,1.931-4.989,1.772c-1.486-0.158-2.715-0.903-3.684-2.235c-1.007-1.38-1.334-2.809-0.982-4.286    c0.349-1.478,1.408-2.859,3.174-4.147l34.277-24.969c1.863-1.357,3.551-1.955,5.057-1.794c1.508,0.163,2.746,0.909,3.717,2.24    c0.969,1.332,1.289,2.737,0.961,4.22C597.898,628.966,596.814,630.375,594.975,631.715z" />
		<path
   id="path79"
   d="M632.664,592.665l-20.674,21.813l11.738,11.125l19.035-20.085c1.4-1.478,2.777-2.266,4.131-2.366    c1.354-0.1,2.574,0.366,3.66,1.396c1.088,1.03,1.633,2.228,1.638,3.594s-0.704,2.801-2.124,4.299l-19.037,20.085l13.596,12.886    l21.385-22.563c1.441-1.521,2.883-2.332,4.32-2.435c1.438-0.101,2.742,0.403,3.916,1.515c1.131,1.073,1.684,2.329,1.66,3.77    c-0.025,1.441-0.76,2.923-2.202,4.444l-24.938,26.312c-1.999,2.108-3.903,3.182-5.714,3.22c-1.81,0.038-3.758-0.932-5.845-2.91    l-35.931-34.054c-1.391-1.318-2.331-2.602-2.82-3.849c-0.488-1.248-0.516-2.502-0.084-3.764c0.433-1.261,1.297-2.577,2.594-3.946    l24.229-25.562c1.463-1.544,2.893-2.366,4.287-2.467c1.396-0.102,2.647,0.374,3.757,1.425c1.13,1.072,1.683,2.306,1.655,3.705    C634.871,589.65,634.127,591.122,632.664,592.665z" />
	</g>
	<g
   id="g81">
		<path
   id="path83"
   d="M127.775,179.295l46.147,5.9l-29.677-25.567c-1.928-1.661-3.018-3.321-3.269-4.981c-0.251-1.658,0.229-3.191,1.441-4.598    c1.251-1.452,2.721-2.182,4.408-2.191c1.688-0.008,3.496,0.818,5.424,2.479l39.241,33.807c4.379,3.772,5.004,7.474,1.877,11.104    c-0.782,0.908-1.617,1.612-2.502,2.113c-0.887,0.501-1.887,0.826-3.001,0.972c-1.114,0.147-2.286,0.165-3.516,0.054    c-1.229-0.11-2.475-0.235-3.739-0.375l-45.396-6.083l29.235,25.186c1.906,1.642,2.966,3.326,3.179,5.051s-0.277,3.28-1.469,4.664    c-1.231,1.429-2.712,2.15-4.442,2.162c-1.73,0.012-3.536-0.793-5.419-2.416l-38.492-33.161c-1.634-1.408-2.759-2.693-3.377-3.858    c-0.65-1.311-0.868-2.744-0.654-4.299c0.213-1.555,0.819-2.912,1.815-4.069c0.782-0.907,1.599-1.557,2.451-1.95    c0.852-0.392,1.738-0.617,2.657-0.675c0.919-0.058,1.996,0,3.23,0.174C125.161,178.911,126.444,179.097,127.775,179.295z" />
		<path
   id="path85"
   d="M203.636,113.34l-23.773,18.386l9.894,12.792l21.89-16.929c1.61-1.246,3.092-1.814,4.445-1.706    c1.353,0.109,2.487,0.756,3.403,1.94c0.916,1.185,1.271,2.452,1.067,3.803c-0.205,1.351-1.124,2.658-2.759,3.922l-21.889,16.929    l11.46,14.818l24.59-19.018c1.658-1.282,3.206-1.863,4.642-1.744c1.437,0.12,2.649,0.819,3.639,2.098    c0.953,1.232,1.306,2.559,1.061,3.978c-0.246,1.421-1.198,2.772-2.856,4.054l-28.676,22.178c-2.298,1.777-4.344,2.546-6.139,2.306    c-1.795-0.239-3.571-1.497-5.331-3.771l-30.285-39.159c-1.172-1.516-1.905-2.928-2.197-4.235    c-0.292-1.308-0.127-2.551,0.493-3.732c0.621-1.18,1.677-2.348,3.169-3.502l27.859-21.546c1.682-1.301,3.22-1.894,4.614-1.78    c1.395,0.114,2.559,0.775,3.494,1.984c0.953,1.232,1.309,2.537,1.068,3.915C206.279,110.7,205.317,112.04,203.636,113.34z" />
		<path
   id="path87"
   d="M234.917,126.143l-13.942-28.436c-1.187-2.42-1.532-4.502-1.036-6.246c0.496-1.744,1.631-3.051,3.405-3.921    c1.855-0.91,3.625-1.026,5.307-0.351c1.683,0.676,3.117,2.224,4.304,4.645l14.259,29.081c1.622,3.307,3.346,5.889,5.173,7.745    c1.827,1.856,3.982,2.934,6.464,3.234c2.482,0.301,5.417-0.379,8.806-2.041c4.679-2.294,7.376-5.159,8.093-8.596    c0.717-3.436-0.165-7.682-2.644-12.738l-14.377-29.323c-1.2-2.446-1.555-4.532-1.066-6.256c0.489-1.723,1.634-3.027,3.436-3.911    c1.801-0.883,3.554-1,5.256-0.351c1.703,0.65,3.154,2.198,4.354,4.645l13.942,28.436c2.268,4.625,3.709,8.705,4.325,12.239    c0.615,3.534,0.246,7.083-1.107,10.649c-1.176,3.045-2.964,5.724-5.366,8.035c-2.402,2.312-5.513,4.404-9.331,6.276    c-4.544,2.229-8.698,3.656-12.459,4.283c-3.762,0.627-7.183,0.419-10.262-0.623c-3.079-1.042-5.89-2.932-8.434-5.67    C239.472,134.208,237.106,130.606,234.917,126.143z" />
		<path
   id="path89"
   d="M331.647,60.045l-14.073,3.713l12.205,46.259c0.703,2.664,0.63,4.797-0.217,6.398c-0.848,1.602-2.212,2.651-4.094,3.148    c-1.912,0.504-3.64,0.263-5.185-0.723c-1.546-0.986-2.666-2.796-3.361-5.432l-12.205-46.259l-14.073,3.713    c-2.201,0.581-3.965,0.528-5.292-0.16c-1.328-0.687-2.201-1.827-2.622-3.42c-0.436-1.651-0.222-3.101,0.641-4.351    c0.862-1.25,2.351-2.153,4.465-2.711l41.003-10.818c2.229-0.588,4.018-0.533,5.363,0.165c1.346,0.698,2.229,1.844,2.648,3.436    c0.42,1.593,0.208,3.02-0.636,4.28C335.371,58.545,333.848,59.465,331.647,60.045z" />
		<path
   id="path91"
   d="M369.925,81.985l-4.662,0.312l1.414,21.111c0.186,2.779-0.29,4.867-1.427,6.263c-1.138,1.397-2.691,2.162-4.664,2.293    c-2.122,0.142-3.811-0.436-5.069-1.731c-1.257-1.296-1.975-3.274-2.153-5.934l-3.385-50.559c-0.192-2.869,0.311-4.988,1.51-6.359    c1.198-1.37,3.232-2.152,6.101-2.344l21.649-1.45c2.987-0.2,5.551-0.244,7.69-0.132c2.138,0.112,4.085,0.5,5.841,1.163    c2.12,0.729,4.025,1.846,5.717,3.354c1.691,1.507,3.02,3.302,3.984,5.383c0.965,2.082,1.527,4.318,1.688,6.708    c0.328,4.901-0.792,8.908-3.359,12.021c-2.568,3.114-6.62,5.471-12.156,7.072c2.444,1.097,4.825,2.799,7.14,5.105    s4.41,4.785,6.283,7.436c1.873,2.651,3.355,5.059,4.445,7.221c1.091,2.163,1.664,3.664,1.72,4.5    c0.058,0.867-0.161,1.744-0.656,2.633c-0.497,0.889-1.206,1.611-2.129,2.168c-0.924,0.557-2.012,0.877-3.268,0.962    c-1.494,0.1-2.772-0.167-3.835-0.801c-1.063-0.634-1.997-1.465-2.801-2.492c-0.805-1.026-1.904-2.543-3.299-4.551l-5.928-8.518    c-2.131-3.128-4.008-5.495-5.63-7.097c-1.623-1.602-3.233-2.665-4.828-3.188C374.264,82.01,372.285,81.828,369.925,81.985z     M375.696,53.865l-12.281,0.822l1.209,18.063l11.922-0.798c3.197-0.214,5.868-0.67,8.012-1.369    c2.144-0.699,3.747-1.751,4.809-3.158c1.061-1.406,1.514-3.276,1.358-5.606c-0.122-1.822-0.693-3.398-1.712-4.725    c-1.02-1.328-2.374-2.279-4.063-2.857C383.353,53.683,380.268,53.559,375.696,53.865z" />
		<path
   id="path93"
   d="M456.117,106.354l-2.003-8.614l-26.53-3.604l-4.253,7.945c-1.66,3.1-2.998,5.162-4.014,6.187    c-1.016,1.025-2.503,1.405-4.461,1.139c-1.662-0.226-3.049-1.034-4.159-2.423c-1.111-1.39-1.562-2.856-1.352-4.4    c0.121-0.89,0.394-1.79,0.819-2.699c0.426-0.909,1.095-2.164,2.008-3.762l22.448-40.109c0.64-1.152,1.409-2.536,2.309-4.151    s1.805-2.936,2.715-3.961c0.909-1.025,2.027-1.802,3.354-2.333c1.326-0.53,2.895-0.672,4.705-0.426    c1.84,0.25,3.328,0.808,4.465,1.672c1.137,0.865,2.009,1.897,2.617,3.098c0.607,1.201,1.085,2.467,1.433,3.799    c0.348,1.332,0.78,3.105,1.295,5.321l11.329,44.425c0.9,3.386,1.251,5.807,1.054,7.261c-0.206,1.514-1.024,2.815-2.457,3.905    c-1.433,1.09-3.039,1.514-4.819,1.272c-1.039-0.141-1.904-0.448-2.596-0.919c-0.691-0.472-1.246-1.061-1.664-1.767    s-0.826-1.759-1.226-3.159C456.734,108.652,456.396,107.42,456.117,106.354z M432.404,84.683l19.497,2.648l-6.18-28.267    L432.404,84.683z" />
		<path
   id="path95"
   d="M503.662,65.711l-15.255,45.439l25.638,8.606c2.044,0.687,3.445,1.71,4.205,3.07c0.759,1.361,0.887,2.793,0.382,4.298    c-0.516,1.533-1.472,2.594-2.87,3.183s-3.134,0.535-5.206-0.161l-30.534-10.25c-2.754-0.925-4.529-2.2-5.325-3.826    c-0.798-1.625-0.738-3.802,0.177-6.527l16.141-48.08c0.858-2.555,2.076-4.278,3.655-5.17c1.578-0.892,3.305-1.023,5.179-0.394    c1.901,0.639,3.229,1.788,3.984,3.446C504.586,61.006,504.529,63.128,503.662,65.711z" />
		<path
   id="path97"
   d="M524.092,129.056l22.798-46.608c1.185-2.421,2.624-3.968,4.319-4.639s3.417-0.579,5.166,0.276    c1.802,0.882,2.969,2.195,3.5,3.938c0.53,1.743,0.197,3.839-1,6.287l-22.798,46.608c-1.197,2.448-2.651,4.004-4.359,4.668    c-1.709,0.665-3.464,0.556-5.267-0.326c-1.722-0.842-2.842-2.148-3.358-3.918C522.574,133.572,522.908,131.477,524.092,129.056z" />
		<path
   id="path99"
   d="M608.601,123.684l-12.108-8.076l-26.548,39.8c-1.528,2.292-3.174,3.652-4.935,4.079s-3.451,0.101-5.07-0.979    c-1.645-1.097-2.61-2.551-2.896-4.361c-0.287-1.811,0.326-3.85,1.839-6.117l26.547-39.8l-12.108-8.077    c-1.894-1.263-3.023-2.619-3.388-4.068c-0.365-1.45-0.091-2.859,0.823-4.23c0.947-1.42,2.175-2.221,3.683-2.404    c1.507-0.183,3.17,0.333,4.989,1.546l35.278,23.531c1.919,1.28,3.063,2.655,3.432,4.125c0.369,1.47,0.097,2.891-0.816,4.261    c-0.915,1.371-2.123,2.157-3.627,2.36S610.493,124.946,608.601,123.684z" />
		<path
   id="path101"
   d="M616.646,194.682l3.418-8.156l-19.4-18.452l-8.099,3.953c-3.161,1.541-5.453,2.43-6.876,2.667    c-1.424,0.236-2.853-0.326-4.284-1.688c-1.216-1.156-1.866-2.623-1.953-4.399c-0.088-1.777,0.406-3.23,1.479-4.358    c0.619-0.651,1.367-1.22,2.245-1.708c0.877-0.488,2.153-1.114,3.829-1.875l41.679-19.378c1.193-0.56,2.628-1.23,4.303-2.015    c1.675-0.783,3.182-1.324,4.52-1.623c1.337-0.298,2.698-0.274,4.085,0.073c1.385,0.346,2.739,1.149,4.063,2.408    c1.346,1.279,2.226,2.603,2.642,3.969c0.415,1.366,0.518,2.714,0.308,4.043c-0.21,1.33-0.564,2.636-1.062,3.919    c-0.498,1.284-1.186,2.974-2.065,5.072l-16.82,42.65c-1.252,3.272-2.384,5.44-3.396,6.503c-1.053,1.107-2.479,1.683-4.277,1.728    c-1.8,0.044-3.351-0.552-4.652-1.79c-0.76-0.723-1.282-1.478-1.566-2.265c-0.284-0.788-0.39-1.589-0.314-2.407    c0.074-0.817,0.359-1.91,0.855-3.278C615.801,196.907,616.247,195.709,616.646,194.682z M610.105,163.23l14.258,13.56    l11.536-26.535L610.105,163.23z" />
	</g>
</g><g
     id="Layer_2">
	<g
   id="g104">
		<g
   id="g106">
			<path
   id="path108"
   d="M399.368,143.972c-137.567,0-249.087,111.52-249.087,249.087s111.52,249.087,249.087,249.087     s249.087-111.52,249.087-249.087S536.936,143.972,399.368,143.972z M399.368,616.742c-123.536,0-223.683-100.146-223.683-223.683     c0-123.537,100.146-223.683,223.683-223.683c123.537,0,223.683,100.146,223.683,223.683     C623.051,516.597,522.905,616.742,399.368,616.742z" />
		</g>
		<g
   id="g110">
			<path
   id="path112"
   d="M399.368,143.972c-137.567,0-249.087,111.52-249.087,249.087s111.52,249.087,249.087,249.087     s249.087-111.52,249.087-249.087S536.936,143.972,399.368,143.972z M399.368,616.742c-123.536,0-223.683-100.146-223.683-223.683     c0-123.537,100.146-223.683,223.683-223.683c123.537,0,223.683,100.146,223.683,223.683     C623.051,516.597,522.905,616.742,399.368,616.742z"
   fill="none" />
		</g>
	</g>
</g></g>
</svg>