<?xml version="1.0" encoding="UTF-8" standalone="no"?>
<!-- Created with Inkscape (http://www.inkscape.org/) -->

<svg
   xmlns:dc="http://purl.org/dc/elements/1.1/"
   xmlns:cc="http://creativecommons.org/ns#"
   xmlns:rdf="http://www.w3.org/1999/02/22-rdf-syntax-ns#"
   xmlns:svg="http://www.w3.org/2000/svg"
   xmlns="http://www.w3.org/2000/svg"
   xmlns:xlink="http://www.w3.org/1999/xlink"
   xmlns:sodipodi="http://sodipodi.sourceforge.net/DTD/sodipodi-0.dtd"
   xmlns:inkscape="http://www.inkscape.org/namespaces/inkscape"
   width="1052.3622"
   height="744.09448"
   id="svg3150"
   version="1.1"
   inkscape:version="0.48.0 r9654"
   sodipodi:docname="volantino ninux bianca.svg">
  <defs
     id="defs3152" />
  <sodipodi:namedview
     id="base"
     pagecolor="#ffffff"
     bordercolor="#666666"
     borderopacity="1.0"
     inkscape:pageopacity="0.0"
     inkscape:pageshadow="2"
     inkscape:zoom="0.49497475"
     inkscape:cx="240.77768"
     inkscape:cy="398.41798"
     inkscape:document-units="px"
     inkscape:current-layer="layer1"
     showgrid="false"
     inkscape:showpageshadow="false"
     showguides="false"
     inkscape:guide-bbox="true"
     inkscape:window-width="1280"
     inkscape:window-height="723"
     inkscape:window-x="0"
     inkscape:window-y="24"
     inkscape:window-maximized="1">
    <sodipodi:guide
       orientation="1,0"
       position="526.1811,744.09449"
       id="guide3218" />
    <sodipodi:guide
       orientation="0,1"
       position="0,690.945"
       id="guide3450" />
    <sodipodi:guide
       orientation="0,1"
       position="0,53.15"
       id="guide3452" />
    <sodipodi:guide
       orientation="1,0"
       position="53.149606,744.09449"
       id="guide3454" />
    <sodipodi:guide
       orientation="1,0"
       position="473.0315,744.09449"
       id="guide3456" />
    <sodipodi:guide
       orientation="1,0"
       position="1002.7559,744.09449"
       id="guide4363" />
    <sodipodi:guide
       orientation="1,0"
       position="579.33071,744.09449"
       id="guide4365" />
  </sodipodi:namedview>
  <metadata
     id="metadata3155">
    <rdf:RDF>
      <cc:Work
         rdf:about="">
        <dc:format>image/svg+xml</dc:format>
        <dc:type
           rdf:resource="http://purl.org/dc/dcmitype/StillImage" />
        <dc:title />
      </cc:Work>
    </rdf:RDF>
  </metadata>
  <g
     inkscape:label="Livello 1"
     inkscape:groupmode="layer"
     id="layer1"
     transform="translate(0,-308.2677)">
    <g
       id="g3134"
       transform="matrix(0.29920676,0,0,0.29920676,634.06924,528.51639)">
      <path
         inkscape:connector-curvature="0"
         id="path3115"
         d="m 60.772268,594.37316 c -3.40154,-3.40153 -12.74173,-3.3344 463.905582,-3.3344 441.91248,0 464.55688,0.0854 464.23628,1.75 -0.3203,1.66323 -23.3209,1.76245 -463.90556,2.00107 -254.96271,0.13809 -463.869052,-0.0494 -464.236302,-0.41667 z"
         style="fill:#f04b2a" />
      <g
         id="g3122">
        <g
           id="g3117">
          <path
             id="path3113"
             d="m 1064.2481,468.67314 c -1.961,-0.97767 -2.5264,-2.26368 -3.134,-7.12791 -2.6664,-21.34571 -18.1775,-38.46765 -34.8749,-38.4967 -6.8172,-0.0119 -10.8849,-2.60067 -10.8849,-6.92736 0,-4.22262 2.7842,-6.08432 9.0787,-6.07054 21.5589,0.0472 41.3048,16.90328 47.3827,40.44823 2.0986,8.12941 2.014,14.82161 -0.2114,16.73291 -2.7228,2.33849 -4.7572,2.73711 -7.3562,1.44137 z"
             style="fill:#f04b2a"
             inkscape:connector-curvature="0" />
          <path
             id="path3111"
             d="m 1123.2424,468.53912 c -3.2076,-1.74325 -4.3711,-4.69607 -5.9108,-15.00036 -5.0631,-33.88367 -23.1573,-60.31502 -52.305,-76.40488 -13.7227,-7.57512 -37.9457,-14.08008 -52.472,-14.0911 -9.4939,-0.007 -14.44656,-4.89904 -11.0708,-10.93473 1.2532,-2.24061 2.2004,-2.60995 7.4038,-2.88711 11.8263,-0.62993 34.6785,4.06891 50.1715,10.31621 40.6546,16.39325 66.0884,49.04123 72.8406,93.50161 1.8465,12.15806 1.8804,11.66513 -0.9999,14.54545 -2.7993,2.79923 -3.9906,2.94779 -7.6574,0.95491 z"
             style="fill:#f04b2a"
             inkscape:connector-curvature="0" />
          <path
             id="path3066"
             d="m 1090.5286,466.72431 c -1.4623,-1.5566 -2.18,-3.60312 -2.1917,-6.25 -0.1111,-25.19638 -22.0443,-54.52604 -47.1747,-63.08353 -5.185,-1.76562 -10.4537,-2.65866 -18.1373,-3.07426 -12.4144,-0.67149 -15.0039,-1.9089 -15.0039,-7.16955 0,-5.71368 2.0276,-6.6338 14.1311,-6.41273 37.7847,0.69013 69.3919,26.00335 78.8055,63.11292 3.0383,11.9772 3.1824,20.40585 0.3967,23.1916 -2.7854,2.78541 -8.0574,2.63227 -10.8257,-0.31445 z"
             style="fill:#f04b2a"
             inkscape:connector-curvature="0" />
        </g>
        <g
           transform="translate(-2.6696832e-6,1.2853729e-7)"
           id="g3044">
          <g
             transform="scale(0.97322852,1.0275079)"
             style="font-size:41.10031509px;font-style:normal;font-variant:normal;font-weight:normal;font-stretch:normal;text-align:start;line-height:125%;letter-spacing:0px;word-spacing:0px;writing-mode:lr-tb;text-anchor:start;fill:#f14623;fill-opacity:1;stroke:none;font-family:Space Age;-inkscape-font-specification:Space Age"
             id="text3068">
            <path
               d="m 25.778922,446.55177 c -2.29e-4,-3.77291 -0.524258,-7.86033 -1.572087,-12.26228 -0.838674,-4.61134 -2.62037,-8.80357 -5.345096,-12.57669 -2.51556,-3.77289 -6.078953,-6.91706 -10.6901921,-9.43253 -4.6116631,-2.72482 -10.4807824,-4.08729 -17.6073755,-4.08742 l -113.5046914,0 c -7.33648,1.3e-4 -13.3104,1.3626 -17.92179,4.08742 -4.4019,2.51547 -7.9653,5.65964 -10.69019,9.43253 -2.51539,3.77312 -4.29709,7.96535 -5.3451,12.57669 -0.83849,4.40195 -1.25771,8.48937 -1.25767,12.26228 l 0,53.45096 c -4e-5,4.19227 -1.46732,7.75566 -4.40184,10.6902 -2.9346,2.93458 -6.498,4.40186 -10.69019,4.40184 -4.19226,2e-5 -7.75566,-1.46726 -10.6902,-4.40184 -2.93458,-2.93454 -4.40186,-6.49793 -4.40184,-10.6902 l 0,-53.45096 c -2e-5,-7.96514 1.25765,-15.93037 3.77301,-23.89572 2.72493,-8.17473 6.60274,-15.51113 11.63344,-22.00922 5.03065,-6.70743 11.10938,-12.15733 18.23621,-16.34971 7.12674,-4.19207 15.19678,-6.28819 24.21014,-6.28835 l 131.7409037,0 c 8.5938622,0.41939 16.2446783,2.82992 22.9524713,7.23161 6.707337,4.19238 12.366845,9.53747 16.978541,16.03528 4.820817,6.49809 8.489017,13.72969 11.00461,21.69481 2.51508,7.96534 3.772749,15.82577 3.773009,23.5813 l 0,53.45096 c -2.6e-4,4.19227 -1.46754,7.75566 -4.401844,10.6902 -2.934815,2.93458 -6.498209,4.40186 -10.690192,4.40184 -4.192473,2e-5 -7.755867,-1.46726 -10.690193,-4.40184 -2.934794,-2.93454 -4.402073,-6.49793 -4.401844,-10.6902 l 0,-53.45096 0,0"
               style="font-size:314.41741943px;fill:#f14623"
               id="path4199" />
            <path
               d="m 117.57407,500.00273 c -4e-5,4.19227 -1.46732,7.75566 -4.40184,10.6902 -2.9346,2.93458 -6.498,4.40186 -10.69019,4.40184 -4.192263,2e-5 -7.755657,-1.46726 -10.690197,-4.40184 -2.93458,-2.93454 -4.401859,-6.49793 -4.401844,-10.6902 l 0,-106.90192 c -1.5e-5,-4.19208 1.467264,-7.75548 4.401844,-10.69019 2.93454,-2.93441 6.497934,-4.40169 10.690197,-4.40185 4.19219,1.6e-4 7.75559,1.46744 10.69019,4.40185 2.93452,2.93471 4.4018,6.49811 4.40184,10.69019 l 0,106.90192 0,0"
               style="font-size:314.41741943px;fill:#f14623"
               id="path4201" />
            <path
               d="m 362.9179,446.55177 c -2.3e-4,-3.77291 -0.52426,-7.86033 -1.57209,-12.26228 -0.83867,-4.61134 -2.62037,-8.80357 -5.34509,-12.57669 -2.51556,-3.77289 -6.07896,-6.91706 -10.6902,-9.43253 -4.61166,-2.72482 -10.48078,-4.08729 -17.60737,-4.08742 l -113.50469,0 c -7.33648,1.3e-4 -13.31041,1.3626 -17.92179,4.08742 -4.40191,2.51547 -7.9653,5.65964 -10.6902,9.43253 -2.51538,3.77312 -4.29708,7.96535 -5.34509,12.57669 -0.83849,4.40195 -1.25772,8.48937 -1.25767,12.26228 l 0,53.45096 c -5e-5,4.19227 -1.46733,7.75566 -4.40184,10.6902 -2.93461,2.93458 -6.498,4.40186 -10.6902,4.40184 -4.19226,2e-5 -7.75565,-1.46726 -10.69019,-4.40184 -2.93458,-2.93454 -4.40186,-6.49793 -4.40184,-10.6902 l 0,-53.45096 c -2e-5,-7.96514 1.25765,-15.93037 3.77301,-23.89572 2.72492,-8.17473 6.60274,-15.51113 11.63344,-22.00922 5.03064,-6.70743 11.10937,-12.15733 18.23621,-16.34971 7.12674,-4.19207 15.19678,-6.28819 24.21014,-6.28835 l 131.7409,0 c 8.59386,0.41939 16.24468,2.82992 22.95247,7.23161 6.70734,4.19238 12.36685,9.53747 16.97854,16.03528 4.82082,6.49809 8.48902,13.72969 11.00461,21.69481 2.51508,7.96534 3.77275,15.82577 3.77301,23.5813 l 0,53.45096 c -2.6e-4,4.19227 -1.46754,7.75566 -4.40184,10.6902 -2.93482,2.93458 -6.49821,4.40186 -10.69019,4.40184 -4.19248,2e-5 -7.75587,-1.46726 -10.6902,-4.40184 -2.93479,-2.93454 -4.40207,-6.49793 -4.40184,-10.6902 l 0,-53.45096 0,0"
               style="font-size:314.41741943px;fill:#f14623"
               id="path4203" />
            <path
               d="m 454.71308,446.55177 c -5e-5,3.7731 0.41918,7.96533 1.25767,12.5767 1.04801,4.40192 2.82971,8.48934 5.3451,12.26228 2.72489,3.77307 6.28828,7.02205 10.69019,9.74694 4.61138,2.51539 10.58531,3.77306 17.92179,3.77301 l 125.13813,0 c 7.12658,5e-5 12.9957,-1.25762 17.60738,-3.77301 4.61123,-2.72489 8.17462,-5.97387 10.69019,-9.74694 2.72471,-3.77294 4.50641,-7.86036 5.3451,-12.26228 1.04781,-4.61137 1.57184,-8.8036 1.57208,-12.5767 l 0,-53.45096 c -2.4e-4,-4.19208 1.46704,-7.75548 4.40185,-10.69019 2.93431,-2.93441 6.49771,-4.40169 10.69019,-4.40185 4.19197,1.6e-4 7.75537,1.46744 10.69019,4.40185 2.93429,2.93471 4.40157,6.49811 4.40185,10.69019 l 0,53.45096 c -2.8e-4,7.96533 -1.36275,16.03537 -4.08743,24.21014 -2.5156,7.9653 -6.28861,15.3017 -11.31903,22.00922 -5.03093,6.498 -11.10966,11.84309 -18.23621,16.03529 -7.12702,4.19226 -15.19706,6.28837 -24.21014,6.28835 l -143.37434,0 c -8.59414,-0.4192 -16.24496,-2.72493 -22.95247,-6.91718 -6.70762,-4.40181 -12.47193,-9.85171 -17.29296,-16.34971 -4.61148,-6.49791 -8.17488,-13.7295 -10.69019,-21.6948 -2.51536,-7.96517 -3.77303,-15.82559 -3.77301,-23.58131 l 0,-53.45096 c -2e-5,-4.19208 1.46726,-7.75548 4.40184,-10.69019 2.93454,-2.93441 6.49793,-4.40169 10.69019,-4.40185 4.1922,1.6e-4 7.75559,1.46744 10.6902,4.40185 2.93451,2.93471 4.40179,6.49811 4.40184,10.69019 l 0,53.45096 0,0"
               style="font-size:314.41741943px;fill:#f14623"
               id="path4205" />
            <path
               d="m 949.62573,515.09477 c -0.8387,2e-5 -1.57234,2e-5 -2.20092,0 -0.62909,-0.20959 -1.36273,-0.4192 -2.20092,-0.62884 -9.22315,-1.88647 -18.23644,-5.03065 -27.0399,-9.43252 -8.8039,-4.4018 -16.66433,-9.64209 -23.58131,-15.72087 -6.91737,-6.07868 -12.47207,-12.78625 -16.66412,-20.12271 -4.19241,-7.54595 -6.28852,-15.09196 -6.28835,-22.63806 -1.7e-4,-7.54592 2.09594,-14.98712 6.28835,-22.32363 4.19205,-7.33629 9.74675,-14.04385 16.66412,-20.12272 6.91698,-6.28821 14.77741,-11.6333 23.58131,-16.03529 8.80346,-4.40169 17.81675,-7.54586 27.0399,-9.43252 0.83819,-0.20945 1.57183,-0.31426 2.20092,-0.31442 0.62858,-0.20945 1.36222,-0.31426 2.20092,-0.31442 4.19198,1.6e-4 7.75537,1.46744 10.69019,4.40185 2.9343,2.93471 4.40158,6.49811 4.40185,10.69019 -2.7e-4,3.98276 -1.36274,7.33654 -4.08743,10.06136 -2.72521,2.51547 -6.07899,4.19236 -10.06136,5.03068 -6.4982,1.46741 -12.68174,3.56352 -18.55062,6.28835 -5.86936,2.72507 -11.10964,5.86924 -15.72087,9.43252 -4.40206,3.35389 -7.96546,7.02209 -10.6902,11.00461 -2.51554,3.77311 -3.77321,7.65092 -3.77301,11.63344 -2e-4,3.98271 1.25747,7.96533 3.77301,11.94786 2.72474,3.9827 6.28814,7.75571 10.6902,11.31903 4.61123,3.35385 9.85151,6.39322 15.72087,9.11811 5.86888,2.725 12.05242,4.71631 18.55062,5.97393 3.98237,0.8385 7.33615,2.62019 10.06136,5.34509 2.72469,2.51539 4.08716,5.76436 4.08743,9.74694 -2.7e-4,4.19227 -1.46755,7.75566 -4.40185,10.6902 -2.93482,2.93458 -6.49821,4.40186 -10.69019,4.40184 m -130.79764,-68.543 c -1.3e-4,-5.4498 1.88638,-10.06125 5.65951,-13.83436 3.77288,-3.7729 8.38433,-5.65941 13.83437,-5.65952 5.44975,1.1e-4 10.0612,1.88662 13.83436,5.65952 3.77285,3.77311 5.65935,8.38456 5.65952,13.83436 -1.7e-4,5.44999 -1.88667,10.06144 -5.65952,13.83437 -3.77316,3.77308 -8.38461,5.65958 -13.83436,5.65951 -5.45004,7e-5 -10.06149,-1.88643 -13.83437,-5.65951 -3.77313,-3.77293 -5.65964,-8.38438 -5.65951,-13.83437 m -91.80989,68.543 c -4.19226,2e-5 -7.75565,-1.46726 -10.69019,-4.40184 -2.93458,-2.93454 -4.40186,-6.49793 -4.40185,-10.6902 -10e-6,-3.98258 1.36246,-7.23155 4.08743,-9.74694 2.72493,-2.7249 6.07871,-4.50659 10.06136,-5.34509 6.49792,-1.25762 12.68146,-3.24893 18.55062,-5.97393 5.86908,-2.72489 11.00455,-5.76426 15.40646,-9.11811 4.61138,-3.56332 8.17478,-7.33633 10.69019,-11.31903 2.72487,-3.98253 4.08735,-7.96515 4.08743,-11.94786 -8e-5,-3.98252 -1.36256,-7.86033 -4.08743,-11.63344 -2.51541,-3.98252 -6.07881,-7.65072 -10.69019,-11.00461 -4.40191,-3.56328 -9.53738,-6.70745 -15.40646,-9.43252 -5.86916,-2.72483 -12.0527,-4.82094 -18.55062,-6.28835 -3.98265,-0.83832 -7.33643,-2.51521 -10.06136,-5.03068 -2.72497,-2.72482 -4.08744,-6.0786 -4.08743,-10.06136 -10e-6,-4.19208 1.46727,-7.75548 4.40185,-10.69019 2.93454,-2.93441 6.49793,-4.40169 10.69019,-4.40185 0.83841,1.6e-4 1.57205,0.10497 2.20092,0.31442 0.6288,1.6e-4 1.36244,0.10497 2.20092,0.31442 9.22287,1.88666 18.23616,5.03083 27.0399,9.43252 8.80362,4.40199 16.66405,9.74708 23.58131,16.03529 6.91709,6.07887 12.47179,12.78643 16.66412,20.12272 4.19213,7.33651 6.28824,14.77771 6.28835,22.32363 -1.1e-4,7.5461 -2.09622,15.09211 -6.28835,22.63806 -4.19233,7.33646 -9.74703,14.04403 -16.66412,20.12271 -6.91726,6.07878 -14.77769,11.31907 -23.58131,15.72087 -8.80374,4.40187 -17.81703,7.54605 -27.0399,9.43252 -0.83848,0.20964 -1.57212,0.41925 -2.20092,0.62884 -0.62887,2e-5 -1.36251,2e-5 -2.20092,0"
               style="font-size:314.41741943px;fill:#f14623"
               id="path4207" />
          </g>
          <g
             style="font-size:40px;font-style:normal;font-variant:normal;font-weight:normal;font-stretch:normal;text-align:start;line-height:125%;letter-spacing:0px;word-spacing:0px;writing-mode:lr-tb;text-anchor:start;fill:#f14623;fill-opacity:1;stroke:none;font-family:Space Age;-inkscape-font-specification:Space Age"
             id="text3068-4">
            <path
               d="m 954.30277,521.74393 c 0,-1.69865 0.588,-3.13599 1.764,-4.312 1.17599,-1.17598 2.61333,-1.76398 4.312,-1.764 1.69865,2e-5 3.13599,0.58802 4.312,1.764 1.17598,1.17601 1.76398,2.61335 1.764,4.312 -2e-5,1.69868 -0.58802,3.13601 -1.764,4.312 -1.17601,1.17601 -2.61335,1.764 -4.312,1.764 -1.69867,0 -3.13601,-0.58799 -4.312,-1.764 -1.176,-1.17599 -1.764,-2.61332 -1.764,-4.312"
               style="font-size:98px;fill:#f14623"
               id="path4210" />
            <path
               d="m 1035.9965,517.03993 c 2.2213,2e-5 4.0506,-0.39198 5.488,-1.176 1.4373,-0.84932 2.5479,-1.86198 3.332,-3.038 0.8492,-1.17598 1.4046,-2.44998 1.666,-3.822 0.3266,-1.43731 0.4899,-2.74397 0.49,-3.92 -10e-5,-1.17597 -0.1634,-2.44997 -0.49,-3.822 -0.2614,-1.4373 -0.8168,-2.74397 -1.666,-3.92 -0.7841,-1.17596 -1.8947,-2.15596 -3.332,-2.94 -1.4374,-0.84929 -3.2667,-1.27396 -5.488,-1.274 l -39.59201,0 c -2.28669,4e-5 -4.14869,0.42471 -5.586,1.274 -1.37202,0.78404 -2.48268,1.76404 -3.332,2.94 -0.78402,1.17603 -1.33935,2.4827 -1.666,3.92 -0.26135,1.37203 -0.39201,2.64603 -0.392,3.822 -10e-6,1.17603 0.13065,2.48269 0.392,3.92 0.32665,1.37202 0.88198,2.64602 1.666,3.822 0.84932,1.17602 1.95998,2.18868 3.332,3.038 1.43731,0.78402 3.29931,1.17602 5.586,1.176 l 39.59201,0 0,0 m 20.09,-11.956 c -10e-5,2.48269 -0.4248,4.99802 -1.274,7.546 -0.7841,2.48268 -1.9601,4.76935 -3.528,6.86 -1.5681,2.02534 -3.4628,3.69134 -5.684,4.998 -2.2214,1.30667 -4.7367,1.96001 -7.546,1.96 l -44.68801,0 c -2.67869,-0.13066 -5.06335,-0.84933 -7.154,-2.156 -2.09068,-1.37199 -3.88734,-3.07066 -5.39,-5.096 -1.43734,-2.02532 -2.54801,-4.27932 -3.332,-6.762 -0.78401,-2.48264 -1.17601,-4.93264 -1.176,-7.35 -10e-6,-2.48264 0.39199,-4.9653 1.176,-7.448 0.84933,-2.54796 2.05799,-4.83463 3.626,-6.86 1.56799,-2.09062 3.46265,-3.78929 5.684,-5.096 2.22132,-1.30662 4.73665,-1.95995 7.546,-1.96 l 44.68801,0 c 2.6786,0.13072 5.0633,0.88205 7.154,2.254 2.0906,1.30671 3.8546,2.97271 5.292,4.998 1.5026,2.02537 2.6459,4.27937 3.43,6.762 0.7839,2.4827 1.1759,4.9327 1.176,7.35"
               style="font-size:98px;fill:#f14623"
               id="path4212" />
            <path
               d="m 1128.9066,509.78793 c 1.7639,1.11069 3.5606,2.31935 5.39,3.626 1.8293,1.24135 3.6913,2.61335 5.586,4.116 0.7186,0.52268 1.3393,1.14335 1.862,1.862 0.5226,0.65335 0.7839,1.43734 0.784,2.352 -1e-4,1.30668 -0.4574,2.41734 -1.372,3.332 -0.9147,0.91467 -2.0254,1.37201 -3.332,1.372 -1.1107,10e-6 -2.2214,-0.45733 -3.332,-1.372 -2.6787,-1.95999 -5.4227,-3.85466 -8.232,-5.684 -2.8094,-1.82932 -5.7494,-3.46265 -8.82,-4.9 -3.0054,-1.43731 -6.1414,-2.58065 -9.408,-3.43 -3.2667,-0.84931 -6.664,-1.27398 -10.192,-1.274 l -19.502,0 c -0.8493,0.13069 -1.568,0.52269 -2.156,1.176 -0.588,0.65335 -0.882,1.47002 -0.882,2.45 l 0,8.33 c 0,1.30668 -0.49,2.41734 -1.47,3.332 -0.9147,0.91467 -1.9927,1.37201 -3.234,1.372 -1.3067,10e-6 -2.4173,-0.45733 -3.332,-1.372 -0.9147,-0.91466 -1.372,-2.02532 -1.372,-3.332 l 0,-9.408 c 0,-1.63331 0.294,-3.16864 0.882,-4.606 0.6533,-1.50264 1.5027,-2.77664 2.548,-3.822 1.0453,-1.11064 2.2867,-1.95997 3.724,-2.548 1.4373,-0.6533 3.0053,-0.97997 4.704,-0.98 l 51.94,0 c 0.9799,3e-5 1.8293,-0.32663 2.548,-0.98 0.7839,-0.71863 1.1759,-1.60063 1.176,-2.646 -10e-5,-0.97996 -0.3921,-1.8293 -1.176,-2.548 -0.7187,-0.71863 -1.5681,-1.07796 -2.548,-1.078 l -59.094,0 c -1.3067,4e-5 -2.4173,-0.45729 -3.332,-1.372 -0.9147,-0.91463 -1.372,-2.02529 -1.372,-3.332 0,-1.30662 0.4573,-2.41729 1.372,-3.332 0.9147,-0.91462 2.0253,-1.37195 3.332,-1.372 l 58.702,0 c 1.8293,5e-5 3.5279,0.35938 5.096,1.078 1.6333,0.65338 3.0379,1.56805 4.214,2.744 1.2413,1.17604 2.1886,2.54804 2.842,4.116 0.7186,1.56804 1.0779,3.2667 1.078,5.096 -1e-4,1.82937 -0.3594,3.52803 -1.078,5.096 -0.6534,1.56803 -1.6007,2.94003 -2.842,4.116 -1.1761,1.17603 -2.5807,2.12336 -4.214,2.842 -1.5681,0.65336 -3.2667,0.98002 -5.096,0.98 l -0.392,0 0,0"
               style="font-size:98px;fill:#f14623"
               id="path4214" />
            <path
               d="m 1178.2802,505.08393 c 0,-1.30664 0.4573,-2.4173 1.372,-3.332 0.9147,-0.91464 2.0253,-1.37197 3.332,-1.372 l 37.534,0 c 1.6333,3e-5 3.1686,0.3267 4.606,0.98 1.4373,0.58803 2.6786,1.43736 3.724,2.548 1.1106,1.04536 1.96,2.31936 2.548,3.822 0.588,1.43736 0.882,2.97269 0.882,4.606 l 0,2.156 c 0,1.63335 -0.294,3.20135 -0.882,4.704 -0.588,1.43735 -1.4374,2.71134 -2.548,3.822 -1.0454,1.04534 -2.2867,1.89467 -3.724,2.548 -1.4374,0.58801 -2.9727,0.88201 -4.606,0.882 l -51.058,0 c -2.6786,10e-6 -5.0633,-0.65333 -7.154,-1.96 -2.0906,-1.30666 -3.8873,-2.97266 -5.39,-4.998 -1.4373,-2.09065 -2.548,-4.40998 -3.332,-6.958 -0.784,-2.54798 -1.176,-5.03064 -1.176,-7.448 0,-2.48264 0.392,-4.9653 1.176,-7.448 0.8494,-2.54796 2.058,-4.83463 3.626,-6.86 1.568,-2.09062 3.4627,-3.78929 5.684,-5.096 2.2214,-1.30662 4.7367,-1.95995 7.546,-1.96 l 57.134,0 c 1.3066,5e-5 2.4173,0.45738 3.332,1.372 0.9146,0.91471 1.372,2.02538 1.372,3.332 0,1.30671 -0.4574,2.41737 -1.372,3.332 -0.9147,0.91471 -2.0254,1.37204 -3.332,1.372 l -54.978,0 c -2.2866,4e-5 -4.1486,0.42471 -5.586,1.274 -1.372,0.78404 -2.4826,1.76404 -3.332,2.94 -0.784,1.17603 -1.3393,2.4827 -1.666,3.92 -0.2613,1.37203 -0.392,2.64603 -0.392,3.822 0,1.17603 0.1307,2.48269 0.392,3.92 0.3267,1.37202 0.882,2.64602 1.666,3.822 0.8494,1.17602 1.96,2.18868 3.332,3.038 1.4374,0.78402 3.2994,1.17602 5.586,1.176 l 47.53,0 c 0.784,2e-5 1.47,-0.35932 2.058,-1.078 0.6533,-0.71865 0.98,-1.56798 0.98,-2.548 0,-0.97998 -0.294,-1.82931 -0.882,-2.548 -0.5227,-0.71864 -1.2414,-1.07798 -2.156,-1.078 l -37.142,0 c -1.3067,2e-5 -2.4173,-0.45731 -3.332,-1.372 -0.9147,-0.91464 -1.372,-2.02531 -1.372,-3.332"
               style="font-size:98px;fill:#f14623"
               id="path4216" />
          </g>
        </g>
      </g>
      <g
         transform="scale(1.0204838,0.97992736)"
         style="font-size:40.81935501px;font-style:normal;font-weight:normal;line-height:125%;letter-spacing:0px;word-spacing:0px;fill:#f14623;fill-opacity:1;stroke:none;font-family:Sans"
         id="text3084">
        <path
           d="m 59.895031,659.38251 c -2e-6,-0.57146 0.200012,-1.05721 0.600044,-1.45726 0.400027,-0.4 0.885777,-0.60002 1.457251,-0.60004 0.571466,2e-5 1.057216,0.20004 1.457251,0.60004 0.400024,0.40005 0.600038,0.8858 0.600045,1.45726 l 0,7.28625 c -7e-6,0.51434 0.05714,1.08581 0.171441,1.71441 0.142861,0.60006 0.385736,1.15724 0.728625,1.67156 0.371449,0.51433 0.857199,0.95722 1.457251,1.32867 0.628609,0.34289 1.442954,0.51433 2.443039,0.51432 l 9.943594,0 c -0.457197,-0.80005 -0.800079,-1.64297 -1.028648,-2.52876 -0.228608,-0.91434 -0.342902,-1.81441 -0.342882,-2.7002 l 0,-7.28625 c -2e-5,-0.57146 0.199995,-1.05721 0.600044,-1.45726 0.400009,-0.4 0.885759,-0.60002 1.457251,-0.60004 0.571449,2e-5 1.057199,0.20004 1.457251,0.60004 0.400006,0.40005 0.600021,0.8858 0.600045,1.45726 l 0,7.28625 c -2.4e-5,0.51434 0.05712,1.07152 0.171441,1.67155 0.142844,0.60006 0.371432,1.17153 0.685765,1.71442 0.342858,0.51433 0.800034,0.95722 1.37153,1.32867 0.600018,0.34289 1.357216,0.51433 2.271597,0.51432 l 4.071731,0 c 0.971467,10e-6 1.771526,-0.17143 2.400178,-0.51432 0.628582,-0.37145 1.114332,-0.81434 1.457251,-1.32867 0.371419,-0.51432 0.614294,-1.0715 0.728625,-1.67156 0.142831,-0.6286 0.214265,-1.20007 0.214302,-1.71441 l 0,-7.28625 c -3.7e-5,-0.57146 0.199977,-1.05721 0.600044,-1.45726 0.399992,-0.4 0.885742,-0.60002 1.457251,-0.60004 0.571431,2e-5 1.057181,0.20004 1.457251,0.60004 0.399989,0.40005 0.600003,0.8858 0.600045,1.45726 l 0,7.28625 c -4.2e-5,1.08581 -0.18577,2.18589 -0.557185,3.30024 -0.342922,1.08581 -0.857246,2.08588 -1.542971,3.00023 -0.685804,0.88578 -1.514436,1.61441 -2.485899,2.18587 -0.971536,0.57148 -2.071617,0.85721 -3.300244,0.85721 l -23.744618,0 c -1.171524,0 -2.214458,-0.28573 -3.128804,-0.85721 -0.914359,-0.57146 -1.700131,-1.30009 -2.357317,-2.18587 -0.628622,-0.91435 -1.114372,-1.92871 -1.457251,-3.04309 -0.342885,-1.11435 -0.514326,-2.20015 -0.514324,-3.25738 l 0,-7.28625 0,0"
           style="font-size:42.86032104px;font-variant:normal;font-stretch:normal;text-align:center;text-anchor:middle;fill:#f14623;font-family:Space Age;-inkscape-font-specification:Space Age"
           id="path4219" />
        <path
           d="m 107.37221,673.95501 c 0,0.57148 -0.20002,1.05723 -0.60004,1.45726 -0.40004,0.40003 -0.88579,0.60004 -1.45725,0.60004 -0.57148,0 -1.05723,-0.20001 -1.45725,-0.60004 -0.40004,-0.40003 -0.60005,-0.88578 -0.60005,-1.45726 l 0,-14.5725 c 0,-0.57146 0.20001,-1.05721 0.60005,-1.45726 0.40002,-0.4 0.88577,-0.60002 1.45725,-0.60004 0.57146,2e-5 1.05721,0.20004 1.45725,0.60004 0.40002,0.40005 0.60004,0.8858 0.60004,1.45726 l 0,14.5725 0,0"
           style="font-size:42.86032104px;font-variant:normal;font-stretch:normal;text-align:center;text-anchor:middle;fill:#f14623;font-family:Space Age;-inkscape-font-specification:Space Age"
           id="path4221" />
        <path
           d="m 139.18797,668.72606 c 0.77145,0.48576 1.55722,1.01437 2.35731,1.58583 0.80003,0.5429 1.61438,1.14295 2.44304,1.80013 0.31428,0.2286 0.58573,0.50004 0.81435,0.81435 0.22855,0.28574 0.34285,0.62862 0.34288,1.02864 -3e-5,0.57148 -0.20005,1.05723 -0.60004,1.45726 -0.40007,0.40003 -0.88582,0.60004 -1.45725,0.60004 -0.48579,0 -0.97154,-0.20001 -1.45726,-0.60004 -1.17154,-0.85721 -2.37163,-1.68584 -3.60026,-2.4859 -1.22869,-0.80006 -2.5145,-1.51439 -3.85743,-2.14302 -1.31441,-0.62861 -2.68594,-1.12864 -4.11459,-1.50011 -1.4287,-0.37145 -2.91452,-0.55717 -4.45748,-0.55718 l -8.5292,0 c -0.37146,0.0572 -0.68577,0.22859 -0.94293,0.51432 -0.25716,0.28574 -0.38575,0.64291 -0.38574,1.07151 l 0,3.64312 c -1e-5,0.57148 -0.21431,1.05723 -0.6429,1.45726 -0.40004,0.40003 -0.8715,0.60004 -1.41439,0.60004 -0.57148,0 -1.05723,-0.20001 -1.45726,-0.60004 -0.40003,-0.40003 -0.60004,-0.88578 -0.60004,-1.45726 l 0,-4.11459 c 0,-0.71433 0.12858,-1.3858 0.38574,-2.01443 0.28574,-0.65718 0.65719,-1.21436 1.11437,-1.67155 0.45717,-0.48574 1.00007,-0.8572 1.62869,-1.11437 0.62862,-0.28572 1.31438,-0.42859 2.0573,-0.42861 l 22.71597,0 c 0.42857,2e-5 0.80003,-0.14285 1.11437,-0.4286 0.34285,-0.31429 0.51429,-0.70004 0.51432,-1.15723 -3e-5,-0.42858 -0.17147,-0.80004 -0.51432,-1.11437 -0.31434,-0.31429 -0.6858,-0.47144 -1.11437,-0.47146 l -25.84477,0 c -0.57148,2e-5 -1.05723,-0.2 -1.45726,-0.60004 -0.40003,-0.40001 -0.60004,-0.88576 -0.60004,-1.45725 0,-0.57146 0.20001,-1.05721 0.60004,-1.45726 0.40003,-0.4 0.88578,-0.60002 1.45726,-0.60004 l 25.67333,0 c 0.80003,2e-5 1.54294,0.15718 2.22873,0.47146 0.71431,0.28576 1.32864,0.68579 1.843,1.20009 0.54286,0.51435 0.95718,1.11439 1.24295,1.80014 0.31427,0.68578 0.47143,1.42869 0.47146,2.22873 -3e-5,0.80008 -0.15719,1.54299 -0.47146,2.22874 -0.28577,0.68578 -0.70009,1.28582 -1.24295,1.80013 -0.51436,0.51434 -1.12869,0.92865 -1.843,1.24295 -0.68579,0.28575 -1.4287,0.42862 -2.22873,0.42861 l -0.17144,0 0,0"
           style="font-size:42.86032104px;font-variant:normal;font-stretch:normal;text-align:center;text-anchor:middle;fill:#f14623;font-family:Space Age;-inkscape-font-specification:Space Age"
           id="path4223" />
        <path
           d="m 149.4664,659.38251 c 0,-0.57146 0.20002,-1.05721 0.60005,-1.45726 0.40002,-0.4 0.88577,-0.60002 1.45725,-0.60004 l 30.38797,0 c 0.57143,2e-5 1.05718,0.20004 1.45725,0.60004 0.39999,0.40005 0.60001,0.8858 0.60004,1.45726 -3e-5,0.57149 -0.20005,1.05724 -0.60004,1.45725 -0.40007,0.40004 -0.88582,0.60006 -1.45725,0.60004 l -30.38797,0 c -0.57148,2e-5 -1.05723,-0.2 -1.45725,-0.60004 -0.40003,-0.40001 -0.60005,-0.88576 -0.60005,-1.45725 m 5.22896,16.6298 c -0.62862,0 -1.25724,-0.12858 -1.88585,-0.38574 -0.62862,-0.28573 -1.18581,-0.67148 -1.67155,-1.15723 -0.48576,-0.48575 -0.88579,-1.0715 -1.20009,-1.75727 -0.31431,-0.68576 -0.47147,-1.45725 -0.47147,-2.31446 l 0,-3.85743 c 0,-0.77147 0.2143,-1.2858 0.64291,-1.54297 0.45717,-0.25715 1.15722,-0.38573 2.10015,-0.38575 l 28.75928,0 c 0.57144,2e-5 1.05719,0.20003 1.45725,0.60005 0.39999,0.40004 0.60001,0.88579 0.60005,1.45725 -4e-5,0.57148 -0.20006,1.05723 -0.60005,1.45725 -0.40006,0.40004 -0.88581,0.60006 -1.45725,0.60005 l -27.38775,0 0,2.10015 c 0,0.28574 0.11429,0.54291 0.34289,0.77149 0.25715,0.20002 0.58575,0.30003 0.98578,0.30002 l 27.00201,0 c 0.57143,10e-6 1.05718,0.20002 1.45725,0.60004 0.39999,0.40004 0.60001,0.88579 0.60004,1.45725 -3e-5,0.57148 -0.20005,1.05723 -0.60004,1.45726 -0.40007,0.40003 -0.88582,0.60004 -1.45725,0.60004 l -27.21631,0"
           style="font-size:42.86032104px;font-variant:normal;font-stretch:normal;text-align:center;text-anchor:middle;fill:#f14623;font-family:Space Age;-inkscape-font-specification:Space Age"
           id="path4225" />
        <path
           d="m 194.09673,676.01231 c -0.80007,0 -1.55727,-0.14286 -2.2716,-0.4286 -0.71434,-0.31431 -1.34296,-0.72862 -1.88585,-1.24295 -0.51433,-0.51432 -0.92865,-1.11437 -1.24295,-1.80014 -0.31431,-0.68575 -0.47147,-1.42867 -0.47147,-2.22873 l 0,-10.92938 c 0,-0.57146 0.20002,-1.05721 0.60005,-1.45726 0.40003,-0.4 0.88578,-0.60002 1.45725,-0.60004 0.54289,2e-5 1.01436,0.20004 1.41439,0.60004 0.4286,0.40005 0.6429,0.8858 0.64291,1.45726 l 0,10.92938 c -1e-5,0.42861 0.15714,0.80006 0.47146,1.11437 0.34287,0.31431 0.72862,0.47147 1.15723,0.47146 l 25.71619,0 c 0.57144,10e-6 1.05719,0.20002 1.45725,0.60004 0.4,0.40004 0.60001,0.88579 0.60005,1.45725 -4e-5,0.57148 -0.20005,1.05723 -0.60005,1.45726 -0.40006,0.40003 -0.88581,0.60004 -1.45725,0.60004 l -25.58761,0 0,0"
           style="font-size:42.86032104px;font-variant:normal;font-stretch:normal;text-align:center;text-anchor:middle;fill:#f14623;font-family:Space Age;-inkscape-font-specification:Space Age"
           id="path4227" />
        <path
           d="m 226.06248,659.38251 c 0,-0.57146 0.20001,-1.05721 0.60005,-1.45726 0.40002,-0.4 0.88577,-0.60002 1.45725,-0.60004 l 30.38796,0 c 0.57144,2e-5 1.05719,0.20004 1.45725,0.60004 0.4,0.40005 0.60001,0.8858 0.60005,1.45726 -4e-5,0.57149 -0.20005,1.05724 -0.60005,1.45725 -0.40006,0.40004 -0.88581,0.60006 -1.45725,0.60004 l -30.38796,0 c -0.57148,2e-5 -1.05723,-0.2 -1.45725,-0.60004 -0.40004,-0.40001 -0.60005,-0.88576 -0.60005,-1.45725 m 5.22896,16.6298 c -0.62862,0 -1.25724,-0.12858 -1.88585,-0.38574 -0.62863,-0.28573 -1.18581,-0.67148 -1.67156,-1.15723 -0.48575,-0.48575 -0.88578,-1.0715 -1.20009,-1.75727 -0.31431,-0.68576 -0.47146,-1.45725 -0.47146,-2.31446 l 0,-3.85743 c 0,-0.77147 0.2143,-1.2858 0.64291,-1.54297 0.45717,-0.25715 1.15722,-0.38573 2.10015,-0.38575 l 28.75928,0 c 0.57143,2e-5 1.05718,0.20003 1.45725,0.60005 0.39999,0.40004 0.60001,0.88579 0.60004,1.45725 -3e-5,0.57148 -0.20005,1.05723 -0.60004,1.45725 -0.40007,0.40004 -0.88582,0.60006 -1.45725,0.60005 l -27.38775,0 0,2.10015 c 0,0.28574 0.11429,0.54291 0.34288,0.77149 0.25716,0.20002 0.58575,0.30003 0.98579,0.30002 l 27.002,0 c 0.57144,10e-6 1.05719,0.20002 1.45725,0.60004 0.4,0.40004 0.60001,0.88579 0.60005,1.45725 -4e-5,0.57148 -0.20005,1.05723 -0.60005,1.45726 -0.40006,0.40003 -0.88581,0.60004 -1.45725,0.60004 l -27.2163,0"
           style="font-size:42.86032104px;font-variant:normal;font-stretch:normal;text-align:center;text-anchor:middle;fill:#f14623;font-family:Space Age;-inkscape-font-specification:Space Age"
           id="path4229" />
        <path
           d="m 270.52136,668.72606 c -0.80007,1e-5 -1.54298,-0.14286 -2.22874,-0.42861 -0.68577,-0.3143 -1.28581,-0.72861 -1.80013,-1.24295 -0.51433,-0.51431 -0.92865,-1.11435 -1.24295,-1.80013 -0.28574,-0.68575 -0.42861,-1.42866 -0.42861,-2.22874 0,-0.80004 0.14287,-1.54295 0.42861,-2.22873 0.3143,-0.68575 0.72862,-1.28579 1.24295,-1.80014 0.51432,-0.5143 1.11436,-0.91433 1.80013,-1.20009 0.68576,-0.31428 1.42867,-0.47144 2.22874,-0.47146 l 26.01621,0 c 0.57144,2e-5 1.05719,0.20004 1.45725,0.60004 0.4,0.40005 0.60001,0.8858 0.60005,1.45726 -4e-5,0.57149 -0.20005,1.05724 -0.60005,1.45725 -0.40006,0.40004 -0.88581,0.60006 -1.45725,0.60004 l -26.10193,0 c -0.42861,2e-5 -0.81436,0.15717 -1.15723,0.47146 -0.31432,0.28576 -0.47147,0.65721 -0.47147,1.11437 0,0.42862 0.15715,0.80008 0.47147,1.11437 0.34287,0.31432 0.72862,0.47148 1.15723,0.47146 l 23.70175,0 c 0.80003,2e-5 1.54294,0.15717 2.22874,0.47147 0.7143,0.28575 1.32864,0.68578 1.84299,1.20009 0.51429,0.51433 0.91432,1.12866 1.20009,1.84299 0.31428,0.68578 0.47143,1.42869 0.47147,2.22874 -4e-5,0.80006 -0.15719,1.54298 -0.47147,2.22873 -0.28577,0.68578 -0.6858,1.28582 -1.20009,1.80014 -0.51435,0.51433 -1.12869,0.91436 -1.84299,1.20009 -0.6858,0.28574 -1.42871,0.4286 -2.22874,0.4286 l -25.97335,0 c -0.57148,0 -1.05723,-0.20001 -1.45725,-0.60004 -0.40004,-0.40003 -0.60005,-0.88578 -0.60005,-1.45726 0,-0.57146 0.20001,-1.05721 0.60005,-1.45725 0.40002,-0.40002 0.88577,-0.60003 1.45725,-0.60004 l 26.1448,0 c 0.42857,10e-6 0.80002,-0.14286 1.11436,-0.4286 0.31428,-0.31431 0.47143,-0.68576 0.47147,-1.11437 -4e-5,-0.45717 -0.15719,-0.84291 -0.47147,-1.15723 -0.31434,-0.3143 -0.68579,-0.47145 -1.11436,-0.47146 l -23.78748,0 0,0"
           style="font-size:42.86032104px;font-variant:normal;font-stretch:normal;text-align:center;text-anchor:middle;fill:#f14623;font-family:Space Age;-inkscape-font-specification:Space Age"
           id="path4231" />
        <path
           d="m 306.68476,668.72606 c -0.80006,1e-5 -1.54297,-0.14286 -2.22873,-0.42861 -0.68577,-0.3143 -1.28582,-0.72861 -1.80014,-1.24295 -0.51432,-0.51431 -0.92864,-1.11435 -1.24295,-1.80013 -0.28573,-0.68575 -0.4286,-1.42866 -0.4286,-2.22874 0,-0.80004 0.14287,-1.54295 0.4286,-2.22873 0.31431,-0.68575 0.72863,-1.28579 1.24295,-1.80014 0.51432,-0.5143 1.11437,-0.91433 1.80014,-1.20009 0.68576,-0.31428 1.42867,-0.47144 2.22873,-0.47146 l 26.01622,0 c 0.57143,2e-5 1.05718,0.20004 1.45725,0.60004 0.39999,0.40005 0.60001,0.8858 0.60004,1.45726 -3e-5,0.57149 -0.20005,1.05724 -0.60004,1.45725 -0.40007,0.40004 -0.88582,0.60006 -1.45725,0.60004 l -26.10194,0 c -0.42861,2e-5 -0.81435,0.15717 -1.15723,0.47146 -0.31431,0.28576 -0.47147,0.65721 -0.47146,1.11437 -10e-6,0.42862 0.15715,0.80008 0.47146,1.11437 0.34288,0.31432 0.72862,0.47148 1.15723,0.47146 l 23.70176,0 c 0.80003,2e-5 1.54294,0.15717 2.22874,0.47147 0.7143,0.28575 1.32863,0.68578 1.84299,1.20009 0.51429,0.51433 0.91432,1.12866 1.20009,1.84299 0.31427,0.68578 0.47143,1.42869 0.47146,2.22874 -3e-5,0.80006 -0.15719,1.54298 -0.47146,2.22873 -0.28577,0.68578 -0.6858,1.28582 -1.20009,1.80014 -0.51436,0.51433 -1.12869,0.91436 -1.84299,1.20009 -0.6858,0.28574 -1.42871,0.4286 -2.22874,0.4286 l -25.97335,0 c -0.57148,0 -1.05723,-0.20001 -1.45726,-0.60004 -0.40003,-0.40003 -0.60004,-0.88578 -0.60004,-1.45726 0,-0.57146 0.20001,-1.05721 0.60004,-1.45725 0.40003,-0.40002 0.88578,-0.60003 1.45726,-0.60004 l 26.14479,0 c 0.42857,10e-6 0.80003,-0.14286 1.11437,-0.4286 0.31428,-0.31431 0.47143,-0.68576 0.47146,-1.11437 -3e-5,-0.45717 -0.15718,-0.84291 -0.47146,-1.15723 -0.31434,-0.3143 -0.6858,-0.47145 -1.11437,-0.47146 l -23.78748,0 0,0"
           style="font-size:42.86032104px;font-variant:normal;font-stretch:normal;text-align:center;text-anchor:middle;fill:#f14623;font-family:Space Age;-inkscape-font-specification:Space Age"
           id="path4233" />
        <path
           d="m 359.58244,666.66876 c 0,-1.08578 0.17144,-2.17158 0.51432,-3.25738 0.37146,-1.11436 0.90007,-2.11443 1.58583,-3.00023 0.68577,-0.91433 1.5144,-1.65724 2.4859,-2.22873 0.9715,-0.57145 2.07158,-0.85719 3.30025,-0.85721 l 24.98757,0 c 0.57143,2e-5 1.05718,0.20004 1.45725,0.60004 0.39999,0.40005 0.6,0.8858 0.60004,1.45726 -4e-5,0.57149 -0.20005,1.05724 -0.60004,1.45725 -0.40007,0.40004 -0.88582,0.60006 -1.45725,0.60004 l -24.0875,0 c -1.00009,2e-5 -1.81443,0.18575 -2.44304,0.55718 -0.60006,0.3429 -1.08581,0.77151 -1.45725,1.28581 -0.34289,0.51434 -0.58577,1.08581 -0.72863,1.71442 -0.1143,0.60006 -0.17145,1.15724 -0.17144,1.67155 -10e-6,0.51434 0.0571,1.08581 0.17144,1.71441 0.14286,0.60006 0.38574,1.15724 0.72863,1.67156 0.37144,0.51433 0.85719,0.95722 1.45725,1.32867 0.62861,0.34289 1.44295,0.51433 2.44304,0.51432 l 24.0875,0 c 0.57143,10e-6 1.05718,0.20002 1.45725,0.60004 0.39999,0.40004 0.6,0.88579 0.60004,1.45725 -4e-5,0.57148 -0.20005,1.05723 -0.60004,1.45726 -0.40007,0.40003 -0.88582,0.60004 -1.45725,0.60004 l -25.41617,0 c -1.17153,0 -2.21446,-0.28573 -3.12881,-0.85721 -0.91436,-0.57146 -1.70013,-1.30009 -2.35732,-2.18587 -0.62862,-0.91435 -1.11437,-1.92871 -1.45725,-3.04309 -0.34288,-1.11435 -0.51432,-2.20015 -0.51432,-3.25738"
           style="font-size:42.86032104px;font-variant:normal;font-stretch:normal;text-align:center;text-anchor:middle;fill:#f14623;font-family:Space Age;-inkscape-font-specification:Space Age"
           id="path4235" />
        <path
           d="m 424.86138,671.89772 c 0.97147,10e-6 1.77153,-0.17143 2.40017,-0.51432 0.62859,-0.37145 1.11434,-0.81434 1.45726,-1.32867 0.37142,-0.51432 0.61429,-1.0715 0.72862,-1.67156 0.14284,-0.6286 0.21427,-1.20007 0.2143,-1.71441 -3e-5,-0.51431 -0.0715,-1.07149 -0.2143,-1.67155 -0.11433,-0.62861 -0.3572,-1.20008 -0.72862,-1.71442 -0.34292,-0.5143 -0.82867,-0.94291 -1.45726,-1.28581 -0.62864,-0.37143 -1.4287,-0.55716 -2.40017,-0.55718 l -17.31557,0 c -1.00009,2e-5 -1.81443,0.18575 -2.44304,0.55718 -0.60005,0.3429 -1.0858,0.77151 -1.45725,1.28581 -0.34289,0.51434 -0.58577,1.08581 -0.72863,1.71442 -0.1143,0.60006 -0.17145,1.15724 -0.17144,1.67155 -1e-5,0.51434 0.0571,1.08581 0.17144,1.71441 0.14286,0.60006 0.38574,1.15724 0.72863,1.67156 0.37145,0.51433 0.8572,0.95722 1.45725,1.32867 0.62861,0.34289 1.44295,0.51433 2.44304,0.51432 l 17.31557,0 0,0 m 8.78636,-5.22896 c -3e-5,1.08581 -0.18576,2.18589 -0.55718,3.30024 -0.34292,1.08581 -0.85724,2.08588 -1.54297,3.00023 -0.6858,0.88578 -1.51443,1.61441 -2.4859,2.18587 -0.97153,0.57148 -2.07161,0.85721 -3.30025,0.85721 l -19.5443,0 c -1.17153,-0.0571 -2.21446,-0.37145 -3.12881,-0.94293 -0.91436,-0.60004 -1.70013,-1.34295 -2.35731,-2.22873 -0.62863,-0.88578 -1.11438,-1.87156 -1.45725,-2.95737 -0.34289,-1.08578 -0.51433,-2.15729 -0.51433,-3.21452 0,-1.08578 0.17144,-2.17158 0.51433,-3.25738 0.37145,-1.11436 0.90006,-2.11443 1.58583,-3.00023 0.68576,-0.91433 1.51439,-1.65724 2.4859,-2.22873 0.97149,-0.57145 2.07157,-0.85719 3.30024,-0.85721 l 19.54431,0 c 1.17148,0.0572 2.21441,0.38576 3.1288,0.98579 0.91432,0.57149 1.68581,1.30011 2.31446,2.18587 0.65715,0.8858 1.15719,1.87159 1.50011,2.95737 0.34284,1.08581 0.51429,2.15731 0.51432,3.21452"
           style="font-size:42.86032104px;font-variant:normal;font-stretch:normal;text-align:center;text-anchor:middle;fill:#f14623;font-family:Space Age;-inkscape-font-specification:Space Age"
           id="path4237" />
        <path
           d="m 474.11058,673.95501 c -3e-5,0.57148 -0.20005,1.05723 -0.60004,1.45726 -0.40007,0.40003 -0.88582,0.60004 -1.45725,0.60004 -0.57151,0 -1.05726,-0.20001 -1.45725,-0.60004 -0.40007,-0.40003 -0.60008,-0.88578 -0.60005,-1.45726 l 0,-9.34355 c -3e-5,-1.1715 -0.0715,-1.75725 -0.2143,-1.75727 -0.11433,2e-5 -0.51436,0.38576 -1.20009,1.15723 l -9.42927,10.71508 c -0.37148,0.42861 -0.82865,0.7572 -1.37153,0.98579 -0.54292,0.20002 -1.12867,0.30002 -1.75727,0.30002 -0.62864,0 -1.2144,-0.1 -1.75727,-0.30002 -0.54292,-0.22859 -1.0001,-0.55718 -1.37153,-0.98579 l -9.42927,-10.71508 c -0.6572,-0.77147 -1.05723,-1.15721 -1.20009,-1.15723 -0.14288,2e-5 -0.21431,0.58577 -0.21431,1.75727 l 0,9.34355 c 0,0.57148 -0.20002,1.05723 -0.60004,1.45726 -0.40003,0.40003 -0.88578,0.60004 -1.45725,0.60004 -0.57148,0 -1.05723,-0.20001 -1.45725,-0.60004 -0.40003,-0.40003 -0.60005,-0.88578 -0.60005,-1.45726 l 0,-12.51521 c 0,-1.14292 0.3286,-2.11442 0.98579,-2.9145 0.65719,-0.80004 1.55725,-1.20007 2.7002,-1.20009 0.68576,2e-5 1.30009,0.17146 1.843,0.51432 0.54288,0.34291 1.04292,0.75722 1.50011,1.24295 l 9.85787,11.22941 c 0.14285,0.14287 0.31429,0.30003 0.51432,0.47146 0.22857,0.14288 0.45716,0.21431 0.68577,0.2143 0.22857,10e-6 0.44287,-0.0714 0.6429,-0.2143 0.22857,-0.17143 0.4143,-0.32859 0.55719,-0.47146 l 9.81501,-11.22941 0.0429,0 c 0.4,-0.54287 0.88575,-0.97148 1.45725,-1.28581 0.57144,-0.31428 1.20006,-0.47144 1.88586,-0.47146 1.1429,2e-5 2.04297,0.40005 2.7002,1.20009 0.65715,0.80008 0.98575,1.77158 0.98578,2.9145 l 0,12.51521"
           style="font-size:42.86032104px;font-variant:normal;font-stretch:normal;text-align:center;text-anchor:middle;fill:#f14623;font-family:Space Age;-inkscape-font-specification:Space Age"
           id="path4239" />
        <path
           d="m 514.54326,673.95501 c -4e-5,0.57148 -0.20005,1.05723 -0.60004,1.45726 -0.40007,0.40003 -0.88582,0.60004 -1.45725,0.60004 -0.57151,0 -1.05726,-0.20001 -1.45725,-0.60004 -0.40007,-0.40003 -0.60008,-0.88578 -0.60005,-1.45726 l 0,-9.34355 c -3e-5,-1.1715 -0.0715,-1.75725 -0.2143,-1.75727 -0.11433,2e-5 -0.51436,0.38576 -1.20009,1.15723 l -9.42927,10.71508 c -0.37148,0.42861 -0.82865,0.7572 -1.37153,0.98579 -0.54292,0.20002 -1.12868,0.30002 -1.75727,0.30002 -0.62864,0 -1.2144,-0.1 -1.75728,-0.30002 -0.54291,-0.22859 -1.00009,-0.55718 -1.37153,-0.98579 l -9.42927,-10.71508 c -0.6572,-0.77147 -1.05722,-1.15721 -1.20009,-1.15723 -0.14287,2e-5 -0.2143,0.58577 -0.2143,1.75727 l 0,9.34355 c 0,0.57148 -0.20002,1.05723 -0.60004,1.45726 -0.40004,0.40003 -0.88579,0.60004 -1.45725,0.60004 -0.57148,0 -1.05723,-0.20001 -1.45725,-0.60004 -0.40004,-0.40003 -0.60005,-0.88578 -0.60005,-1.45726 l 0,-12.51521 c 0,-1.14292 0.3286,-2.11442 0.98579,-2.9145 0.65719,-0.80004 1.55725,-1.20007 2.7002,-1.20009 0.68576,2e-5 1.30009,0.17146 1.84299,0.51432 0.54289,0.34291 1.04293,0.75722 1.50011,1.24295 l 9.85788,11.22941 c 0.14285,0.14287 0.31429,0.30003 0.51432,0.47146 0.22857,0.14288 0.45716,0.21431 0.68577,0.2143 0.22857,10e-6 0.44287,-0.0714 0.6429,-0.2143 0.22857,-0.17143 0.4143,-0.32859 0.55719,-0.47146 l 9.81501,-11.22941 0.0429,0 c 0.4,-0.54287 0.88575,-0.97148 1.45725,-1.28581 0.57144,-0.31428 1.20006,-0.47144 1.88586,-0.47146 1.1429,2e-5 2.04297,0.40005 2.7002,1.20009 0.65715,0.80008 0.98574,1.77158 0.98578,2.9145 l 0,12.51521"
           style="font-size:42.86032104px;font-variant:normal;font-stretch:normal;text-align:center;text-anchor:middle;fill:#f14623;font-family:Space Age;-inkscape-font-specification:Space Age"
           id="path4241" />
        <path
           d="m 522.91642,666.66876 c -10e-6,0.51434 0.0571,1.08581 0.17144,1.71441 0.14286,0.60006 0.38574,1.15724 0.72863,1.67156 0.37145,0.51433 0.8572,0.95722 1.45725,1.32867 0.62861,0.34289 1.44295,0.51433 2.44304,0.51432 l 17.0584,0 c 0.97148,10e-6 1.77153,-0.17143 2.40018,-0.51432 0.62859,-0.37145 1.11434,-0.81434 1.45725,-1.32867 0.37143,-0.51432 0.6143,-1.0715 0.72863,-1.67156 0.14283,-0.6286 0.21427,-1.20007 0.2143,-1.71441 l 0,-7.24339 c -3e-5,-0.57146 0.19998,-1.0572 0.60005,-1.45726 0.39999,-0.4 0.88574,-0.60002 1.45725,-0.60004 0.57143,2e-5 1.05718,0.20004 1.45725,0.60004 0.39999,0.40006 0.6,0.8858 0.60004,1.45726 l 0,7.24339 c -4e-5,1.08581 -0.18576,2.18589 -0.55718,3.30024 -0.34292,1.08581 -0.85724,2.08588 -1.54297,3.00023 -0.6858,0.88578 -1.51444,1.61441 -2.4859,2.18587 -0.97153,0.57148 -2.07162,0.85721 -3.30025,0.85721 l -19.5443,0 c -1.17153,-0.0571 -2.21446,-0.37145 -3.12881,-0.94293 -0.91436,-0.60004 -1.70013,-1.34295 -2.35732,-2.22873 -0.62862,-0.88578 -1.11437,-1.87156 -1.45725,-2.95737 -0.34288,-1.08578 -0.51432,-2.15729 -0.51432,-3.21452 l 0,-7.24339 c 0,-0.57146 0.20001,-1.0572 0.60004,-1.45726 0.40003,-0.4 0.88578,-0.60002 1.45726,-0.60004 0.57146,2e-5 1.05721,0.20004 1.45725,0.60004 0.40002,0.40006 0.60003,0.8858 0.60004,1.45726 l 0,7.24339 0,0"
           style="font-size:42.86032104px;font-variant:normal;font-stretch:normal;text-align:center;text-anchor:middle;fill:#f14623;font-family:Space Age;-inkscape-font-specification:Space Age"
           id="path4243" />
        <path
           d="m 587.16671,659.38251 c -3e-5,-0.57146 0.19998,-1.05721 0.60005,-1.45726 0.39999,-0.4 0.88574,-0.60002 1.45725,-0.60004 0.57143,2e-5 1.05718,0.20004 1.45725,0.60004 0.39999,0.40005 0.60001,0.8858 0.60004,1.45726 l 0,12.47235 c -3e-5,1.17152 -0.40006,2.15731 -1.20009,2.95736 -0.77152,0.80006 -1.74302,1.20009 -2.9145,1.20009 -0.40006,0 -0.80009,-0.0571 -1.20009,-0.17144 -0.37148,-0.11429 -0.71437,-0.27145 -1.02865,-0.47146 l -19.63002,-12.00089 c -0.54291,-0.3143 -1.00009,-0.55717 -1.37153,-0.72863 -0.34289,-0.2 -0.62863,-0.30001 -0.85721,-0.30002 -0.42861,10e-6 -0.70006,0.27146 -0.81435,0.81434 -0.1143,0.54292 -0.17144,1.32869 -0.17144,2.35732 l 0,8.44348 c 0,0.57148 -0.20002,1.05723 -0.60004,1.45726 -0.40004,0.40003 -0.88579,0.60004 -1.45725,0.60004 -0.57148,0 -1.05723,-0.20001 -1.45725,-0.60004 -0.40004,-0.40003 -0.60005,-0.88578 -0.60005,-1.45726 l 0,-12.47235 c 0,-1.1715 0.38574,-2.15728 1.15723,-2.95736 0.80006,-0.80004 1.78584,-1.20007 2.95736,-1.20009 0.40003,2e-5 0.78577,0.0572 1.15723,0.17144 0.40002,0.11432 0.75719,0.27147 1.07151,0.47146 l 19.63003,12.00089 c 0.54287,0.31432 0.98575,0.57148 1.32867,0.77149 0.37142,0.17145 0.67144,0.25717 0.90006,0.25716 0.42858,10e-6 0.70002,-0.27144 0.81435,-0.81434 0.11426,-0.54289 0.17141,-1.32866 0.17144,-2.35732 l 0,-8.44348 0,0"
           style="font-size:42.86032104px;font-variant:normal;font-stretch:normal;text-align:center;text-anchor:middle;fill:#f14623;font-family:Space Age;-inkscape-font-specification:Space Age"
           id="path4245" />
        <path
           d="m 599.67991,673.95501 c -10e-6,0.57148 -0.20002,1.05723 -0.60004,1.45726 -0.40004,0.40003 -0.88579,0.60004 -1.45726,0.60004 -0.57147,0 -1.05722,-0.20001 -1.45725,-0.60004 -0.40003,-0.40003 -0.60004,-0.88578 -0.60004,-1.45726 l 0,-14.5725 c 0,-0.57146 0.20001,-1.05721 0.60004,-1.45726 0.40003,-0.4 0.88578,-0.60002 1.45725,-0.60004 0.57147,2e-5 1.05722,0.20004 1.45726,0.60004 0.40002,0.40005 0.60003,0.8858 0.60004,1.45726 l 0,14.5725 0,0"
           style="font-size:42.86032104px;font-variant:normal;font-stretch:normal;text-align:center;text-anchor:middle;fill:#f14623;font-family:Space Age;-inkscape-font-specification:Space Age"
           id="path4247" />
        <path
           d="m 635.48167,657.32521 c 0.57144,2e-5 1.05719,0.20004 1.45725,0.60004 0.4,0.40005 0.60001,0.8858 0.60005,1.45726 -4e-5,0.57149 -0.20005,1.05724 -0.60005,1.45725 -0.40006,0.40004 -0.88581,0.60006 -1.45725,0.60004 l -12.68666,0 0,12.51521 c -2e-5,0.57148 -0.20003,1.05723 -0.60004,1.45726 -0.40005,0.40003 -0.8858,0.60004 -1.45725,0.60004 -0.57149,0 -1.05724,-0.20001 -1.45725,-0.60004 -0.40005,-0.40003 -0.60006,-0.88578 -0.60005,-1.45726 l 0,-12.51521 -12.85809,0 c -0.51433,-0.0571 -0.95722,-0.27143 -1.32867,-0.6429 -0.37146,-0.40002 -0.55719,-0.87148 -0.55719,-1.41439 0,-0.57146 0.20002,-1.05721 0.60005,-1.45726 0.40002,-0.4 0.88577,-0.60002 1.45725,-0.60004 l 29.4879,0 0,0"
           style="font-size:42.86032104px;font-variant:normal;font-stretch:normal;text-align:center;text-anchor:middle;fill:#f14623;font-family:Space Age;-inkscape-font-specification:Space Age"
           id="path4249" />
        <path
           d="m 661.14494,673.95501 c -2e-5,0.57148 -0.20003,1.05723 -0.60004,1.45726 -0.40005,0.40003 -0.8858,0.60004 -1.45725,0.60004 -0.57149,0 -1.05724,-0.20001 -1.45725,-0.60004 -0.40005,-0.40003 -0.60006,-0.88578 -0.60005,-1.45726 l 0,-5.22895 c -1.08581,1e-5 -2.14303,-0.14286 -3.17166,-0.42861 -1.02866,-0.28572 -2.11446,-0.72861 -3.25739,-1.32867 -1.11437,-0.6286 -2.31446,-1.42866 -3.60026,-2.40018 -1.28582,-0.97148 -2.72878,-2.15728 -4.32889,-3.5574 -0.2286,-0.2 -0.42861,-0.44287 -0.60005,-0.72863 -0.14287,-0.28571 -0.2143,-0.58574 -0.2143,-0.90006 0,-0.57146 0.20001,-1.05721 0.60004,-1.45726 0.40003,-0.4 0.88578,-0.60002 1.45725,-0.60004 0.28574,2e-5 0.5429,0.0572 0.77149,0.17144 0.22858,0.11432 0.45717,0.25718 0.68577,0.4286 1.8287,1.60014 3.35738,2.85738 4.58605,3.77171 1.25722,0.8858 2.37159,1.54299 3.34311,1.97158 1.00005,0.42862 1.94298,0.70006 2.82878,0.81434 0.88576,0.0857 1.88583,0.1286 3.00022,0.12858 1.11435,2e-5 2.10013,-0.0428 2.95736,-0.12858 0.85718,-0.0857 1.77154,-0.34286 2.74306,-0.77148 0.97148,-0.42859 2.07156,-1.08578 3.30025,-1.97158 1.2572,-0.91433 2.81446,-2.18585 4.67177,-3.81457 0.48572,-0.4 0.97147,-0.60002 1.45725,-0.60004 0.57144,2e-5 1.05719,0.20004 1.45725,0.60004 0.4,0.40005 0.60001,0.8858 0.60005,1.45726 -4e-5,0.31432 -0.0858,0.61435 -0.25716,0.90006 -0.14291,0.28576 -0.32864,0.52863 -0.55719,0.72863 -1.57158,1.37154 -3.01454,2.55735 -4.32889,3.5574 -1.31441,0.97152 -2.55736,1.77158 -3.72885,2.40018 -1.14297,0.60006 -2.24305,1.04295 -3.30024,1.32867 -1.02867,0.28575 -2.02875,0.42862 -3.00023,0.42861 l 0,5.22895 0,0"
           style="font-size:42.86032104px;font-variant:normal;font-stretch:normal;text-align:center;text-anchor:middle;fill:#f14623;font-family:Space Age;-inkscape-font-specification:Space Age"
           id="path4251" />
        <path
           d="m 729.05782,659.38251 c -3e-5,-0.57146 0.19999,-1.05721 0.60005,-1.45726 0.4,-0.4 0.88575,-0.60002 1.45725,-0.60004 0.57144,2e-5 1.05719,0.20004 1.45725,0.60004 0.39999,0.40005 0.60001,0.8858 0.60004,1.45726 l 0,12.47235 c -3e-5,1.17152 -0.40006,2.15731 -1.20008,2.95736 -0.77152,0.80006 -1.74302,1.20009 -2.91451,1.20009 -0.40006,0 -0.80009,-0.0571 -1.20008,-0.17144 -0.37149,-0.11429 -0.71437,-0.27145 -1.02865,-0.47146 l -19.63003,-12.00089 c -0.54291,-0.3143 -1.00008,-0.55717 -1.37153,-0.72863 -0.34289,-0.2 -0.62863,-0.30001 -0.85721,-0.30002 -0.42861,10e-6 -0.70005,0.27146 -0.81434,0.81434 -0.1143,0.54292 -0.17145,1.32869 -0.17144,2.35732 l 0,8.44348 c -1e-5,0.57148 -0.20002,1.05723 -0.60005,1.45726 -0.40003,0.40003 -0.88578,0.60004 -1.45725,0.60004 -0.57147,0 -1.05722,-0.20001 -1.45725,-0.60004 -0.40003,-0.40003 -0.60005,-0.88578 -0.60004,-1.45726 l 0,-12.47235 c -10e-6,-1.1715 0.38574,-2.15728 1.15722,-2.95736 0.80006,-0.80004 1.78585,-1.20007 2.95737,-1.20009 0.40002,2e-5 0.78576,0.0572 1.15722,0.17144 0.40003,0.11432 0.7572,0.27147 1.07151,0.47146 L 725.8433,669.969 c 0.54287,0.31432 0.98576,0.57148 1.32867,0.77149 0.37143,0.17145 0.67145,0.25717 0.90007,0.25716 0.42857,10e-6 0.70002,-0.27144 0.81434,-0.81434 0.11427,-0.54289 0.17141,-1.32866 0.17144,-2.35732 l 0,-8.44348 0,0"
           style="font-size:42.86032104px;font-variant:normal;font-stretch:normal;text-align:center;text-anchor:middle;fill:#f14623;font-family:Space Age;-inkscape-font-specification:Space Age"
           id="path4253" />
        <path
           d="m 737.45643,659.38251 c 0,-0.57146 0.20001,-1.05721 0.60005,-1.45726 0.40002,-0.4 0.88577,-0.60002 1.45725,-0.60004 l 30.38797,0 c 0.57143,2e-5 1.05718,0.20004 1.45725,0.60004 0.39999,0.40005 0.6,0.8858 0.60004,1.45726 -4e-5,0.57149 -0.20005,1.05724 -0.60004,1.45725 -0.40007,0.40004 -0.88582,0.60006 -1.45725,0.60004 l -30.38797,0 c -0.57148,2e-5 -1.05723,-0.2 -1.45725,-0.60004 -0.40004,-0.40001 -0.60005,-0.88576 -0.60005,-1.45725 m 5.22896,16.6298 c -0.62862,0 -1.25724,-0.12858 -1.88585,-0.38574 -0.62863,-0.28573 -1.18581,-0.67148 -1.67156,-1.15723 -0.48575,-0.48575 -0.88578,-1.0715 -1.20008,-1.75727 -0.31432,-0.68576 -0.47147,-1.45725 -0.47147,-2.31446 l 0,-3.85743 c 0,-0.77147 0.2143,-1.2858 0.64291,-1.54297 0.45717,-0.25715 1.15722,-0.38573 2.10015,-0.38575 l 28.75928,0 c 0.57143,2e-5 1.05718,0.20003 1.45725,0.60005 0.39999,0.40004 0.60001,0.88579 0.60004,1.45725 -3e-5,0.57148 -0.20005,1.05723 -0.60004,1.45725 -0.40007,0.40004 -0.88582,0.60006 -1.45725,0.60005 l -27.38775,0 0,2.10015 c 0,0.28574 0.11429,0.54291 0.34289,0.77149 0.25715,0.20002 0.58575,0.30003 0.98578,0.30002 l 27.00201,0 c 0.57143,10e-6 1.05718,0.20002 1.45725,0.60004 0.39999,0.40004 0.6,0.88579 0.60004,1.45725 -4e-5,0.57148 -0.20005,1.05723 -0.60004,1.45726 -0.40007,0.40003 -0.88582,0.60004 -1.45725,0.60004 l -27.21631,0"
           style="font-size:42.86032104px;font-variant:normal;font-stretch:normal;text-align:center;text-anchor:middle;fill:#f14623;font-family:Space Age;-inkscape-font-specification:Space Age"
           id="path4255" />
        <path
           d="m 807.76005,657.32521 c 0.57144,2e-5 1.05719,0.20004 1.45725,0.60004 0.4,0.40005 0.60001,0.8858 0.60005,1.45726 -4e-5,0.57149 -0.20005,1.05724 -0.60005,1.45725 -0.40006,0.40004 -0.88581,0.60006 -1.45725,0.60004 l -12.68665,0 0,12.51521 c -2e-5,0.57148 -0.20004,1.05723 -0.60005,1.45726 -0.40005,0.40003 -0.8858,0.60004 -1.45725,0.60004 -0.57149,0 -1.05724,-0.20001 -1.45725,-0.60004 -0.40005,-0.40003 -0.60006,-0.88578 -0.60004,-1.45726 l 0,-12.51521 -12.8581,0 c -0.51433,-0.0571 -0.95722,-0.27143 -1.32867,-0.6429 -0.37146,-0.40002 -0.55719,-0.87148 -0.55718,-1.41439 -1e-5,-0.57146 0.20001,-1.05721 0.60004,-1.45726 0.40003,-0.4 0.88578,-0.60002 1.45725,-0.60004 l 29.4879,0 0,0"
           style="font-size:42.86032104px;font-variant:normal;font-stretch:normal;text-align:center;text-anchor:middle;fill:#f14623;font-family:Space Age;-inkscape-font-specification:Space Age"
           id="path4257" />
        <path
           d="m 814.13624,659.38251 c 0,-0.57146 0.20001,-1.05721 0.60005,-1.45726 0.40002,-0.4 0.88577,-0.60002 1.45725,-0.60004 0.57146,2e-5 1.05721,0.20004 1.45725,0.60004 0.40002,0.40005 0.60004,0.8858 0.60004,1.45726 l 0,7.28625 c 0,0.51434 0.0571,1.08581 0.17144,1.71441 0.14287,0.60006 0.38574,1.15724 0.72863,1.67156 0.37145,0.51433 0.8572,0.95722 1.45725,1.32867 0.62861,0.34289 1.44295,0.51433 2.44304,0.51432 l 9.94359,0 c -0.45719,-0.80005 -0.80008,-1.64297 -1.02864,-2.52876 -0.22861,-0.91434 -0.34291,-1.81441 -0.34289,-2.7002 l 0,-7.28625 c -2e-5,-0.57146 0.2,-1.05721 0.60005,-1.45726 0.40001,-0.4 0.88576,-0.60002 1.45725,-0.60004 0.57145,2e-5 1.0572,0.20004 1.45725,0.60004 0.40001,0.40005 0.60002,0.8858 0.60004,1.45726 l 0,7.28625 c -2e-5,0.51434 0.0571,1.07152 0.17144,1.67155 0.14285,0.60006 0.37144,1.17153 0.68577,1.71442 0.34286,0.51433 0.80003,0.95722 1.37153,1.32867 0.60002,0.34289 1.35722,0.51433 2.2716,0.51432 l 4.07173,0 c 0.97147,10e-6 1.77152,-0.17143 2.40018,-0.51432 0.62858,-0.37145 1.11433,-0.81434 1.45725,-1.32867 0.37142,-0.51432 0.61429,-1.0715 0.72862,-1.67156 0.14283,-0.6286 0.21427,-1.20007 0.2143,-1.71441 l 0,-7.28625 c -3e-5,-0.57146 0.19998,-1.05721 0.60005,-1.45726 0.39999,-0.4 0.88574,-0.60002 1.45725,-0.60004 0.57143,2e-5 1.05718,0.20004 1.45725,0.60004 0.39999,0.40005 0.6,0.8858 0.60004,1.45726 l 0,7.28625 c -4e-5,1.08581 -0.18576,2.18589 -0.55718,3.30024 -0.34292,1.08581 -0.85725,2.08588 -1.54297,3.00023 -0.6858,0.88578 -1.51444,1.61441 -2.4859,2.18587 -0.97154,0.57148 -2.07162,0.85721 -3.30024,0.85721 l -23.74462,0 c -1.17153,0 -2.21446,-0.28573 -3.12881,-0.85721 -0.91435,-0.57146 -1.70013,-1.30009 -2.35731,-2.18587 -0.62863,-0.91435 -1.11437,-1.92871 -1.45725,-3.04309 -0.34289,-1.11435 -0.51433,-2.20015 -0.51433,-3.25738 l 0,-7.28625 0,0"
           style="font-size:42.86032104px;font-variant:normal;font-stretch:normal;text-align:center;text-anchor:middle;fill:#f14623;font-family:Space Age;-inkscape-font-specification:Space Age"
           id="path4259" />
        <path
           d="m 883.60073,671.89772 c 0.97147,10e-6 1.77153,-0.17143 2.40017,-0.51432 0.62859,-0.37145 1.11434,-0.81434 1.45725,-1.32867 0.37143,-0.51432 0.6143,-1.0715 0.72863,-1.67156 0.14284,-0.6286 0.21427,-1.20007 0.2143,-1.71441 -3e-5,-0.51431 -0.0715,-1.07149 -0.2143,-1.67155 -0.11433,-0.62861 -0.3572,-1.20008 -0.72863,-1.71442 -0.34291,-0.5143 -0.82866,-0.94291 -1.45725,-1.28581 -0.62864,-0.37143 -1.4287,-0.55716 -2.40017,-0.55718 l -17.31557,0 c -1.00009,2e-5 -1.81443,0.18575 -2.44304,0.55718 -0.60005,0.3429 -1.0858,0.77151 -1.45725,1.28581 -0.34289,0.51434 -0.58577,1.08581 -0.72863,1.71442 -0.1143,0.60006 -0.17145,1.15724 -0.17144,1.67155 -10e-6,0.51434 0.0571,1.08581 0.17144,1.71441 0.14286,0.60006 0.38574,1.15724 0.72863,1.67156 0.37145,0.51433 0.8572,0.95722 1.45725,1.32867 0.62861,0.34289 1.44295,0.51433 2.44304,0.51432 l 17.31557,0 0,0 m 8.78636,-5.22896 c -4e-5,1.08581 -0.18576,2.18589 -0.55718,3.30024 -0.34292,1.08581 -0.85724,2.08588 -1.54297,3.00023 -0.6858,0.88578 -1.51444,1.61441 -2.4859,2.18587 -0.97153,0.57148 -2.07162,0.85721 -3.30025,0.85721 l -19.5443,0 c -1.17153,-0.0571 -2.21446,-0.37145 -3.12881,-0.94293 -0.91436,-0.60004 -1.70013,-1.34295 -2.35731,-2.22873 -0.62863,-0.88578 -1.11438,-1.87156 -1.45726,-2.95737 -0.34288,-1.08578 -0.51432,-2.15729 -0.51432,-3.21452 0,-1.08578 0.17144,-2.17158 0.51432,-3.25738 0.37146,-1.11436 0.90007,-2.11443 1.58584,-3.00023 0.68576,-0.91433 1.51439,-1.65724 2.48589,-2.22873 0.9715,-0.57145 2.07158,-0.85719 3.30025,-0.85721 l 19.54431,0 c 1.17148,0.0572 2.21441,0.38576 3.1288,0.98579 0.91432,0.57149 1.6858,1.30011 2.31446,2.18587 0.65715,0.8858 1.15719,1.87159 1.50011,2.95737 0.34284,1.08581 0.51428,2.15731 0.51432,3.21452"
           style="font-size:42.86032104px;font-variant:normal;font-stretch:normal;text-align:center;text-anchor:middle;fill:#f14623;font-family:Space Age;-inkscape-font-specification:Space Age"
           id="path4261" />
        <path
           d="m 924.23504,668.72606 c 0.77146,0.48576 1.55723,1.01437 2.35732,1.58583 0.80002,0.5429 1.61437,1.14295 2.44304,1.80013 0.31427,0.2286 0.58572,0.50004 0.81434,0.81435 0.22855,0.28574 0.34285,0.62862 0.34288,1.02864 -3e-5,0.57148 -0.20005,1.05723 -0.60004,1.45726 -0.40006,0.40003 -0.88581,0.60004 -1.45725,0.60004 -0.48578,0 -0.97153,-0.20001 -1.45725,-0.60004 -1.17155,-0.85721 -2.37164,-1.68584 -3.60027,-2.4859 -1.22869,-0.80006 -2.5145,-1.51439 -3.85743,-2.14302 -1.3144,-0.62861 -2.68593,-1.12864 -4.11459,-1.50011 -1.42869,-0.37145 -2.91452,-0.55717 -4.45747,-0.55718 l -8.52921,0 c -0.37146,0.0572 -0.68577,0.22859 -0.94292,0.51432 -0.25717,0.28574 -0.38575,0.64291 -0.38575,1.07151 l 0,3.64312 c 0,0.57148 -0.2143,1.05723 -0.6429,1.45726 -0.40004,0.40003 -0.8715,0.60004 -1.41439,0.60004 -0.57148,0 -1.05723,-0.20001 -1.45725,-0.60004 -0.40003,-0.40003 -0.60005,-0.88578 -0.60005,-1.45726 l 0,-4.11459 c 0,-0.71433 0.12858,-1.3858 0.38575,-2.01443 0.28573,-0.65718 0.65718,-1.21436 1.11436,-1.67155 0.45718,-0.48574 1.00007,-0.8572 1.6287,-1.11437 0.62861,-0.28572 1.31437,-0.42859 2.05729,-0.42861 l 22.71597,0 c 0.42858,2e-5 0.80003,-0.14285 1.11437,-0.4286 0.34285,-0.31429 0.51429,-0.70004 0.51432,-1.15723 -3e-5,-0.42858 -0.17147,-0.80004 -0.51432,-1.11437 -0.31434,-0.31429 -0.68579,-0.47144 -1.11437,-0.47146 l -25.84477,0 c -0.57148,2e-5 -1.05723,-0.2 -1.45725,-0.60004 -0.40003,-0.40001 -0.60005,-0.88576 -0.60005,-1.45725 0,-0.57146 0.20002,-1.05721 0.60005,-1.45726 0.40002,-0.4 0.88577,-0.60002 1.45725,-0.60004 l 25.67333,0 c 0.80003,2e-5 1.54294,0.15718 2.22874,0.47146 0.7143,0.28576 1.32863,0.68579 1.84299,1.20009 0.54286,0.51435 0.95718,1.11439 1.24295,1.80014 0.31427,0.68578 0.47143,1.42869 0.47146,2.22873 -3e-5,0.80008 -0.15719,1.54299 -0.47146,2.22874 -0.28577,0.68578 -0.70009,1.28582 -1.24295,1.80013 -0.51436,0.51434 -1.12869,0.92865 -1.84299,1.24295 -0.6858,0.28575 -1.42871,0.42862 -2.22874,0.42861 l -0.17144,0 0,0"
           style="font-size:42.86032104px;font-variant:normal;font-stretch:normal;text-align:center;text-anchor:middle;fill:#f14623;font-family:Space Age;-inkscape-font-specification:Space Age"
           id="path4263" />
        <path
           d="m 938.58517,664.61146 9.90073,0 c 1.48581,2e-5 2.94306,-0.18571 4.37176,-0.55718 1.42865,-0.40001 2.81447,-0.91434 4.15745,-1.54297 1.3715,-0.6286 2.6716,-1.34294 3.90029,-2.14302 1.2572,-0.80004 2.45729,-1.61438 3.60026,-2.44304 0.48572,-0.4 0.97147,-0.60002 1.45725,-0.60004 0.57144,2e-5 1.05719,0.20004 1.45726,0.60004 0.39999,0.40005 0.6,0.8858 0.60004,1.45726 -4e-5,0.40004 -0.11433,0.75721 -0.34288,1.0715 -0.22863,0.28576 -0.50007,0.54292 -0.81435,0.77149 -0.74294,0.57149 -1.45728,1.11438 -2.14301,1.62869 -0.6858,0.48577 -1.37157,0.94294 -2.0573,1.37153 -0.68579,0.42862 -1.40013,0.84294 -2.14302,1.24295 -0.71436,0.40004 -1.48585,0.80007 -2.31445,1.20009 0.8286,0.40004 1.60009,0.80007 2.31445,1.20009 0.74289,0.40004 1.45723,0.81436 2.14302,1.24295 0.68573,0.42861 1.3715,0.90007 2.0573,1.41439 0.68573,0.48576 1.40007,1.01437 2.14301,1.58583 0.31428,0.2286 0.58572,0.50004 0.81435,0.81435 0.22855,0.28574 0.34284,0.62862 0.34288,1.02864 -4e-5,0.57148 -0.20005,1.05723 -0.60004,1.45726 -0.40007,0.40003 -0.88582,0.60004 -1.45726,0.60004 -0.48578,0 -0.97153,-0.20001 -1.45725,-0.60004 -1.17154,-0.85721 -2.38592,-1.68584 -3.64312,-2.4859 -1.22869,-0.80006 -2.5145,-1.51439 -3.85743,-2.14302 -1.34298,-0.62861 -2.7288,-1.12864 -4.15745,-1.50011 -1.4287,-0.37145 -2.88595,-0.55717 -4.37176,-0.55718 l -9.90073,0 0,5.22895 c -10e-6,0.57148 -0.20002,1.05723 -0.60004,1.45726 -0.40004,0.40003 -0.8715,0.60004 -1.4144,0.60004 -0.57147,0 -1.05722,-0.20001 -1.45725,-0.60004 -0.40003,-0.40003 -0.60004,-0.88578 -0.60004,-1.45726 l 0,-14.5725 c 0,-0.57146 0.20001,-1.05721 0.60004,-1.45726 0.40003,-0.4 0.87149,-0.60002 1.41439,-0.60004 0.57147,2e-5 1.05722,0.20004 1.45726,0.60004 0.40002,0.40005 0.60003,0.8858 0.60004,1.45726 l 0,5.22895"
           style="font-size:42.86032104px;font-variant:normal;font-stretch:normal;text-align:center;text-anchor:middle;fill:#f14623;font-family:Space Age;-inkscape-font-specification:Space Age"
           id="path4265" />
      </g>
    </g>
    <g
       transform="translate(-526.18108,-141.73205)"
       id="g4826">
      <text
         sodipodi:linespacing="125%"
         id="text3446-3"
         y="519.14923"
         x="578.13068"
         style="font-size:40px;font-style:normal;font-weight:normal;text-align:start;line-height:125%;letter-spacing:0px;word-spacing:0px;text-anchor:start;fill:#f14623;fill-opacity:1;stroke:none;font-family:Sans"
         xml:space="preserve"><tspan
           style="font-size:20px;font-style:normal;font-variant:normal;font-weight:normal;font-stretch:normal;text-align:start;text-anchor:start;fill:#f14623;fill-opacity:1;font-family:Ubuntu;-inkscape-font-specification:Ubuntu"
           y="519.14923"
           x="578.13068"
           id="tspan3448-9"
           sodipodi:role="line">Cosa facciamo</tspan></text>
      <flowRoot
         transform="translate(525.96944,276.42475)"
         style="font-size:40px;font-style:normal;font-weight:normal;line-height:125%;letter-spacing:0px;word-spacing:0px;opacity:0.98999999;fill:#303030;fill-opacity:1;stroke:none;font-family:Sans"
         id="flowRoot4431-7"
         xml:space="preserve"><flowRegion
           id="flowRegion4433-5"><rect
             style="fill:#303030;fill-opacity:1"
             y="259.80878"
             x="52.857143"
             height="169.88976"
             width="419.86847"
             id="rect4435-1" /></flowRegion><flowPara
           style="font-size:11.5px;font-style:normal;font-variant:normal;font-weight:normal;font-stretch:normal;text-align:justify;text-anchor:start;fill:#303030;fill-opacity:1;font-family:Ubuntu;-inkscape-font-specification:Ubuntu"
           id="flowPara4809">Noi colleghiamo case e palazzi tra di loro attraverso collegamenti wireless ad alta velocit. Il gioco  semplice: i cittadini comprano i propri apparati e noi li aiutiamo a configurarli e montarli. Niente canoni, affitti o tasse da pagare, perch la rete  di tutti ed ognuno  responsabile del proprio &quot;nodo&quot;.</flowPara><flowPara
           style="font-size:11.5px;font-style:normal;font-variant:normal;font-weight:normal;font-stretch:normal;text-align:justify;text-anchor:start;fill:#303030;fill-opacity:1;font-family:Ubuntu;-inkscape-font-specification:Ubuntu"
           id="flowPara4833" /><flowPara
           style="font-size:11.5px;font-style:normal;font-variant:normal;font-weight:normal;font-stretch:normal;text-align:justify;text-anchor:start;fill:#303030;fill-opacity:1;font-family:Ubuntu;-inkscape-font-specification:Ubuntu"
           id="flowPara4815">Non essendo un provider e non facendolo a scopo di lucro,  necessario per limpegno dei singoli in base alle loro possibilit.</flowPara><flowPara
           style="font-size:11.5px;font-style:normal;font-variant:normal;font-weight:normal;font-stretch:normal;text-align:justify;text-anchor:start;fill:#303030;fill-opacity:1;font-family:Ubuntu;-inkscape-font-specification:Ubuntu"
           id="flowPara4839" /><flowPara
           style="font-size:11.5px;font-style:normal;font-variant:normal;font-weight:normal;font-stretch:normal;text-align:justify;text-anchor:start;fill:#303030;fill-opacity:1;font-family:Ubuntu;-inkscape-font-specification:Ubuntu"
           id="flowPara4819">Ecco alcuni dei nodi e dei collegamenti attualmente presenti a Roma e nel Lazio:</flowPara></flowRoot>      <text
         xml:space="preserve"
         style="font-size:40px;font-style:normal;font-weight:normal;line-height:125%;letter-spacing:0px;word-spacing:0px;fill:#303030;fill-opacity:1;stroke:none;font-family:Sans"
         x="998.48547"
         y="951.66705"
         id="text4696"
         sodipodi:linespacing="125%"><tspan
           sodipodi:role="line"
           x="998.48547"
           y="951.66705"
           style="font-size:10.5px;font-style:italic;font-variant:normal;font-weight:normal;font-stretch:normal;text-align:end;text-anchor:end;fill:#303030;fill-opacity:1;font-family:Ubuntu;-inkscape-font-specification:Ubuntu Italic"
           id="tspan3878">Per consultare la mappa aggiornata con i nodi attivi visitare la pagina <tspan
   style="font-size:10.5px;font-weight:bold;text-align:end;text-anchor:end"
   id="tspan4708">map.ninux.org</tspan></tspan></text>
      <text
         sodipodi:linespacing="125%"
         id="text3446-3-9"
         y="1019.1492"
         x="577.57068"
         style="font-size:40px;font-style:normal;font-weight:normal;text-align:start;line-height:125%;letter-spacing:0px;word-spacing:0px;text-anchor:start;fill:#f14623;fill-opacity:1;stroke:none;font-family:Sans"
         xml:space="preserve"><tspan
           style="font-size:20px;font-style:normal;font-variant:normal;font-weight:normal;font-stretch:normal;text-align:start;text-anchor:start;fill:#f14623;fill-opacity:1;font-family:Ubuntu;-inkscape-font-specification:Ubuntu"
           y="1019.1492"
           x="577.57068"
           id="tspan3448-9-9"
           sodipodi:role="line">Per saperne di pi...</tspan></text>
      <flowRoot
         transform="translate(526.48694,776.42476)"
         style="font-size:40px;font-style:normal;font-weight:normal;line-height:125%;letter-spacing:0px;word-spacing:0px;opacity:0.98999999;fill:#303030;fill-opacity:1;stroke:none;font-family:Sans"
         id="flowRoot4431-7-6"
         xml:space="preserve"><flowRegion
           id="flowRegion4433-5-0"><rect
             style="fill:#303030;fill-opacity:1"
             y="259.80878"
             x="52.857143"
             height="124.71069"
             width="419.86847"
             id="rect4435-1-2" /></flowRegion><flowPara
           style="font-size:13px;font-style:normal;font-variant:normal;font-weight:normal;font-stretch:normal;text-align:justify;line-height:125%;text-anchor:start;fill:#303030;fill-opacity:1;font-family:Ubuntu;-inkscape-font-specification:Ubuntu"
           id="flowPara4819-2">- Visita il nostro sito web <flowSpan
   style="font-weight:bold;line-height:125%"
   id="flowSpan3153">www.ninux.org</flowSpan></flowPara><flowPara
           style="font-size:13px;font-style:normal;font-variant:normal;font-weight:normal;font-stretch:normal;text-align:justify;line-height:200%;text-anchor:start;fill:#303030;fill-opacity:1;font-family:Ubuntu;-inkscape-font-specification:Ubuntu"
           id="flowPara3155">- Iscriviti alla nostra Mailing List, consultandone la pagina:</flowPara><flowPara
           style="font-size:13px;font-style:normal;font-variant:normal;font-weight:bold;font-stretch:normal;text-align:justify;line-height:125%;text-anchor:start;fill:#303030;fill-opacity:1;font-family:Ubuntu;-inkscape-font-specification:Ubuntu"
           id="flowPara3157">  http://wiki.ninux.org/MailingLists</flowPara><flowPara
           style="font-size:13px;font-style:normal;font-variant:normal;font-weight:normal;font-stretch:normal;text-align:justify;line-height:200%;text-anchor:start;fill:#303030;fill-opacity:1;font-family:Ubuntu;-inkscape-font-specification:Ubuntu"
           id="flowPara3161">- Passaci a trovare di persona un Gioved sera al Fusolab,</flowPara><flowPara
           style="font-size:13px;font-style:normal;font-variant:normal;font-weight:normal;font-stretch:normal;text-align:justify;line-height:125%;text-anchor:start;fill:#303030;fill-opacity:1;font-family:Ubuntu;-inkscape-font-specification:Ubuntu"
           id="flowPara3163">   in Via Giorgio Pitacco, 29 (dalle 21:30 in poi)</flowPara></flowRoot>      <g
         id="g3869">
        <image
           y="673.08057"
           x="578.83069"
           id="image3881"
           xlink:href="file:///home/alessandro/Documenti/%5B%20In%20lavorazione%20%5D/NINUX/Volantino%20Ninux/Ninux%20map%20(street).png"
           height="264.54227"
           width="419.88199" />
        <rect
           y="673.08069"
           x="578.83069"
           height="264.54199"
           width="419.88199"
           id="rect3867"
           style="fill:none;stroke:#757575;stroke-linecap:butt;stroke-opacity:1;stroke-width:0.5;stroke-miterlimit:4;stroke-dasharray:none" />
      </g>
    </g>
  </g>
</svg>
