<?xml version="1.0" encoding="UTF-8" standalone="no"?>
<!-- Created with Inkscape (http://www.inkscape.org/) -->
<svg
   xmlns:dc="http://purl.org/dc/elements/1.1/"
   xmlns:cc="http://creativecommons.org/ns#"
   xmlns:rdf="http://www.w3.org/1999/02/22-rdf-syntax-ns#"
   xmlns:svg="http://www.w3.org/2000/svg"
   xmlns="http://www.w3.org/2000/svg"
   xmlns:sodipodi="http://sodipodi.sourceforge.net/DTD/sodipodi-0.dtd"
   xmlns:inkscape="http://www.inkscape.org/namespaces/inkscape"
   width="744.09448819"
   height="1052.3622047"
   id="svg2"
   sodipodi:version="0.32"
   inkscape:version="0.46"
   sodipodi:docname="colosseo0.svg"
   inkscape:output_extension="org.inkscape.output.svg.inkscape">
  <defs
     id="defs4">
    <inkscape:perspective
       sodipodi:type="inkscape:persp3d"
       inkscape:vp_x="0 : 526.18109 : 1"
       inkscape:vp_y="0 : 1000 : 0"
       inkscape:vp_z="744.09448 : 526.18109 : 1"
       inkscape:persp3d-origin="372.04724 : 350.78739 : 1"
       id="perspective10" />
    <inkscape:perspective
       id="perspective2918"
       inkscape:persp3d-origin="372.04724 : 350.78739 : 1"
       inkscape:vp_z="744.09448 : 526.18109 : 1"
       inkscape:vp_y="0 : 1000 : 0"
       inkscape:vp_x="0 : 526.18109 : 1"
       sodipodi:type="inkscape:persp3d" />
  </defs>
  <sodipodi:namedview
     id="base"
     pagecolor="#ff9900"
     bordercolor="#666666"
     borderopacity="1.0"
     gridtolerance="10000"
     guidetolerance="10"
     objecttolerance="10"
     inkscape:pageopacity="1"
     inkscape:pageshadow="2"
     inkscape:zoom="0.35"
     inkscape:cx="375"
     inkscape:cy="520"
     inkscape:document-units="px"
     inkscape:current-layer="layer1"
     showgrid="false"
     inkscape:window-width="1278"
     inkscape:window-height="750"
     inkscape:window-x="0"
     inkscape:window-y="0" />
  <metadata
     id="metadata7">
    <rdf:RDF>
      <cc:Work
         rdf:about="">
        <dc:format>image/svg+xml</dc:format>
        <dc:type
           rdf:resource="http://purl.org/dc/dcmitype/StillImage" />
      </cc:Work>
    </rdf:RDF>
  </metadata>
  <g
     inkscape:label="Layer 1"
     inkscape:groupmode="layer"
     id="layer1">
    <path
       style="fill:#000000"
       d="M 218.18743,542.14279 C 215.40179,526.9757 210.81738,502.43259 207.99985,487.60254 C 205.18232,472.7725 198.78012,438.02607 193.77273,410.38826 C 188.76535,382.75045 182.79587,350.21014 180.50724,338.07647 C 178.2186,325.94279 175.21098,309.39688 173.82365,301.30776 C 172.43632,293.21865 171.05057,286.21729 170.7442,285.74919 C 170.43784,285.28109 162.75611,292.17522 153.67368,301.06948 C 144.59125,309.96374 135.40749,317.24087 133.26532,317.24087 C 131.12314,317.24087 125.96082,320.95277 121.79348,325.48953 C 111.26596,336.95032 98.046717,346.65583 92.964267,346.65583 C 90.615657,346.65583 86.086507,348.68246 82.899487,351.15945 C 74.949027,357.33864 70.663717,358.80816 67.333757,356.49727 C 55.427128,348.23446 117.96414,257.07425 192.03475,174.72063 C 220.74745,142.7971 246.43735,119.98463 251.54965,121.87176 C 256.29937,123.62505 255.13508,133.24722 248.59994,146.24956 C 244.92823,153.55481 241.9241,161.30994 241.9241,163.4832 C 241.9241,167.6248 234.595,183.23425 229.41259,190.13008 C 227.74645,192.3471 226.00775,197.49251 225.54881,201.56434 C 225.08988,205.63616 219.72321,216.82192 213.62289,226.42158 L 202.53139,243.8755 L 250.06145,243.58682 L 297.5915,243.29813 L 301.2993,257.59546 C 304.93345,271.6088 309.00435,286.40461 322.76839,335.62522 C 326.53845,349.10708 331.2719,366.75606 333.28722,374.84518 L 336.9514,389.55266 L 465.908,390.18474 L 594.86459,390.81684 L 591.06958,412.24596 C 586.77924,436.4721 576.49893,492.81478 568.37487,536.62749 C 565.37501,552.80572 562.90026,566.86975 562.87546,567.88089 C 562.85064,568.89203 486.42527,569.71932 393.04129,569.71932 L 223.25222,569.71932 L 218.18743,542.14279 z M 284.59033,549.49653 C 282.4711,535.33683 279.06915,509.71698 279.05218,507.7893 C 279.04312,506.75835 275.84301,503.72905 271.94084,501.05754 C 262.55232,494.62995 250.63996,494.7882 243.10821,501.44057 C 236.6252,507.16663 236.67911,504.78738 242.24141,539.69155 L 245.07347,557.46309 L 265.42806,557.46309 L 285.78266,557.46309 L 284.59033,549.49653 z M 370.23699,532.514 C 369.23535,509.15727 368.79097,507.20169 363.27429,501.87341 C 356.3488,495.18447 345.20268,494.39595 335.68622,499.92173 C 332.14383,501.97862 329.1136,505.56357 328.95234,507.88828 C 328.47087,514.8297 329.2767,533.38677 330.59948,545.81966 L 331.83827,557.46309 L 351.57258,557.46309 L 371.30692,557.46309 L 370.23699,532.514 z M 458.82515,542.39603 C 461.50757,513.57902 460.79542,506.8442 454.47567,501.26231 C 447.07734,494.7278 435.53753,494.73675 426.10251,501.28433 C 418.94894,506.24867 418.74933,506.82907 418.72595,522.73274 C 418.71274,531.72303 418.09302,543.21521 417.3488,548.27091 L 415.99569,557.46309 L 436.70916,557.46309 L 457.42265,557.46309 L 458.82515,542.39603 z M 545.17091,545.16082 C 546.46322,538.39457 548.16848,526.66871 548.96035,519.10335 C 550.27928,506.50259 549.95983,504.96804 545.15427,500.81952 C 536.93392,493.72306 522.86869,494.69905 514.84289,502.92284 C 509.34904,508.5522 507.91057,512.49319 506.11954,526.8225 C 504.93996,536.2598 503.95539,547.01465 503.93162,550.72216 L 503.88837,557.46309 L 523.35481,557.46309 L 542.82122,557.46309 L 545.17091,545.16082 z M 276.00908,472.28225 C 275.3543,468.57474 273.67681,456.1653 272.28132,444.70572 C 269.29099,420.14957 267.89309,416.55219 259.43208,411.63925 C 249.20816,405.7027 234.90167,406.80314 228.88994,413.98858 C 223.99517,419.83894 223.91255,420.63344 226.40446,437.88824 C 227.82214,447.70467 229.50529,459.59705 230.1448,464.3157 C 232.20213,479.4959 231.39915,479.02318 255.12725,479.02318 L 277.19957,479.02318 L 276.00908,472.28225 z M 367.95253,449.04528 C 366.78075,420.48752 366.44953,418.80378 360.96049,413.5022 C 353.21342,406.01974 336.65073,405.77278 328.44841,413.01742 C 322.04377,418.67426 321.45748,425.05745 324.10827,460.26898 L 325.52011,479.02318 L 347.35136,479.02318 L 369.18259,479.02318 L 367.95253,449.04528 z M 463.27991,466.15413 C 466.99393,425.76498 466.94704,421.6024 462.70946,415.51828 C 459.49959,410.90969 455.97738,409.37349 446.62383,408.50251 C 435.81036,407.49559 433.97491,408.06832 427.71364,414.40311 C 420.86104,421.33617 420.7634,421.75839 419.4307,450.22102 L 418.08208,479.02318 L 440.08931,479.02318 L 462.09653,479.02318 L 463.27991,466.15413 z M 558.09323,463.38175 C 559.50492,454.77895 561.27499,441.13295 562.02669,433.05729 C 563.22662,420.16665 562.82612,417.73727 558.74583,413.15567 C 551.52363,405.04613 534.43288,405.83396 525.61274,414.68302 C 519.5217,420.79402 518.59773,423.73594 515.79707,445.93642 C 511.18253,482.5155 509.25344,479.02318 534.07353,479.02318 L 555.52655,479.02318 L 558.09323,463.38175 z M 265.93749,384.89396 C 265.93749,384.35396 263.95281,368.63533 261.52708,349.96369 C 257.24966,317.03891 256.88859,315.77502 249.55244,308.04869 C 243.15361,301.30952 240.34697,300.08214 231.33538,300.08214 C 223.71175,300.08214 218.97101,301.59384 214.66359,305.39834 C 208.90455,310.48497 208.69798,311.41121 209.87998,326.84675 C 211.25906,344.85583 215.18912,375.00965 217.01436,381.5861 C 218.05301,385.32842 221.25032,385.87579 242.07121,385.87579 C 255.19766,385.87579 265.93749,385.43397 265.93749,384.89396 z M 81.094757,349.4073 C 84.489847,346.89381 89.502007,339.45541 92.232887,332.87753 C 109.89593,290.3325 212.56162,165.55097 237.05728,156.85566 C 243.92143,154.41906 257.46462,123.59234 251.67095,123.59234 C 251.02837,123.59234 247.83568,125.49178 244.57609,127.81332 C 211.65824,151.2579 137.87222,237.62454 93.212467,304.98463 C 66.929407,344.62724 61.710967,363.75769 81.094757,349.4073 z M 111.97376,330.68022 C 125.70045,318.6074 131.97793,310.62931 129.73354,308.10916 C 129.09649,307.39385 122.57741,313.29234 115.24669,321.21691 C 107.91597,329.14148 100.75579,336.01233 99.335167,336.48547 C 97.914547,336.95861 107.08226,325.92799 119.70786,311.973 C 152.62461,275.59034 165.84609,257.05603 164.18481,249.62375 C 163.00461,244.34373 163.57403,243.70345 169.44991,243.70345 C 174.9495,243.70345 179.02361,240.06457 194.10189,221.68499 C 204.03684,209.57484 212.60493,200.16001 213.14207,200.76315 C 215.4956,203.40583 222.97062,195.88095 230.29285,183.49795 C 241.47129,164.59349 238.24232,164.65867 225.50387,183.59461 C 219.64829,192.29904 214.5114,199.03239 214.08857,198.5576 C 213.66573,198.08281 218.71062,189.59158 225.29944,179.68819 C 231.88826,169.7848 236.90724,161.26448 236.45274,160.75413 C 235.99823,160.24379 232.37712,162.41289 228.40581,165.57436 C 201.19026,187.2401 137.56009,263.44557 108.93066,308.6615 C 95.439167,329.96932 92.281707,336.85084 95.996517,336.85084 C 97.470617,336.85084 97.236517,338.40403 95.382247,340.92634 C 90.117457,348.08787 97.046967,343.80854 111.97376,330.68022 z M 159.92865,290.52815 C 165.85961,283.71131 169.95903,277.28817 169.03847,276.25451 C 167.59895,274.63813 149.41021,294.53082 139.32142,308.7555 C 133.36351,317.15585 148.10892,304.11336 159.92865,290.52815 z M 167.70089,266.3497 C 167.70089,260.90704 164.80175,263.43304 151.49226,280.47216 C 131.19274,306.46008 130.17534,313.91615 150.13026,290.45363 C 159.7941,279.09111 167.70089,268.24434 167.70089,266.3497 z M 200.70259,227.15753 C 218.56548,202.61389 218.1871,200.94248 199.56801,222.14573 C 190.44578,232.53405 182.98213,241.63431 182.98213,242.36852 C 182.98213,247.62768 190.50285,241.172 200.70259,227.15753 z M 207.50936,230.3763 C 217.17668,216.53738 225.45593,202.03225 223.68761,202.03225 C 222.39016,202.03225 193.89731,240.63462 193.89731,242.39242 C 193.89731,246.82118 199.43888,241.92932 207.50936,230.3763 z"
       id="path2924" />
  </g>
</svg>
