<?xml version="1.0" encoding="UTF-8" standalone="no"?>
<svg
   xmlns:dc="http://purl.org/dc/elements/1.1/"
   xmlns:cc="http://creativecommons.org/ns#"
   xmlns:rdf="http://www.w3.org/1999/02/22-rdf-syntax-ns#"
   xmlns:svg="http://www.w3.org/2000/svg"
   xmlns="http://www.w3.org/2000/svg"
   xmlns:sodipodi="http://sodipodi.sourceforge.net/DTD/sodipodi-0.dtd"
   xmlns:inkscape="http://www.inkscape.org/namespaces/inkscape"
   width="12.4in"
   height="19.7in"
   viewBox="0 0 1116 1773"
   id="svg2"
   version="1.1"
   inkscape:version="0.91 r13725"
   sodipodi:docname="calabriaLogo.svg">
  <metadata
     id="metadata9">
    <rdf:RDF>
      <cc:Work
         rdf:about="">
        <dc:format>image/svg+xml</dc:format>
        <dc:type
           rdf:resource="http://purl.org/dc/dcmitype/StillImage" />
      </cc:Work>
    </rdf:RDF>
  </metadata>
  <defs
     id="defs7" />
  <sodipodi:namedview
     pagecolor="#ffffff"
     bordercolor="#666666"
     borderopacity="1"
     objecttolerance="10"
     gridtolerance="10"
     guidetolerance="10"
     inkscape:pageopacity="0"
     inkscape:pageshadow="2"
     inkscape:window-width="1920"
     inkscape:window-height="986"
     id="namedview5"
     showgrid="false"
     inkscape:zoom="0.13310772"
     inkscape:cx="557.99998"
     inkscape:cy="886.50003"
     inkscape:window-x="0"
     inkscape:window-y="27"
     inkscape:window-maximized="1"
     inkscape:current-layer="svg2" />
  <path
     id="Selezione #1"
     fill="none"
     stroke="black"
     stroke-width="1"
     d="M 152.00,0.27            C 170.96,1.20 186.19,15.81 186.96,35.00              187.77,55.06 171.84,66.40 160.89,81.00              141.93,106.28 128.24,131.31 115.30,160.00              89.29,217.70 74.74,287.82 74.00,351.00              74.00,351.00 73.00,366.00 73.00,366.00              73.00,366.00 74.00,401.00 74.00,401.00              74.00,401.00 74.91,411.00 74.91,411.00              74.91,411.00 78.87,449.00 78.87,449.00              87.06,507.88 102.98,558.14 130.26,611.00              138.16,626.31 152.57,648.48 163.21,662.00              173.89,675.57 185.27,683.53 186.68,702.00              186.92,705.12 186.06,709.95 185.24,713.00              178.99,736.33 150.19,747.16 130.00,733.89              121.19,728.10 108.42,711.00 102.00,702.00              84.88,678.00 70.10,652.53 57.26,626.00              27.62,564.76 10.58,497.49 3.83,430.00              3.83,430.00 1.00,385.00 1.00,385.00              1.00,385.00 0.04,369.00 0.04,369.00              0.04,369.00 1.00,356.00 1.00,356.00              1.00,356.00 1.00,348.00 1.00,348.00              1.00,348.00 2.00,331.00 2.00,331.00              2.00,331.00 2.91,321.00 2.91,321.00              2.91,321.00 7.73,278.00 7.73,278.00              14.51,230.99 28.42,180.64 47.15,137.00              62.70,100.76 81.43,65.64 105.13,34.00              117.28,17.77 124.92,4.38 146.00,0.27              148.32,0.14 149.61,-0.05 152.00,0.27 Z            M 1006.00,28.00            C 1030.95,59.47 1049.86,95.54 1066.30,132.00              1102.25,211.70 1116.01,301.15 1115.00,388.00              1115.00,388.00 1114.00,407.00 1114.00,407.00              1114.00,407.00 1113.09,417.00 1113.09,417.00              1113.09,417.00 1108.27,461.00 1108.27,461.00              1100.68,513.66 1084.90,568.63 1062.69,617.00              1049.26,646.25 1033.19,674.85 1014.42,701.00              1008.72,708.94 995.33,726.96 988.00,732.21              963.41,749.84 927.81,733.41 929.04,702.00              929.74,684.22 943.78,673.08 953.99,660.00              967.84,642.25 980.56,621.14 990.63,601.00              1015.76,550.74 1032.18,493.87 1038.16,438.00              1038.16,438.00 1041.00,412.00 1041.00,412.00              1041.00,412.00 1041.00,403.00 1041.00,403.00              1041.00,403.00 1042.00,393.00 1042.00,393.00              1042.00,393.00 1042.00,349.00 1042.00,349.00              1042.00,349.00 1041.00,337.00 1041.00,337.00              1041.00,337.00 1041.00,328.00 1041.00,328.00              1041.00,328.00 1038.16,302.00 1038.16,302.00              1032.92,252.97 1018.26,198.81 997.69,154.00              986.12,128.79 972.20,104.19 955.53,82.00              943.49,65.98 928.76,56.72 929.00,35.00              929.22,15.65 942.94,3.82 961.00,0.44              982.95,-2.36 993.95,12.81 1006.00,28.00 Z            M 327.00,146.00            C 327.19,163.38 321.93,167.40 311.27,180.00              311.27,180.00 300.03,195.00 300.03,195.00              286.23,215.24 274.30,241.59 267.02,265.00              242.69,343.30 247.00,437.28 281.31,512.00              287.70,525.92 297.19,541.77 306.37,554.00              306.37,554.00 322.52,574.00 322.52,574.00              335.20,595.01 322.93,623.10 299.00,628.18              277.27,632.80 265.62,620.71 253.42,605.00              234.06,580.05 216.66,546.55 205.42,517.00              190.94,478.94 182.70,439.56 179.91,399.00              179.91,399.00 178.96,387.00 178.96,387.00              178.96,387.00 178.96,378.00 178.96,378.00              178.65,374.13 177.85,372.29 178.09,368.00              178.09,368.00 179.00,356.00 179.00,356.00              179.00,356.00 179.00,351.00 179.00,351.00              179.00,351.00 180.83,329.00 180.83,329.00              185.43,282.99 196.42,241.09 215.69,199.00              225.33,177.96 236.81,157.61 250.63,139.00              262.47,123.05 267.51,114.75 288.00,111.43              308.30,109.36 326.76,125.60 327.00,146.00 Z            M 861.87,135.00            C 882.30,162.02 894.10,185.14 907.28,216.00              939.29,290.97 944.84,386.03 926.12,465.00              919.54,492.72 912.58,511.93 901.42,538.00              891.75,560.59 874.91,588.84 859.60,608.00              850.41,619.51 841.74,629.25 826.00,629.96              798.78,631.19 779.79,606.83 789.09,581.00              792.84,570.57 803.27,562.13 810.11,553.00              819.91,539.90 828.86,523.88 835.69,509.00              865.09,444.97 869.98,369.67 857.58,301.00              851.05,264.87 837.82,231.31 818.80,200.00              814.53,192.98 809.60,186.34 804.39,180.00              795.46,169.16 787.19,161.51 788.09,146.00              789.24,126.35 802.24,114.51 821.00,111.43              839.99,109.14 851.37,121.10 861.87,135.00 Z            M 520.00,210.20            C 537.15,220.62 550.65,235.34 562.88,251.00              562.88,251.00 572.10,262.00 572.10,262.00              578.70,270.72 584.36,283.63 587.92,294.00              599.94,329.05 604.16,373.13 608.72,410.00              611.49,432.46 612.40,454.89 621.43,476.00              633.95,505.29 658.74,539.13 683.00,559.56              691.73,566.92 696.97,569.05 706.00,575.00              706.00,575.00 741.00,600.21 741.00,600.21              749.50,606.90 761.32,616.33 767.51,625.00              774.73,635.11 769.77,639.23 759.00,638.99              759.00,638.99 745.00,638.01 745.00,638.01              728.72,638.38 727.93,642.38 717.00,651.79              712.19,655.93 710.09,656.05 706.10,662.00              700.56,670.29 694.75,687.29 682.00,685.63              673.37,684.51 663.48,674.22 659.34,667.00              655.86,660.95 652.92,652.57 645.00,651.23              638.81,650.18 631.95,654.04 627.00,657.36              617.96,663.42 602.33,678.51 594.00,681.79              583.25,686.02 568.00,675.83 559.00,670.40              555.62,668.36 549.96,663.68 546.00,664.69              542.80,665.51 538.34,669.69 536.01,672.01              527.61,680.40 523.38,687.82 517.77,698.00              515.69,701.75 510.56,710.00 506.91,711.98              505.00,713.01 496.20,713.97 494.00,713.57              489.33,712.73 479.34,706.21 477.17,701.99              476.01,699.72 476.04,697.46 476.00,695.00              475.89,687.04 476.26,682.36 472.10,675.01              468.75,669.10 463.20,666.06 458.00,661.99              445.68,652.31 441.50,646.99 426.00,641.06              413.92,636.44 389.59,633.93 393.68,616.00              397.07,601.11 412.30,588.33 424.00,579.63              444.71,564.22 468.14,552.73 490.00,539.05              497.83,534.15 507.48,529.32 513.99,522.96              524.15,513.03 528.10,498.56 530.80,485.00              536.15,458.10 536.32,429.37 536.00,402.00              535.86,390.46 530.02,368.52 526.71,357.00              519.42,331.63 507.24,302.20 494.69,279.00              494.69,279.00 480.95,255.00 480.95,255.00              480.95,255.00 469.48,237.17 469.48,237.17              463.46,226.51 463.14,214.59 471.09,205.02              473.94,201.58 474.94,200.43 479.01,198.65              493.18,195.70 508.18,203.03 520.00,210.20 Z            M 452.00,257.00            C 452.21,275.04 446.81,277.71 436.68,291.00              433.35,295.36 430.69,300.11 428.25,305.00              417.93,325.64 413.74,351.07 414.00,374.00              414.00,374.00 414.83,383.00 414.83,383.00              416.96,404.99 420.52,421.36 431.31,441.00              439.81,456.47 452.39,461.86 451.98,482.00              451.66,498.36 440.17,513.03 424.00,516.48              420.86,517.15 416.29,517.03 413.00,517.00              397.81,516.82 389.56,508.58 381.15,497.00              371.85,484.19 364.77,470.51 358.58,456.00              333.91,398.12 335.59,329.34 363.75,273.00              372.07,256.36 384.54,231.06 403.00,224.55              407.03,223.12 410.79,222.93 415.00,222.71              434.93,223.16 451.75,236.00 452.00,257.00 Z            M 717.00,228.79            C 730.37,238.31 745.27,265.68 751.85,281.00              761.44,303.32 766.59,323.90 769.16,348.00              769.16,348.00 770.91,372.00 770.91,372.00              768.47,414.97 759.24,452.23 735.95,489.00              729.46,499.24 722.62,509.80 711.00,514.55              685.75,524.85 659.69,507.67 660.00,480.00              660.17,465.32 666.20,460.69 674.49,450.00              676.88,446.91 679.61,442.43 681.57,439.00              690.64,423.15 696.97,397.27 697.00,379.00              697.00,379.00 697.00,362.00 697.00,362.00              696.94,343.03 691.82,322.12 683.68,305.00              681.49,300.39 677.48,294.01 674.33,290.00              665.93,279.30 658.21,272.11 659.09,257.00              660.25,237.12 673.33,225.88 692.00,222.44              700.13,221.47 710.32,224.03 717.00,228.79 Z            M 784.02,680.00            C 787.18,690.20 793.06,706.92 798.17,716.00              798.17,716.00 804.58,726.00 804.58,726.00              809.59,734.01 814.09,743.31 823.00,747.60              827.97,749.99 840.35,751.11 846.00,750.99              852.73,750.83 856.49,749.13 864.00,750.46              900.76,756.97 924.72,785.29 955.00,803.55              971.72,813.64 991.25,817.81 1009.00,825.86              1022.58,832.02 1037.37,842.88 1049.00,852.20              1049.00,852.20 1060.00,861.58 1060.00,861.58              1070.55,870.69 1073.98,873.86 1074.00,888.00              1074.00,888.00 1074.00,901.00 1074.00,901.00              1074.00,901.00 1073.09,911.00 1073.09,911.00              1073.09,911.00 1071.83,930.00 1071.83,930.00              1071.40,934.50 1070.90,936.12 1071.01,941.00              1071.38,957.22 1076.65,972.49 1080.85,988.00              1080.85,988.00 1099.88,1062.00 1099.88,1062.00              1102.79,1074.25 1108.26,1100.08 1107.99,1112.00              1107.49,1134.04 1097.35,1158.30 1078.00,1170.07              1066.82,1176.88 1054.92,1179.15 1042.00,1179.00              1042.00,1179.00 1016.00,1175.15 1016.00,1175.15              1016.00,1175.15 998.00,1175.15 998.00,1175.15              988.50,1175.11 975.06,1178.62 966.00,1181.67              943.21,1189.33 916.05,1205.63 898.01,1221.43              898.01,1221.43 890.83,1228.56 890.83,1228.56              879.14,1239.45 870.83,1243.07 862.81,1259.00              855.47,1273.59 855.82,1284.28 856.00,1300.00              856.28,1323.68 864.93,1347.05 869.79,1370.00              876.30,1400.78 875.99,1434.97 862.69,1464.00              833.36,1528.05 766.10,1534.58 728.45,1597.00              714.02,1620.92 702.29,1654.08 694.42,1681.00              687.41,1705.00 681.11,1731.31 662.00,1748.91              644.93,1764.63 620.84,1766.05 599.00,1768.17              568.80,1771.09 538.20,1776.47 508.00,1770.40              492.00,1767.18 474.30,1759.55 463.44,1746.99              444.28,1724.82 440.63,1700.97 437.83,1673.00              437.83,1673.00 435.00,1621.00 435.00,1621.00              435.20,1604.35 439.47,1587.47 449.48,1574.00              456.84,1564.09 458.19,1564.61 466.00,1556.99              471.53,1551.59 476.63,1545.93 481.57,1540.00              500.28,1517.50 520.61,1481.95 526.20,1453.00              530.10,1432.79 525.57,1417.24 516.74,1399.00              512.00,1389.20 502.81,1373.54 502.09,1363.00              501.31,1351.60 510.60,1334.16 517.04,1325.00              541.49,1290.21 579.46,1284.53 616.00,1270.00              621.59,1267.78 632.76,1264.13 636.57,1259.79              638.96,1257.07 638.73,1254.75 642.30,1250.00              647.38,1243.25 650.44,1240.09 649.91,1231.00              648.97,1214.91 633.92,1192.73 625.42,1179.00              612.17,1157.60 600.71,1135.15 590.85,1112.00              578.90,1083.96 568.85,1047.07 563.42,1017.00              563.42,1017.00 558.28,985.00 558.28,985.00              556.57,972.01 557.17,967.20 552.97,954.00              545.80,931.46 531.39,908.58 518.33,889.00              518.33,889.00 447.42,783.00 447.42,783.00              447.42,783.00 426.14,746.00 426.14,746.00              413.43,723.22 400.33,699.78 395.00,674.00              395.00,674.00 393.18,665.00 393.18,665.00              392.28,654.85 400.67,654.96 408.00,657.22              419.17,660.66 435.95,671.61 443.96,680.00              449.83,686.15 450.63,690.71 454.25,698.00              461.59,712.79 474.94,737.77 492.00,742.20              496.97,743.49 502.44,741.30 507.00,739.38              519.33,734.21 529.25,723.89 536.66,713.00              538.88,709.73 545.12,696.98 548.21,696.39              551.73,695.71 558.67,699.66 562.00,701.14              570.29,704.83 581.82,709.91 591.00,708.82              600.32,707.70 615.00,701.07 622.00,694.83              625.21,691.97 632.46,682.79 636.91,683.88              640.56,684.79 644.63,692.85 646.70,696.00              652.41,704.71 660.74,712.90 672.00,711.82              688.57,710.25 709.63,690.48 724.00,681.00              742.97,668.49 757.69,665.65 779.00,660.00              779.00,660.00 784.02,680.00 784.02,680.00 Z"
     style="fill:#f14623;fill-opacity:1" />
</svg>
