<?xml version="1.0" encoding="UTF-8" standalone="no"?>
<!-- Created with Inkscape (http://www.inkscape.org/) -->

<svg
   xmlns:dc="http://purl.org/dc/elements/1.1/"
   xmlns:cc="http://creativecommons.org/ns#"
   xmlns:rdf="http://www.w3.org/1999/02/22-rdf-syntax-ns#"
   xmlns:svg="http://www.w3.org/2000/svg"
   xmlns="http://www.w3.org/2000/svg"
   xmlns:sodipodi="http://sodipodi.sourceforge.net/DTD/sodipodi-0.dtd"
   xmlns:inkscape="http://www.inkscape.org/namespaces/inkscape"
   width="1115.6088"
   height="1773.3516"
   id="svg2"
   version="1.1"
   inkscape:version="0.48.4 r9939"
   sodipodi:docname="10LogoCalabriaqrDES.svg">
  <defs
     id="defs4" />
  <sodipodi:namedview
     id="base"
     pagecolor="#ffffff"
     bordercolor="#666666"
     borderopacity="1.0"
     inkscape:pageopacity="0.0"
     inkscape:pageshadow="2"
     inkscape:zoom="0.25"
     inkscape:cx="259.46636"
     inkscape:cy="1246.3159"
     inkscape:document-units="px"
     inkscape:current-layer="layer2"
     showgrid="false"
     fit-margin-top="0"
     fit-margin-left="0"
     fit-margin-right="0"
     fit-margin-bottom="0"
     guidetolerance="10000"
     objecttolerance="10000"
     inkscape:window-width="1215"
     inkscape:window-height="1000"
     inkscape:window-x="1345"
     inkscape:window-y="24"
     inkscape:window-maximized="1" />
  <metadata
     id="metadata7">
    <rdf:RDF>
      <cc:Work
         rdf:about="">
        <dc:format>image/svg+xml</dc:format>
        <dc:type
           rdf:resource="http://purl.org/dc/dcmitype/StillImage" />
        <dc:title />
      </cc:Work>
    </rdf:RDF>
  </metadata>
  <g
     inkscape:groupmode="layer"
     id="layer1"
     inkscape:label="alldes"
     style="display:none">
    <path
       d="m 695.72469,224.57331 c -19.23506,0 -34.82057,15.46053 -34.82057,34.49561 0,9.66128 4.02448,18.41016 10.46117,24.64687 0,0 27.65898,25.9592 27.85895,86.539 0,0.27496 0,0.43744 0,0.67491 -0.19997,60.5798 -27.85895,86.5265 -27.85895,86.5265 -6.16172,6.2492 -9.93624,14.74812 -9.93624,24.17192 0,19.08508 15.62301,34.58311 34.85807,34.58311 9.77375,0 18.59763,-4.01199 24.90933,-10.41118 0,0 44.75681,-48.29386 47.25649,-128.83362 0,-0.075 0,-0.16248 0,-0.23747 0.28746,-1.74978 0.43745,-3.57454 0.43745,-5.4493 0,-0.11249 0,-0.23747 0,-0.34996 0,-0.0875 0,-0.16248 0,-0.23747 0,-1.34983 -0.19998,-2.54968 -0.19998,-3.86201 -0.075,-0.43744 -0.14998,-0.87489 -0.23747,-1.31233 -2.02474,-81.32716 -47.25649,-130.13345 -47.25649,-130.13345 -6.23671,-6.52417 -15.02309,-10.66115 -24.79685,-10.77363 -0.19997,0 -0.43744,-0.0375 -0.67491,-0.0375 z m 94.15053,-76.56526 c 0,9.62377 3.97449,18.32267 10.37368,24.57187 0,0 65.14171,64.22933 65.50417,197.47489 0.0375,0.39995 0,0.71241 0,1.07486 -0.36246,133.27056 -65.50417,197.47489 -65.50417,197.47489 -7.18659,6.3117 -11.72351,15.53553 -11.72351,25.79672 0,19.07258 15.58552,34.49562 34.82057,34.49562 10.61115,0 20.14744,-4.7244 26.54662,-12.16096 0,0 82.55202,-86.65148 85.08922,-239.76951 0.3249,-1.74978 0.4374,-3.57454 0.4374,-5.4493 0,-0.14999 0,-0.27497 0,-0.38746 0,-0.16247 0,-0.28746 0,-0.43744 0,-1.43732 -0.2,-2.66216 -0.2,-4.09948 -0.075,-0.43744 -0.1499,-0.87489 -0.2374,-1.27484 -2.1373,-153.83044 -85.08922,-240.88187 -85.08922,-240.88187 -6.36169,-6.67415 -15.38554,-10.88611 -25.39677,-10.88611 -0.98737,0 -1.94975,0.0375 -2.89963,0.11248 -17.76024,1.56231 -31.72096,16.34793 -31.72096,34.34564 z M 965.22794,2.5265456 c -19.19754,0 -34.77064,15.4230304 -34.77064,34.5081084 0,9.53629 3.887,18.16019 10.2112,24.3969 0,0 102.862,102.524466 103.4119,308.423286 0,0.51243 0,0.94988 0,1.5123 -0.5499,205.86133 -103.4119,308.17332 -103.4119,308.17332 -6.1617,6.19921 -9.9362,14.74812 -9.9362,24.17192 0,19.07258 15.5855,34.53311 34.85814,34.53311 9.7737,0 18.5976,-3.97449 24.9218,-10.37368 0,0 119.78476,-124.93411 122.57186,-350.46793 0,-0.075 0,-0.16248 0,-0.23747 0.275,-1.74978 0.4375,-3.57455 0.4375,-5.44931 0,-0.11249 0,-0.23747 0,-0.34996 0,-0.23747 0,-0.43744 0,-0.67491 0,-0.28746 0,-0.56243 0,-0.83739 0,-0.43745 0,-0.87489 0,-1.31234 0,-1.91225 -0.125,-3.77452 -0.4375,-5.61178 -0.088,-0.14998 -0.1625,-0.27497 -0.2,-0.43745 C 1109.6221,137.83434 990.51224,13.300176 990.51224,13.300176 984.22554,6.7385056 975.32664,2.6140256 965.46544,2.5265456 c -0.075,0 -0.15,0 -0.2375,0 z M 390.32602,235.38444 c 0,0 -44.74431,48.29385 -47.24399,128.82111 -0.28746,1.78728 -0.43744,3.62454 -0.43744,5.48681 0,0.19997 0,0.39995 0,0.56243 0,0.14998 0,0.31246 0,0.43744 0,0.075 0,0.14998 0,0.23747 0.0375,1.46231 0.18747,2.89963 0.43744,4.28695 1.86226,81.60213 47.24399,130.5834 47.24399,130.5834 6.3242,6.39919 15.14808,10.37368 24.88434,10.37368 19.27255,0 34.89556,-15.46053 34.89556,-34.5831 0,-9.38631 -3.77452,-17.88523 -9.93623,-24.13443 0,0 -27.62149,-25.9467 -27.85896,-86.5265 0,-0.23747 0,-0.39995 0,-0.67491 0.23747,-60.5798 27.85896,-86.539 27.85896,-86.539 6.32419,-6.23671 10.26119,-14.86061 10.26119,-24.44689 0,-19.03508 -15.58552,-34.49561 -34.82057,-34.49561 -0.43745,0 -0.91239,0.0375 -1.34983,0.0375 -9.38631,0.31246 -17.84773,4.28696 -23.93446,10.57366 z M 265.37941,124.43604 c 0,0 -82.27704,86.57649 -84.9392,239.56954 -0.27496,1.74978 -0.43744,3.58704 -0.43744,5.4868 0,0.16248 0,0.36246 0,0.56243 0,0.23747 0,0.43745 0,0.63742 0,0.14998 0,0.27497 0,0.43744 0.0375,1.6248 0.19997,3.2121 0.43744,4.7619 2.18722,153.79294 84.9392,240.84437 84.9392,240.84437 6.36169,6.76164 15.42304,11.0111 25.47176,11.0111 19.23506,0 34.82057,-15.42304 34.82057,-34.50811 0,-9.64877 -4.01198,-18.36016 -10.46116,-24.63437 0,0 -65.14172,-64.20433 -65.52917,-197.47489 0,-0.36245 0,-0.67491 0,-1.07486 0.38745,-133.24556 65.52917,-197.47489 65.52917,-197.47489 6.32419,-6.2492 10.26119,-14.87311 10.26119,-24.44689 0,-19.04758 -15.58552,-34.50811 -34.82057,-34.50811 -0.43745,0 -0.91239,0.0375 -1.34983,0.0375 -9.4238,0.36246 -17.88523,4.46194 -23.92196,10.77363 z M 124.95977,13.300176 c 0,0 -119.1973449,124.609154 -122.3719349,349.393074 -0.39995,2.14972 -0.63742,4.37444 -0.63742,6.68665 0,0.14998 0,0.31246 0,0.47494 0,0.27496 0,0.54993 0,0.83739 0,0.23747 0,0.43744 0,0.67491 0,0.34996 -0.0375,0.71241 -0.0375,1.11236 0,1.89976 0.16248,3.73703 0.47494,5.5618 0.0375,0.16247 0.12499,0.27496 0.19998,0.43744 3.17459,224.82141 122.3719349,349.39307 122.3719349,349.39307 6.32419,6.39919 15.14807,10.37368 24.92183,10.37368 19.23505,0 34.85807,-15.46053 34.85807,-34.53311 0,-9.4238 -3.77452,-17.97271 -9.93624,-24.17192 0,0 -102.861917,-102.31199 -103.411847,-308.17332 0,-0.56242 0,-0.99987 0,-1.5123 C 71.941513,163.95602 174.80343,61.431554 174.80343,61.431554 c 6.3117,-6.23671 10.2487,-14.89811 10.2487,-24.4344 0,-19.047578 -15.57302,-34.5081084 -34.82058,-34.5081084 -0.42494,0 -0.91238,0 -1.34982,0.0375 -9.41131,0.36245 -17.88523,4.41193 -23.92196,10.7736304 z M 235.5582,1547.9674 c 0,7.1116 1.79977,13.9858 5.47431,19.935 3.38707,5.5368 7.849,10.2862 13.23581,14.1607 0.025,0.025 0.0625,0.05 0.0875,0.087 5.17435,3.812 10.9986,6.6742 17.3478,8.6864 0.05,0.025 0.12498,0.063 0.18747,0.088 6.18672,1.8872 12.49841,2.8121 18.79761,2.8121 0,0 36.08291,0 36.08291,0 4.89938,0 9.93624,-2.0497 13.4358,-5.3743 3.47455,-3.3246 5.54929,-8.1864 5.54929,-12.8734 0,-4.6744 -2.07474,-9.6237 -5.54929,-12.9608 -3.49956,-3.2996 -8.53642,-5.2618 -13.4358,-5.2618 0,0 -36.08291,0 -36.08291,0 -1.77477,0 -3.887,-0.2 -6.2367,-0.6 -0.0625,-0.025 -0.11249,-0.075 -0.16248,-0.075 -0.0625,-0.038 -0.11249,0 -0.16248,0 -1.92476,-0.475 -3.56205,-1.1249 -5.07436,-2.0623 -1.41232,-0.9999 -2.64966,-2.2247 -3.73702,-4.087 -0.025,-0.025 -0.05,-0.05 -0.0875,-0.075 -0.7874,-1.2873 -1.47481,-3.5745 -1.47481,-7.2615 0,0 0,-73.1282 0,-73.1282 0,-3.5121 0.66241,-5.6743 1.47481,-7.0116 0.0625,-0.063 0.11248,-0.1625 0.16248,-0.25 1.12486,-1.9623 2.29971,-3.0496 3.49955,-3.837 0.0875,-0.063 0.16248,-0.175 0.24997,-0.25 1.51231,-1.0374 3.01212,-1.6373 4.87438,-1.9622 0.16248,-0.038 0.34996,-0.063 0.52494,-0.088 2.39969,-0.55 4.42443,-0.8499 6.14921,-0.8499 0.27497,0 0.57493,0 0.8499,0 0,0 35.23301,0 35.23301,0 4.89938,0 9.93624,-1.9498 13.4358,-5.2869 3.47455,-3.337 5.54929,-8.1864 5.54929,-12.8733 0,-4.6869 -2.07474,-9.5488 -5.54929,-12.8734 -3.49956,-3.3121 -8.53642,-5.3493 -13.4358,-5.3743 0,0 -36.08291,0 -36.08291,0 -6.18671,0.025 -12.47341,0.9499 -18.63513,2.8371 -6.18671,1.8498 -11.87349,4.637 -17.01033,8.2615 -0.0625,0.025 -0.11249,0.025 -0.17498,0.087 -5.16185,3.537 -9.62378,7.9865 -12.98585,13.1233 -0.025,0.05 -0.05,0.025 -0.0875,0.075 -3.79952,5.5868 -5.91175,12.111 -6.23671,18.9351 -0.025,0.125 -0.025,0.2875 0,0.4374 0,0 0,84.8892 0,84.8892 0,0 0,0 0,0 z m 5.5493,-149.1935 c 3.47456,3.3371 8.5989,5.2993 13.49828,5.2993 0,0 72.16582,0 72.16582,0 4.89938,0 9.93624,-1.9622 13.4358,-5.2993 3.47455,-3.2996 5.54929,-8.1739 5.54929,-12.8733 0,-4.662 -2.07474,-9.5488 -5.54929,-12.8484 -2.62467,-2.5122 -6.18672,-3.9745 -9.84875,-4.6869 -1.14985,-0.4875 -2.32471,-0.7999 -3.58705,-0.7624 0,0 -72.16582,0 -72.16582,0 -4.89938,0 -10.02372,2.1247 -13.49828,5.4493 -3.49956,3.2996 -5.5493,8.1864 -5.5493,12.8484 0,4.6994 2.04974,9.5737 5.5493,12.8733 z m -5.5493,-91.9758 c 0,7.1366 1.79977,14.0232 5.47431,19.96 3.38707,5.5118 7.849,10.2612 13.23581,14.1357 0.025,0.025 0.0625,0.075 0.0875,0.1125 5.17435,3.787 10.9986,6.7366 17.3478,8.7489 0.05,0 0.12498,0 0.18747,0 6.18672,1.8872 12.49841,2.8371 18.79761,2.8371 0,0 36.08291,0 36.08291,0 4.89938,0 9.93624,-1.9623 13.4358,-5.2868 3.47455,-3.3246 5.54929,-8.274 5.54929,-12.9609 0,-4.6869 -2.07474,-9.6238 -5.54929,-12.9483 -3.49956,-3.3246 -8.53642,-5.2994 -13.4358,-5.2994 0,0 -36.08291,0 -36.08291,0 -1.77477,0 -3.887,-0.1874 -6.2367,-0.5999 -2.04974,-0.4374 -3.79952,-1.1498 -5.39932,-2.1247 -1.41232,-0.9874 -2.64966,-2.2372 -3.73702,-4.0995 -0.025,-0.025 -0.05,-0.05 -0.0875,-0.075 -0.7874,-1.2498 -1.47481,-3.5745 -1.47481,-7.2616 0,0 0,-73.1282 0,-73.1282 0,-3.487 0.66241,-5.6742 1.47481,-6.9866 0.0625,-0.075 0.11248,-0.1875 0.16248,-0.2749 1.12486,-1.9623 2.29971,-3.0497 3.49955,-3.8121 0.0875,-0.087 0.16248,-0.1874 0.24997,-0.2749 1.51231,-1.0124 3.01212,-1.5248 4.87438,-1.8498 0.18748,-0.063 0.34996,-0.1125 0.52494,-0.2 2.39969,-0.5374 4.42443,-0.7624 6.14921,-0.7624 0,0 36.08291,0 36.08291,0 4.89938,0 9.93624,-2.0497 13.4358,-5.3743 3.47455,-3.2996 5.54929,-8.1739 5.54929,-12.8484 0,-4.6869 -2.07474,-9.5487 -5.54929,-12.8733 -3.49956,-3.3246 -8.53642,-5.3743 -13.4358,-5.3743 0,0 -36.08291,0 -36.08291,0 -6.18671,0 -12.47341,0.9623 -18.63513,2.8121 -6.21171,1.8748 -11.87349,4.6369 -17.01033,8.2615 -0.0625,0.037 -0.11249,0.063 -0.17498,0.087 -5.18684,3.5495 -9.59878,7.9989 -12.98585,13.1108 -0.025,0.063 -0.05,0.15 -0.0875,0.2 -3.79952,5.5618 -5.91175,11.9984 -6.23671,18.8226 -0.025,0.1624 -0.025,0.3499 0,0.5124 0,0 0,84.8142 0,84.8142 0,0 0,0 0,0 z m 5.5493,-294.6 c 3.47456,3.3246 8.5989,5.2868 13.49828,5.2868 0,0 36.08291,0 36.08291,0 1.72478,0 3.91201,0.3875 6.51168,0.9499 0.11248,0 0.21247,0 0.32495,0 1.69979,0.3124 3.1496,0.8749 4.7119,1.9372 0.075,0.087 0.16248,0.1875 0.24997,0.275 1.22485,0.7624 2.44969,1.9373 3.68703,3.8245 0,0.025 -0.025,0.075 0,0.1 0.76241,1.3498 1.44982,3.5995 1.44982,7.1491 0,0 0,80.5523 0,80.5523 0,3.687 -0.73741,6.1117 -1.44982,7.424 -1.23734,1.7998 -2.43719,3.1121 -3.862,4.087 -0.025,0.025 -0.05,0.088 -0.075,0.088 -1.58729,0.9749 -3.22459,1.5248 -5.03685,1.9622 -0.05,0 -0.05,0.075 -0.075,0.075 -2.46218,0.4125 -4.6869,0.5249 -6.43668,0.5249 0,0 -36.08291,0 -36.08291,0 -4.89938,0 -10.02372,2.1248 -13.49828,5.4619 -3.24959,3.0996 -5.22434,7.524 -5.46181,11.9109 0.025,0.8749 0.05,1.7248 0.075,2.5622 0,0.063 0,0.1125 0,0.1625 0.43745,4.1245 2.32471,8.1865 5.38682,11.1111 3.47456,3.3246 8.5989,5.3618 13.49828,5.3618 0,0 36.08291,0 36.08291,0 6.21171,0 12.39843,-0.9374 18.54764,-2.8246 6.21171,-1.8623 12.03597,-4.587 17.18532,-8.074 0.025,-0.037 0.075,-0.087 0.1,-0.1125 5.19934,-3.687 9.63627,-8.2365 13.16082,-13.3608 0.05,-0.063 0.11249,-0.038 0.17498,-0.088 3.66204,-5.6118 5.5493,-12.036 5.89925,-18.8476 0,-0.1625 0,-0.3624 0,-0.5249 0,0 0,-92.3133 0,-92.3133 0,-7.1116 -1.82477,-13.9857 -5.4618,-19.9225 -3.39957,-5.5118 -7.74902,-10.27359 -12.99835,-14.16069 -0.025,-0.037 -0.05,-0.062 -0.0875,-0.087 -5.27433,-3.76206 -11.13608,-6.54916 -17.37279,-8.46146 0,0 0,-0.075 0,-0.075 -0.05,0 -0.1,0.025 -0.16248,0 -6.2992,-1.9622 -12.63589,-3.1371 -18.98509,-3.1371 0,0 -36.08291,0 -36.08291,0 -4.89938,0 -10.02372,2.1248 -13.49828,5.4618 -3.49956,3.3246 -5.5493,8.17396 -5.5493,12.87336 0,4.66189 2.04974,9.53629 5.5493,12.84839 z m -5.5493,-64.51675 c 0,4.6869 2.08724,9.5488 5.5493,12.8733 3.47456,3.3246 8.5989,5.2619 13.49828,5.2619 4.7244,0 9.78626,-1.8873 13.18582,-5.0994 0.05,-0.088 0.1,-0.1625 0.16248,-0.2374 2.78715,-2.8997 4.67441,-6.5242 5.5493,-10.3487 0.025,-0.05 0.0875,-0.1125 0.0875,-0.1625 0.84989,-3.5496 1.96225,-6.8741 3.49955,-10.0612 1.5873,-3.2246 3.33708,-5.9493 5.22434,-8.1865 0.0875,-0.1125 0.17498,-0.1875 0.23747,-0.3249 1.73728,-2.2748 3.39957,-3.7371 4.98686,-4.68697 0.16248,-0.1249 0.33746,-0.2249 0.49994,-0.3374 1.33733,-0.9249 1.98725,-1.0374 2.64966,-1.0374 0.66242,0 1.44982,0.1875 2.99962,1.1999 0.0875,0.05 0.17498,0.1125 0.24997,0.1749 1.6123,0.97487 3.47456,2.49967 5.39931,4.84937 1.77478,2.2622 3.52456,5.0744 5.11185,8.349 1.53731,3.1621 2.62467,6.4616 3.33708,9.9862 0.025,0.025 0.0625,0.05 0.0875,0.075 0.87489,3.8995 2.81214,7.6115 5.73677,10.5112 0.0375,0.025 0.0375,0.025 0.0875,0.075 0.025,0.025 0.025,0.1125 0.075,0.1625 0,0 0.0875,-0.088 0.0875,-0.088 3.28708,3.2496 8.31144,5.1869 12.91085,5.1869 4.89938,0 9.93624,-1.9373 13.4358,-5.2619 2.57467,-2.4621 4.07448,-5.7492 4.86188,-9.2238 0.52493,-1.1373 0.72491,-2.3997 0.68741,-3.6495 0,0 0,-0.8499 0,-0.8499 0,0 0,-0.5999 0,-0.5999 0,-0.9249 -0.05,-1.7748 -0.34995,-2.6372 -0.025,-0.088 -0.11249,-0.3375 -0.16248,-0.5249 -0.025,-0.1125 -0.0625,-0.225 -0.0875,-0.325 -1.44982,-6.5992 -3.84951,-12.9858 -7.1116,-19.20997 -3.28708,-6.2743 -7.17409,-11.9235 -11.786,-16.9354 -4.6869,-5.0993 -10.04872,-9.3363 -15.89798,-12.5484 -0.025,-0.025 -0.05,0.025 -0.0875,0 -6.21171,-3.2746 -12.86086,-5.1868 -19.58501,-5.1868 -6.72414,0 -13.3233,1.8497 -19.39753,5.1868 -5.82426,3.1871 -11.16108,7.4116 -15.81049,12.4359 0,0 -0.0875,-0.075 -0.0875,-0.075 -0.05,0.05 0.0375,0.125 0,0.1875 -4.76189,5.0119 -8.86137,10.6861 -12.14845,16.9354 -3.24959,6.22417 -5.57429,12.61077 -6.99911,19.20997 -0.025,0 0,0.05 0,0.075 -0.025,0.087 -0.0875,0.175 -0.11249,0.25 -0.18748,0.8124 -0.18748,1.7497 -0.24997,2.7246 0,0.1875 -0.075,0.25 -0.075,0.4375 -0.0625,0.4624 -0.24997,1.0123 -0.24997,1.4498 0,0 0,0 0,0 z m 0,-177.47742 c 0,0.43744 0.18748,0.98737 0.24997,1.44981 0.025,0.13749 0.05,0.27497 0.075,0.39995 0.0625,0.98738 0.0875,1.88726 0.24997,2.64967 0.025,0.13748 0.05,0.22497 0.11249,0.36245 1.42482,6.53667 3.77452,12.98585 6.99911,19.17256 3.28708,6.2742 7.36156,11.99848 12.14845,17.04783 0.0375,0.025 -0.025,0.05 0,0.075 4.64941,5.04936 10.07372,9.17384 15.89798,12.36093 6.07423,3.33708 12.67339,5.21184 19.39753,5.21184 6.74915,0 13.3733,-1.91226 19.58501,-5.21184 0.0375,0 0.0625,0 0.0875,0 5.84926,-3.18709 11.21108,-7.36156 15.89798,-12.43592 4.61191,-5.04935 8.49892,-10.77363 11.786,-17.04783 3.26209,-6.18671 5.66178,-12.63589 7.1116,-19.17256 0.0625,-0.19997 0.025,-0.22497 0.0875,-0.36245 0.025,-0.13749 0.13748,-0.34996 0.16248,-0.39995 0.29996,-0.87489 0.34995,-1.74978 0.34995,-2.64967 0,0 0,-0.94988 0,-0.94988 0,0 0,-0.49993 0,-0.49993 0,-1.13736 -0.16248,-2.28721 -0.59992,-3.32458 -0.025,-0.0875 -0.05,-0.18748 -0.0875,-0.27496 -0.7624,-3.46206 -2.28721,-6.89913 -4.86188,-9.36131 -3.49956,-3.32458 -8.53642,-5.28683 -13.4358,-5.28683 -4.59941,0 -9.62377,1.93725 -12.91085,5.18684 0,0 -0.0875,-0.0875 -0.0875,-0.0875 -0.05,0.05 -0.05,0.13748 -0.075,0.18748 -0.05,0.025 -0.05,0.025 -0.0875,0.0875 -2.92463,2.86213 -4.86188,6.57416 -5.73677,10.47366 -0.025,0.05 -0.0625,0.11249 -0.0875,0.16248 -0.71241,3.54955 -1.79977,6.84913 -3.33708,9.98623 -1.5248,3.1871 -3.26208,5.87426 -5.02436,8.26145 -1.89976,2.21222 -3.67453,3.912 -5.4868,5.13685 -0.05,0.025 -0.025,0.05 -0.075,0.075 -1.47481,0.84989 -2.3872,1.01237 -3.1746,1.01237 -0.7624,0 -1.5623,-0.16248 -2.81214,-0.92488 -0.025,-0.0375 -0.0625,-0.0875 -0.0875,-0.0875 -1.77477,-1.17485 -3.56205,-2.77465 -5.29932,-4.96187 0,0 0,-0.0625 0,-0.0875 -1.94976,-2.39969 -3.81202,-5.14934 -5.39932,-8.42393 -1.5373,-3.1621 -2.64966,-6.59916 -3.49955,-10.14871 0,-0.05 -0.0625,-0.11248 -0.0875,-0.16248 -0.87489,-3.79951 -2.76215,-7.42405 -5.5493,-10.31118 -0.0625,-0.0875 -0.11248,-0.18748 -0.16248,-0.27497 -3.39956,-3.21209 -8.46142,-5.09935 -13.18582,-5.09935 -4.89938,0 -10.02372,1.96225 -13.49828,5.28683 -3.46206,3.31207 -5.5493,8.27394 -5.5493,12.96085 0,0 0,0 0,0 z m 33.0833,88.65123 c 0,5.4618 2.3497,11.11108 6.39918,15.01059 3.08711,2.93712 7.32407,4.47443 11.62353,5.26183 0.05,0.025 0.11248,0.088 0.18747,0.088 1.21235,0.5124 2.52468,0.7249 3.83701,0.6749 1.28734,0.025 2.59967,-0.1875 3.77452,-0.6749 4.42444,-0.7499 8.62391,-2.34972 11.786,-5.34933 4.06199,-3.89951 6.48668,-9.54879 6.48668,-15.01059 0,-5.47431 -2.42469,-11.0486 -6.48668,-14.91061 -4.07448,-3.912 -9.81125,-6.06173 -15.56052,-6.06173 -5.71177,0 -11.57353,2.14973 -15.64801,6.06173 -4.04948,3.86201 -6.39918,9.4363 -6.39918,14.91061 0,0 0,0 0,0 z m 107.7113,527.64534 c 2.3747,4.037 5.43681,7.474 9.23633,10.3112 3.69953,2.8621 7.8615,5.0493 12.48591,6.5741 4.51192,1.4249 9.08634,2.1248 13.59827,2.1248 4.39944,0 8.79888,-0.6999 13.3483,-2.1248 4.51193,-1.4123 8.61141,-3.3495 12.31094,-5.9742 3.66203,-2.7247 6.72414,-5.9992 9.22382,-9.7863 1.71229,-2.7621 2.89963,-5.7367 3.49956,-9.0363 0,0 0,-89.6011 0,-89.6011 -0.52494,-3.2746 -1.53731,-6.3367 -3.1496,-9.1114 -2.3747,-4.0369 -5.38682,-7.474 -9.08635,-10.3112 -3.79951,-2.8371 -7.96148,-4.9743 -12.47341,-6.4116 -4.62441,-1.5373 -9.16133,-2.2872 -13.67326,-2.2872 -4.41194,0 -8.89887,0.6999 -13.43579,2.1247 -4.51193,1.4123 -8.62391,3.487 -12.31094,6.2117 -3.67453,2.6247 -6.67415,5.8368 -9.06134,9.6363 -2.48719,3.812 -3.86201,8.0989 -4.09948,12.9483 0,0 0,81.0772 0,81.0772 0,5.0994 1.22484,9.6238 3.58704,13.6358 z m -1.09986,-145.9315 c 1.66229,1.6623 3.68703,2.4747 6.07423,2.4747 2.3747,0 4.39944,-0.8124 6.07423,-2.4747 1.63729,-1.6373 2.46218,-3.687 2.46218,-6.0617 0,0 0,-107.1489 0,-107.1489 0,-1.7747 0.64992,-3.2995 1.97475,-4.5744 1.31233,-1.4498 2.83714,-2.1622 4.61191,-2.1622 1.88726,0 3.56205,0.7124 4.87438,2.1622 1.17486,1.2749 1.79978,2.7997 1.79978,4.5744 0,0 0,94.1881 0,94.1881 0,3.0871 0.52493,5.9242 1.69978,8.5364 1.07486,2.6246 2.68716,4.8369 4.7119,6.7491 1.88726,1.8748 4.18697,3.4871 6.92412,4.6869 2.62467,1.0624 5.41181,1.5248 8.36144,1.5248 0,0 17.09782,0 17.09782,0 2.3872,0 4.41194,-0.8124 6.08673,-2.4747 1.01237,-0.9873 1.66229,-2.1372 2.04974,-3.412 0,0 0,-5.1869 0,-5.1869 -0.38745,-1.1998 -1.03737,-2.2622 -2.04974,-3.2496 -1.67479,-1.7747 -3.69953,-2.7246 -6.08673,-2.7246 0,0 -15.12307,0 -15.12307,0 -1.77478,0 -3.26209,-0.5499 -4.42444,-1.6123 -1.21235,-1.0624 -1.92476,-2.3122 -2.14973,-3.837 0,0 0,-35.383 0,-35.383 0,-6.3867 0.74991,-12.5734 2.29971,-18.4977 1.5373,-5.9117 3.62454,-11.586 6.2492,-17.0478 2.62467,-5.5618 5.5493,-10.9361 8.88637,-16.0355 3.33708,-5.0743 6.78664,-10.0487 10.34869,-14.8981 1.01237,-1.2248 1.66229,-2.3747 2.04974,-3.5995 0,0 0,-5.0994 0,-5.0994 -0.38745,-1.2873 -1.03737,-2.3997 -2.04974,-3.412 -1.67479,-1.6623 -3.69953,-2.4872 -6.08673,-2.4872 -1.66229,0 -3.06211,0.4124 -4.26196,1.3748 -1.31233,0.9499 -2.46218,2.0997 -3.42456,3.4121 -2.72465,3.4245 -5.16184,6.8116 -7.43655,10.1487 -2.3747,3.3246 -4.56192,6.5867 -6.57417,9.7862 0,0 0,-0.7624 0,-0.7624 0,-3.2995 -0.62492,-6.3616 -1.79977,-9.1988 -1.31233,-2.9746 -3.06211,-5.5368 -5.22434,-7.6615 -2.12472,-2.2622 -4.56191,-3.937 -7.43655,-5.1369 -2.84964,-1.2998 -5.99924,-1.9622 -9.31132,-1.9622 -3.32457,0 -6.37418,0.6624 -9.24882,1.9622 -2.83714,1.1999 -5.36182,2.8747 -7.51154,5.1369 -2.13723,2.1247 -3.74953,4.6869 -4.94937,7.6615 -1.32484,2.8372 -1.97475,5.8993 -1.97475,9.1988 0,0 0,106.4615 0,106.4615 0,2.3747 0.81239,4.4244 2.48718,6.0617 z m 1.09986,-173.4654 c 2.3747,4.037 5.43681,7.474 9.23633,10.3112 3.69953,2.8371 7.8615,5.0993 12.48591,6.6491 4.51192,1.4249 9.08634,2.1373 13.59827,2.1373 4.39944,0 8.86137,-0.7124 13.51078,-2.1373 4.62441,-1.4123 8.83638,-3.437 12.63589,-6.0492 3.69953,-2.7246 6.71165,-6.0117 9.08635,-9.7987 1.61229,-2.6122 2.62466,-5.4244 3.1496,-8.5365 0,0 0,-101.44955 0,-101.44955 -0.27497,-1.3873 -0.66242,-2.6996 -1.19985,-4.012 -1.18735,-2.5871 -2.71215,-4.8243 -4.59941,-6.6991 -2.02475,-2.0247 -4.32445,-3.5495 -6.92412,-4.6119 -2.73716,-1.0624 -5.58679,-1.6373 -8.56142,-1.6373 0,0 -3.94949,0 -3.94949,0 -2.94963,0 -5.73677,0.5749 -8.36144,1.6373 -2.73715,1.0624 -5.03686,2.5872 -6.92412,4.6119 -2.02474,1.8748 -3.63704,4.112 -4.7119,6.6991 -1.17485,2.6247 -1.69978,5.4119 -1.69978,8.3865 0,0 0,68.10375 0,68.10375 0,2.3497 0.79989,4.3995 2.46218,6.0368 1.67479,1.6622 3.69953,2.4871 6.08673,2.4871 2.3747,0 4.32445,-0.8249 5.98674,-2.4871 1.67478,-1.6373 2.56217,-3.6871 2.56217,-6.0368 0,0 0,-67.34135 0,-67.34135 0,-1.6623 0.66242,-2.9746 1.94975,-3.9245 1.31234,-1.0624 2.84964,-1.6248 4.62442,-1.6248 1.78727,0 3.31207,0.6124 4.62441,1.7873 1.31233,1.0623 1.97475,2.3372 1.97475,3.762 0,0 0,86.17645 0,86.17645 0,4.137 -0.71241,7.5491 -2.13723,10.1362 -1.5623,2.4872 -3.42457,4.5245 -5.5493,6.0618 -2.17472,1.4123 -4.43693,2.3997 -6.96161,2.9746 -2.58717,0.4874 -4.94937,0.7624 -7.0741,0.7624 -2.13723,0 -4.51193,-0.275 -7.01161,-0.7624 -2.62467,-0.5749 -4.94937,-1.5623 -7.1116,-2.9746 -2.13722,-1.5373 -3.93699,-3.5746 -5.36181,-6.0618 -1.54981,-2.5871 -2.32471,-5.9992 -2.32471,-10.1362 0,0 0,-99.73725 0,-99.73725 0,-2.3747 -0.82489,-4.3869 -2.46218,-6.0617 -1.67479,-1.6623 -3.69953,-2.4747 -6.07423,-2.4747 -2.3872,0 -4.41194,0.8124 -6.07423,2.4747 -1.67479,1.6748 -2.48718,3.687 -2.48718,6.0617 0,0 0,103.64925 0,103.64925 0,5.1119 1.22484,9.6113 3.58704,13.6483 z m 13.51078,230.2582 c 0,-4.037 0.7749,-7.3615 2.32471,-9.9862 1.42482,-2.6247 3.22459,-4.6369 5.36181,-6.0492 2.16223,-1.5374 4.48693,-2.5997 7.1116,-3.0622 2.49968,-0.5999 4.87438,-0.8748 7.01161,-0.8748 2.12473,0 4.48693,0.2749 7.0741,0.8748 2.52468,0.4625 4.78689,1.5248 6.96161,3.0622 2.12473,1.4123 3.987,3.4245 5.5493,6.0492 1.42482,2.6247 2.13723,5.9492 2.13723,9.9862 0,0 0,71.7659 0,71.7659 0,4.1495 -0.71241,7.524 -2.13723,10.1487 -1.5623,2.4747 -3.42457,4.4994 -5.5493,6.0492 -2.17472,1.4248 -4.43693,2.3747 -6.96161,2.9747 -2.58717,0.4749 -4.94937,0.7624 -7.0741,0.7624 -2.13723,0 -4.51193,-0.2875 -7.01161,-0.7624 -2.62467,-0.6 -4.94937,-1.5499 -7.1116,-2.9747 -2.13722,-1.5498 -3.93699,-3.5745 -5.36181,-6.0492 -1.54981,-2.6247 -2.32471,-5.9992 -2.32471,-10.1487 0,0 0,-71.7659 0,-71.7659 z m 33.7957,151.1933 c 2.97463,2.9996 6.58667,4.5369 10.93611,4.5369 4.32445,0 7.924,-1.5373 10.94861,-4.5369 2.97462,-2.9621 4.51193,-6.5867 4.51193,-10.9111 0,-4.2995 -1.53731,-7.9865 -4.51193,-10.9861 -3.02461,-2.9746 -6.62416,-4.4245 -10.94861,-4.4245 -4.34944,0 -7.96148,1.4499 -10.93611,4.4245 -3.02461,2.9996 -4.54942,6.6866 -4.54942,10.9861 0,4.3244 1.52481,7.949 4.54942,10.9111 z M 778.9641,663.71747 c 0,0 1.37483,20.15994 17.41029,53.60568 21.9847,32.07092 14.66064,38.03267 65.50417,35.28302 48.55634,9.62377 72.84074,47.64394 107.19888,60.92975 34.35816,11.91098 53.14326,16.4979 97.12516,56.81777 17.1728,13.28579 -5.1619,64.14186 8.2364,100.79966 5.1619,20.0474 27.4965,95.63775 31.6085,132.40815 3.4371,36.7703 -19.6975,85.6766 -81.5396,71.9408 -61.84216,-13.7482 -130.5584,45.8067 -132.8456,50.3936 -2.29973,4.5869 -32.07095,17.8727 -36.65787,54.0681 -4.57441,36.1954 13.28582,86.1266 14.2107,95.3004 0.91238,9.1613 20.60988,85.6766 -47.64394,137.445 -68.26632,51.7809 -92.53824,50.4061 -128.73363,168.6161 -16.03546,61.3922 -32.07093,81.0897 -87.03894,85.2142 -54.9805,4.1244 -153.46798,30.6961 -164.92902,-84.7643 -8.23646,-75.1404 -3.66204,-95.3003 23.82197,-119.5848 27.4965,-24.2844 61.39219,-77.4276 65.05422,-116.8351 3.66204,-39.395 -31.14603,-68.7163 -24.73435,-89.3386 6.41168,-20.6224 20.60988,-50.8561 70.55353,-68.7288 49.93115,-17.8602 65.50417,-21.5348 65.50417,-29.7837 0,-8.2365 27.94645,-11.911 -4.12448,-63.6794 -32.07092,-51.7809 -63.6794,-104.9242 -77.87759,-219.47205 0.46244,-26.1092 -30.6961,-74.21557 -30.6961,-74.21557 0,0 -54.51807,-80.17728 -78.78998,-117.29756 -21.9972,-38.48261 -49.01877,-82.01457 -53.14324,-112.71067 -11.44855,-31.15853 47.64394,7.33657 51.30597,17.87273 3.66204,10.53616 27.94645,65.05423 53.14324,56.35533 30.6961,-6.87412 46.73156,-44.44434 47.1815,-46.28161 0.46245,-1.82477 29.32128,16.03546 44.44435,13.74825 24.73436,-8.69889 22.44715,-5.4993 41.23226,-24.28441 5.94924,-10.9986 10.9861,26.57162 35.73296,27.03406 24.73435,0.46244 40.76981,-26.57162 75.12794,-41.6947 26.10918,-7.78651 14.1982,-5.94924 35.27052,-10.07372 M 539.83201,578.5033 c 1.37483,1.36233 -19.24755,30.23366 -19.24755,30.23366 0,0 -27.48401,13.74825 -35.73296,-15.12308 28.85883,-35.73295 79.71487,-68.72876 54.98051,-15.11058 z m -8.87387,-357.05459 c 10.31119,8.41143 21.12231,19.58501 31.54599,34.03317 39.50748,35.74545 40.8823,159.44223 49.81866,201.37439 8.93637,41.91967 53.59319,97.23764 78.6775,112.02326 25.08431,14.77312 109.61106,74.45303 64.59179,68.26632 -37.40775,-2.78715 -31.29602,8.96136 -45.34424,16.94784 -9.56128,1.84977 -14.9106,40.79482 -35.04554,27.49651 -23.02207,-15.47304 -14.43567,-30.58361 -31.95844,-32.3084 -17.52277,-1.71228 -42.94454,31.62098 -54.63055,32.3084 -11.67352,0.68741 -37.79519,-18.56014 -40.54485,-19.93497 -2.74965,-1.37482 -20.27242,8.93636 -33.67071,37.7952 -13.73576,17.87272 -4.46194,9.97373 -20.60988,13.06083 -24.04695,-12.71088 -14.77312,-10.9986 -17.18532,-29.54624 -5.4868,-18.91009 -8.58641,-12.03597 -29.54624,-32.30839 -25.77172,-18.54764 -49.13125,-13.74825 -52.90577,-28.17142 -0.025,-0.42494 -0.025,-0.86239 -0.025,-1.28733 0.0375,0 2.07474,-0.0875 2.08723,-0.0875 14.43567,1.14985 41.90718,-2.74965 74.90298,12.37342 15.11058,10.98611 18.38516,14.32318 41.90717,9.61128 11.87349,-2.3622 25.58425,-7.79901 37.7952,-5.4993 17.51027,2.66216 38.09515,-4.17447 61.16722,-6.86163 25.43426,-2.97462 51.53094,5.48681 64.59178,-3.43706 23.35953,-14.43566 -9.62377,2.74965 -63.91687,-53.60568 -38.47011,-20.62238 -31.60848,-151.20578 -31.60848,-151.20578 0,0 -13.73575,-107.21136 -13.73575,-107.21136 0,0 -2.48719,-18.37267 -11.68602,-38.48261 -9.4488,-20.67237 -25.63424,-43.20701 -25.42176,-51.54345 -0.0875,-4.89937 0.68741,-3.52455 0.7499,-3.79951 z m -62.1421,12.74838 c 0,0 54.86803,74.20306 68.26632,163.89166 1.71228,85.56412 -9.28632,120.2722 -27.83396,131.60826 -18.56014,11.34856 -32.29589,19.59751 -39.50748,24.05944 -7.22408,4.46193 -76.96521,38.83256 -75.59038,68.72876 3.77452,14.42317 27.13405,9.62378 52.90577,28.17142 20.95983,20.27242 24.05944,13.3983 29.54624,32.30839 2.4122,18.54764 -6.86163,16.83536 17.18532,29.54624 16.14794,-3.0871 6.87412,4.81189 20.60988,-13.06083 13.39829,-28.85884 30.92106,-39.17002 33.67071,-37.7952 2.74966,1.37483 28.87133,20.62238 40.54485,19.93497 11.68601,-0.68742 37.10778,-34.02068 54.63055,-32.3084 17.52277,1.72479 8.93637,16.83536 31.95844,32.3084 20.13494,13.29831 25.48426,-25.64674 35.04554,-27.49651 14.04822,-7.98648 7.93649,-19.73499 45.34424,-16.94784 45.01927,6.18671 -39.50748,-53.4932 -64.59179,-68.26632 -25.08431,-14.78562 -69.74113,-70.10359 -78.6775,-112.02326 -8.93636,-41.93216 -10.31118,-165.62894 -49.81866,-201.37439 -37.45774,-51.8809 -79.71486,-61.50468 -86.92645,-52.91827 -7.21158,8.59891 -13.68576,11.49854 -6.46168,31.4335"
       id="onde"
       inkscape:connector-curvature="0"
       style="fill:none;stroke:#000000;stroke-width:1.24984109" />
  </g>
  <g
     inkscape:groupmode="layer"
     id="layer3"
     inkscape:label="calabria"
     style="display:inline"
     transform="translate(-12.909941,-127.38092)">
    <path
       d="m 791.47384,790.3801 c 0,0 1.37483,20.15994 17.41029,53.60568 21.9847,32.07092 14.66064,38.03267 65.50417,35.28302 48.55634,9.62377 72.84074,47.64394 107.19884,60.92975 34.35816,11.91098 53.14326,16.4979 97.12516,56.81777 17.1728,13.28578 -5.1619,64.14188 8.2364,100.79968 5.1619,20.0474 27.4965,95.6378 31.6085,132.4082 3.4371,36.7703 -19.6975,85.6766 -81.5396,71.9408 -61.84216,-13.7482 -130.55836,45.8067 -132.84556,50.3936 -2.29973,4.5869 -32.07095,17.8727 -36.65787,54.0681 -4.57441,36.1954 13.28582,86.1266 14.2107,95.3004 0.91238,9.1613 20.60988,85.6766 -47.64394,137.445 -68.26632,51.7809 -92.53824,50.4061 -128.73363,168.6161 -16.03546,61.3922 -32.07093,81.0897 -87.03894,85.2142 -54.9805,4.1244 -153.46798,30.6961 -164.92902,-84.7643 -8.23646,-75.1404 -3.66204,-95.3003 23.82197,-119.5848 27.4965,-24.2844 61.39219,-77.4276 65.05422,-116.8351 3.66204,-39.395 -31.14603,-68.7163 -24.73435,-89.3386 6.41168,-20.6224 20.60988,-50.8561 70.55353,-68.7288 49.93115,-17.8602 65.50417,-21.5348 65.50417,-29.7837 0,-8.2365 27.94645,-11.911 -4.12448,-63.6794 -32.07092,-51.7809 -63.6794,-104.9242 -77.87759,-219.4721 0.46244,-26.1092 -30.6961,-74.2156 -30.6961,-74.2156 0,0 -54.51807,-80.17727 -78.78998,-117.29755 -21.9972,-38.48261 -49.01877,-82.01457 -53.14324,-112.71067 -11.44855,-31.15853 47.64394,7.33657 51.30597,17.87273 3.66204,10.53616 27.94645,65.05423 53.14324,56.35533 30.6961,-6.87412 46.73156,-44.44434 47.1815,-46.28161 0.46245,-1.82477 29.32128,16.03546 44.44435,13.74825 24.73436,-8.69889 22.44715,-5.4993 41.23226,-24.28441 5.94924,-10.9986 10.9861,26.57162 35.73296,27.03406 24.73435,0.46244 40.76981,-26.57162 75.12794,-41.6947 26.10918,-7.78651 14.1982,-5.94924 35.27052,-10.07372"
       id="calabria"
       inkscape:connector-curvature="0"
       style="fill:#ff0000;fill-opacity:1;stroke:#000000;stroke-width:4;stroke-miterlimit:4;stroke-dasharray:none" />
  </g>
  <g
     inkscape:groupmode="layer"
     id="layer4"
     inkscape:label="picciuolo"
     style="display:inline"
     transform="translate(-12.909941,-127.38092)">
    <path
       d="m 482.45116,361.25668 c 0,0 54.86803,74.20306 68.26632,163.89166 1.71228,85.56412 -9.28632,120.2722 -27.83396,131.60826 -18.56014,11.34856 -32.29589,19.59751 -39.50748,24.05944 -7.22408,4.46193 -76.96521,38.83256 -75.59038,68.72876 3.77452,14.42317 27.13405,9.62378 52.90577,28.17142 20.95983,20.27242 24.05944,13.3983 29.54624,32.30839 2.4122,18.54764 -6.86163,16.83536 17.18532,29.54624 16.14794,-3.0871 6.87412,4.81189 20.60988,-13.06083 13.39829,-28.85884 30.92106,-39.17002 33.67071,-37.7952 2.74966,1.37483 28.87133,20.62238 40.54485,19.93497 11.68601,-0.68742 37.10778,-34.02068 54.63055,-32.3084 17.52277,1.72479 8.93637,16.83536 31.95844,32.3084 20.13494,13.29831 25.48426,-25.64674 35.04554,-27.49651 14.04822,-7.98648 7.93649,-19.73499 45.34424,-16.94784 45.01927,6.18671 -39.50748,-53.4932 -64.59179,-68.26632 C 679.5511,681.1535 634.89428,625.83553 625.95791,583.91586 617.02155,541.9837 615.64673,418.28692 576.13925,382.54147 538.68151,330.66057 496.42439,321.03679 489.2128,329.6232 c -7.21158,8.59891 -13.68576,11.49854 -6.46168,31.4335"
       id="picciuolo"
       inkscape:connector-curvature="0"
       style="fill:#4cb52b;fill-opacity:1;stroke:#000000;stroke-width:4;stroke-miterlimit:4;stroke-dasharray:none" />
  </g>
  <g
     inkscape:groupmode="layer"
     id="layer5"
     inkscape:label="onde"
     style="display:inline"
     transform="translate(-12.909941,-127.38092)">
    <path
       d="m 708.72172,351.46518 c -19.23506,0 -34.82057,15.46053 -34.82057,34.49561 0,9.66128 4.02448,18.41016 10.46117,24.64687 0,0 27.65898,25.9592 27.85895,86.539 0,0.27496 0,0.43744 0,0.67491 -0.19997,60.5798 -27.85895,86.5265 -27.85895,86.5265 -6.16172,6.2492 -9.93624,14.74812 -9.93624,24.17192 0,19.08508 15.62301,34.58311 34.85807,34.58311 9.77375,0 18.59763,-4.01199 24.90933,-10.41118 0,0 44.75681,-48.29386 47.25649,-128.83362 0,-0.075 0,-0.16248 0,-0.23747 0.28746,-1.74978 0.43745,-3.57454 0.43745,-5.4493 0,-0.11249 0,-0.23747 0,-0.34996 0,-0.0875 0,-0.16248 0,-0.23747 0,-1.34983 -0.19998,-2.54968 -0.19998,-3.86201 -0.075,-0.43744 -0.14998,-0.87489 -0.23747,-1.31233 -2.02474,-81.32716 -47.25649,-130.13345 -47.25649,-130.13345 -6.23671,-6.52417 -15.02309,-10.66115 -24.79685,-10.77363 -0.19997,0 -0.43744,-0.0375 -0.67491,-0.0375 z m 94.15053,-76.56526 c 0,9.62377 3.97449,18.32267 10.37368,24.57187 0,0 65.14171,64.22933 65.50417,197.47489 0.0375,0.39995 0,0.71241 0,1.07486 -0.36246,133.27056 -65.50417,197.47489 -65.50417,197.47489 -7.18659,6.3117 -11.72351,15.53553 -11.72351,25.79672 0,19.07258 15.58552,34.49562 34.82057,34.49562 10.61115,0 20.14744,-4.7244 26.54662,-12.16096 0,0 82.55202,-86.65148 85.08922,-239.76951 0.3249,-1.74978 0.4374,-3.57454 0.4374,-5.4493 0,-0.14999 0,-0.27497 0,-0.38746 0,-0.16247 0,-0.28746 0,-0.43744 0,-1.43732 -0.2,-2.66216 -0.2,-4.09948 -0.075,-0.43744 -0.1499,-0.87489 -0.2374,-1.27484 -2.1373,-153.83044 -85.08922,-240.88187 -85.08922,-240.88187 -6.36169,-6.67415 -15.38554,-10.88611 -25.39677,-10.88611 -0.98737,0 -1.94975,0.0375 -2.89963,0.11248 -17.76024,1.56231 -31.72096,16.34793 -31.72096,34.34564 z m 175.35268,-145.4815 c -19.1975,0 -34.7706,15.42303 -34.7706,34.50811 0,9.53629 3.887,18.16019 10.2112,24.3969 0,0 102.86207,102.52446 103.41197,308.42328 0,0.51243 0,0.94988 0,1.5123 -0.5499,205.86133 -103.41197,308.17332 -103.41197,308.17332 -6.1617,6.19921 -9.9362,14.74812 -9.9362,24.17192 0,19.07258 15.5855,34.53311 34.8581,34.53311 9.77373,0 18.59763,-3.97449 24.92187,-10.37368 0,0 119.7848,-124.93411 122.5719,-350.46793 0,-0.075 0,-0.16248 0,-0.23747 0.275,-1.74978 0.4375,-3.57455 0.4375,-5.44931 0,-0.11249 0,-0.23747 0,-0.34996 0,-0.23747 0,-0.43744 0,-0.67491 0,-0.28746 0,-0.56243 0,-0.83739 0,-0.43745 0,-0.87489 0,-1.31234 0,-1.91225 -0.125,-3.77452 -0.4375,-5.61178 -0.088,-0.14998 -0.1625,-0.27497 -0.2,-0.43745 -3.262,-224.65893 -122.3719,-349.19309 -122.3719,-349.19309 -6.28674,-6.56167 -15.18564,-10.68615 -25.04687,-10.77363 -0.075,0 -0.15,0 -0.2375,0 z M 403.32305,362.27631 c 0,0 -44.74431,48.29385 -47.24399,128.82111 -0.28746,1.78728 -0.43744,3.62454 -0.43744,5.48681 0,0.19997 0,0.39995 0,0.56243 0,0.14998 0,0.31246 0,0.43744 0,0.075 0,0.14998 0,0.23747 0.0375,1.46231 0.18747,2.89963 0.43744,4.28695 1.86226,81.60213 47.24399,130.5834 47.24399,130.5834 6.3242,6.39919 15.14808,10.37368 24.88434,10.37368 19.27255,0 34.89556,-15.46053 34.89556,-34.5831 0,-9.38631 -3.77452,-17.88523 -9.93623,-24.13443 0,0 -27.62149,-25.9467 -27.85896,-86.5265 0,-0.23747 0,-0.39995 0,-0.67491 0.23747,-60.5798 27.85896,-86.539 27.85896,-86.539 6.32419,-6.23671 10.26119,-14.86061 10.26119,-24.44689 0,-19.03508 -15.58552,-34.49561 -34.82057,-34.49561 -0.43745,0 -0.91239,0.0375 -1.34983,0.0375 -9.38631,0.31246 -17.84773,4.28696 -23.93446,10.57366 z M 278.37644,251.32791 c 0,0 -82.27704,86.57649 -84.9392,239.56954 -0.27496,1.74978 -0.43744,3.58704 -0.43744,5.4868 0,0.16248 0,0.36246 0,0.56243 0,0.23747 0,0.43745 0,0.63742 0,0.14998 0,0.27497 0,0.43744 0.0375,1.6248 0.19997,3.2121 0.43744,4.7619 2.18722,153.79294 84.9392,240.84437 84.9392,240.84437 6.36169,6.76164 15.42304,11.0111 25.47176,11.0111 19.23506,0 34.82057,-15.42304 34.82057,-34.50811 0,-9.64877 -4.01198,-18.36016 -10.46116,-24.63437 0,0 -65.14172,-64.20433 -65.52917,-197.47489 0,-0.36245 0,-0.67491 0,-1.07486 0.38745,-133.24556 65.52917,-197.47489 65.52917,-197.47489 6.32419,-6.2492 10.26119,-14.87311 10.26119,-24.44689 0,-19.04758 -15.58552,-34.50811 -34.82057,-34.50811 -0.43745,0 -0.91239,0.0375 -1.34983,0.0375 -9.4238,0.36246 -17.88523,4.46194 -23.92196,10.77363 z M 137.9568,140.19205 c 0,0 -119.197349,124.60915 -122.371939,349.39307 -0.39995,2.14972 -0.63742,4.37444 -0.63742,6.68665 0,0.14998 0,0.31246 0,0.47494 0,0.27496 0,0.54993 0,0.83739 0,0.23747 0,0.43744 0,0.67491 0,0.34996 -0.0375,0.71241 -0.0375,1.11236 0,1.89976 0.16248,3.73703 0.47494,5.5618 0.0375,0.16247 0.12499,0.27496 0.19998,0.43744 3.17459,224.82141 122.371939,349.39307 122.371939,349.39307 6.32419,6.39919 15.14807,10.37368 24.92183,10.37368 19.23505,0 34.85807,-15.46053 34.85807,-34.53311 0,-9.4238 -3.77452,-17.97271 -9.93624,-24.17192 0,0 -102.861923,-102.31199 -103.411853,-308.17332 0,-0.56242 0,-0.99987 0,-1.5123 0.54993,-205.89882 103.411853,-308.42328 103.411853,-308.42328 6.3117,-6.23671 10.2487,-14.89811 10.2487,-24.4344 0,-19.04758 -15.57302,-34.50811 -34.82058,-34.50811 -0.42494,0 -0.91238,0 -1.34982,0.0375 -9.41131,0.36245 -17.88523,4.41193 -23.92196,10.77363 z"
       id="onde-8"
       inkscape:connector-curvature="0"
       style="fill:#ff0000;fill-opacity:1;stroke:#000000;stroke-width:4;stroke-miterlimit:4;stroke-dasharray:none" />
  </g>
  <g
     inkscape:groupmode="layer"
     id="layer6"
     inkscape:label="picciuolo ombra"
     style="display:inline"
     transform="translate(-12.909941,-127.38092)">
    <path
       d="m 552.82576,705.76581 c 1.3748,1.36233 -19.2476,30.23366 -19.2476,30.23366 0,0 -27.484,13.74825 -35.7329,-15.12308 28.8588,-35.73295 79.7148,-68.72876 54.9805,-15.11058 z m -8.8739,-357.05459 c 10.3112,8.41143 21.1223,19.58501 31.546,34.03317 39.5075,35.74545 40.8823,159.44223 49.8187,201.37439 8.9363,41.91967 53.5931,97.23764 78.6775,112.02326 25.0843,14.77312 109.611,74.45303 64.5917,68.26632 -37.4077,-2.78715 -31.296,8.96136 -45.3442,16.94784 -9.5613,1.84977 -14.9106,40.79482 -35.0455,27.49651 -23.0221,-15.47304 -14.4357,-30.58361 -31.9585,-32.3084 -17.5227,-1.71228 -42.9445,31.62098 -54.6305,32.3084 -11.6735,0.68741 -37.7952,-18.56014 -40.5449,-19.93497 -2.7496,-1.37482 -20.2724,8.93636 -33.6707,37.7952 -13.7357,17.87272 -4.4619,9.97373 -20.6099,13.06083 -24.0469,-12.71088 -14.7731,-10.9986 -17.1853,-29.54624 -5.4868,-18.91009 -8.5864,-12.03597 -29.5462,-32.30839 -25.7717,-18.54764 -49.1313,-13.74825 -52.9058,-28.17142 -0.025,-0.42494 -0.025,-0.86239 -0.025,-1.28733 0.038,0 2.0747,-0.0875 2.0872,-0.0875 14.4357,1.14985 41.9072,-2.74965 74.903,12.37342 15.1106,10.98611 18.3852,14.32318 41.9072,9.61128 11.8735,-2.3622 25.5842,-7.79901 37.7952,-5.4993 17.5103,2.66216 38.0951,-4.17447 61.1672,-6.86163 25.4343,-2.97462 51.5309,5.48681 64.5918,-3.43706 23.3595,-14.43566 -9.6238,2.74965 -63.9169,-53.60568 -38.4701,-20.62238 -31.6085,-151.20578 -31.6085,-151.20578 0,0 -13.7357,-107.21136 -13.7357,-107.21136 0,0 -2.4872,-18.37267 -11.686,-38.48261 -9.4488,-20.67237 -25.6343,-43.20701 -25.4218,-51.54345 -0.088,-4.89937 0.6874,-3.52455 0.7499,-3.79951 z"
       id="picciuolo ombra"
       inkscape:connector-curvature="0"
       style="fill:#275b15;fill-opacity:1;stroke:#000000;stroke-width:0;stroke-miterlimit:4;stroke-dasharray:none" />
  </g>
  <g
     inkscape:groupmode="layer"
     id="layer7"
     inkscape:label="qr"
     style="display:inline">
    <path
       d="m 645.57216,839.51512 c 0,0 0,88.66368 0,88.66368 0,0 88.66373,0 88.66373,0 0,0 0,-88.66368 0,-88.66368 0,0 -88.66373,0 -88.66373,0 z m 126.65889,0 c 0,0 0,12.67339 0,12.67339 0,0 -25.33427,0 -25.33427,0 0,0 0,25.33428 0,25.33428 0,0 12.66089,0 12.66089,0 0,0 0,37.99521 0,37.99521 0,0 -12.66089,0 -12.66089,0 0,0 0,12.6608 0,12.6608 0,0 12.66089,0 12.66089,0 0,0 0,-12.6608 0,-12.6608 0,0 12.67338,0 12.67338,0 0,0 0,25.3342 0,25.3342 0,0 25.33428,0 25.33428,0 0,0 0,12.6609 0,12.6609 0,0 -38.00766,0 -38.00766,0 0,0 0,12.6734 0,12.6734 0,0 -12.66089,0 -12.66089,0 0,0 0,-12.6734 0,-12.6734 0,0 -12.66089,0 -12.66089,0 0,0 0,-12.6609 0,-12.6609 0,0 -25.33428,0 -25.33428,0 0,0 0,12.6609 0,12.6609 0,0 -12.67339,0 -12.67339,0 0,0 0,-12.6609 0,-12.6609 0,0 -37.99517,0 -37.99517,0 0,0 0,37.9952 0,37.9952 0,0 -12.66089,0 -12.66089,0 0,0 0,50.6686 0,50.6686 0,0 12.66089,0 12.66089,0 0,0 0,12.6609 0,12.6609 0,0 -12.66089,0 -12.66089,0 0,0 0,12.6733 0,12.6733 0,0 63.32945,0 63.32945,0 0,0 0,-12.6733 0,-12.6733 0,0 -25.33428,0 -25.33428,0 0,0 0,-12.6609 0,-12.6609 0,0 12.66089,0 12.66089,0 0,0 0,-25.3343 0,-25.3343 0,0 38.00767,0 38.00767,0 0,0 0,12.6609 0,12.6609 0,0 -12.67339,0 -12.67339,0 0,0 0,12.6734 0,12.6734 0,0 12.67339,0 12.67339,0 0,0 0,12.6609 0,12.6609 0,0 -12.67339,0 -12.67339,0 0,0 0,12.6733 0,12.6733 0,0 12.67339,0 12.67339,0 0,0 0,-12.6733 0,-12.6733 0,0 12.66089,0 12.66089,0 0,0 0,-12.6609 0,-12.6609 0,0 12.66089,0 12.66089,0 0,0 0,-12.6734 0,-12.6734 0,0 -12.66089,0 -12.66089,0 0,0 0,-12.6609 0,-12.6609 0,0 12.66089,0 12.66089,0 0,0 0,-12.6609 0,-12.6609 0,0 -12.66089,0 -12.66089,0 0,0 0,-12.6734 0,-12.6734 0,0 37.99516,0 37.99516,0 0,0 0,-12.6609 0,-12.6609 0,0 12.67339,0 12.67339,0 0,0 0,12.6609 0,12.6609 0,0 12.66089,0 12.66089,0 0,0 0,12.6734 0,12.6734 0,0 -25.33428,0 -25.33428,0 0,0 0,12.6609 0,12.6609 0,0 -12.66089,0 -12.66089,0 0,0 0,12.6609 0,12.6609 0,0 12.66089,0 12.66089,0 0,0 0,25.3343 0,25.3343 0,0 -25.33427,0 -25.33427,0 0,0 0,12.6733 0,12.6733 0,0 -12.66089,0 -12.66089,0 0,0 0,12.6609 0,12.6609 0,0 12.66089,0 12.66089,0 0,0 0,-12.6609 0,-12.6609 0,0 12.67338,0 12.67338,0 0,0 0,12.6609 0,12.6609 0,0 12.66089,0 12.66089,0 0,0 0,-12.6609 0,-12.6609 0,0 12.67339,0 12.67339,0 0,0 0,12.6609 0,12.6609 0,0 12.66089,0 12.66089,0 0,0 0,25.3343 0,25.3343 0,0 -12.66089,0 -12.66089,0 0,0 0,-12.6609 0,-12.6609 0,0 -50.66855,0 -50.66855,0 0,0 0,12.6609 0,12.6609 0,0 25.33427,0 25.33427,0 0,0 0,12.6609 0,12.6609 0,0 -25.33427,0 -25.33427,0 0,0 0,38.0077 0,38.0077 0,0 12.66089,0 12.66089,0 0,0 0,12.6609 0,12.6609 0,0 12.67338,0 12.67338,0 0,0 0,-50.6686 0,-50.6686 0,0 25.33428,0 25.33428,0 0,0 0,12.6734 0,12.6734 0,0 -12.67339,0 -12.67339,0 0,0 0,12.6609 0,12.6609 0,0 12.67339,0 12.67339,0 0,0 0,12.6734 0,12.6734 0,0 25.33428,0 25.33428,0 0,0 0,12.6609 0,12.6609 0,0 12.66089,0 12.66089,0 0,0 0,-25.3343 0,-25.3343 0,0 25.33428,0 25.33428,0 0,0 0,25.3343 0,25.3343 0,0 12.66089,0 12.66089,0 0,0 0,-25.3343 0,-25.3343 0,0 25.33426,0 25.33426,0 0,0 0,12.6734 0,12.6734 0,0 -12.66087,0 -12.66087,0 0,0 0,12.6609 0,12.6609 0,0 75.99041,0 75.99041,0 0,0 0,-12.6609 0,-12.6609 0,0 -25.32184,0 -25.32184,0 0,0 0,-12.6734 0,-12.6734 0,0 12.6609,0 12.6609,0 0,0 0,-12.6609 0,-12.6609 0,0 12.66094,0 12.66094,0 0,0 0,-12.6734 0,-12.6734 0,0 -12.66094,0 -12.66094,0 0,0 0,-25.3218 0,-25.3218 0,0 12.66094,0 12.66094,0 0,0 0,-50.6685 0,-50.6685 0,0 -12.66094,0 -12.66094,0 0,0 0,-12.6734 0,-12.6734 0,0 12.66094,0 12.66094,0 0,0 0,-25.3218 0,-25.3218 0,0 -25.32184,0 -25.32184,0 0,0 0,-12.6734 0,-12.6734 0,0 -38.0077,0 -38.0077,0 0,0 0,-25.3343 0,-25.3343 0,0 -12.66087,0 -12.66087,0 0,0 0,12.6734 0,12.6734 0,0 -12.67339,0 -12.67339,0 0,0 0,12.6609 0,12.6609 0,0 -12.66089,0 -12.66089,0 0,0 0,12.6734 0,12.6734 0,0 12.66089,0 12.66089,0 0,0 0,12.6609 0,12.6609 0,0 -63.32945,0 -63.32945,0 0,0 0,-12.6609 0,-12.6609 0,0 37.99517,0 37.99517,0 0,0 0,-12.6734 0,-12.6734 0,0 -12.66089,0 -12.66089,0 0,0 0,-12.6609 0,-12.6609 0,0 25.33428,0 25.33428,0 0,0 0,-25.3343 0,-25.3343 0,0 -12.67339,0 -12.67339,0 0,0 0,12.6609 0,12.6609 0,0 -25.32178,0 -25.32178,0 0,0 0,25.3343 0,25.3343 0,0 -12.67339,0 -12.67339,0 0,0 0,-12.6609 0,-12.6609 0,0 -12.66089,0 -12.66089,0 0,0 0,-12.6734 0,-12.6734 0,0 12.66089,0 12.66089,0 0,0 0,-37.9951 0,-37.9951 0,0 -12.66089,0 -12.66089,0 0,0 0,-12.6609 0,-12.6609 0,0 12.66089,0 12.66089,0 0,0 0,-25.33431 0,-25.33431 0,0 12.67339,0 12.67339,0 0,0 0,50.65601 0,50.65601 0,0 12.66089,0 12.66089,0 0,0 0,-37.9951 0,-37.9951 0,0 12.66089,0 12.66089,0 0,0 0,12.6734 0,12.6734 0,0 12.67339,0 12.67339,0 0,0 0,-12.6734 0,-12.6734 0,0 -12.67339,0 -12.67339,0 0,0 0,-12.66091 0,-12.66091 0,0 12.67339,0 12.67339,0 0,0 0,-25.33428 0,-25.33428 0,0 -12.67339,0 -12.67339,0 0,0 0,25.33428 0,25.33428 0,0 -25.32178,0 -25.32178,0 0,0 0,-12.67339 0,-12.67339 0,0 12.66089,0 12.66089,0 0,0 0,-25.33428 0,-25.33428 0,0 -12.66089,0 -12.66089,0 0,0 0,12.67339 0,12.67339 0,0 -25.33428,0 -25.33428,0 0,0 0,12.66089 0,12.66089 0,0 -12.67339,0 -12.67339,0 0,0 0,-25.33428 0,-25.33428 0,0 -12.66089,0 -12.66089,0 z m 101.32462,0 c 0,0 0,88.66368 0,88.66368 0,0 88.6638,0 88.6638,0 0,0 0,-88.66368 0,-88.66368 0,0 -88.6638,0 -88.6638,0 z M 721.5625,852.18851 c 0,0 0,63.32949 0,63.32949 0,0 -63.32945,0 -63.32945,0 0,0 0,-63.32949 0,-63.32949 0,0 63.32945,0 63.32945,0 z m 227.99603,0 c 0,0 0,63.32949 0,63.32949 0,0 -63.32947,0 -63.32947,0 0,0 0,-63.32949 0,-63.32949 0,0 63.32947,0 63.32947,0 z M 772.23105,864.8494 c 0,0 0,12.67339 0,12.67339 0,0 -12.67338,0 -12.67338,0 0,0 0,-12.67339 0,-12.67339 0,0 12.67338,0 12.67338,0 z m -101.33711,0 c 0,0 0,38.0077 0,38.0077 0,0 38.00767,0 38.00767,0 0,0 0,-38.0077 0,-38.0077 0,0 -38.00767,0 -38.00767,0 z m 227.99599,0 c 0,0 0,38.0077 0,38.0077 0,0 38.0077,0 38.0077,0 0,0 0,-38.0077 0,-38.0077 0,0 -38.0077,0 -38.0077,0 z m -101.3246,12.67339 c 0,0 0,12.66091 0,12.66091 0,0 -12.67339,0 -12.67339,0 0,0 0,-12.66091 0,-12.66091 0,0 12.67339,0 12.67339,0 z m 0,37.99521 c 0,0 0,12.6608 0,12.6608 0,0 -12.67339,0 -12.67339,0 0,0 0,-12.6608 0,-12.6608 0,0 12.67339,0 12.67339,0 z m 50.65606,0 c 0,0 0,12.6608 0,12.6608 0,0 12.67339,0 12.67339,0 0,0 0,-12.6608 0,-12.6608 0,0 -12.67339,0 -12.67339,0 z m 76.00284,25.3342 c 0,0 0,12.6609 0,12.6609 0,0 12.6734,0 12.6734,0 0,0 0,12.6734 0,12.6734 0,0 12.6609,0 12.6609,0 0,0 0,-25.3343 0,-25.3343 0,0 -25.3343,0 -25.3343,0 z m -240.6569,12.6609 c 0,0 0,12.6734 0,12.6734 0,0 12.66089,0 12.66089,0 0,0 0,25.3343 0,25.3343 0,0 -25.33428,0 -25.33428,0 0,0 0,-38.0077 0,-38.0077 0,0 12.67339,0 12.67339,0 z m 50.66856,0 c 0,0 0,12.6734 0,12.6734 0,0 -25.33428,0 -25.33428,0 0,0 0,-12.6734 0,-12.6734 0,0 25.33428,0 25.33428,0 z m 0,25.3343 c 0,0 0,12.6734 0,12.6734 0,0 -25.33428,0 -25.33428,0 0,0 0,-12.6734 0,-12.6734 0,0 25.33428,0 25.33428,0 z m 164.65404,0 c 0,0 0,25.3343 0,25.3343 0,0 -12.66087,0 -12.66087,0 0,0 0,-25.3343 0,-25.3343 0,0 12.66087,0 12.66087,0 z m -227.99599,12.6734 c 0,0 0,12.6609 0,12.6609 0,0 12.67339,0 12.67339,0 0,0 0,25.3343 0,25.3343 0,0 -25.33428,0 -25.33428,0 0,0 0,-37.9952 0,-37.9952 0,0 12.66089,0 12.66089,0 z m 253.33029,0 c 0,0 0,12.6609 0,12.6609 0,0 25.3343,0 25.3343,0 0,0 0,12.6609 0,12.6609 0,0 -25.3343,0 -25.3343,0 0,0 0,12.6734 0,12.6734 0,0 -12.6609,0 -12.6609,0 0,0 0,-37.9952 0,-37.9952 0,0 12.6609,0 12.6609,0 z m -113.99801,12.6609 c 0,0 0,12.6609 0,12.6609 0,0 -25.33428,0 -25.33428,0 0,0 0,-12.6609 0,-12.6609 0,0 25.33428,0 25.33428,0 z m 50.66856,12.6609 c 0,0 0,12.6734 0,12.6734 0,0 -12.67339,0 -12.67339,0 0,0 0,12.6609 0,12.6609 0,0 -12.66089,0 -12.66089,0 0,0 0,12.6733 0,12.6733 0,0 12.66089,0 12.66089,0 0,0 0,50.6561 0,50.6561 0,0 -12.66089,0 -12.66089,0 0,0 0,12.6734 0,12.6734 0,0 -12.66089,0 -12.66089,0 0,0 0,12.6609 0,12.6609 0,0 -12.67339,0 -12.67339,0 0,0 0,-37.9952 0,-37.9952 0,0 12.67339,0 12.67339,0 0,0 0,-12.6609 0,-12.6609 0,0 12.66089,0 12.66089,0 0,0 0,-12.6734 0,-12.6734 0,0 -25.33428,0 -25.33428,0 0,0 0,-12.6609 0,-12.6609 0,0 12.67339,0 12.67339,0 0,0 0,-38.0076 0,-38.0076 0,0 37.99517,0 37.99517,0 z m 37.99515,0 c 0,0 0,12.6734 0,12.6734 0,0 -12.66087,0 -12.66087,0 0,0 0,-12.6734 0,-12.6734 0,0 12.66087,0 12.66087,0 z m -12.66087,12.6734 c 0,0 0,12.6609 0,12.6609 0,0 -25.33428,0 -25.33428,0 0,0 0,-12.6609 0,-12.6609 0,0 25.33428,0 25.33428,0 z m 25.33427,0 c 0,0 0,12.6609 0,12.6609 0,0 -12.6734,0 -12.6734,0 0,0 0,-12.6609 0,-12.6609 0,0 12.6734,0 12.6734,0 z m 37.9952,0 c 0,0 0,12.6609 0,12.6609 0,0 -25.3343,0 -25.3343,0 0,0 0,-12.6609 0,-12.6609 0,0 25.3343,0 25.3343,0 z m -50.6686,25.3342 c 0,0 0,37.9952 0,37.9952 0,0 -37.99515,0 -37.99515,0 0,0 0,-37.9952 0,-37.9952 0,0 37.99515,0 37.99515,0 z m 50.6686,0 c 0,0 0,12.6609 0,12.6609 0,0 -37.9952,0 -37.9952,0 0,0 0,-12.6609 0,-12.6609 0,0 37.9952,0 37.9952,0 z m -303.98637,12.6609 c 0,0 0,88.6638 0,88.6638 0,0 88.66373,0 88.66373,0 0,0 0,-88.6638 0,-88.6638 0,0 -88.66373,0 -88.66373,0 z m 227.98351,0 c 0,0 0,12.6734 0,12.6734 0,0 12.67339,0 12.67339,0 0,0 0,-12.6734 0,-12.6734 0,0 -12.67339,0 -12.67339,0 z m -151.99317,12.6734 c 0,0 0,63.3295 0,63.3295 0,0 -63.32945,0 -63.32945,0 0,0 0,-63.3295 0,-63.3295 0,0 63.32945,0 63.32945,0 z m 215.33513,0 c 0,0 0,25.3218 0,25.3218 0,0 -12.6734,0 -12.6734,0 0,0 0,12.6734 0,12.6734 0,0 -12.6609,0 -12.6609,0 0,0 0,-37.9952 0,-37.9952 0,0 25.3343,0 25.3343,0 z m -266.00369,12.6609 c 0,0 0,37.9952 0,37.9952 0,0 38.00767,0 38.00767,0 0,0 0,-37.9952 0,-37.9952 0,0 -38.00767,0 -38.00767,0 z m 190.00084,12.6609 c 0,0 0,12.6734 0,12.6734 0,0 -12.67339,0 -12.67339,0 0,0 0,-12.6734 0,-12.6734 0,0 12.67339,0 12.67339,0 z m 37.99515,0 c 0,0 0,12.6734 0,12.6734 0,0 -12.66087,0 -12.66087,0 0,0 0,-12.6734 0,-12.6734 0,0 12.66087,0 12.66087,0 z m 25.3343,25.3343 c 0,0 0,12.6734 0,12.6734 0,0 -12.6609,0 -12.6609,0 0,0 0,-12.6734 0,-12.6734 0,0 12.6609,0 12.6609,0 z"
       id="Selezione"
       inkscape:connector-curvature="0"
       style="fill:#ffffff;fill-opacity:1;stroke:#000000;stroke-width:0;stroke-miterlimit:4;stroke-dasharray:none" />
  </g>
  <g
     inkscape:groupmode="layer"
     id="layer2"
     inkscape:label="des"
     style="display:inline">
    <path
       d="m 235.478,1547.7831 c 0,7.1116 1.79977,13.9858 5.47431,19.935 3.38707,5.5368 7.849,10.2862 13.23581,14.1607 0.025,0.025 0.0625,0.05 0.0875,0.087 5.17435,3.812 10.9986,6.6742 17.3478,8.6864 0.05,0.025 0.12498,0.063 0.18747,0.088 6.18672,1.8872 12.49841,2.8121 18.79761,2.8121 0,0 36.08291,0 36.08291,0 4.89938,0 9.93624,-2.0497 13.4358,-5.3743 3.47455,-3.3246 5.54929,-8.1864 5.54929,-12.8734 0,-4.6744 -2.07474,-9.6237 -5.54929,-12.9608 -3.49956,-3.2996 -8.53642,-5.2618 -13.4358,-5.2618 0,0 -36.08291,0 -36.08291,0 -1.77477,0 -3.887,-0.2 -6.2367,-0.6 -0.0625,-0.025 -0.11249,-0.075 -0.16248,-0.075 -0.0625,-0.038 -0.11249,0 -0.16248,0 -1.92476,-0.475 -3.56205,-1.1249 -5.07436,-2.0623 -1.41232,-0.9999 -2.64966,-2.2247 -3.73702,-4.087 -0.025,-0.025 -0.05,-0.05 -0.0875,-0.075 -0.7874,-1.2873 -1.47481,-3.5745 -1.47481,-7.2615 0,0 0,-73.1282 0,-73.1282 0,-3.5121 0.66241,-5.6743 1.47481,-7.0116 0.0625,-0.063 0.11248,-0.1625 0.16248,-0.25 1.12486,-1.9623 2.29971,-3.0496 3.49955,-3.837 0.0875,-0.063 0.16248,-0.175 0.24997,-0.25 1.51231,-1.0374 3.01212,-1.6373 4.87438,-1.9622 0.16248,-0.038 0.34996,-0.063 0.52494,-0.088 2.39969,-0.55 4.42443,-0.8499 6.14921,-0.8499 0.27497,0 0.57493,0 0.8499,0 0,0 35.23301,0 35.23301,0 4.89938,0 9.93624,-1.9498 13.4358,-5.2869 3.47455,-3.337 5.54929,-8.1864 5.54929,-12.8733 0,-4.6869 -2.07474,-9.5488 -5.54929,-12.8734 -3.49956,-3.3121 -8.53642,-5.3493 -13.4358,-5.3743 0,0 -36.08291,0 -36.08291,0 -6.18671,0.025 -12.47341,0.9499 -18.63513,2.8371 -6.18671,1.8498 -11.87349,4.637 -17.01033,8.2615 -0.0625,0.025 -0.11249,0.025 -0.17498,0.087 -5.16185,3.537 -9.62378,7.9865 -12.98585,13.1233 -0.025,0.05 -0.05,0.025 -0.0875,0.075 -3.79952,5.5868 -5.91175,12.111 -6.23671,18.9351 -0.025,0.125 -0.025,0.2875 0,0.4374 0,0 0,84.8892 0,84.8892 0,0 0,0 0,0 z m 5.5493,-149.1935 c 3.47456,3.3371 8.5989,5.2993 13.49828,5.2993 0,0 72.16582,0 72.16582,0 4.89938,0 9.93624,-1.9622 13.4358,-5.2993 3.47455,-3.2996 5.54929,-8.1739 5.54929,-12.8733 0,-4.662 -2.07474,-9.5488 -5.54929,-12.8484 -2.62467,-2.5122 -6.18672,-3.9745 -9.84875,-4.6869 -1.14985,-0.4875 -2.32471,-0.7999 -3.58705,-0.7624 0,0 -72.16582,0 -72.16582,0 -4.89938,0 -10.02372,2.1247 -13.49828,5.4493 -3.49956,3.2996 -5.5493,8.1864 -5.5493,12.8484 0,4.6994 2.04974,9.5737 5.5493,12.8733 z m -5.5493,-91.9758 c 0,7.1366 1.79977,14.0232 5.47431,19.96 3.38707,5.5118 7.849,10.2612 13.23581,14.1357 0.025,0.025 0.0625,0.075 0.0875,0.1125 5.17435,3.787 10.9986,6.7366 17.3478,8.7489 0.05,0 0.12498,0 0.18747,0 6.18672,1.8872 12.49841,2.8371 18.79761,2.8371 0,0 36.08291,0 36.08291,0 4.89938,0 9.93624,-1.9623 13.4358,-5.2868 3.47455,-3.3246 5.54929,-8.274 5.54929,-12.9609 0,-4.6869 -2.07474,-9.6238 -5.54929,-12.9483 -3.49956,-3.3246 -8.53642,-5.2994 -13.4358,-5.2994 0,0 -36.08291,0 -36.08291,0 -1.77477,0 -3.887,-0.1874 -6.2367,-0.5999 -2.04974,-0.4374 -3.79952,-1.1498 -5.39932,-2.1247 -1.41232,-0.9874 -2.64966,-2.2372 -3.73702,-4.0995 -0.025,-0.025 -0.05,-0.05 -0.0875,-0.075 -0.7874,-1.2498 -1.47481,-3.5745 -1.47481,-7.2616 0,0 0,-73.1282 0,-73.1282 0,-3.487 0.66241,-5.6742 1.47481,-6.9866 0.0625,-0.075 0.11248,-0.1875 0.16248,-0.2749 1.12486,-1.9623 2.29971,-3.0497 3.49955,-3.8121 0.0875,-0.087 0.16248,-0.1874 0.24997,-0.2749 1.51231,-1.0124 3.01212,-1.5248 4.87438,-1.8498 0.18748,-0.063 0.34996,-0.1125 0.52494,-0.2 2.39969,-0.5374 4.42443,-0.7624 6.14921,-0.7624 0,0 36.08291,0 36.08291,0 4.89938,0 9.93624,-2.0497 13.4358,-5.3743 3.47455,-3.2996 5.54929,-8.1739 5.54929,-12.8484 0,-4.6869 -2.07474,-9.5487 -5.54929,-12.8733 -3.49956,-3.3246 -8.53642,-5.3743 -13.4358,-5.3743 0,0 -36.08291,0 -36.08291,0 -6.18671,0 -12.47341,0.9623 -18.63513,2.8121 -6.21171,1.8748 -11.87349,4.6369 -17.01033,8.2615 -0.0625,0.037 -0.11249,0.063 -0.17498,0.087 -5.18684,3.5495 -9.59878,7.9989 -12.98585,13.1108 -0.025,0.063 -0.05,0.15 -0.0875,0.2 -3.79952,5.5618 -5.91175,11.9984 -6.23671,18.8226 -0.025,0.1624 -0.025,0.3499 0,0.5124 0,0 0,84.8142 0,84.8142 0,0 0,0 0,0 z m 5.5493,-294.6 c 3.47456,3.3246 8.5989,5.2868 13.49828,5.2868 0,0 36.08291,0 36.08291,0 1.72478,0 3.91201,0.3875 6.51168,0.9499 0.11248,0 0.21247,0 0.32495,0 1.69979,0.3124 3.1496,0.8749 4.7119,1.9372 0.075,0.087 0.16248,0.1875 0.24997,0.275 1.22485,0.7624 2.44969,1.9373 3.68703,3.8245 0,0.025 -0.025,0.075 0,0.1 0.76241,1.3498 1.44982,3.5995 1.44982,7.1491 0,0 0,80.5523 0,80.5523 0,3.687 -0.73741,6.1117 -1.44982,7.424 -1.23734,1.7998 -2.43719,3.1121 -3.862,4.087 -0.025,0.025 -0.05,0.088 -0.075,0.088 -1.58729,0.9749 -3.22459,1.5248 -5.03685,1.9622 -0.05,0 -0.05,0.075 -0.075,0.075 -2.46218,0.4125 -4.6869,0.5249 -6.43668,0.5249 0,0 -36.08291,0 -36.08291,0 -4.89938,0 -10.02372,2.1248 -13.49828,5.4619 -3.24959,3.0996 -5.22434,7.524 -5.46181,11.9109 0.025,0.8749 0.05,1.7248 0.075,2.5622 0,0.063 0,0.1125 0,0.1625 0.43745,4.1245 2.32471,8.1865 5.38682,11.1111 3.47456,3.3246 8.5989,5.3618 13.49828,5.3618 0,0 36.08291,0 36.08291,0 6.21171,0 12.39843,-0.9374 18.54764,-2.8246 6.21171,-1.8623 12.03597,-4.587 17.18532,-8.074 0.025,-0.037 0.075,-0.087 0.1,-0.1125 5.19934,-3.687 9.63627,-8.2365 13.16082,-13.3608 0.05,-0.063 0.11249,-0.038 0.17498,-0.088 3.66204,-5.6118 5.5493,-12.036 5.89925,-18.8476 0,-0.1625 0,-0.3624 0,-0.5249 0,0 0,-92.3133 0,-92.3133 0,-7.1116 -1.82477,-13.9857 -5.4618,-19.9225 -3.39957,-5.5118 -7.74902,-10.27355 -12.99835,-14.16065 -0.025,-0.037 -0.05,-0.062 -0.0875,-0.087 -5.27433,-3.76214 -11.13608,-6.54924 -17.37279,-8.46154 0,0 0,-0.075 0,-0.075 -0.05,0 -0.1,0.025 -0.16248,0 -6.2992,-1.9622 -12.63589,-3.1371 -18.98509,-3.1371 0,0 -36.08291,0 -36.08291,0 -4.89938,0 -10.02372,2.1248 -13.49828,5.4618 -3.49956,3.3246 -5.5493,8.17404 -5.5493,12.87344 0,4.66185 2.04974,9.53625 5.5493,12.84835 z m -5.5493,-64.51681 c 0,4.6869 2.08724,9.54882 5.5493,12.87332 3.47456,3.3246 8.5989,5.2619 13.49828,5.2619 4.7244,0 9.78626,-1.8873 13.18582,-5.0994 0.05,-0.088 0.1,-0.1625 0.16248,-0.2374 2.78715,-2.8997 4.67441,-6.5242 5.5493,-10.34872 0.025,-0.05 0.0875,-0.1125 0.0875,-0.1625 0.84989,-3.5496 1.96225,-6.8741 3.49955,-10.0612 1.5873,-3.2246 3.33708,-5.9493 5.22434,-8.1865 0.0875,-0.1125 0.17498,-0.1875 0.23747,-0.3249 1.73728,-2.2748 3.39957,-3.7371 4.98686,-4.687 0.16248,-0.1249 0.33746,-0.2249 0.49994,-0.3374 1.33733,-0.9249 1.98725,-1.0374 2.64966,-1.0374 0.66242,0 1.44982,0.1875 2.99962,1.1999 0.0875,0.05 0.17498,0.1125 0.24997,0.1749 1.6123,0.9749 3.47456,2.4997 5.39931,4.8494 1.77478,2.2622 3.52456,5.0744 5.11185,8.349 1.53731,3.1621 2.62467,6.4616 3.33708,9.9862 0.025,0.025 0.0625,0.05 0.0875,0.075 0.87489,3.89952 2.81214,7.61152 5.73677,10.51122 0.0375,0.025 0.0375,0.025 0.0875,0.075 0.025,0.025 0.025,0.1125 0.075,0.1625 0,0 0.0875,-0.088 0.0875,-0.088 3.28708,3.2496 8.31144,5.1869 12.91085,5.1869 4.89938,0 9.93624,-1.9373 13.4358,-5.2619 2.57467,-2.4621 4.07448,-5.7492 4.86188,-9.22382 0.52493,-1.1373 0.72491,-2.3997 0.68741,-3.6495 0,0 0,-0.8499 0,-0.8499 0,0 0,-0.5999 0,-0.5999 0,-0.9249 -0.05,-1.7748 -0.34995,-2.6372 -0.025,-0.088 -0.11249,-0.3375 -0.16248,-0.5249 -0.025,-0.1125 -0.0625,-0.225 -0.0875,-0.325 -1.44982,-6.5992 -3.84951,-12.9858 -7.1116,-19.21 -3.28708,-6.2743 -7.17409,-11.9235 -11.786,-16.9354 -4.6869,-5.0993 -10.04872,-9.3363 -15.89798,-12.5484 -0.025,-0.025 -0.05,0.025 -0.0875,0 -6.21171,-3.2746 -12.86086,-5.1868 -19.58501,-5.1868 -6.72414,0 -13.3233,1.8497 -19.39753,5.1868 -5.82426,3.1871 -11.16108,7.4116 -15.81049,12.4359 0,0 -0.0875,-0.075 -0.0875,-0.075 -0.05,0.05 0.0375,0.125 0,0.1875 -4.76189,5.0119 -8.86137,10.6861 -12.14845,16.9354 -3.24959,6.2242 -5.57429,12.6108 -6.99911,19.21 -0.025,0 0,0.05 0,0.075 -0.025,0.087 -0.0875,0.175 -0.11249,0.25 -0.18748,0.8124 -0.18748,1.7497 -0.24997,2.7246 0,0.1875 -0.075,0.25 -0.075,0.4375 -0.0625,0.4624 -0.24997,1.0123 -0.24997,1.4498 0,0 0,0 0,0 z m 0,-177.47745 c 0,0.43744 0.18748,0.98737 0.24997,1.44981 0.025,0.13749 0.05,0.27497 0.075,0.39995 0.0625,0.98738 0.0875,1.88726 0.24997,2.64967 0.025,0.13748 0.05,0.22497 0.11249,0.36245 1.42482,6.53667 3.77452,12.98585 6.99911,19.17256 3.28708,6.2742 7.36156,11.99848 12.14845,17.04783 0.0375,0.025 -0.025,0.05 0,0.075 4.64941,5.04936 10.07372,9.17384 15.89798,12.36093 6.07423,3.33708 12.67339,5.21184 19.39753,5.21184 6.74915,0 13.3733,-1.91226 19.58501,-5.21184 0.0375,0 0.0625,0 0.0875,0 5.84926,-3.18709 11.21108,-7.36156 15.89798,-12.43592 4.61191,-5.04935 8.49892,-10.77363 11.786,-17.04783 3.26209,-6.18671 5.66178,-12.63589 7.1116,-19.17256 0.0625,-0.19997 0.025,-0.22497 0.0875,-0.36245 0.025,-0.13749 0.13748,-0.34996 0.16248,-0.39995 0.29996,-0.87489 0.34995,-1.74978 0.34995,-2.64967 0,0 0,-0.94988 0,-0.94988 0,0 0,-0.49993 0,-0.49993 0,-1.13736 -0.16248,-2.28721 -0.59992,-3.32458 -0.025,-0.0875 -0.05,-0.18748 -0.0875,-0.27496 -0.7624,-3.46206 -2.28721,-6.89913 -4.86188,-9.36131 -3.49956,-3.32458 -8.53642,-5.28683 -13.4358,-5.28683 -4.59941,0 -9.62377,1.93725 -12.91085,5.18684 0,0 -0.0875,-0.0875 -0.0875,-0.0875 -0.05,0.05 -0.05,0.13748 -0.075,0.18748 -0.05,0.025 -0.05,0.025 -0.0875,0.0875 -2.92463,2.86213 -4.86188,6.57416 -5.73677,10.47366 -0.025,0.05 -0.0625,0.11249 -0.0875,0.16248 -0.71241,3.54955 -1.79977,6.84913 -3.33708,9.98623 -1.5248,3.1871 -3.26208,5.87426 -5.02436,8.26145 -1.89976,2.21222 -3.67453,3.912 -5.4868,5.13685 -0.05,0.025 -0.025,0.05 -0.075,0.075 -1.47481,0.84989 -2.3872,1.01237 -3.1746,1.01237 -0.7624,0 -1.5623,-0.16248 -2.81214,-0.92488 -0.025,-0.0375 -0.0625,-0.0875 -0.0875,-0.0875 -1.77477,-1.17485 -3.56205,-2.77465 -5.29932,-4.96187 0,0 0,-0.0625 0,-0.0875 -1.94976,-2.39969 -3.81202,-5.14934 -5.39932,-8.42393 -1.5373,-3.1621 -2.64966,-6.59916 -3.49955,-10.14871 0,-0.05 -0.0625,-0.11248 -0.0875,-0.16248 -0.87489,-3.79951 -2.76215,-7.42405 -5.5493,-10.31118 -0.0625,-0.0875 -0.11248,-0.18748 -0.16248,-0.27497 -3.39956,-3.21209 -8.46142,-5.09935 -13.18582,-5.09935 -4.89938,0 -10.02372,1.96225 -13.49828,5.28683 -3.46206,3.31207 -5.5493,8.27394 -5.5493,12.96085 0,0 0,0 0,0 z m 33.0833,88.65123 c 0,5.4618 2.3497,11.11108 6.39918,15.01059 3.08711,2.93712 7.32407,4.47443 11.62353,5.26183 0.05,0.025 0.11248,0.088 0.18747,0.088 1.21235,0.5124 2.52468,0.7249 3.83701,0.6749 1.28734,0.025 2.59967,-0.1875 3.77452,-0.6749 4.42444,-0.7499 8.62391,-2.34972 11.786,-5.34933 4.06199,-3.89951 6.48668,-9.54879 6.48668,-15.01059 0,-5.47431 -2.42469,-11.0486 -6.48668,-14.91061 -4.07448,-3.912 -9.81125,-6.06173 -15.56052,-6.06173 -5.71177,0 -11.57353,2.14973 -15.64801,6.06173 -4.04948,3.86201 -6.39918,9.4363 -6.39918,14.91061 0,0 0,0 0,0 z m 107.7113,527.64543 c 2.3747,4.037 5.43681,7.474 9.23633,10.3112 3.69953,2.8621 7.8615,5.0493 12.48591,6.5741 4.51192,1.4249 9.08634,2.1248 13.59827,2.1248 4.39944,0 8.79888,-0.6999 13.3483,-2.1248 4.51193,-1.4123 8.61141,-3.3495 12.31094,-5.9742 3.66203,-2.7247 6.72414,-5.9992 9.22382,-9.7863 1.71229,-2.7621 2.89962,-5.7367 3.49955,-9.0363 0,0 0,-89.6011 0,-89.6011 -0.52494,-3.2746 -1.5373,-6.3367 -3.14959,-9.1114 -2.3747,-4.0369 -5.38682,-7.474 -9.08635,-10.3112 -3.79951,-2.8371 -7.96148,-4.9743 -12.47341,-6.4116 -4.62441,-1.5373 -9.16133,-2.2872 -13.67326,-2.2872 -4.41194,0 -8.89887,0.6999 -13.43579,2.1247 -4.51193,1.4123 -8.62391,3.487 -12.31094,6.2117 -3.67453,2.6247 -6.67415,5.8368 -9.06134,9.6363 -2.48719,3.812 -3.86201,8.0989 -4.09948,12.9483 0,0 0,81.0772 0,81.0772 0,5.0994 1.22484,9.6238 3.58704,13.6358 z m -1.09986,-145.9315 c 1.66229,1.6623 3.68703,2.4747 6.07423,2.4747 2.3747,0 4.39944,-0.8124 6.07423,-2.4747 1.63729,-1.6373 2.46218,-3.687 2.46218,-6.0617 0,0 0,-107.1489 0,-107.1489 0,-1.7747 0.64992,-3.2995 1.97475,-4.5744 1.31233,-1.4498 2.83714,-2.1622 4.61191,-2.1622 1.88726,0 3.56205,0.7124 4.87438,2.1622 1.17486,1.2749 1.79978,2.7997 1.79978,4.5744 0,0 0,94.1881 0,94.1881 0,3.0871 0.52493,5.9242 1.69978,8.5364 1.07486,2.6246 2.68716,4.8369 4.7119,6.7491 1.88726,1.8748 4.18697,3.4871 6.92412,4.6869 2.62467,1.0624 5.41181,1.5248 8.36144,1.5248 0,0 17.09782,0 17.09782,0 2.3872,0 4.41194,-0.8124 6.08673,-2.4747 1.01236,-0.9873 1.66228,-2.1372 2.04973,-3.412 0,0 0,-5.1869 0,-5.1869 -0.38745,-1.1998 -1.03737,-2.2622 -2.04973,-3.2496 -1.67479,-1.7747 -3.69953,-2.7246 -6.08673,-2.7246 0,0 -15.12307,0 -15.12307,0 -1.77478,0 -3.26209,-0.5499 -4.42444,-1.6123 -1.21235,-1.0624 -1.92476,-2.3122 -2.14973,-3.837 0,0 0,-35.383 0,-35.383 0,-6.3867 0.74991,-12.5734 2.29971,-18.4977 1.5373,-5.9117 3.62454,-11.586 6.2492,-17.0478 2.62467,-5.5618 5.5493,-10.9361 8.88637,-16.0355 3.33708,-5.0743 6.78664,-10.0487 10.34869,-14.8981 1.01236,-1.2248 1.66228,-2.3747 2.04973,-3.5995 0,0 0,-5.0994 0,-5.0994 -0.38745,-1.2873 -1.03737,-2.3997 -2.04973,-3.412 -1.67479,-1.6623 -3.69953,-2.4872 -6.08673,-2.4872 -1.66229,0 -3.06211,0.4124 -4.26196,1.3748 -1.31233,0.9499 -2.46218,2.0997 -3.42456,3.4121 -2.72465,3.4245 -5.16184,6.8116 -7.43655,10.1487 -2.3747,3.3246 -4.56192,6.5867 -6.57417,9.7862 0,0 0,-0.7624 0,-0.7624 0,-3.2995 -0.62492,-6.3616 -1.79977,-9.1988 -1.31233,-2.9746 -3.06211,-5.5368 -5.22434,-7.6615 -2.12472,-2.2622 -4.56191,-3.937 -7.43655,-5.1369 -2.84964,-1.2998 -5.99924,-1.9622 -9.31132,-1.9622 -3.32457,0 -6.37418,0.6624 -9.24882,1.9622 -2.83714,1.1999 -5.36182,2.8747 -7.51154,5.1369 -2.13723,2.1247 -3.74953,4.6869 -4.94937,7.6615 -1.32484,2.8372 -1.97475,5.8993 -1.97475,9.1988 0,0 0,106.4615 0,106.4615 0,2.3747 0.81239,4.4244 2.48718,6.0617 z m 1.09986,-173.4654 c 2.3747,4.037 5.43681,7.474 9.23633,10.3112 3.69953,2.8371 7.8615,5.0993 12.48591,6.6491 4.51192,1.4249 9.08634,2.1373 13.59827,2.1373 4.39944,0 8.86137,-0.7124 13.51078,-2.1373 4.62441,-1.4123 8.83638,-3.437 12.63589,-6.0492 3.69953,-2.7246 6.71165,-6.0117 9.08635,-9.7987 1.61229,-2.6122 2.62465,-5.4244 3.14959,-8.5365 0,0 0,-101.44959 0,-101.44959 -0.27497,-1.3873 -0.66242,-2.6996 -1.19984,-4.012 -1.18735,-2.58712 -2.71215,-4.82432 -4.59941,-6.69912 -2.02475,-2.0247 -4.32445,-3.5495 -6.92412,-4.6119 -2.73716,-1.0624 -5.58679,-1.6373 -8.56142,-1.6373 0,0 -3.94949,0 -3.94949,0 -2.94963,0 -5.73677,0.5749 -8.36144,1.6373 -2.73715,1.0624 -5.03686,2.5872 -6.92412,4.6119 -2.02474,1.8748 -3.63704,4.112 -4.7119,6.69912 -1.17485,2.6247 -1.69978,5.4119 -1.69978,8.3865 0,0 0,68.10379 0,68.10379 0,2.3497 0.79989,4.3995 2.46218,6.0368 1.67479,1.6622 3.69953,2.4871 6.08673,2.4871 2.3747,0 4.32445,-0.8249 5.98674,-2.4871 1.67478,-1.6373 2.56217,-3.6871 2.56217,-6.0368 0,0 0,-67.34139 0,-67.34139 0,-1.6623 0.66242,-2.9746 1.94975,-3.9245 1.31234,-1.0624 2.84964,-1.6248 4.62442,-1.6248 1.78727,0 3.31207,0.6124 4.62441,1.7873 1.31233,1.0623 1.97475,2.3372 1.97475,3.762 0,0 0,86.17649 0,86.17649 0,4.137 -0.71241,7.5491 -2.13723,10.1362 -1.5623,2.4872 -3.42457,4.5245 -5.5493,6.0618 -2.17472,1.4123 -4.43693,2.3997 -6.96161,2.9746 -2.58717,0.4874 -4.94937,0.7624 -7.0741,0.7624 -2.13723,0 -4.51193,-0.275 -7.01161,-0.7624 -2.62467,-0.5749 -4.94937,-1.5623 -7.1116,-2.9746 -2.13722,-1.5373 -3.93699,-3.5746 -5.36181,-6.0618 -1.54981,-2.5871 -2.32471,-5.9992 -2.32471,-10.1362 0,0 0,-99.73731 0,-99.73731 0,-2.3747 -0.82489,-4.3869 -2.46218,-6.0617 -1.67479,-1.6623 -3.69953,-2.4747 -6.07423,-2.4747 -2.3872,0 -4.41194,0.8124 -6.07423,2.4747 -1.67479,1.6748 -2.48718,3.687 -2.48718,6.0617 0,0 0,103.64931 0,103.64931 0,5.1119 1.22484,9.6113 3.58704,13.6483 z m 13.51078,230.2582 c 0,-4.037 0.7749,-7.3615 2.32471,-9.9862 1.42482,-2.6247 3.22459,-4.6369 5.36181,-6.0492 2.16223,-1.5374 4.48693,-2.5997 7.1116,-3.0622 2.49968,-0.5999 4.87438,-0.8748 7.01161,-0.8748 2.12473,0 4.48693,0.2749 7.0741,0.8748 2.52468,0.4625 4.78689,1.5248 6.96161,3.0622 2.12473,1.4123 3.987,3.4245 5.5493,6.0492 1.42482,2.6247 2.13723,5.9492 2.13723,9.9862 0,0 0,71.7659 0,71.7659 0,4.1495 -0.71241,7.524 -2.13723,10.1487 -1.5623,2.4747 -3.42457,4.4994 -5.5493,6.0492 -2.17472,1.4248 -4.43693,2.3747 -6.96161,2.9747 -2.58717,0.4749 -4.94937,0.7624 -7.0741,0.7624 -2.13723,0 -4.51193,-0.2875 -7.01161,-0.7624 -2.62467,-0.6 -4.94937,-1.5499 -7.1116,-2.9747 -2.13722,-1.5498 -3.93699,-3.5745 -5.36181,-6.0492 -1.54981,-2.6247 -2.32471,-5.9992 -2.32471,-10.1487 0,0 0,-71.7659 0,-71.7659 z m 33.7957,151.1933 c 2.97463,2.9996 6.58667,4.5369 10.93611,4.5369 4.32445,0 7.924,-1.5373 10.94861,-4.5369 2.97462,-2.9621 4.51192,-6.5867 4.51192,-10.9111 0,-4.2995 -1.5373,-7.9865 -4.51192,-10.9861 -3.02461,-2.9746 -6.62416,-4.4245 -10.94861,-4.4245 -4.34944,0 -7.96148,1.4499 -10.93611,4.4245 -3.02461,2.9996 -4.54942,6.6866 -4.54942,10.9861 0,4.3244 1.52481,7.949 4.54942,10.9111 z"
       id="ninux.org destri"
       inkscape:connector-curvature="0"
       style="fill:#e14536;stroke:#000000;stroke-width:4;fill-opacity:1;stroke-miterlimit:4;stroke-dasharray:none" />
  </g>
</svg>
