<?xml version="1.0" encoding="UTF-8" standalone="no"?>
<!-- Created with Inkscape (http://www.inkscape.org/) -->

<svg
   xmlns:dc="http://purl.org/dc/elements/1.1/"
   xmlns:cc="http://creativecommons.org/ns#"
   xmlns:rdf="http://www.w3.org/1999/02/22-rdf-syntax-ns#"
   xmlns:svg="http://www.w3.org/2000/svg"
   xmlns="http://www.w3.org/2000/svg"
   xmlns:sodipodi="http://sodipodi.sourceforge.net/DTD/sodipodi-0.dtd"
   xmlns:inkscape="http://www.inkscape.org/namespaces/inkscape"
   width="1115.6088"
   height="1773.3516"
   id="svg2"
   version="1.1"
   inkscape:version="0.48.4 r9939"
   sodipodi:docname="LogoCalabria.svg">
  <defs
     id="defs4" />
  <sodipodi:namedview
     id="base"
     pagecolor="#ffffff"
     bordercolor="#666666"
     borderopacity="1.0"
     inkscape:pageopacity="0.0"
     inkscape:pageshadow="2"
     inkscape:zoom="0.49497475"
     inkscape:cx="562.65548"
     inkscape:cy="1060.749"
     inkscape:document-units="px"
     inkscape:current-layer="layer5"
     showgrid="false"
     fit-margin-top="0"
     fit-margin-left="0"
     fit-margin-right="0"
     fit-margin-bottom="0"
     guidetolerance="10000"
     objecttolerance="10000"
     inkscape:window-width="1215"
     inkscape:window-height="1000"
     inkscape:window-x="1345"
     inkscape:window-y="24"
     inkscape:window-maximized="1" />
  <metadata
     id="metadata7">
    <rdf:RDF>
      <cc:Work
         rdf:about="">
        <dc:format>image/svg+xml</dc:format>
        <dc:type
           rdf:resource="http://purl.org/dc/dcmitype/StillImage" />
        <dc:title></dc:title>
      </cc:Work>
    </rdf:RDF>
  </metadata>
  <g
     inkscape:groupmode="layer"
     id="layer2"
     inkscape:label="Livello"
     transform="translate(777.08627,865.95544)"
     style="display:inline">
    <path
       d="m -81.273792,-642.05571 c -19.235068,0 -34.820578,15.4605 -34.820578,34.4956 0,9.6613 4.02448,18.4102 10.46117,24.6469 0,0 27.658988,25.9592 27.858958,86.539 0,0.2749 0,0.4374 0,0.6749 -0.19997,60.5798 -27.858958,86.5265 -27.858958,86.5265 -6.16172,6.2492 -9.93624,14.7481 -9.93624,24.1719 0,19.08506 15.623014,34.58309 34.858078,34.58309 9.773746,0 18.597626,-4.01199 24.909326,-10.41117 0,0 44.75681,-48.29382 47.2564903,-128.83362 0,-0.075 0,-0.1625 0,-0.2375 0.28746,-1.7497 0.43745,-3.5745 0.43745,-5.4493 0,-0.1125 0,-0.2374 0,-0.3499 0,-0.087 0,-0.1625 0,-0.2375 0,-1.3498 -0.19998,-2.5497 -0.19998,-3.862 -0.075,-0.4375 -0.14998,-0.8749 -0.23747,-1.3123 -2.0247403,-81.3272 -47.2564903,-130.1335 -47.2564903,-130.1335 -6.23671,-6.5242 -15.02309,-10.6611 -24.796846,-10.7736 -0.19997,0 -0.43744,-0.037 -0.67491,-0.037 z m 94.150527,-76.5653 c 0,9.6238 3.97449,18.3227 10.37368,24.5719 0,0 65.141709,64.2293 65.504169,197.4749 0.0375,0.3999 0,0.7124 0,1.0748 -0.36246,133.2706 -65.504169,197.47493 -65.504169,197.47493 -7.18659,6.3117 -11.72351,15.53553 -11.72351,25.79672 0,19.07258 15.58552,34.49561 34.820569,34.49561 10.61115,0 20.14744,-4.72439 26.54662,-12.16095 0,0 82.552006,-86.65148 85.089176,-239.76951 0.32496,-1.7498 0.43745,-3.5745 0.43745,-5.4493 0,-0.15 0,-0.275 0,-0.3875 0,-0.1624 0,-0.2874 0,-0.4374 0,-1.4373 -0.19998,-2.6622 -0.19998,-4.0995 -0.075,-0.4374 -0.14998,-0.8749 -0.23747,-1.2748 -2.13722,-153.8305 -85.089176,-240.8819 -85.089176,-240.8819 -6.36169,-6.6741 -15.38554,-10.8861 -25.39677,-10.8861 -0.98737,0 -1.94975,0.037 -2.89963,0.1125 -17.760239,1.5623 -31.720959,16.3479 -31.720959,34.3456 z m 175.352695,-145.4815 c -19.19756,0 -34.77058,15.4231 -34.77058,34.5081 0,9.5363 3.88701,18.1602 10.2112,24.3969 0,0 102.86192,102.5245 103.41185,308.4233 0,0.5124 0,0.9499 0,1.5123 -0.54993,205.86134 -103.41185,308.17332 -103.41185,308.17332 -6.16171,6.19921 -9.93623,14.74813 -9.93623,24.17193 0,19.07257 15.58551,34.53311 34.85806,34.53311 9.77376,0 18.59764,-3.9745 24.92183,-10.37369 0,0 119.78477,-124.9341 122.57192,-350.46797 0,-0.075 0,-0.1624 0,-0.2374 0.27496,-1.7498 0.43744,-3.5746 0.43744,-5.4493 0,-0.1125 0,-0.2375 0,-0.35 0,-0.2375 0,-0.4374 0,-0.6749 0,-0.2875 0,-0.5624 0,-0.8374 0,-0.4374 0,-0.8749 0,-1.3123 0,-1.9123 -0.12498,-3.7745 -0.43744,-5.6118 -0.0875,-0.15 -0.16248,-0.275 -0.19998,-0.4375 -3.26208,-224.6589 -122.37194,-349.1931 -122.37194,-349.1931 -6.2867,-6.5616 -15.18557,-10.6861 -25.04681,-10.7736 -0.075,0 -0.14998,0 -0.23747,0 z m -574.9019,232.8579 c 0,0 -44.74431,48.2939 -47.24399,128.8211 -0.28746,1.7873 -0.43744,3.6246 -0.43744,5.4868 0,0.2 0,0.4 0,0.5625 0,0.1499 0,0.3124 0,0.4374 0,0.075 0,0.15 0,0.2375 0.0375,1.4623 0.18747,2.8996 0.43744,4.2869 1.86226,81.6021 47.24399,130.58342 47.24399,130.58342 6.3242,6.39918 15.14807,10.37368 24.88434,10.37368 19.27254,0 34.89556,-15.46054 34.89556,-34.5831 0,-9.3863 -3.77452,-17.8852 -9.93624,-24.1344 0,0 -27.62149,-25.9467 -27.85896,-86.5265 0,-0.2375 0,-0.4 0,-0.6749 0.23747,-60.5798 27.85896,-86.539 27.85896,-86.539 6.3242,-6.2367 10.2612,-14.8607 10.2612,-24.4469 0,-19.0351 -15.58552,-34.4956 -34.82058,-34.4956 -0.43744,0 -0.91238,0.037 -1.34982,0.037 -9.38631,0.3124 -17.84773,4.2869 -23.93446,10.5736 z m -124.94661,-110.9484 c 0,0 -82.27704,86.5765 -84.9392,239.5695 -0.27496,1.7498 -0.43744,3.5871 -0.43744,5.4869 0,0.1624 0,0.3624 0,0.5624 0,0.2374 0,0.4374 0,0.6374 0,0.15 0,0.275 0,0.4374 0.0375,1.6248 0.19997,3.2121 0.43744,4.7619 2.18722,153.79298 84.9392,240.84441 84.9392,240.84441 6.36169,6.76164 15.42304,11.0111 25.47176,11.0111 19.23506,0 34.82057,-15.42304 34.82057,-34.50811 0,-9.64877 -4.01198,-18.36017 -10.46116,-24.63437 0,0 -65.14172,-64.20433 -65.52917,-197.47493 0,-0.3624 0,-0.6749 0,-1.0748 0.38745,-133.2456 65.52917,-197.4749 65.52917,-197.4749 6.32419,-6.2492 10.26119,-14.8731 10.26119,-24.4469 0,-19.0476 -15.58552,-34.5081 -34.82057,-34.5081 -0.43745,0 -0.91239,0.037 -1.34983,0.037 -9.4238,0.3624 -17.88523,4.4619 -23.92196,10.7736 z m -140.41964,-111.1359 c 0,0 -119.19735,124.6092 -122.37194,349.3931 -0.39995,2.1497 -0.63742,4.3745 -0.63742,6.6867 0,0.1499 0,0.3124 0,0.4749 0,0.275 0,0.5499 0,0.8374 0,0.2375 0,0.4374 0,0.6749 0,0.35 -0.0375,0.7124 -0.0375,1.1124 0,1.8997 0.16248,3.737 0.47494,5.5618 0.0375,0.1624 0.12499,0.2749 0.19998,0.4374 3.17459,224.82142 122.37194,349.39307 122.37194,349.39307 6.32419,6.39919 15.14807,10.37369 24.92183,10.37369 19.23505,0 34.85807,-15.46054 34.85807,-34.53311 0,-9.4238 -3.77452,-17.97272 -9.93624,-24.17193 0,0 -102.86192,-102.31198 -103.41185,-308.17332 0,-0.5624 0,-0.9999 0,-1.5123 0.54993,-205.8988 103.41185,-308.4233 103.41185,-308.4233 6.3117,-6.2367 10.2487,-14.8981 10.2487,-24.4344 0,-19.0475 -15.57302,-34.5081 -34.82058,-34.5081 -0.42494,0 -0.91238,0 -1.34982,0.037 -9.41131,0.3625 -17.88523,4.412 -23.92196,10.7736 z m 517.74666,825.507569 c 0,0 0,88.663717 0,88.663717 0,0 88.663734,0 88.663734,0 0,0 0,-88.663717 0,-88.663717 0,0 -88.663734,0 -88.663734,0 z m 126.6588943,0 c 0,0 0,12.67339 0,12.67339 0,0 -25.3342703,0 -25.3342703,0 0,0 0,25.33428 0,25.33428 0,0 12.66089,0 12.66089,0 0,0 0,37.995157 0,37.995157 0,0 -12.66089,0 -12.66089,0 0,0 0,12.66089 0,12.66089 0,0 12.66089,0 12.66089,0 0,0 0,-12.66089 0,-12.66089 0,0 12.6733803,0 12.6733803,0 0,0 0,25.33428 0,25.33428 0,0 25.3342807,0 25.3342807,0 0,0 0,12.66089 0,12.66089 0,0 -38.007661,0 -38.007661,0 0,0 0,12.67339 0,12.67339 0,0 -12.66089,0 -12.66089,0 0,0 0,-12.67339 0,-12.67339 0,0 -12.66089,0 -12.66089,0 0,0 0,-12.66089 0,-12.66089 0,0 -25.33428,0 -25.33428,0 0,0 0,12.66089 0,12.66089 0,0 -12.673386,0 -12.673386,0 0,0 0,-12.66089 0,-12.66089 0,0 -37.995178,0 -37.995178,0 0,0 0,37.995174 0,37.995174 0,0 -12.66089,0 -12.66089,0 0,0 0,50.66856 0,50.66856 0,0 12.66089,0 12.66089,0 0,0 0,12.66089 0,12.66089 0,0 -12.66089,0 -12.66089,0 0,0 0,12.67339 0,12.67339 0,0 63.329454,0 63.329454,0 0,0 0,-12.67339 0,-12.67339 0,0 -25.33428,0 -25.33428,0 0,0 0,-12.66089 0,-12.66089 0,0 12.660894,0 12.660894,0 0,0 0,-25.33428 0,-25.33428 0,0 38.007666,0 38.007666,0 0,0 0,12.66089 0,12.66089 0,0 -12.67339,0 -12.67339,0 0,0 0,12.67339 0,12.67339 0,0 12.67339,0 12.67339,0 0,0 0,12.66089 0,12.66089 0,0 -12.67339,0 -12.67339,0 0,0 0,12.67339 0,12.67339 0,0 12.67339,0 12.67339,0 0,0 0,-12.67339 0,-12.67339 0,0 12.66089,0 12.66089,0 0,0 0,-12.66089 0,-12.66089 0,0 12.66089,0 12.66089,0 0,0 0,-12.67339 0,-12.67339 0,0 -12.66089,0 -12.66089,0 0,0 0,-12.66089 0,-12.66089 0,0 12.66089,0 12.66089,0 0,0 0,-12.66089 0,-12.66089 0,0 -12.66089,0 -12.66089,0 0,0 0,-12.67339 0,-12.67339 0,0 37.9951606,0 37.9951606,0 0,0 0,-12.660894 0,-12.660894 0,0 12.6733904,0 12.6733904,0 0,0 0,12.660894 0,12.660894 0,0 12.66089,0 12.66089,0 0,0 0,12.67339 0,12.67339 0,0 -25.3342804,0 -25.3342804,0 0,0 0,12.66089 0,12.66089 0,0 -12.6608903,0 -12.6608903,0 0,0 0,12.66089 0,12.66089 0,0 12.6608903,0 12.6608903,0 0,0 0,25.33428 0,25.33428 0,0 -25.3342706,0 -25.3342706,0 0,0 0,12.67339 0,12.67339 0,0 -12.66089,0 -12.66089,0 0,0 0,12.66089 0,12.66089 0,0 12.66089,0 12.66089,0 0,0 0,-12.66089 0,-12.66089 0,0 12.6733803,0 12.6733803,0 0,0 0,12.66089 0,12.66089 0,0 12.6608903,0 12.6608903,0 0,0 0,-12.66089 0,-12.66089 0,0 12.6733904,0 12.6733904,0 0,0 0,12.66089 0,12.66089 0,0 12.66089,0 12.66089,0 0,0 0,25.33427 0,25.33427 0,0 -12.66089,0 -12.66089,0 0,0 0,-12.66089 0,-12.66089 0,0 -50.668551,0 -50.668551,0 0,0 0,12.66089 0,12.66089 0,0 25.3342703,0 25.3342703,0 0,0 0,12.66089 0,12.66089 0,0 -25.3342703,0 -25.3342703,0 0,0 0,38.00767 0,38.00767 0,0 12.66089,0 12.66089,0 0,0 0,12.66089 0,12.66089 0,0 12.6733803,0 12.6733803,0 0,0 0,-50.66856 0,-50.66856 0,0 25.3342807,0 25.3342807,0 0,0 0,12.67339 0,12.67339 0,0 -12.6733904,0 -12.6733904,0 0,0 0,12.66089 0,12.66089 0,0 12.6733904,0 12.6733904,0 0,0 0,12.67339 0,12.67339 0,0 25.334279,0 25.334279,0 0,0 0,12.66089 0,12.66089 0,0 12.66089,0 12.66089,0 0,0 0,-25.33428 0,-25.33428 0,0 25.33428,0 25.33428,0 0,0 0,25.33428 0,25.33428 0,0 12.66089,0 12.66089,0 0,0 0,-25.33428 0,-25.33428 0,0 25.334276,0 25.334276,0 0,0 0,12.67339 0,12.67339 0,0 -12.66089,0 -12.66089,0 0,0 0,12.66089 0,12.66089 0,0 75.99034,0 75.99034,0 0,0 0,-12.66089 0,-12.66089 0,0 -25.32178,0 -25.32178,0 0,0 0,-12.67339 0,-12.67339 0,0 12.66089,0 12.66089,0 0,0 0,-12.66089 0,-12.66089 0,0 12.66089,0 12.66089,0 0,0 0,-12.67339 0,-12.67339 0,0 -12.66089,0 -12.66089,0 0,0 0,-25.32178 0,-25.32178 0,0 12.66089,0 12.66089,0 0,0 0,-50.66855 0,-50.66855 0,0 -12.66089,0 -12.66089,0 0,0 0,-12.67339 0,-12.67339 0,0 12.66089,0 12.66089,0 0,0 0,-25.32178 0,-25.32178 0,0 -25.32178,0 -25.32178,0 0,0 0,-12.67339 0,-12.67339 0,0 -38.00767,0 -38.00767,0 0,0 0,-25.334284 0,-25.334284 0,0 -12.66089,0 -12.66089,0 0,0 0,12.67339 0,12.67339 0,0 -12.673386,0 -12.673386,0 0,0 0,12.660894 0,12.660894 0,0 -12.66089,0 -12.66089,0 0,0 0,12.67339 0,12.67339 0,0 12.66089,0 12.66089,0 0,0 0,12.66089 0,12.66089 0,0 -63.329449,0 -63.329449,0 0,0 0,-12.66089 0,-12.66089 0,0 37.995169,0 37.995169,0 0,0 0,-12.67339 0,-12.67339 0,0 -12.66089,0 -12.66089,0 0,0 0,-12.660894 0,-12.660894 0,0 25.33428,0 25.33428,0 0,0 0,-25.33428 0,-25.33428 0,0 -12.67339,0 -12.67339,0 0,0 0,12.66089 0,12.66089 0,0 -25.32178,0 -25.32178,0 0,0 0,25.334284 0,25.334284 0,0 -12.673389,0 -12.673389,0 0,0 0,-12.660894 0,-12.660894 0,0 -12.66089,0 -12.66089,0 0,0 0,-12.67339 0,-12.67339 0,0 12.66089,0 12.66089,0 0,0 0,-37.99517 0,-37.99517 0,0 -12.66089,0 -12.66089,0 0,0 0,-12.66089 0,-12.66089 0,0 12.66089,0 12.66089,0 0,0 0,-25.334267 0,-25.334267 0,0 12.673389,0 12.673389,0 0,0 0,50.656047 0,50.656047 0,0 12.66089,0 12.66089,0 0,0 0,-37.995157 0,-37.995157 0,0 12.66089,0 12.66089,0 0,0 0,12.673377 0,12.673377 0,0 12.67339,0 12.67339,0 0,0 0,-12.673377 0,-12.673377 0,0 -12.67339,0 -12.67339,0 0,0 0,-12.66089 0,-12.66089 0,0 12.67339,0 12.67339,0 0,0 0,-25.33428 0,-25.33428 0,0 -12.67339,0 -12.67339,0 0,0 0,25.33428 0,25.33428 0,0 -25.32178,0 -25.32178,0 0,0 0,-12.6733904 0,-12.6733904 0,0 12.66089,0 12.66089,0 0,0 0,-25.3342796 0,-25.3342796 0,0 -12.66089,0 -12.66089,0 0,0 0,12.67339 0,12.67339 0,0 -25.334279,0 -25.334279,0 0,0 0,12.6608896 0,12.6608896 0,0 -12.6733904,0 -12.6733904,0 0,0 0,-25.3342796 0,-25.3342796 0,0 -12.6608903,0 -12.6608903,0 z m 101.3246197,0 c 0,0 0,88.663717 0,88.663717 0,0 88.663726,0 88.663726,0 0,0 0,-88.663717 0,-88.663717 0,0 -88.663726,0 -88.663726,0 z m -151.99317,12.67339 c 0,0 0,63.329437 0,63.329437 0,0 -63.329454,0 -63.329454,0 0,0 0,-63.329437 0,-63.329437 0,0 63.329454,0 63.329454,0 z m 227.996006,0 c 0,0 0,63.329437 0,63.329437 0,0 -63.32945,0 -63.32945,0 0,0 0,-63.329437 0,-63.329437 0,0 63.32945,0 63.32945,0 z M -7.6331657,-2.4870614 c 0,0 0,12.6733904 0,12.6733904 0,0 -12.6733803,0 -12.6733803,0 0,0 0,-12.6733904 0,-12.6733904 0,0 12.6733803,0 12.6733803,0 z m -101.3371143,0 c 0,0 0,38.0076574 0,38.0076574 0,0 38.007674,0 38.007674,0 0,0 0,-38.0076574 0,-38.0076574 0,0 -38.007674,0 -38.007674,0 z m 227.99601,0 c 0,0 0,38.0076574 0,38.0076574 0,0 38.00767,0 38.00767,0 0,0 0,-38.0076574 0,-38.0076574 0,0 -38.00767,0 -38.00767,0 z M 17.701115,10.186329 c 0,0 0,12.66089 0,12.66089 0,0 -12.6733904,0 -12.6733904,0 0,0 0,-12.66089 0,-12.66089 0,0 12.6733904,0 12.6733904,0 z m 0,37.995157 c 0,0 0,12.66089 0,12.66089 0,0 -12.6733904,0 -12.6733904,0 0,0 0,-12.66089 0,-12.66089 0,0 12.6733904,0 12.6733904,0 z m 50.656059,0 c 0,0 0,12.66089 0,12.66089 0,0 12.67339,0 12.67339,0 0,0 0,-12.66089 0,-12.66089 0,0 -12.67339,0 -12.67339,0 z m 76.002836,25.33428 c 0,0 0,12.66089 0,12.66089 0,0 12.67339,0 12.67339,0 0,0 0,12.67339 0,12.67339 0,0 12.66089,0 12.66089,0 0,0 0,-25.33428 0,-25.33428 0,0 -25.33428,0 -25.33428,0 z m -240.656896,12.66089 c 0,0 0,12.67339 0,12.67339 0,0 12.660894,0 12.660894,0 0,0 0,25.334284 0,25.334284 0,0 -25.334288,0 -25.334288,0 0,0 0,-38.007674 0,-38.007674 0,0 12.673394,0 12.673394,0 z m 50.66856,0 c 0,0 0,12.67339 0,12.67339 0,0 -25.33428,0 -25.33428,0 0,0 0,-12.67339 0,-12.67339 0,0 25.33428,0 25.33428,0 z m 0,25.334284 c 0,0 0,12.67339 0,12.67339 0,0 -25.33428,0 -25.33428,0 0,0 0,-12.67339 0,-12.67339 0,0 25.33428,0 25.33428,0 z m 164.654056,0 c 0,0 0,25.33428 0,25.33428 0,0 -12.66089,0 -12.66089,0 0,0 0,-25.33428 0,-25.33428 0,0 12.66089,0 12.66089,0 z m -227.99601,12.67339 c 0,0 0,12.66089 0,12.66089 0,0 12.673394,0 12.673394,0 0,0 0,25.33428 0,25.33428 0,0 -25.334284,0 -25.334284,0 0,0 0,-37.99517 0,-37.99517 0,0 12.66089,0 12.66089,0 z m 253.33029,0 c 0,0 0,12.66089 0,12.66089 0,0 25.33428,0 25.33428,0 0,0 0,12.66089 0,12.66089 0,0 -25.33428,0 -25.33428,0 0,0 0,12.67339 0,12.67339 0,0 -12.66089,0 -12.66089,0 0,0 0,-37.99517 0,-37.99517 0,0 12.66089,0 12.66089,0 z M 30.362005,136.84522 c 0,0 0,12.66089 0,12.66089 0,0 -25.3342804,0 -25.3342804,0 0,0 0,-12.66089 0,-12.66089 0,0 25.3342804,0 25.3342804,0 z m 50.668559,12.66089 c 0,0 0,12.67339 0,12.67339 0,0 -12.67339,0 -12.67339,0 0,0 0,12.66089 0,12.66089 0,0 -12.66089,0 -12.66089,0 0,0 0,12.67339 0,12.67339 0,0 12.66089,0 12.66089,0 0,0 0,50.65605 0,50.65605 0,0 -12.66089,0 -12.66089,0 0,0 0,12.67339 0,12.67339 0,0 -12.66089,0 -12.66089,0 0,0 0,12.66089 0,12.66089 0,0 -12.673389,0 -12.673389,0 0,0 0,-37.99517 0,-37.99517 0,0 12.673389,0 12.673389,0 0,0 0,-12.66089 0,-12.66089 0,0 12.66089,0 12.66089,0 0,0 0,-12.67338 0,-12.67338 0,0 -25.334279,0 -25.334279,0 0,0 0,-12.66089 0,-12.66089 0,0 12.673389,0 12.673389,0 0,0 0,-38.00767 0,-38.00767 0,0 37.99517,0 37.99517,0 z m 37.995166,0 c 0,0 0,12.67339 0,12.67339 0,0 -12.66089,0 -12.66089,0 0,0 0,-12.67339 0,-12.67339 0,0 12.66089,0 12.66089,0 z m -12.66089,12.67339 c 0,0 0,12.66089 0,12.66089 0,0 -25.334276,0 -25.334276,0 0,0 0,-12.66089 0,-12.66089 0,0 25.334276,0 25.334276,0 z m 25.33428,0 c 0,0 0,12.66089 0,12.66089 0,0 -12.67339,0 -12.67339,0 0,0 0,-12.66089 0,-12.66089 0,0 12.67339,0 12.67339,0 z m 37.99517,0 c 0,0 0,12.66089 0,12.66089 0,0 -25.33428,0 -25.33428,0 0,0 0,-12.66089 0,-12.66089 0,0 25.33428,0 25.33428,0 z m -50.66856,25.33428 c 0,0 0,37.99516 0,37.99516 0,0 -37.995166,0 -37.995166,0 0,0 0,-37.99516 0,-37.99516 0,0 37.995166,0 37.995166,0 z m 50.66856,0 c 0,0 0,12.66089 0,12.66089 0,0 -37.99517,0 -37.99517,0 0,0 0,-12.66089 0,-12.66089 0,0 37.99517,0 37.99517,0 z m -303.98635,12.66089 c 0,0 0,88.66372 0,88.66372 0,0 88.663734,0 88.663734,0 0,0 0,-88.66372 0,-88.66372 0,0 -88.663734,0 -88.663734,0 z m 227.983514,0 c 0,0 0,12.67338 0,12.67338 0,0 12.673386,0 12.673386,0 0,0 0,-12.67338 0,-12.67338 0,0 -12.673386,0 -12.673386,0 z m -151.99317,12.67338 c 0,0 0,63.32945 0,63.32945 0,0 -63.329454,0 -63.329454,0 0,0 0,-63.32945 0,-63.32945 0,0 63.329454,0 63.329454,0 z m 215.335116,0 c 0,0 0,25.32178 0,25.32178 0,0 -12.67339,0 -12.67339,0 0,0 0,12.67339 0,12.67339 0,0 -12.66089,0 -12.66089,0 0,0 0,-37.99517 0,-37.99517 0,0 25.33428,0 25.33428,0 z m -266.00368,12.66089 c 0,0 0,37.99517 0,37.99517 0,0 38.007674,0 38.007674,0 0,0 0,-37.99517 0,-37.99517 0,0 -38.007674,0 -38.007674,0 z m 190.000844,12.66089 c 0,0 0,12.67339 0,12.67339 0,0 -12.67339,0 -12.67339,0 0,0 0,-12.67339 0,-12.67339 0,0 12.67339,0 12.67339,0 z m 37.995166,0 c 0,0 0,12.67339 0,12.67339 0,0 -12.66089,0 -12.66089,0 0,0 0,-12.67339 0,-12.67339 0,0 12.66089,0 12.66089,0 z m 25.33428,25.33428 c 0,0 0,12.67339 0,12.67339 0,0 -12.66089,0 -12.66089,0 0,0 0,-12.67339 0,-12.67339 0,0 12.66089,0 12.66089,0 z M 1.9656143,-202.91158 c 0,0 1.37483,20.15994 17.4102907,53.60569 21.984699,32.07092 14.66064,38.03266 65.504169,35.28301 48.556326,9.62378 72.840736,47.643939 107.198866,60.929749 34.35813,11.91099 53.14324,16.4979 97.12515,56.8177796 17.17282,13.2858104 -5.16184,64.1418374 8.23645,100.7996814 5.16185,20.04745 27.49651,95.63784 31.60848,132.40816 3.43707,36.77033 -19.69749,85.67661 -81.53963,71.94085 -61.84214,-13.74825 -130.5584,45.80668 -132.84561,50.3936 -2.2997,4.58691 -32.070916,17.87272 -36.657836,54.06812 -4.57441,36.1954 13.28582,86.12655 14.2107,95.30038 0.91238,9.16134 20.609876,85.67661 -47.64394,137.44502 -68.26632,51.78092 -92.53824,50.40612 -128.733626,168.61602 -16.035468,61.3922 -32.070938,81.0897 -87.038948,85.2142 -54.98051,4.1245 -153.46798,30.6961 -164.92903,-84.7642 -8.23645,-75.1405 -3.66203,-95.3004 23.82197,-119.5848 27.49651,-24.2844 61.3922,-77.42766 65.05423,-116.83515 3.66204,-39.39499 -31.14604,-68.71626 -24.73435,-89.33864 6.41168,-20.62238 20.60988,-50.85603 70.55353,-68.72876 49.93115,-17.86023 65.50417,-21.53476 65.50417,-29.78371 0,-8.23646 27.94645,-11.91099 -4.12448,-63.67941 -32.07092,-51.78091 -63.6794,-104.92415 -77.8776,-219.47209 0.46244,-26.109184 -30.69609,-74.215564 -30.69609,-74.215564 0,0 -54.51807,-80.177307 -78.78998,-117.297577 -21.99721,-38.482609 -49.01877,-82.014579 -53.14325,-112.710669 -11.44854,-31.15854 47.64394,7.33656 51.30598,17.87272 3.66203,10.53616 27.94644,65.05423 53.14324,56.35534 30.6961,-6.87413 46.73156,-44.44435 47.1815,-46.28162 0.46244,-1.82476 29.32128,16.03546 44.44435,13.74826 24.73436,-8.6989 22.44715,-5.49931 41.23226,-24.28442 5.94924,-10.9986 10.9861,26.57162 35.73296,27.03407 24.734358,0.46244 40.769814,-26.57163 75.127944,-41.6947 26.1091803,-7.78651 14.1982,-5.94925 35.2705203,-10.07372 M -237.16648,-288.12574 c 1.37482,1.36233 -19.24755,30.23366 -19.24755,30.23366 0,0 -27.48401,13.74825 -35.73296,-15.12308 28.85883,-35.73295 79.71487,-68.72876 54.98051,-15.11058 z m -8.87387,-357.05457 c 10.31119,8.4114 21.12231,19.585 31.54599,34.0331 39.50748,35.7455 40.8823,159.4423 49.81866,201.3744 8.93637,41.91971 53.59319,97.23768 78.677504,112.0233 25.08431,14.77312 109.611061,74.45302 64.59179,68.26631 -37.40775,-2.78714 -31.29602,8.96136 -45.34424,16.94785 -9.561276,1.84976 -14.910596,40.79481 -35.045544,27.4965 -23.02207,-15.47303 -14.43567,-30.58361 -31.95844,-32.30839 -17.52277,-1.71228 -42.94454,31.62098 -54.63055,32.30839 -11.67352,0.68741 -37.7952,-18.56014 -40.54485,-19.93497 -2.74965,-1.37482 -20.27242,8.93637 -33.67072,37.7952 -13.73575,17.87273 -4.46193,9.97373 -20.60988,13.06084 -24.04694,-12.71089 -14.77312,-10.9986 -17.18531,-29.54624 -5.4868,-18.9101 -8.58641,-12.03597 -29.54624,-32.3084 -25.77173,-18.54763 -49.13126,-13.74825 -52.90578,-28.17141 -0.025,-0.42495 -0.025,-0.86239 -0.025,-1.28734 0.0375,0 2.07474,-0.0875 2.08724,-0.0875 14.43566,1.14986 41.90717,-2.74965 74.90297,12.37343 15.11058,10.9861 18.38517,14.32318 41.90717,9.61128 11.87349,-2.3622 25.58425,-7.79901 37.7952,-5.49931 17.51028,2.66217 38.09516,-4.17446 61.16723,-6.86162 25.43426,-2.97462 51.53094,5.4868 64.59178,-3.43706 23.359538,-14.43567 -9.62377,2.74965 -63.91687,-53.60569 -38.47011,-20.62237 -31.60848,-151.20578 -31.60848,-151.20578 0,0 -13.73575,-107.2114 -13.73575,-107.2114 0,0 -2.48719,-18.3726 -11.68602,-38.4826 -9.4488,-20.6723 -25.63424,-43.207 -25.42177,-51.5434 -0.0875,-4.8994 0.68741,-3.5246 0.7499,-3.7995 z m -62.1421,12.7484 c 0,0 54.86802,74.203 68.26632,163.8916 1.71228,85.5641 -9.28632,120.27222 -27.83396,131.60828 -18.56014,11.34856 -32.2959,19.59751 -39.50748,24.05944 -7.22408,4.46193 -76.96521,38.83256 -75.59039,68.72876 3.77452,14.42316 27.13405,9.62378 52.90578,28.17141 20.95983,20.27243 24.05944,13.3983 29.54624,32.3084 2.41219,18.54764 -6.86163,16.83535 17.18531,29.54624 16.14795,-3.08711 6.87413,4.81189 20.60988,-13.06084 13.3983,-28.85883 30.92107,-39.17002 33.67072,-37.7952 2.74965,1.37483 28.87133,20.62238 40.54485,19.93497 11.68601,-0.68741 37.10778,-34.02067 54.63055,-32.30839 17.52277,1.72478 8.93637,16.83536 31.95844,32.30839 20.134948,13.29831 25.484268,-25.64674 35.045544,-27.4965 14.04822,-7.98649 7.93649,-19.73499 45.34424,-16.94785 45.019271,6.18671 -39.50748,-53.49319 -64.59179,-68.26631 -25.084314,-14.78562 -69.741134,-70.10359 -78.677504,-112.0233 -8.93636,-41.9321 -10.31118,-165.6289 -49.81866,-201.3744 -37.45774,-51.8809 -79.71487,-61.5046 -86.92645,-52.9182 -7.21158,8.5989 -13.68576,11.4985 -6.46168,31.4335"
       id="onde"
       inkscape:connector-curvature="0"
       style="fill:none;stroke:#000000;stroke-width:1.24984109" />
  </g>
  <g
     inkscape:groupmode="layer"
     id="layer3"
     inkscape:label="calabria"
     style="display:inline"
     transform="translate(-12.909941,-127.38092)">
    <path
       d="m 791.47384,790.3801 c 0,0 1.37483,20.15994 17.41029,53.60568 21.9847,32.07092 14.66064,38.03267 65.50417,35.28302 48.55634,9.62377 72.84074,47.64394 107.19884,60.92975 34.35816,11.91098 53.14326,16.4979 97.12516,56.81777 17.1728,13.28578 -5.1619,64.14188 8.2364,100.79968 5.1619,20.0474 27.4965,95.6378 31.6085,132.4082 3.4371,36.7703 -19.6975,85.6766 -81.5396,71.9408 -61.84216,-13.7482 -130.55836,45.8067 -132.84556,50.3936 -2.29973,4.5869 -32.07095,17.8727 -36.65787,54.0681 -4.57441,36.1954 13.28582,86.1266 14.2107,95.3004 0.91238,9.1613 20.60988,85.6766 -47.64394,137.445 -68.26632,51.7809 -92.53824,50.4061 -128.73363,168.6161 -16.03546,61.3922 -32.07093,81.0897 -87.03894,85.2142 -54.9805,4.1244 -153.46798,30.6961 -164.92902,-84.7643 -8.23646,-75.1404 -3.66204,-95.3003 23.82197,-119.5848 27.4965,-24.2844 61.39219,-77.4276 65.05422,-116.8351 3.66204,-39.395 -31.14603,-68.7163 -24.73435,-89.3386 6.41168,-20.6224 20.60988,-50.8561 70.55353,-68.7288 49.93115,-17.8602 65.50417,-21.5348 65.50417,-29.7837 0,-8.2365 27.94645,-11.911 -4.12448,-63.6794 -32.07092,-51.7809 -63.6794,-104.9242 -77.87759,-219.4721 0.46244,-26.1092 -30.6961,-74.2156 -30.6961,-74.2156 0,0 -54.51807,-80.17727 -78.78998,-117.29755 -21.9972,-38.48261 -49.01877,-82.01457 -53.14324,-112.71067 -11.44855,-31.15853 47.64394,7.33657 51.30597,17.87273 3.66204,10.53616 27.94645,65.05423 53.14324,56.35533 30.6961,-6.87412 46.73156,-44.44434 47.1815,-46.28161 0.46245,-1.82477 29.32128,16.03546 44.44435,13.74825 24.73436,-8.69889 22.44715,-5.4993 41.23226,-24.28441 5.94924,-10.9986 10.9861,26.57162 35.73296,27.03406 24.73435,0.46244 40.76981,-26.57162 75.12794,-41.6947 26.10918,-7.78651 14.1982,-5.94924 35.27052,-10.07372"
       id="calabria"
       inkscape:connector-curvature="0"
       style="fill:#ff0000;fill-opacity:1;stroke:#000000;stroke-width:4;stroke-miterlimit:4;stroke-dasharray:none" />
  </g>
  <g
     inkscape:groupmode="layer"
     id="layer4"
     inkscape:label="picciuolo"
     style="display:inline"
     transform="translate(-12.909941,-127.38092)">
    <path
       d="m 482.45116,361.25668 c 0,0 54.86803,74.20306 68.26632,163.89166 1.71228,85.56412 -9.28632,120.2722 -27.83396,131.60826 -18.56014,11.34856 -32.29589,19.59751 -39.50748,24.05944 -7.22408,4.46193 -76.96521,38.83256 -75.59038,68.72876 3.77452,14.42317 27.13405,9.62378 52.90577,28.17142 20.95983,20.27242 24.05944,13.3983 29.54624,32.30839 2.4122,18.54764 -6.86163,16.83536 17.18532,29.54624 16.14794,-3.0871 6.87412,4.81189 20.60988,-13.06083 13.39829,-28.85884 30.92106,-39.17002 33.67071,-37.7952 2.74966,1.37483 28.87133,20.62238 40.54485,19.93497 11.68601,-0.68742 37.10778,-34.02068 54.63055,-32.3084 17.52277,1.72479 8.93637,16.83536 31.95844,32.3084 20.13494,13.29831 25.48426,-25.64674 35.04554,-27.49651 14.04822,-7.98648 7.93649,-19.73499 45.34424,-16.94784 45.01927,6.18671 -39.50748,-53.4932 -64.59179,-68.26632 C 679.5511,681.1535 634.89428,625.83553 625.95791,583.91586 617.02155,541.9837 615.64673,418.28692 576.13925,382.54147 538.68151,330.66057 496.42439,321.03679 489.2128,329.6232 c -7.21158,8.59891 -13.68576,11.49854 -6.46168,31.4335"
       id="picciuolo"
       inkscape:connector-curvature="0"
       style="fill:#4cb52b;fill-opacity:1;stroke:#000000;stroke-width:4;stroke-miterlimit:4;stroke-dasharray:none" />
  </g>
  <g
     inkscape:groupmode="layer"
     id="layer5"
     inkscape:label="onde"
     style="display:inline"
     transform="translate(-12.909941,-127.38092)">
    <path
       d="m 708.72172,351.46518 c -19.23506,0 -34.82057,15.46053 -34.82057,34.49561 0,9.66128 4.02448,18.41016 10.46117,24.64687 0,0 27.65898,25.9592 27.85895,86.539 0,0.27496 0,0.43744 0,0.67491 -0.19997,60.5798 -27.85895,86.5265 -27.85895,86.5265 -6.16172,6.2492 -9.93624,14.74812 -9.93624,24.17192 0,19.08508 15.62301,34.58311 34.85807,34.58311 9.77375,0 18.59763,-4.01199 24.90933,-10.41118 0,0 44.75681,-48.29386 47.25649,-128.83362 0,-0.075 0,-0.16248 0,-0.23747 0.28746,-1.74978 0.43745,-3.57454 0.43745,-5.4493 0,-0.11249 0,-0.23747 0,-0.34996 0,-0.0875 0,-0.16248 0,-0.23747 0,-1.34983 -0.19998,-2.54968 -0.19998,-3.86201 -0.075,-0.43744 -0.14998,-0.87489 -0.23747,-1.31233 -2.02474,-81.32716 -47.25649,-130.13345 -47.25649,-130.13345 -6.23671,-6.52417 -15.02309,-10.66115 -24.79685,-10.77363 -0.19997,0 -0.43744,-0.0375 -0.67491,-0.0375 z m 94.15053,-76.56526 c 0,9.62377 3.97449,18.32267 10.37368,24.57187 0,0 65.14171,64.22933 65.50417,197.47489 0.0375,0.39995 0,0.71241 0,1.07486 -0.36246,133.27056 -65.50417,197.47489 -65.50417,197.47489 -7.18659,6.3117 -11.72351,15.53553 -11.72351,25.79672 0,19.07258 15.58552,34.49562 34.82057,34.49562 10.61115,0 20.14744,-4.7244 26.54662,-12.16096 0,0 82.55202,-86.65148 85.08922,-239.76951 0.3249,-1.74978 0.4374,-3.57454 0.4374,-5.4493 0,-0.14999 0,-0.27497 0,-0.38746 0,-0.16247 0,-0.28746 0,-0.43744 0,-1.43732 -0.2,-2.66216 -0.2,-4.09948 -0.075,-0.43744 -0.1499,-0.87489 -0.2374,-1.27484 -2.1373,-153.83044 -85.08922,-240.88187 -85.08922,-240.88187 -6.36169,-6.67415 -15.38554,-10.88611 -25.39677,-10.88611 -0.98737,0 -1.94975,0.0375 -2.89963,0.11248 -17.76024,1.56231 -31.72096,16.34793 -31.72096,34.34564 z m 175.35268,-145.4815 c -19.1975,0 -34.7706,15.42303 -34.7706,34.50811 0,9.53629 3.887,18.16019 10.2112,24.3969 0,0 102.86207,102.52446 103.41197,308.42328 0,0.51243 0,0.94988 0,1.5123 -0.5499,205.86133 -103.41197,308.17332 -103.41197,308.17332 -6.1617,6.19921 -9.9362,14.74812 -9.9362,24.17192 0,19.07258 15.5855,34.53311 34.8581,34.53311 9.77373,0 18.59763,-3.97449 24.92187,-10.37368 0,0 119.7848,-124.93411 122.5719,-350.46793 0,-0.075 0,-0.16248 0,-0.23747 0.275,-1.74978 0.4375,-3.57455 0.4375,-5.44931 0,-0.11249 0,-0.23747 0,-0.34996 0,-0.23747 0,-0.43744 0,-0.67491 0,-0.28746 0,-0.56243 0,-0.83739 0,-0.43745 0,-0.87489 0,-1.31234 0,-1.91225 -0.125,-3.77452 -0.4375,-5.61178 -0.088,-0.14998 -0.1625,-0.27497 -0.2,-0.43745 -3.262,-224.65893 -122.3719,-349.19309 -122.3719,-349.19309 -6.28674,-6.56167 -15.18564,-10.68615 -25.04687,-10.77363 -0.075,0 -0.15,0 -0.2375,0 z M 403.32305,362.27631 c 0,0 -44.74431,48.29385 -47.24399,128.82111 -0.28746,1.78728 -0.43744,3.62454 -0.43744,5.48681 0,0.19997 0,0.39995 0,0.56243 0,0.14998 0,0.31246 0,0.43744 0,0.075 0,0.14998 0,0.23747 0.0375,1.46231 0.18747,2.89963 0.43744,4.28695 1.86226,81.60213 47.24399,130.5834 47.24399,130.5834 6.3242,6.39919 15.14808,10.37368 24.88434,10.37368 19.27255,0 34.89556,-15.46053 34.89556,-34.5831 0,-9.38631 -3.77452,-17.88523 -9.93623,-24.13443 0,0 -27.62149,-25.9467 -27.85896,-86.5265 0,-0.23747 0,-0.39995 0,-0.67491 0.23747,-60.5798 27.85896,-86.539 27.85896,-86.539 6.32419,-6.23671 10.26119,-14.86061 10.26119,-24.44689 0,-19.03508 -15.58552,-34.49561 -34.82057,-34.49561 -0.43745,0 -0.91239,0.0375 -1.34983,0.0375 -9.38631,0.31246 -17.84773,4.28696 -23.93446,10.57366 z M 278.37644,251.32791 c 0,0 -82.27704,86.57649 -84.9392,239.56954 -0.27496,1.74978 -0.43744,3.58704 -0.43744,5.4868 0,0.16248 0,0.36246 0,0.56243 0,0.23747 0,0.43745 0,0.63742 0,0.14998 0,0.27497 0,0.43744 0.0375,1.6248 0.19997,3.2121 0.43744,4.7619 2.18722,153.79294 84.9392,240.84437 84.9392,240.84437 6.36169,6.76164 15.42304,11.0111 25.47176,11.0111 19.23506,0 34.82057,-15.42304 34.82057,-34.50811 0,-9.64877 -4.01198,-18.36016 -10.46116,-24.63437 0,0 -65.14172,-64.20433 -65.52917,-197.47489 0,-0.36245 0,-0.67491 0,-1.07486 0.38745,-133.24556 65.52917,-197.47489 65.52917,-197.47489 6.32419,-6.2492 10.26119,-14.87311 10.26119,-24.44689 0,-19.04758 -15.58552,-34.50811 -34.82057,-34.50811 -0.43745,0 -0.91239,0.0375 -1.34983,0.0375 -9.4238,0.36246 -17.88523,4.46194 -23.92196,10.77363 z M 137.9568,140.19205 c 0,0 -119.197349,124.60915 -122.371939,349.39307 -0.39995,2.14972 -0.63742,4.37444 -0.63742,6.68665 0,0.14998 0,0.31246 0,0.47494 0,0.27496 0,0.54993 0,0.83739 0,0.23747 0,0.43744 0,0.67491 0,0.34996 -0.0375,0.71241 -0.0375,1.11236 0,1.89976 0.16248,3.73703 0.47494,5.5618 0.0375,0.16247 0.12499,0.27496 0.19998,0.43744 3.17459,224.82141 122.371939,349.39307 122.371939,349.39307 6.32419,6.39919 15.14807,10.37368 24.92183,10.37368 19.23505,0 34.85807,-15.46053 34.85807,-34.53311 0,-9.4238 -3.77452,-17.97271 -9.93624,-24.17192 0,0 -102.861923,-102.31199 -103.411853,-308.17332 0,-0.56242 0,-0.99987 0,-1.5123 0.54993,-205.89882 103.411853,-308.42328 103.411853,-308.42328 6.3117,-6.23671 10.2487,-14.89811 10.2487,-24.4344 0,-19.04758 -15.57302,-34.50811 -34.82058,-34.50811 -0.42494,0 -0.91238,0 -1.34982,0.0375 -9.41131,0.36245 -17.88523,4.41193 -23.92196,10.77363 z"
       id="onde-8"
       inkscape:connector-curvature="0"
       style="fill:#ff0000;fill-opacity:1;stroke:#000000;stroke-width:4;stroke-miterlimit:4;stroke-dasharray:none" />
  </g>
  <g
     inkscape:groupmode="layer"
     id="layer6"
     inkscape:label="picciuolo ombra"
     style="display:inline"
     transform="translate(-12.909941,-127.38092)">
    <path
       d="m 552.82576,705.76581 c 1.3748,1.36233 -19.2476,30.23366 -19.2476,30.23366 0,0 -27.484,13.74825 -35.7329,-15.12308 28.8588,-35.73295 79.7148,-68.72876 54.9805,-15.11058 z m -8.8739,-357.05459 c 10.3112,8.41143 21.1223,19.58501 31.546,34.03317 39.5075,35.74545 40.8823,159.44223 49.8187,201.37439 8.9363,41.91967 53.5931,97.23764 78.6775,112.02326 25.0843,14.77312 109.611,74.45303 64.5917,68.26632 -37.4077,-2.78715 -31.296,8.96136 -45.3442,16.94784 -9.5613,1.84977 -14.9106,40.79482 -35.0455,27.49651 -23.0221,-15.47304 -14.4357,-30.58361 -31.9585,-32.3084 -17.5227,-1.71228 -42.9445,31.62098 -54.6305,32.3084 -11.6735,0.68741 -37.7952,-18.56014 -40.5449,-19.93497 -2.7496,-1.37482 -20.2724,8.93636 -33.6707,37.7952 -13.7357,17.87272 -4.4619,9.97373 -20.6099,13.06083 -24.0469,-12.71088 -14.7731,-10.9986 -17.1853,-29.54624 -5.4868,-18.91009 -8.5864,-12.03597 -29.5462,-32.30839 -25.7717,-18.54764 -49.1313,-13.74825 -52.9058,-28.17142 -0.025,-0.42494 -0.025,-0.86239 -0.025,-1.28733 0.038,0 2.0747,-0.0875 2.0872,-0.0875 14.4357,1.14985 41.9072,-2.74965 74.903,12.37342 15.1106,10.98611 18.3852,14.32318 41.9072,9.61128 11.8735,-2.3622 25.5842,-7.79901 37.7952,-5.4993 17.5103,2.66216 38.0951,-4.17447 61.1672,-6.86163 25.4343,-2.97462 51.5309,5.48681 64.5918,-3.43706 23.3595,-14.43566 -9.6238,2.74965 -63.9169,-53.60568 -38.4701,-20.62238 -31.6085,-151.20578 -31.6085,-151.20578 0,0 -13.7357,-107.21136 -13.7357,-107.21136 0,0 -2.4872,-18.37267 -11.686,-38.48261 -9.4488,-20.67237 -25.6343,-43.20701 -25.4218,-51.54345 -0.088,-4.89937 0.6874,-3.52455 0.7499,-3.79951 z"
       id="picciuolo ombra"
       inkscape:connector-curvature="0"
       style="fill:#275b15;fill-opacity:1;stroke:#000000;stroke-width:0;stroke-miterlimit:4;stroke-dasharray:none" />
  </g>
</svg>
