<?xml version="1.0" encoding="UTF-8" standalone="no"?>
<svg
   xmlns:dc="http://purl.org/dc/elements/1.1/"
   xmlns:cc="http://creativecommons.org/ns#"
   xmlns:rdf="http://www.w3.org/1999/02/22-rdf-syntax-ns#"
   xmlns:svg="http://www.w3.org/2000/svg"
   xmlns="http://www.w3.org/2000/svg"
   xmlns:sodipodi="http://sodipodi.sourceforge.net/DTD/sodipodi-0.dtd"
   xmlns:inkscape="http://www.inkscape.org/namespaces/inkscape"
   width="12.5111in"
   height="12.5111in"
   viewBox="0 0 1126 1126"
   id="svg2"
   version="1.1"
   inkscape:version="0.48.4 r9939"
   sodipodi:docname="NnxMarchio.svg">
  <metadata
     id="metadata9">
    <rdf:RDF>
      <cc:Work
         rdf:about="">
        <dc:format>image/svg+xml</dc:format>
        <dc:type
           rdf:resource="http://purl.org/dc/dcmitype/StillImage" />
      </cc:Work>
    </rdf:RDF>
  </metadata>
  <defs
     id="defs7" />
  <sodipodi:namedview
     pagecolor="#ffffff"
     bordercolor="#666666"
     borderopacity="1"
     objecttolerance="10"
     gridtolerance="10"
     guidetolerance="10"
     inkscape:pageopacity="0"
     inkscape:pageshadow="2"
     inkscape:window-width="1215"
     inkscape:window-height="1000"
     id="namedview5"
     showgrid="false"
     inkscape:zoom="0.20959166"
     inkscape:cx="-524.83005"
     inkscape:cy="562.99951"
     inkscape:window-x="1345"
     inkscape:window-y="24"
     inkscape:window-maximized="1"
     inkscape:current-layer="svg2" />
  <path
     id="calabria completo"
     fill="none"
     stroke="black"
     stroke-width="1"
     d="M 492.84,276.46            C 487.75,258.18 493.72,256.02 500.74,248.84              507.77,241.66 544.84,253.12 574.76,301.97              607.61,336.55 600.46,447.07 605.59,485.10              610.72,523.13 646.85,575.54 668.24,590.43              689.63,605.32 761.04,664.32 721.28,655.75              688.06,650.73 692.72,661.63 679.64,667.81              670.98,668.82 663.57,703.21 646.49,689.97              626.98,674.61 635.68,661.69 620.15,658.97              604.62,656.25 579.67,684.28 569.19,684.10              558.71,683.92 536.71,664.98 534.35,663.56              531.98,662.15 515.64,670.16 501.72,695.02              488.24,710.04 497.06,703.61 482.43,705.28              461.82,692.30 469.99,694.46 469.10,677.73              465.47,660.49 462.25,666.42 444.91,646.90              423.16,628.59 401.98,631.30 399.58,618.16              400.38,591.38 464.98,565.43 471.72,561.93              478.47,558.44 491.30,552.01 508.63,543.14              525.96,534.28 538.13,504.04 542.40,427.55              536.51,346.58 492.56,276.62 492.56,276.62M 678.58,282.36            C 678.41,282.36 678.22,282.36 678.02,282.36              662.02,282.36 649.04,295.28 649.04,311.19              649.04,319.27 652.35,326.57 657.72,331.79              657.72,331.79 680.77,353.51 680.93,404.16              680.93,404.36 680.93,404.50 680.93,404.70              680.77,455.35 657.72,477.04 657.72,477.04              652.62,482.25 649.44,489.39 649.44,497.23              649.44,513.21 662.45,526.13 678.51,526.13              686.63,526.13 693.98,522.81 699.28,517.46              699.28,517.46 736.54,477.07 738.62,409.74              738.62,409.68 738.62,409.61 738.62,409.58              738.85,408.08 738.99,406.56 738.99,404.99              738.99,404.89 738.99,404.80 738.99,404.70              738.99,404.63 738.99,404.56 738.99,404.50              738.99,403.37 738.82,402.37 738.82,401.27              738.76,400.91 738.69,400.54 738.62,400.18              736.93,332.19 699.28,291.40 699.28,291.40              694.08,285.92 686.73,282.46 678.58,282.36              678.58,282.36 678.58,282.36 678.58,282.36 Z            M 782.87,189.63            C 768.10,190.92 756.47,203.31 756.47,218.36              756.47,226.40 759.79,233.67 765.12,238.88              765.12,238.88 819.40,292.56 819.69,403.96              819.69,404.30 819.69,404.56 819.69,404.86              819.40,516.27 765.12,569.94 765.12,569.94              759.12,575.26 755.35,582.96 755.35,591.53              755.35,607.48 768.33,620.40 784.36,620.40              793.20,620.40 801.15,616.41 806.45,610.20              806.45,610.20 875.23,537.76 877.39,409.74              877.62,408.28 877.75,406.76 877.75,405.19              877.75,405.09 877.75,404.96 877.75,404.86              877.75,404.73 877.75,404.63 877.75,404.50              877.75,403.30 877.58,402.27 877.55,401.08              877.52,400.71 877.45,400.34 877.39,400.01              875.56,271.40 806.45,198.66 806.45,198.66              801.18,193.05 793.63,189.53 785.29,189.53              784.49,189.53 783.66,189.56 782.87,189.63              782.87,189.63 782.87,189.63 782.87,189.63 Z            M 902.79,96.72            C 902.72,96.72 902.65,96.72 902.59,96.72              886.56,96.72 873.58,109.61 873.58,125.55              873.58,133.53 876.82,140.73 882.09,145.98              882.09,145.98 967.80,231.68 968.26,403.80              968.26,404.23 968.26,404.60 968.26,405.06              967.80,577.18 882.09,662.68 882.09,662.68              876.96,667.89 873.81,675.04 873.81,682.91              873.81,698.85 886.82,711.80 902.85,711.80              911.00,711.80 918.35,708.48 923.62,703.10              923.62,703.10 1023.43,598.64 1025.75,410.11              1025.75,410.04 1025.75,409.98 1025.75,409.91              1025.98,408.45 1026.12,406.92 1026.12,405.36              1026.12,405.26 1026.12,405.16 1026.12,405.06              1026.12,404.86 1026.12,404.70 1026.12,404.50              1026.12,404.26 1026.12,404.03 1026.12,403.80              1026.12,403.43 1026.12,403.07 1026.12,402.70              1026.12,401.11 1025.98,399.55 1025.75,398.02              1025.69,397.89 1025.62,397.79 1025.55,397.65              1022.84,209.82 923.62,105.72 923.62,105.72              918.39,100.21 911.00,96.76 902.79,96.72              902.79,96.72 902.79,96.72 902.79,96.72 Z            M 443.51,282.53            C 435.70,282.80 428.64,286.15 423.57,291.40              423.57,291.40 386.28,331.75 384.23,399.08              383.97,400.58 383.83,402.10 383.83,403.67              383.83,403.83 383.83,404.00 383.87,404.16              383.87,404.26 383.87,404.40 383.87,404.50              383.87,404.56 383.87,404.63 383.87,404.70              383.90,405.92 384.03,407.12 384.20,408.28              385.79,476.51 423.57,517.46 423.57,517.46              428.84,522.81 436.19,526.13 444.34,526.13              460.37,526.13 473.38,513.18 473.38,497.23              473.38,489.36 470.24,482.25 465.10,477.04              465.10,477.04 442.09,455.35 441.89,404.70              441.89,404.50 441.89,404.36 441.89,404.16              442.09,353.51 465.10,331.79 465.10,331.79              470.37,326.57 473.65,319.37 473.65,311.36              473.65,295.45 460.67,282.53 444.64,282.53              444.27,282.53 443.91,282.53 443.51,282.53              443.51,282.53 443.51,282.53 443.51,282.53 Z            M 339.42,189.63            C 331.57,189.93 324.52,193.35 319.45,198.66              319.45,198.66 250.93,271.04 248.71,398.92              248.48,400.38 248.35,401.94 248.35,403.50              248.35,403.67 248.35,403.80 248.35,403.96              248.35,404.16 248.35,404.33 248.35,404.50              248.35,404.63 248.35,404.73 248.35,404.86              248.38,406.22 248.51,407.55 248.71,408.85              250.54,537.42 319.45,610.20 319.45,610.20              324.75,615.88 332.34,619.40 340.71,619.40              356.74,619.40 369.73,606.51 369.73,590.57              369.73,582.50 366.38,575.19 360.98,569.94              360.98,569.94 306.70,516.27 306.40,404.86              306.40,404.56 306.40,404.30 306.40,403.96              306.70,292.56 360.98,238.88 360.98,238.88              366.28,233.67 369.53,226.43 369.53,218.46              369.53,202.51 356.54,189.59 340.55,189.59              340.15,189.59 339.79,189.63 339.42,189.63              339.42,189.63 339.42,189.63 339.42,189.63 Z            M 222.42,96.72            C 214.57,97.02 207.52,100.41 202.48,105.72              202.48,105.72 103.19,209.89 100.55,397.82              100.18,399.61 99.98,401.51 99.98,403.40              99.98,403.53 99.98,403.67 99.98,403.80              99.98,404.03 99.98,404.26 99.98,404.50              99.98,404.70 99.98,404.86 99.98,405.06              99.98,405.36 99.98,405.69 99.98,405.99              99.98,407.59 100.11,409.15 100.35,410.64              100.41,410.77 100.48,410.87 100.55,411.01              103.19,598.94 202.48,703.10 202.48,703.10              207.75,708.48 215.10,711.80 223.25,711.80              239.27,711.80 252.29,698.85 252.29,682.91              252.29,675.04 249.14,667.89 244.01,662.68              244.01,662.68 158.30,577.18 157.87,405.06              157.87,404.60 157.87,404.23 157.87,403.80              158.30,231.68 244.01,145.98 244.01,145.98              249.28,140.73 252.56,133.53 252.56,125.52              252.56,109.61 239.57,96.69 223.54,96.69              223.18,96.69 222.78,96.69 222.42,96.72              222.42,96.72 222.42,96.72 222.42,96.72 Z            M 126.94,1.59            C 58.98,1.59 3.48,57.16 3.48,125.32              3.48,125.32 3.48,1000.11 3.48,1000.11              3.48,1068.27 58.98,1123.84 126.94,1123.84              126.94,1123.84 999.09,1123.84 999.09,1123.84              1067.05,1123.84 1122.56,1068.27 1122.56,1000.11              1122.56,1000.11 1122.56,125.32 1122.56,125.32              1122.56,57.16 1067.05,1.59 999.09,1.59              999.09,1.59 126.94,1.59 126.94,1.59              126.94,1.59 126.94,1.59 126.94,1.59 Z            M 107.60,815.17            C 107.60,815.17 210.66,815.17 210.66,815.17              210.83,815.14 211.03,815.14 211.19,815.17              219.47,815.57 227.39,818.13 234.17,822.74              234.24,822.78 234.21,822.81 234.27,822.84              240.50,826.93 245.90,832.34 250.20,838.62              250.27,838.69 250.27,838.75 250.30,838.82              254.71,845.06 258.09,851.97 260.34,859.48              262.62,866.95 263.75,874.59 263.78,882.10              263.78,882.10 263.78,925.91 263.78,925.91              263.75,931.86 261.27,937.97 257.26,942.22              253.22,946.44 247.32,948.96 241.63,948.96              235.93,948.96 230.04,946.44 225.99,942.22              221.95,937.97 219.57,931.86 219.57,925.91              219.57,925.91 219.57,883.13 219.57,883.13              219.57,882.80 219.57,882.43 219.57,882.10              219.57,880.01 219.21,877.55 218.54,874.63              218.51,874.43 218.48,874.19 218.44,874.00              218.05,871.74 217.32,869.91 216.06,868.08              215.96,867.98 215.83,867.88 215.76,867.78              214.80,866.32 213.48,864.89 211.09,863.53              210.99,863.47 210.86,863.40 210.79,863.33              209.17,862.34 206.55,861.54 202.28,861.54              202.28,861.54 113.49,861.54 113.49,861.54              109.02,861.54 106.24,862.37 104.68,863.33              104.65,863.37 104.62,863.40 104.59,863.43              102.33,864.76 100.84,866.26 99.62,867.98              98.49,869.81 97.70,871.80 97.13,874.13              97.13,874.19 97.17,874.26 97.13,874.33              97.13,874.39 97.07,874.46 97.03,874.53              96.54,877.38 96.31,879.94 96.31,882.10              96.31,882.10 96.31,925.91 96.31,925.91              96.31,931.86 93.92,937.97 89.91,942.22              85.87,946.44 79.85,948.96 74.18,948.96              68.49,948.96 62.59,946.44 58.55,942.22              54.51,937.97 52.03,931.86 52.03,925.91              52.03,925.91 52.03,882.10 52.03,882.10              52.03,874.46 53.15,866.79 55.44,859.28              55.47,859.21 55.51,859.11 55.54,859.05              57.99,851.34 61.47,844.27 66.10,837.99              66.14,837.96 66.17,837.92 66.20,837.89              70.90,831.35 76.67,825.93 83.39,821.81              90.61,817.36 98.96,815.17 107.60,815.17              107.60,815.17 107.60,815.17 107.60,815.17 Z            M 304.35,815.17            C 310.01,815.17 315.94,817.66 319.95,821.91              323.99,826.13 326.57,832.34 326.57,838.29              326.57,838.29 326.57,925.91 326.57,925.91              326.61,927.44 326.24,928.87 325.65,930.26              324.78,934.71 323.00,939.03 319.95,942.22              315.94,946.44 310.01,948.96 304.35,948.96              298.65,948.96 292.73,946.44 288.72,942.22              284.68,937.97 282.29,931.86 282.29,925.91              282.29,925.91 282.29,838.29 282.29,838.29              282.29,832.34 284.68,826.13 288.72,821.91              292.73,817.66 298.65,815.17 304.35,815.17 Z            M 400.39,815.17            C 400.39,815.17 503.36,815.17 503.36,815.17              503.55,815.14 503.79,815.14 503.98,815.17              512.26,815.57 520.08,818.13 526.84,822.74              526.90,822.78 527.00,822.81 527.07,822.84              533.29,826.96 538.69,832.31 543.00,838.62              543.03,838.69 543.06,838.75 543.10,838.82              547.50,845.06 550.85,851.94 553.13,859.48              555.38,866.95 556.54,874.59 556.54,882.10              556.54,882.10 556.54,925.91 556.54,925.91              556.54,931.86 554.06,937.97 550.02,942.22              545.98,946.44 540.08,948.96 534.39,948.96              528.72,948.96 522.80,946.44 518.79,942.22              514.75,937.97 512.26,931.86 512.26,925.91              512.26,925.91 512.26,882.10 512.26,882.10              512.26,880.01 512.00,877.55 511.34,874.63              511.24,874.43 511.17,874.23 511.10,874.00              510.71,871.74 510.08,869.91 508.85,868.08              508.75,867.98 508.62,867.88 508.52,867.78              507.59,866.32 506.27,864.89 503.89,863.53              503.79,863.47 503.65,863.40 503.55,863.33              501.96,862.34 499.31,861.54 495.08,861.54              495.08,861.54 406.29,861.54 406.29,861.54              401.82,861.54 399.00,862.37 397.48,863.33              397.44,863.37 397.41,863.40 397.38,863.43              395.13,864.76 393.60,866.26 392.41,867.98              391.22,869.91 390.36,872.04 389.83,874.53              389.33,877.38 389.10,879.94 389.10,882.10              389.10,882.10 389.10,925.91 389.10,925.91              389.10,931.86 386.71,937.97 382.67,942.22              378.63,946.44 372.64,948.96 366.94,948.96              361.25,948.96 355.25,946.44 351.21,942.22              347.17,937.97 344.79,931.86 344.79,925.91              344.79,925.91 344.79,882.10 344.79,882.10              344.79,874.46 345.95,866.79 348.23,859.28              348.23,859.21 348.23,859.11 348.23,859.05              350.68,851.34 354.26,844.27 358.86,837.99              358.90,837.96 358.96,837.92 359.00,837.89              363.70,831.35 369.46,825.93 376.15,821.81              383.37,817.36 391.72,815.17 400.39,815.17              400.39,815.17 400.39,815.17 400.39,815.17 Z            M 773.66,815.17            C 779.36,815.17 785.25,817.66 789.29,821.91              793.33,826.13 795.92,832.34 795.92,838.29              795.92,838.29 795.92,882.10 795.92,882.10              795.92,889.81 794.49,897.51 792.11,905.15              792.07,905.22 792.11,905.28 792.11,905.35              792.11,905.35 792.01,905.35 792.01,905.35              789.69,912.92 786.31,920.03 781.74,926.44              781.71,926.48 781.68,926.51 781.64,926.54              776.91,932.92 771.14,938.20 764.45,942.32              757.23,946.74 748.89,948.96 740.25,948.96              740.25,948.96 628.18,948.96 628.18,948.96              627.98,948.96 627.74,948.96 627.55,948.96              619.27,948.53 611.48,946.24 604.66,941.79              604.60,941.72 604.63,941.65 604.56,941.59              598.34,937.30 592.81,931.92 588.34,925.61              588.30,925.58 588.24,925.51 588.20,925.48              583.96,919.23 580.65,912.16 578.40,904.62              576.11,897.15 574.96,889.64 574.96,882.10              574.96,882.10 574.96,838.29 574.96,838.29              574.96,832.34 577.44,826.13 581.48,821.91              585.02,818.19 589.96,815.90 594.96,815.37              595.02,815.37 595.09,815.37 595.16,815.37              596.18,815.34 597.21,815.30 598.27,815.27              603.60,815.57 608.97,817.96 612.74,821.91              616.78,826.13 619.37,832.34 619.37,838.29              619.37,838.29 619.37,882.10 619.37,882.10              619.37,884.23 619.50,886.92 620.00,889.91              620.00,889.94 620.09,889.94 620.09,890.01              620.62,892.20 621.29,894.19 622.48,896.12              622.48,896.15 622.55,896.18 622.58,896.22              623.77,897.94 625.36,899.40 627.55,900.90              629.14,901.76 632.08,902.66 636.55,902.66              636.55,902.66 734.35,902.66 734.35,902.66              738.66,902.66 741.40,901.83 743.03,900.90              743.06,900.87 743.13,900.90 743.16,900.90              745.45,899.40 746.87,897.91 747.80,896.42              747.90,896.32 748.03,896.22 748.13,896.12              749.42,894.22 750.11,892.46 750.48,890.40              750.48,890.27 750.48,890.14 750.48,890.01              751.17,886.85 751.64,884.19 751.64,882.10              751.64,882.10 751.64,838.29 751.64,838.29              751.64,832.34 754.02,826.13 758.06,821.91              762.07,817.66 768.00,815.17 773.66,815.17 Z            M 836.39,815.17            C 836.92,815.17 837.58,815.40 838.14,815.47              838.37,815.47 838.44,815.57 838.67,815.57              839.86,815.64 840.99,815.64 841.98,815.87              842.08,815.90 842.18,815.97 842.28,816.00              842.31,816.00 842.38,815.97 842.38,816.00              850.39,817.73 858.14,820.55 865.70,824.50              873.28,828.49 880.17,833.47 886.26,839.25              886.33,839.29 886.43,839.19 886.49,839.25              886.49,839.25 886.39,839.35 886.39,839.35              892.49,845.00 897.62,851.48 901.50,858.55              905.54,865.92 907.79,873.93 907.79,882.10              907.79,890.27 905.47,898.34 901.50,905.88              901.46,905.92 901.53,905.95 901.50,905.98              897.59,913.09 892.45,919.60 886.26,925.28              880.17,930.89 873.31,935.61 865.70,939.60              858.14,943.55 850.39,946.47 842.38,948.23              842.25,948.26 842.12,948.30 841.98,948.33              841.75,948.40 841.45,948.50 841.35,948.53              840.29,948.90 839.27,948.96 838.14,948.96              838.14,948.96 837.41,948.96 837.41,948.96              837.41,948.96 836.39,948.96 836.39,948.96              834.86,949.00 833.34,948.76 831.95,948.13              827.74,947.17 823.74,945.34 820.75,942.22              816.71,937.97 814.36,931.86 814.36,925.91              814.36,920.33 816.71,914.22 820.66,910.23              820.66,910.23 820.56,910.13 820.56,910.13              820.62,910.07 820.72,910.07 820.75,910.03              820.82,909.97 820.82,909.97 820.85,909.93              824.36,906.38 828.87,904.02 833.60,902.96              833.64,902.93 833.67,902.89 833.70,902.86              837.98,902.00 841.98,900.67 845.82,898.81              849.80,896.88 853.21,894.75 855.96,892.60              858.81,890.27 860.66,888.01 861.85,886.05              861.92,885.95 861.99,885.85 862.05,885.75              863.28,883.86 863.51,882.90 863.51,882.10              863.51,881.30 863.38,880.51 862.25,878.88              862.12,878.68 861.99,878.48 861.85,878.28              860.69,876.35 858.91,874.33 856.16,872.23              855.99,872.14 855.89,872.04 855.76,871.94              853.04,869.64 849.73,867.52 845.82,865.59              841.95,863.73 837.91,862.37 833.60,861.34              833.54,861.34 833.47,861.27 833.41,861.24              828.77,860.18 824.36,857.89 820.85,854.50              820.75,854.43 820.66,854.36 820.56,854.30              816.65,850.18 814.36,844.03 814.36,838.29              814.36,832.34 816.71,826.13 820.75,821.91              824.79,817.70 830.69,815.17 836.39,815.17              836.39,815.17 836.39,815.17 836.39,815.17 Z            M 1051.85,815.17            C 1057.55,815.17 1063.57,817.70 1067.58,821.91              1071.62,826.13 1074.01,832.34 1074.01,838.29              1074.01,844.03 1071.72,850.18 1067.81,854.30              1067.71,854.36 1067.58,854.43 1067.48,854.50              1063.97,857.89 1059.57,860.18 1054.96,861.24              1054.90,861.27 1054.83,861.34 1054.76,861.34              1050.46,862.37 1046.29,863.73 1042.44,865.59              1038.47,867.52 1035.13,869.78 1032.21,872.14              1032.18,872.14 1032.11,872.14 1032.11,872.14              1029.46,874.26 1027.51,876.42 1026.08,878.58              1026.08,878.61 1026.02,878.65 1025.98,878.68              1025.06,880.21 1024.86,881.17 1024.86,882.10              1024.86,883.06 1025.06,884.16 1026.08,885.95              1026.12,886.02 1026.15,885.99 1026.18,886.05              1027.67,888.24 1029.73,890.40 1032.41,892.70              1035.32,894.85 1038.57,896.95 1042.44,898.81              1046.25,900.67 1050.26,902.00 1054.57,902.86              1054.63,902.89 1054.70,902.93 1054.76,902.96              1059.50,904.02 1064.00,906.38 1067.48,909.93              1067.55,909.97 1067.55,909.97 1067.58,910.03              1067.65,910.07 1067.75,910.07 1067.81,910.13              1067.81,910.13 1067.71,910.23 1067.71,910.23              1071.65,914.22 1074.01,920.33 1074.01,925.91              1074.01,931.86 1071.62,937.97 1067.58,942.22              1064.60,945.34 1060.43,947.20 1056.22,948.13              1056.12,948.17 1055.99,948.20 1055.89,948.23              1054.63,948.76 1053.24,948.96 1051.85,948.96              1051.85,948.96 1051.25,948.96 1051.25,948.96              1051.25,948.96 1050.09,948.96 1050.09,948.96              1049.00,948.96 1047.94,948.90 1046.88,948.53              1046.82,948.50 1046.55,948.36 1046.39,948.33              1046.22,948.26 1046.19,948.30 1045.95,948.23              1038.01,946.47 1030.19,943.55 1022.67,939.60              1015.06,935.61 1008.10,930.89 1001.97,925.28              995.81,919.60 990.75,913.09 986.87,905.98              986.87,905.95 986.87,905.92 986.87,905.88              982.87,898.34 980.55,890.30 980.55,882.10              980.55,873.93 982.83,865.92 986.87,858.55              990.75,851.48 995.75,844.90 1001.88,839.25              1001.91,839.22 1001.94,839.29 1001.97,839.25              1008.10,833.44 1015.06,828.49 1022.67,824.50              1030.19,820.58 1038.01,817.73 1045.95,816.00              1046.12,815.93 1046.22,815.90 1046.39,815.87              1047.31,815.67 1048.41,815.64 1049.60,815.57              1049.76,815.54 1049.93,815.50 1050.09,815.47              1050.66,815.40 1051.32,815.17 1051.85,815.17              1051.85,815.17 1051.85,815.17 1051.85,815.17 Z            M 944.22,855.33            C 950.87,855.33 957.63,858.18 962.33,863.10              967.07,868.05 969.68,875.16 969.68,882.10              969.68,889.08 967.07,896.05 962.33,901.00              957.63,905.92 950.87,908.87 944.22,908.87              937.59,908.87 930.74,905.92 926.00,901.00              922.36,897.15 920.41,892.06 919.51,886.68              918.92,885.26 918.65,883.66 918.68,882.10              918.62,880.51 918.88,878.91 919.51,877.45              919.51,877.35 919.58,877.28 919.61,877.22              920.57,872.00 922.43,866.85 926.00,863.10              930.74,858.18 937.59,855.33 944.22,855.33              944.22,855.33 944.22,855.33 944.22,855.33 Z            M 320.18,981.75            C 320.18,981.75 418.61,981.75 418.61,981.75              424.50,982.04 429.70,983.71 434.34,986.73              438.94,989.62 442.85,993.27 446.03,997.72              449.34,1002.21 451.86,1007.19 453.58,1012.67              455.30,1018.18 456.16,1023.63 456.16,1028.98              456.16,1034.46 455.24,1039.97 453.38,1045.59              451.63,1051.07 449.04,1056.11 445.60,1060.73              442.15,1065.22 437.98,1068.87 433.08,1071.76              429.70,1073.72 425.99,1074.95 422.02,1075.58              422.02,1075.58 313.23,1075.58 313.23,1075.58              309.22,1074.85 305.61,1073.42 302.26,1071.33              297.66,1068.30 293.69,1064.58 290.38,1060.13              287.20,1055.65 284.84,1050.67 283.12,1045.19              281.40,1039.67 280.54,1034.33 280.54,1028.98              280.54,1023.50 281.40,1017.95 283.12,1012.47              284.98,1006.86 287.63,1001.81 291.10,997.32              294.55,992.71 298.72,988.99 303.62,986.10              308.49,983.24 313.99,981.75 320.18,981.75 Z            M 488.15,981.75            C 488.15,981.75 617.41,981.75 617.41,981.75              621.42,981.75 625.13,982.54 628.57,984.14              632.18,985.60 635.30,987.56 637.88,990.15              640.63,992.77 642.65,995.83 644.11,999.28              645.69,1002.77 646.49,1006.46 646.49,1010.51              646.49,1014.53 645.69,1018.35 644.11,1021.80              642.65,1025.29 640.63,1028.25 637.88,1030.84              635.30,1033.46 632.18,1035.59 628.57,1037.18              625.13,1038.61 621.42,1039.37 617.41,1039.37              617.41,1039.37 616.48,1039.37 616.48,1039.37              620.36,1041.80 624.33,1044.46 628.37,1047.35              632.41,1050.10 636.52,1053.06 640.69,1056.38              642.28,1057.54 643.67,1058.94 644.83,1060.53              645.99,1061.99 646.49,1063.69 646.49,1065.71              646.49,1068.60 645.50,1071.06 643.48,1073.09              642.25,1074.32 640.89,1075.11 639.34,1075.58              639.34,1075.58 633.14,1075.58 633.14,1075.58              631.65,1075.11 630.26,1074.32 628.77,1073.09              622.88,1068.77 616.85,1064.58 610.69,1060.53              604.50,1056.48 597.97,1052.93 591.22,1049.74              584.59,1046.55 577.70,1044.02 570.52,1042.16              563.33,1040.27 555.81,1039.37 548.06,1039.37              548.06,1039.37 505.11,1039.37 505.11,1039.37              503.26,1039.64 501.73,1040.50 500.44,1041.97              499.15,1043.39 498.49,1045.19 498.49,1047.35              498.49,1047.35 498.49,1065.71 498.49,1065.71              498.49,1068.60 497.33,1071.06 495.18,1073.09              493.98,1074.32 492.69,1075.11 491.23,1075.58              491.23,1075.58 484.94,1075.58 484.94,1075.58              483.39,1075.11 481.99,1074.32 480.80,1073.09              478.78,1071.06 477.79,1068.60 477.79,1065.71              477.79,1065.71 477.79,1044.95 477.79,1044.95              477.79,1041.37 478.35,1037.98 479.64,1034.79              481.10,1031.47 483.05,1028.68 485.34,1026.39              487.66,1023.93 490.34,1021.97 493.52,1020.67              496.70,1019.25 500.14,1018.61 503.89,1018.61              503.89,1018.61 618.24,1018.61 618.24,1018.61              620.39,1018.61 622.25,1017.85 623.80,1016.42              625.56,1014.83 626.42,1012.80 626.42,1010.51              626.42,1008.35 625.56,1006.49 623.80,1004.90              622.25,1003.30 620.39,1002.51 618.24,1002.51              618.24,1002.51 488.15,1002.51 488.15,1002.51              485.27,1002.51 482.79,1001.51 480.80,999.52              478.78,997.49 477.79,995.03 477.79,992.14              477.79,989.25 478.78,986.79 480.80,984.77              482.79,982.74 485.27,981.75 488.15,981.75 Z            M 707.96,981.75            C 707.96,981.75 833.80,981.75 833.80,981.75              836.68,981.75 839.13,982.74 841.16,984.77              843.18,986.79 844.17,989.25 844.17,992.14              844.17,995.03 843.18,997.49 841.16,999.52              839.13,1001.51 836.68,1002.51 833.80,1002.51              833.80,1002.51 712.72,1002.51 712.72,1002.51              707.69,1002.51 703.55,1003.44 700.41,1005.33              697.39,1007.06 694.91,1009.25 693.05,1011.84              691.33,1014.46 690.14,1017.29 689.44,1020.47              688.85,1023.50 688.52,1026.39 688.52,1028.98              688.52,1031.57 688.85,1034.43 689.44,1037.58              690.14,1040.64 691.33,1043.39 693.05,1046.02              694.91,1048.61 697.39,1050.87 700.41,1052.76              703.55,1054.49 707.69,1055.35 712.72,1055.35              712.72,1055.35 817.34,1055.35 817.34,1055.35              819.07,1055.35 820.62,1054.55 821.91,1052.96              823.34,1051.37 824.07,1049.51 824.07,1047.35              824.07,1045.19 823.40,1043.33 822.11,1041.73              820.95,1040.17 819.36,1039.37 817.34,1039.37              817.34,1039.37 735.58,1039.37 735.58,1039.37              732.73,1039.37 730.24,1038.28 728.26,1036.25              726.24,1034.23 725.24,1031.87 725.24,1028.98              725.24,1026.09 726.24,1023.63 728.26,1021.60              730.24,1019.58 732.73,1018.61 735.58,1018.61              735.58,1018.61 818.27,1018.61 818.27,1018.61              821.88,1018.61 825.26,1019.25 828.44,1020.67              831.58,1021.97 834.30,1023.93 836.58,1026.39              839.04,1028.68 840.89,1031.47 842.18,1034.79              843.47,1037.98 844.17,1041.37 844.17,1044.95              844.17,1044.95 844.17,1049.74 844.17,1049.74              844.17,1053.36 843.47,1056.81 842.18,1060.13              840.89,1063.29 839.04,1066.08 836.58,1068.54              834.30,1070.83 831.58,1072.69 828.44,1074.12              826.85,1074.78 825.26,1075.25 823.57,1075.58              823.57,1075.58 700.41,1075.58 700.41,1075.58              696.63,1074.95 693.22,1073.72 690.04,1071.76              685.44,1068.87 681.46,1065.22 678.15,1060.73              674.97,1056.11 672.52,1051.00 670.80,1045.39              669.08,1039.74 668.21,1034.33 668.21,1028.98              668.21,1023.50 669.08,1017.95 670.80,1012.47              672.69,1006.86 675.43,1001.81 678.88,997.32              682.32,992.71 686.50,988.99 691.40,986.10              696.30,983.24 701.76,981.75 707.96,981.75 Z            M 324.72,1002.51            C 319.68,1002.51 315.58,1003.44 312.40,1005.33              309.39,1007.06 306.93,1009.25 305.05,1011.84              303.32,1014.46 302.17,1017.29 301.44,1020.47              300.87,1023.50 300.51,1026.39 300.51,1028.98              300.51,1031.57 300.87,1034.43 301.44,1037.58              302.17,1040.64 303.32,1043.39 305.05,1046.02              306.93,1048.61 309.39,1050.87 312.40,1052.76              315.58,1054.49 319.68,1055.35 324.72,1055.35              324.72,1055.35 411.85,1055.35 411.85,1055.35              416.75,1055.35 420.79,1054.49 423.97,1052.76              427.15,1050.87 429.60,1048.61 431.32,1046.02              433.18,1043.39 434.47,1040.64 435.03,1037.58              435.76,1034.43 436.09,1031.57 436.09,1028.98              436.09,1026.39 435.76,1023.50 435.03,1020.47              434.47,1017.29 433.18,1014.46 431.32,1011.84              429.60,1009.25 427.15,1007.06 423.97,1005.33              420.79,1003.44 416.75,1002.51 411.85,1002.51              411.85,1002.51 324.72,1002.51 324.72,1002.51 Z            M 241.53,1038.01            C 246.76,1038.01 251.23,1039.87 254.87,1043.53              258.48,1047.15 260.24,1051.53 260.24,1056.81              260.24,1062.06 258.48,1066.44 254.87,1070.10              251.23,1073.72 246.76,1075.58 241.53,1075.58              236.29,1075.58 231.89,1073.72 228.28,1070.10              224.64,1066.44 222.78,1062.06 222.78,1056.81              222.78,1051.53 224.64,1047.15 228.28,1043.53              231.89,1039.87 236.29,1038.01 241.53,1038.01 Z            M 741.21,680.30            C 722.12,682.55 732.88,681.72 709.04,686.90              677.34,698.07 661.20,721.12 639.14,719.03              617.09,716.94 615.13,683.07 609.07,692.48              591.03,707.97 593.29,705.26 570.62,711.36              556.97,712.38 532.41,694.47 531.88,696.08              531.34,697.68 514.48,730.13 486.61,734.18              463.53,740.25 445.55,689.93 442.99,680.27              440.44,670.62 390.29,632.26 398.39,660.85              399.89,686.71 418.48,723.92 434.80,757.93              434.88,758.11 434.55,758.07 433.98,758.07              407.78,758.07 390.95,758.07 390.95,758.07              390.95,758.07 51.60,758.07 51.60,758.07              51.60,758.07 51.60,125.32 51.60,125.32              51.60,83.07 84.81,49.86 126.94,49.86              126.94,49.86 999.09,49.86 999.09,49.86              1041.22,49.86 1074.44,83.07 1074.44,125.32              1074.44,125.32 1074.44,758.07 1074.44,758.07              1074.44,758.07 857.50,758.07 770.57,758.07              769.06,758.07 769.26,758.02 768.75,758.00              763.25,752.80 760.51,744.36 752.24,730.09              740.19,699.14 740.33,681.06 740.33,681.06"
     style="fill:#e14536;fill-opacity:1;stroke:none" />
</svg>
