<?xml version="1.0" encoding="UTF-8" standalone="no"?>
<!-- Generator: Adobe Illustrator 14.0.0, SVG Export Plug-In . SVG Version: 6.00 Build 43363)  -->

<svg
   xmlns:dc="http://purl.org/dc/elements/1.1/"
   xmlns:cc="http://creativecommons.org/ns#"
   xmlns:rdf="http://www.w3.org/1999/02/22-rdf-syntax-ns#"
   xmlns:svg="http://www.w3.org/2000/svg"
   xmlns="http://www.w3.org/2000/svg"
   xmlns:xlink="http://www.w3.org/1999/xlink"
   xmlns:sodipodi="http://sodipodi.sourceforge.net/DTD/sodipodi-0.dtd"
   xmlns:inkscape="http://www.inkscape.org/namespaces/inkscape"
   version="1.1"
   id="Livello_1"
   x="0px"
   y="0px"
   width="841.89px"
   height="595.28px"
   viewBox="0 0 841.89 595.28"
   enable-background="new 0 0 841.89 595.28"
   xml:space="preserve"
   inkscape:version="0.48.2 r9819"
   sodipodi:docname="NinuxMarchi20121212.1.svg"><metadata
   id="metadata67"><rdf:RDF><cc:Work
       rdf:about=""><dc:format>image/svg+xml</dc:format><dc:type
         rdf:resource="http://purl.org/dc/dcmitype/StillImage" /><dc:title></dc:title></cc:Work></rdf:RDF></metadata><defs
   id="defs65"><pattern
   inkscape:collect="always"
   xlink:href="#pattern4119"
   id="pattern4840"
   patternTransform="translate(0.0085,-0.00175)" /><pattern
   inkscape:collect="always"
   xlink:href="#pattern3251"
   id="pattern4119"
   patternTransform="translate(-498.90208,-670.96199)" /><pattern
   inkscape:collect="always"
   xlink:href="#pattern3220"
   id="pattern3251"
   patternTransform="translate(-498.90208,-670.96199)" /><pattern
   inkscape:collect="always"
   xlink:href="#pattern3188"
   id="pattern3220"
   patternTransform="translate(259.071,-648.78301)" /><pattern
   inkscape:collect="always"
   xlink:href="#pattern3182"
   id="pattern3188"
   patternTransform="translate(259.071,-648.783)" />
	
	
	
	

	
	
	

	
	

	
	
	
	
<pattern
   patternUnits="userSpaceOnUse"
   width="185.732"
   height="181.605"
   patternTransform="translate(497.086,-742.33698)"
   id="pattern3177"><rect
     inkscape:export-ydpi="96"
     inkscape:export-xdpi="96"
     inkscape:export-filename="/Volumes/HDD750GB/Users/lux/Documents/DeskTop/Ninux/Logo Ninux/PNG/NinuxMarchio20121211-04.png"
     x="0"
     y="1.1368684e-13"
     width="185.73199"
     height="181.605"
     id="rect53"
     style="fill:#ffffff" /></pattern><pattern
   patternUnits="userSpaceOnUse"
   width="327.44201"
   height="286.167"
   patternTransform="translate(259.071,-648.783)"
   id="pattern3182"><g
     inkscape:export-ydpi="96"
     inkscape:export-xdpi="96"
     inkscape:export-filename="/Volumes/HDD750GB/Users/lux/Documents/DeskTop/Ninux/Logo Ninux/PNG/NinuxMarchio20121211-04.png"
     id="g45"
     transform="translate(-259.071,648.78301)">
		<path
   d="m 559.686,-638.465 c 9.104,0 16.51,7.406 16.51,16.51 v 232.511 c 0,9.104 -7.406,16.51 -16.51,16.51 H 285.899 c -9.104,0 -16.51,-7.406 -16.51,-16.51 v -232.511 c 0,-9.104 7.406,-16.51 16.51,-16.51 h 273.787 m 0,-10.318 H 285.899 c -14.816,0 -26.828,12.011 -26.828,26.828 v 232.511 c 0,14.816 12.012,26.828 26.828,26.828 h 273.786 c 14.816,0 26.828,-12.012 26.828,-26.828 v -232.511 c 10e-4,-14.817 -12.011,-26.828 -26.827,-26.828 l 0,0 z"
   id="path47"
   inkscape:connector-curvature="0"
   style="fill:#e04535" />
	</g></pattern><pattern
   patternUnits="userSpaceOnUse"
   width="327.43751"
   height="286.15625"
   patternTransform="translate(-498.91058,-670.96024)"
   id="pattern4837"><path
     inkscape:connector-curvature="0"
     style="fill:url(#pattern4840);stroke:none"
     d="m 0,0 0,286.15625 327.43751,0 0,-198.093748 -89.40626,0 L 238.03125,0 0,0 z"
     id="path3225" /></pattern><inkscape:perspective
   id="perspective21446"
   inkscape:persp3d-origin="372.04724 : 350.78739 : 1"
   inkscape:vp_z="744.09448 : 526.18109 : 1"
   inkscape:vp_y="0 : 1000 : 0"
   inkscape:vp_x="0 : 526.18109 : 1"
   sodipodi:type="inkscape:persp3d" /><linearGradient
   y2="207.6499"
   x2="289.50995"
   y1="207.6499"
   x1="190.87228"
   gradientTransform="matrix(1,0,0,0.929817,-162.3822,-102.4689)"
   gradientUnits="userSpaceOnUse"
   id="linearGradient14359"
   xlink:href="#linearGradient12001"
   inkscape:collect="always" /><linearGradient
   id="linearGradient12001"><stop
     style="stop-color:#1b4a78;stop-opacity:1;"
     offset="0"
     id="stop12003" /><stop
     style="stop-color:#5dacd1;stop-opacity:1;"
     offset="1"
     id="stop12005" /></linearGradient><linearGradient
   y2="207.6499"
   x2="289.50995"
   y1="207.6499"
   x1="190.87228"
   gradientTransform="matrix(0.689669,0,0,0.294865,-87.700381,17.992799)"
   gradientUnits="userSpaceOnUse"
   id="linearGradient14361"
   xlink:href="#linearGradient2213"
   inkscape:collect="always" /><linearGradient
   id="linearGradient2213"><stop
     id="stop2215"
     offset="0"
     style="stop-color:#f5dece;stop-opacity:1;" /><stop
     style="stop-color:#ecc1a2;stop-opacity:1;"
     offset="0.5"
     id="stop2217" /><stop
     id="stop2219"
     offset="1"
     style="stop-color:#f5dece;stop-opacity:1;" /></linearGradient><linearGradient
   y2="123.06004"
   x2="319.68762"
   y1="220.44333"
   x1="319.68762"
   gradientTransform="matrix(1.1175,0,0,0.919332,-287.7381,-97.909501)"
   gradientUnits="userSpaceOnUse"
   id="linearGradient14363"
   xlink:href="#linearGradient2318"
   inkscape:collect="always" /><linearGradient
   id="linearGradient2318"><stop
     id="stop2320"
     offset="0"
     style="stop-color:#ffc795;stop-opacity:0;" /><stop
     style="stop-color:#ffffff;stop-opacity:1;"
     offset="1"
     id="stop2322" /></linearGradient><linearGradient
   y2="123.06004"
   x2="319.68762"
   y1="206.6543"
   x1="319.68762"
   gradientTransform="matrix(1,0,0,0.919332,-249.36028,-97.220971)"
   gradientUnits="userSpaceOnUse"
   id="linearGradient14365"
   xlink:href="#linearGradient2318"
   inkscape:collect="always" /><linearGradient
   y2="123.06004"
   x2="319.68762"
   y1="238.65785"
   x1="319.68762"
   gradientTransform="matrix(1,0,0,0.919332,-248.85074,-96.643641)"
   gradientUnits="userSpaceOnUse"
   id="linearGradient14367"
   xlink:href="#linearGradient2318"
   inkscape:collect="always" /><linearGradient
   y2="207.6499"
   x2="289.50995"
   y1="207.6499"
   x1="190.87228"
   gradientTransform="matrix(0.406492,0,0,0.173794,-19.732801,-4.6576007)"
   gradientUnits="userSpaceOnUse"
   id="linearGradient14369"
   xlink:href="#linearGradient2213"
   inkscape:collect="always" /><radialGradient
   r="459.39603"
   fy="187.70264"
   fx="227.45299"
   cy="187.70264"
   cx="227.45299"
   gradientTransform="scale(1.006762,0.993283)"
   gradientUnits="userSpaceOnUse"
   id="radialGradient14371"
   xlink:href="#linearGradient12001"
   inkscape:collect="always" /><linearGradient
   y2="1860.5236"
   x2="-166.2061"
   y1="1860.5236"
   x1="-345"
   gradientUnits="userSpaceOnUse"
   id="linearGradient14373"
   xlink:href="#linearGradient12001"
   inkscape:collect="always" /><linearGradient
   y2="1860.5236"
   x2="-200.80377"
   y1="1860.5236"
   x1="-345"
   gradientUnits="userSpaceOnUse"
   id="linearGradient14375"
   xlink:href="#linearGradient12001"
   inkscape:collect="always" /><linearGradient
   gradientTransform="translate(604.23173,-354.28069)"
   y2="659.66418"
   x2="-188.02913"
   y1="930.89203"
   x1="-173.05334"
   gradientUnits="userSpaceOnUse"
   id="linearGradient7237"
   xlink:href="#linearGradient7893"
   inkscape:collect="always" /><linearGradient
   y2="659.66418"
   x2="-188.02913"
   y1="930.89203"
   x1="-173.05334"
   gradientUnits="userSpaceOnUse"
   id="linearGradient7229"
   xlink:href="#linearGradient7893"
   inkscape:collect="always" /><linearGradient
   id="linearGradient7893"
   inkscape:collect="always"><stop
     id="stop7895"
     offset="0"
     style="stop-color:#000000;stop-opacity:1;" /><stop
     id="stop7897"
     offset="1"
     style="stop-color:#333333;stop-opacity:1" /></linearGradient><linearGradient
   y2="659.66418"
   x2="-188.02913"
   y1="930.89203"
   x1="-173.05334"
   gradientUnits="userSpaceOnUse"
   id="linearGradient7926"
   xlink:href="#linearGradient7893"
   inkscape:collect="always" /></defs><sodipodi:namedview
   pagecolor="#ffffff"
   bordercolor="#666666"
   borderopacity="1"
   objecttolerance="10"
   gridtolerance="10"
   guidetolerance="10"
   inkscape:pageopacity="0"
   inkscape:pageshadow="2"
   inkscape:window-width="1680"
   inkscape:window-height="954"
   id="namedview63"
   showgrid="false"
   inkscape:zoom="1.3764835"
   inkscape:cx="412.41688"
   inkscape:cy="299.93311"
   inkscape:window-x="0"
   inkscape:window-y="0"
   inkscape:window-maximized="0"
   inkscape:current-layer="Livello_1"
   showguides="true"
   inkscape:guide-bbox="true" />






<flowRoot
   xml:space="preserve"
   id="flowRoot3015"
   style="fill:black;stroke:none;stroke-opacity:1;stroke-width:1px;stroke-linejoin:miter;stroke-linecap:butt;fill-opacity:1;font-family:Space Age;font-style:normal;font-weight:normal;font-size:144px;line-height:125%;letter-spacing:0px;word-spacing:0px;-inkscape-font-specification:Space Age;font-stretch:normal;font-variant:normal"><flowRegion
     id="flowRegion3017"><rect
       id="rect3019"
       width="547.35492"
       height="134.94696"
       x="165.21544"
       y="-438.2623"
       style="-inkscape-font-specification:Space Age;font-family:Space Age;font-weight:normal;font-style:normal;font-stretch:normal;font-variant:normal;font-size:144px" /></flowRegion><flowPara
     id="flowPara3021" /></flowRoot><flowRoot
   xml:space="preserve"
   id="flowRoot3023"
   style="fill:black;stroke:none;stroke-opacity:1;stroke-width:1px;stroke-linejoin:miter;stroke-linecap:butt;fill-opacity:1;font-family:Space Age;font-style:normal;font-weight:normal;font-size:72px;line-height:125%;letter-spacing:0px;word-spacing:0px;-inkscape-font-specification:Space Age;font-stretch:normal;font-variant:normal"><flowRegion
     id="flowRegion3025"><rect
       id="rect3027"
       width="646.35809"
       height="205.57339"
       x="166.47662"
       y="-370.15823"
       style="-inkscape-font-specification:Space Age;font-family:Space Age;font-weight:normal;font-style:normal;font-stretch:normal;font-variant:normal;font-size:72px" /></flowRegion><flowPara
     id="flowPara3029" /></flowRoot>

<g
   id="g4103"
   transform="translate(-27.740082,0)"
   inkscape:export-filename="/Volumes/HDD750GB/Users/lux/Documents/DeskTop/Ninux/Logo Ninux/PNG/NinuxMarchio20121225-01.1.png"
   inkscape:export-xdpi="300"
   inkscape:export-ydpi="300"><g
     id="g5469"
     transform="matrix(1.7525569,0,0,1.7382004,247.36731,1286.7244)"
     style="fill:#000000;fill-opacity:1;stroke:#000000;stroke-width:9.99062157;stroke-miterlimit:4;stroke-opacity:1;stroke-dasharray:none"><path
       inkscape:connector-curvature="0"
       d="m 5.365373,-592.83119 c 0,5.51506 -4.47087997,9.98588 -9.98595,9.98588 -5.51506,0 -9.98589,-4.47082 -9.98589,-9.98588 0,-5.51515 4.47083,-9.98597 9.98589,-9.98597 5.51507003,0 9.98595,4.47082 9.98595,9.98597 l 0,0 z"
       id="path5471"
       style="fill:#000000;fill-opacity:1;fill-rule:nonzero;stroke:#000000;stroke-width:9.99062157;stroke-linejoin:round;stroke-miterlimit:4;stroke-opacity:1;stroke-dasharray:none" /><path
       inkscape:connector-curvature="0"
       style="fill:#000000;fill-opacity:1;fill-rule:evenodd;stroke:#000000;stroke-width:9.99062157;stroke-linecap:round;stroke-linejoin:round;stroke-miterlimit:4;stroke-opacity:1;stroke-dasharray:none"
       id="path5473"
       d="m 15.070103,-608.34725 c 0,0 5.41959,5.55389 5.41959,16.113 m -5.41959,16.04622 c 0,0 5.41959,-5.55386 5.41959,-16.11298" /><path
       inkscape:connector-curvature="0"
       style="fill:#000000;fill-opacity:1;fill-rule:evenodd;stroke:#000000;stroke-width:9.99062157;stroke-linecap:round;stroke-linejoin:round;stroke-miterlimit:4;stroke-opacity:1;stroke-dasharray:none"
       id="path5475"
       d="m 33.560523,-624.42685 c 0,0 10.83913,11.10775 10.83913,32.22597 m -10.83913,32.09247 c 0,0 10.83913,-11.10776 10.83913,-32.22598" /><path
       inkscape:connector-curvature="0"
       style="fill:#000000;fill-opacity:1;fill-rule:evenodd;stroke:#000000;stroke-width:9.99062157;stroke-linecap:round;stroke-linejoin:round;stroke-miterlimit:4;stroke-opacity:1;stroke-dasharray:none"
       id="path5477"
       d="m 53.724623,-640.50649 c 0,0 16.25871,16.66167 16.25871,48.33899 m -16.25871,48.13871 c 0,0 16.25871,-16.66168 16.25871,-48.33898" /><path
       inkscape:connector-curvature="0"
       style="fill:#000000;fill-opacity:1;fill-rule:evenodd;stroke:#000000;stroke-width:9.99062157;stroke-linecap:round;stroke-linejoin:round;stroke-miterlimit:4;stroke-opacity:1;stroke-dasharray:none"
       id="path5479"
       d="m -25.258117,-608.34725 c 0,0 -5.419551,5.55389 -5.419551,16.113 m 5.419551,16.04622 c 0,0 -5.419551,-5.55386 -5.419551,-16.11298" /><path
       inkscape:connector-curvature="0"
       style="fill:#000000;fill-opacity:1;fill-rule:evenodd;stroke:#000000;stroke-width:9.99062157;stroke-linecap:round;stroke-linejoin:round;stroke-miterlimit:4;stroke-opacity:1;stroke-dasharray:none"
       id="path5481"
       d="m -43.190614,-624.42685 c 0,0 -10.839133,11.10775 -10.839133,32.22597 m 10.839133,32.09247 c 0,0 -10.839133,-11.10776 -10.839133,-32.22598" /><path
       inkscape:connector-curvature="0"
       style="fill:#000000;fill-opacity:1;fill-rule:evenodd;stroke:#000000;stroke-width:9.99062157;stroke-linecap:round;stroke-linejoin:round;stroke-miterlimit:4;stroke-opacity:1;stroke-dasharray:none"
       id="path5483"
       d="m -63.354721,-640.50649 c 0,0 -16.258706,16.66167 -16.258706,48.33899 m 16.258706,48.13871 c 0,0 -16.258706,-16.66168 -16.258706,-48.33898" /></g><path
     id="path5485"
     transform="translate(0,-9.4696599e-6)"
     d="m 107.25,135.96875 c -20.520675,0 -37.28125,16.72932 -37.28125,37.25 l 0,263.375 c 0,20.52068 16.760575,37.25 37.28125,37.25 l 263.34375,0 c 20.52068,0 37.28125,-16.72932 37.28125,-37.25 l 0,-263.375 c 0,-20.52068 -16.76057,-37.25 -37.28125,-37.25 l -263.34375,0 z m 0,14.53125 263.34375,0 c 12.72182,0 22.75,9.99693 22.75,22.71875 l 0,190.5 -102.4375,0 -31.25,-59.65625 c -2.5899,-4.94156 -6.87911,-14.90625 -20.625,-14.90625 -13.74586,0 -18.33404,9.93698 -20.625,14.90625 l -31.4375,59.65625 -102.46875,0 0,-190.5 C 84.5,160.49693 94.528184,150.5 107.25,150.5 z m -5.84375,230.40625 31.125,0 c 0.0483,-9.7e-4 0.10789,-9.7e-4 0.15625,0 2.49893,0.12728 4.89224,0.89563 6.9375,2.28125 0.0182,0.0122 0.0131,0.0188 0.0312,0.0312 1.87973,1.23644 3.51372,2.85898 4.8125,4.75 0.0161,0.0233 0.0154,0.0391 0.0312,0.0625 1.32398,1.87838 2.34629,3.95517 3.03125,6.21875 0.68154,2.25284 1.03118,4.54872 1.03125,6.8125 l 0,13.1875 c -1.1e-4,1.79344 -0.75026,3.63439 -1.96875,4.90625 -1.2186,1.27177 -3.0003,2.03127 -4.71875,2.03125 -1.71849,2e-5 -3.50017,-0.7593 -4.71875,-2.03125 -1.21872,-1.27187 -1.93759,-3.11258 -1.9375,-4.90625 l 0,-12.875 c -0.005,-0.10084 -0.005,-0.21166 0,-0.3125 -4e-5,-0.62842 -0.11156,-1.36894 -0.3125,-2.25 -0.0113,-0.0602 -0.023,-0.12666 -0.0312,-0.1875 -0.11839,-0.67939 -0.33966,-1.23335 -0.71875,-1.78125 -0.0295,-0.0296 -0.0653,-0.063 -0.0937,-0.0937 -0.28332,-0.44351 -0.68377,-0.8699 -1.40625,-1.28125 -0.0293,-0.0197 -0.0651,-0.0419 -0.0937,-0.0625 -0.48279,-0.29772 -1.27732,-0.53122 -2.5625,-0.53125 l -26.8125,0 c -1.34614,3e-5 -2.19143,0.24459 -2.65625,0.53125 -0.01,0.0102 -0.0216,0.0213 -0.0312,0.0312 -0.682731,0.4072 -1.13397,0.85533 -1.5,1.375 -0.340227,0.54545 -0.585818,1.14943 -0.75,1.84375 -0.0037,0.0227 0.0037,0.04 0,0.0625 -0.0053,0.0235 -0.02568,0.0387 -0.03125,0.0625 -0.149991,0.85976 -0.218759,1.62761 -0.21875,2.28125 l 0,13.1875 c -1.9e-5,1.79355 -0.718908,3.63439 -1.9375,4.90625 -1.218583,1.27185 -3.031528,2.03127 -4.75,2.03125 -1.718472,2e-5 -3.500158,-0.75937 -4.71875,-2.03125 C 85.375139,417.88444 84.625,416.04357 84.625,414.25 l 0,-13.1875 c 0,-2.30625 0.347251,-4.61429 1.03125,-6.875 0.0095,-0.0202 0.02141,-0.0424 0.03125,-0.0625 0.742956,-2.32628 1.790506,-4.45244 3.1875,-6.34375 0.0083,-0.0115 0.0229,-0.0197 0.03125,-0.0312 1.420885,-1.968 3.165881,-3.60253 5.1875,-4.84375 2.178757,-1.3376 4.699936,-1.99995 7.3125,-2 z m 59.40625,0 c 1.71839,7e-5 3.50016,0.75949 4.71875,2.03125 1.2185,1.27187 1.99997,3.14398 2,4.9375 l 0,26.375 c 0.004,0.45654 -0.10612,0.89414 -0.28125,1.3125 -0.26392,1.34315 -0.80482,2.63985 -1.71875,3.59375 -1.2186,1.27186 -3.00028,2.03127 -4.71875,2.03125 -1.71848,2e-5 -3.50017,-0.75938 -4.71875,-2.03125 -1.21863,-1.27187 -1.93752,-3.11267 -1.9375,-4.90625 l 0,-26.375 c -2e-5,-1.79357 0.71894,-3.66563 1.9375,-4.9375 1.21858,-1.27179 3.00035,-2.03118 4.71875,-2.03125 z m 29,0 31.09375,0 c 0.058,-0.002 0.12949,-0.002 0.1875,0 2.49876,0.12727 4.86107,0.8958 6.90625,2.28125 0.0183,0.0123 0.0443,0.0188 0.0625,0.0312 1.88514,1.23994 3.51182,2.8519 4.8125,4.75 0.0123,0.018 0.019,0.0444 0.0312,0.0625 1.32836,1.88162 2.34476,3.95008 3.03125,6.21875 0.68154,2.25284 1.03118,4.54872 1.03125,6.8125 l 0,13.1875 c -1.1e-4,1.79344 -0.75026,3.63439 -1.96875,4.90625 -1.2186,1.27177 -3.0003,2.03127 -4.71875,2.03125 -1.71849,2e-5 -3.50017,-0.7593 -4.71875,-2.03125 -1.21869,-1.27186 -1.96884,-3.11257 -1.96875,-4.90625 l 0,-13.1875 c -4e-5,-0.62842 -0.0803,-1.36894 -0.28125,-2.25 -0.0211,-0.0599 -0.0449,-0.12637 -0.0625,-0.1875 -0.11839,-0.67939 -0.30841,-1.23335 -0.6875,-1.78125 -0.0295,-0.0296 -0.0653,-0.063 -0.0937,-0.0937 -0.28332,-0.44351 -0.68377,-0.8699 -1.40625,-1.28125 -0.0293,-0.0197 -0.0651,-0.0419 -0.0937,-0.0625 -0.48278,-0.29772 -1.27732,-0.53122 -2.5625,-0.53125 l -26.8125,0 c -1.34612,3e-5 -2.19144,0.24459 -2.65625,0.53125 -0.01,0.0102 -0.0215,0.0213 -0.0312,0.0312 -0.68273,0.4072 -1.13397,0.85533 -1.5,1.375 -0.36113,0.57898 -0.61776,1.21797 -0.78125,1.96875 -0.15036,0.8612 -0.21876,1.62677 -0.21875,2.28125 l 0,13.1875 c -2e-5,1.79355 -0.71891,3.63439 -1.9375,4.90625 -1.21858,1.27185 -3.03153,2.03127 -4.75,2.03125 -1.71847,2e-5 -3.53141,-0.75937 -4.75,-2.03125 -1.21861,-1.27186 -1.9375,-3.11268 -1.9375,-4.90625 l 0,-13.1875 c 0,-2.30625 0.34725,-4.61429 1.03125,-6.875 -1.8e-4,-0.0202 -1.8e-4,-0.0423 0,-0.0625 0.74296,-2.32628 1.82176,-4.45244 3.21875,-6.34375 0.008,-0.0115 0.023,-0.0197 0.0312,-0.0312 1.42089,-1.968 3.16588,-3.60253 5.1875,-4.84375 2.17876,-1.3376 4.69994,-1.99995 7.3125,-2 z m 112.71875,0 c 1.71838,7e-5 3.50016,0.75957 4.71875,2.03125 1.21841,1.27186 1.99989,3.14407 2,4.9375 l 0,13.1875 c -7e-5,2.31585 -0.42831,4.6397 -1.15625,6.9375 -0.006,0.0188 0.006,0.0437 0,0.0625 l -0.0312,0 c -0.69843,2.28305 -1.71282,4.42195 -3.09375,6.34375 -0.01,0.0102 -0.0215,0.0213 -0.0312,0.0312 -1.42598,1.92234 -3.17365,3.51356 -5.1875,4.75 -2.17881,1.33766 -4.69996,2.00001 -7.3125,2 l -33.84375,0 c -0.058,0.002 -0.12949,0.002 -0.1875,0 -2.49591,-0.12707 -4.85371,-0.81731 -6.90625,-2.15625 -0.0196,-0.02 -0.0121,-0.0421 -0.0312,-0.0625 -1.88633,-1.292 -3.5559,-2.91286 -4.90625,-4.8125 -0.01,-0.01 -0.0217,-0.0211 -0.0312,-0.0312 -1.28244,-1.88605 -2.28317,-4.01533 -2.96875,-6.28125 -0.68164,-2.25287 -1.03125,-4.51735 -1.03125,-6.78125 l 0,-13.1875 c 0,-1.79355 0.75021,-3.66563 1.96875,-4.9375 1.06627,-1.11283 2.55361,-1.80597 4.0625,-1.96875 0.0203,-0.002 0.0421,0.002 0.0625,0 0.31577,-0.008 0.62255,-0.0228 0.9375,-0.0312 1.61117,0.092 3.23617,0.81146 4.375,2 1.21852,1.27187 1.99998,3.14396 2,4.9375 l 0,13.1875 c -1e-5,0.63851 0.0416,1.45113 0.1875,2.34375 0.002,0.0126 0.0294,0.0186 0.0312,0.0312 0.15599,0.66557 0.36362,1.2672 0.71875,1.84375 0.007,0.0104 0.0238,0.021 0.0312,0.0312 0.36099,0.51347 0.84117,0.96266 1.5,1.40625 0.48454,0.26602 1.37102,0.53127 2.71875,0.53125 l 29.53125,0 c 1.30189,2e-5 2.12714,-0.25275 2.625,-0.53125 0.005,-0.003 0.0258,0.003 0.0312,0 0.69224,-0.44482 1.12331,-0.90081 1.40625,-1.34375 0.0284,-0.0308 0.0643,-0.0641 0.0937,-0.0937 0.39511,-0.57102 0.60632,-1.10288 0.71875,-1.71875 -7.1e-4,-0.0404 -7.1e-4,-0.0846 0,-0.125 0.2067,-0.94943 0.34371,-1.74651 0.34375,-2.375 l 0,-13.1875 c -9e-5,-1.79368 0.71889,-3.66563 1.9375,-4.9375 1.21857,-1.27186 3.00034,-2.03118 4.71875,-2.03125 z m 18.9375,0 c 0.15875,0 0.36152,0.0772 0.53125,0.0937 0.0679,0 0.0917,0.0283 0.15625,0.0312 0.36309,0.0154 0.70577,0.0217 1,0.0937 0.0298,0.006 0.0639,0.0245 0.0937,0.0312 0.008,0.002 0.0229,-0.002 0.0312,0 2.41314,0.52655 4.75839,1.37644 7.03125,2.5625 2.29877,1.19968 4.3772,2.69871 6.21875,4.4375 0.0157,0.0148 0.0468,-0.0148 0.0625,0 l -0.0312,0.0312 c 1.84531,1.70126 3.39965,3.65739 4.5625,5.78125 1.21874,2.22612 1.90621,4.63045 1.90625,7.09375 -4e-5,2.46332 -0.7017,4.89325 -1.90625,7.15625 -0.01,0.0102 0.01,0.0213 0,0.0312 -1.17273,2.14197 -2.72733,4.10061 -4.59375,5.8125 -1.84621,1.69334 -3.91809,3.11188 -6.21875,4.3125 -2.27281,1.18609 -4.61817,2.06723 -7.03125,2.59375 -0.039,0.008 -0.0859,0.0226 -0.125,0.0312 -0.0646,0.0188 -0.15715,0.0519 -0.1875,0.0625 -0.31816,0.10506 -0.63509,0.12984 -0.96875,0.125 l -0.21875,0 -0.3125,0 c -0.45667,0.0125 -0.92527,-0.0588 -1.34375,-0.25 -1.26676,-0.28274 -2.47434,-0.84121 -3.375,-1.78125 -1.21861,-1.27186 -1.9375,-3.11268 -1.9375,-4.90625 0,-1.68155 0.71625,-3.51533 1.90625,-4.71875 L 316.6875,409.5 c 0.0152,-0.0159 0.0471,-0.0156 0.0625,-0.0312 0.0154,-0.0152 0.0158,-0.0163 0.0312,-0.0312 1.05662,-1.06582 2.41644,-1.7801 3.84375,-2.09375 0.01,-0.0102 0.0215,-0.0213 0.0312,-0.0312 1.29373,-0.26133 2.50294,-0.65986 3.65625,-1.21875 1.2042,-0.58353 2.23404,-1.21862 3.0625,-1.875 0.86106,-0.69445 1.42266,-1.37617 1.78125,-1.96875 0.0188,-0.0306 0.0426,-0.0639 0.0625,-0.0937 0.36964,-0.56388 0.4375,-0.85509 0.4375,-1.09375 0,-0.23857 -0.0367,-0.47982 -0.375,-0.96875 -0.0406,-0.0592 -0.0882,-0.1256 -0.125,-0.1875 -0.3454,-0.57075 -0.88671,-1.1809 -1.71875,-1.8125 -0.0491,-0.0289 -0.0775,-0.0623 -0.125,-0.0937 -0.81468,-0.6883 -1.81496,-1.33196 -3,-1.90625 -1.16189,-0.563 -2.38505,-0.96952 -3.6875,-1.28125 -0.0215,-0.005 -0.041,-0.0265 -0.0625,-0.0312 -1.39345,-0.31746 -2.72357,-1.01218 -3.78125,-2.03125 -0.0293,-0.0197 -0.0652,-0.0419 -0.0937,-0.0625 -1.1813,-1.23287 -1.875,-3.08775 -1.875,-4.8125 0,-1.79355 0.71896,-3.66563 1.9375,-4.9375 1.21859,-1.2718 3.00036,-2.03118 4.71875,-2.03125 z m 65.0625,0 c 1.71838,7e-5 3.53141,0.75957 4.75,2.03125 1.21841,1.27186 1.93739,3.14407 1.9375,4.9375 -1.1e-4,1.72462 -0.69383,3.57964 -1.875,4.8125 -0.0287,0.0206 -0.0645,0.0428 -0.0937,0.0625 -1.05767,1.01896 -2.38786,1.71379 -3.78125,2.03125 -0.0214,0.005 -0.0412,0.0265 -0.0625,0.0312 -1.30267,0.31174 -2.55683,0.7182 -3.71875,1.28125 -1.19796,0.58052 -2.20715,1.2537 -3.09375,1.96875 -0.01,5e-5 -0.0217,5e-5 -0.0312,0 -0.80007,0.63622 -1.3825,1.28933 -1.8125,1.9375 -0.007,0.0103 -0.0247,0.0211 -0.0312,0.0312 -0.28513,0.45886 -0.34376,0.74586 -0.34375,1.03125 -10e-6,0.28652 0.0589,0.62004 0.375,1.15625 0.01,0.017 0.0208,0.0138 0.0312,0.0312 0.44228,0.65696 1.06399,1.31481 1.875,2 0.87691,0.65177 1.86177,1.27707 3.03125,1.84375 1.15321,0.55886 2.36247,0.95742 3.65625,1.21875 0.0194,0.01 0.0433,0.0211 0.0625,0.0312 1.42772,0.31375 2.787,1.02748 3.84375,2.09375 0.0138,0.014 0.0176,0.0172 0.0312,0.0312 0.0152,0.0156 0.0474,0.0156 0.0625,0.0312 l -0.0312,0.0312 c 1.18987,1.20341 1.90614,3.03731 1.90625,4.71875 -1.1e-4,1.79344 -0.71901,3.63439 -1.9375,4.90625 -0.90731,0.94689 -2.16067,1.50211 -3.4375,1.78125 -0.0289,0.0106 -0.0646,0.0217 -0.0937,0.0312 -0.38518,0.16439 -0.80264,0.22359 -1.21875,0.21875 l -0.1875,0 -0.34375,0 c -0.33366,0.005 -0.65059,-0.02 -0.96875,-0.125 -0.0261,-0.009 -0.1052,-0.0473 -0.15625,-0.0625 -0.0483,-0.0143 -0.0576,-0.0138 -0.125,-0.0312 -2.40357,-0.52707 -4.76708,-1.41213 -7.03125,-2.59375 -2.30074,-1.20062 -4.40383,-2.61912 -6.25,-4.3125 -1.86651,-1.71191 -3.38981,-3.67047 -4.5625,-5.8125 -5e-5,-0.0101 -5e-5,-0.0213 0,-0.0312 -1.20464,-2.26304 -1.9063,-4.69285 -1.90625,-7.15625 -5e-5,-2.46337 0.68742,-4.86759 1.90625,-7.09375 1.16613,-2.13 2.67875,-4.10762 4.53125,-5.8125 0.0104,-0.009 0.0208,0.01 0.0312,0 1.84566,-1.74577 3.94411,-3.23413 6.25,-4.4375 2.26426,-1.18161 4.6276,-2.03539 7.03125,-2.5625 0.048,-0.0105 0.0769,-0.0211 0.125,-0.0312 0.28675,-0.0691 0.61562,-0.0788 0.96875,-0.0937 0.0578,-0.008 0.0996,-0.0254 0.15625,-0.0312 0.16989,-0.0166 0.37225,-0.0937 0.53125,-0.0937 z M 354.03125,393 c 2.0074,5e-5 4.0463,0.85922 5.46875,2.34375 1.42234,1.48463 2.21869,3.6236 2.21875,5.71875 -6e-5,2.09517 -0.79634,4.20288 -2.21875,5.6875 -1.42245,1.48461 -3.46129,2.37503 -5.46875,2.375 -2.00749,3e-5 -4.07756,-0.8903 -5.5,-2.375 -1.10849,-1.1569 -1.69264,-2.69255 -1.96875,-4.3125 -0.17909,-0.42758 -0.25743,-0.9084 -0.25,-1.375 -0.0163,-0.48666 0.0626,-0.9603 0.25,-1.40625 0.004,-0.0215 0.0276,-0.041 0.0312,-0.0625 0.29238,-1.57515 0.85723,-3.12251 1.9375,-4.25 1.42244,-1.48462 3.49257,-2.3437 5.5,-2.34375 z m -188.4375,38.0625 29.71875,0 c 1.7811,0.0868 3.35977,0.58773 4.75,1.5 1.39012,0.86888 2.57545,1.9658 3.53125,3.3125 0.99913,1.34675 1.75987,2.8492 2.28125,4.5 0.52125,1.65085 0.78118,3.29889 0.78125,4.90625 -7e-5,1.65084 -0.27905,3.30575 -0.84375,5 -0.52138,1.65084 -1.30119,3.17234 -2.34375,4.5625 -1.04268,1.34673 -2.30425,2.44365 -3.78125,3.3125 -1.01768,0.59862 -2.13651,0.96734 -3.34375,1.15625 l -32.84375,0 c -1.21019,-0.22017 -2.30548,-0.65184 -3.3125,-1.28125 -1.39018,-0.91228 -2.59457,-2.02827 -3.59375,-3.375 -0.95575,-1.34672 -1.6662,-2.84916 -2.1875,-4.5 -0.52131,-1.6508 -0.78125,-3.26759 -0.78125,-4.875 0,-1.6508 0.25994,-3.3179 0.78125,-4.96875 0.56475,-1.69424 1.36361,-3.21575 2.40625,-4.5625 1.04261,-1.39013 2.30419,-2.50612 3.78125,-3.375 1.47704,-0.86882 3.13194,-1.31247 5,-1.3125 z m 50.71875,0 39.03125,0 c 1.21636,3e-5 2.33232,0.24092 3.375,0.71875 1.08601,0.43447 2.03048,1.03056 2.8125,1.8125 0.82535,0.782 1.44052,1.70741 1.875,2.75 0.47782,1.04266 0.71868,2.15863 0.71875,3.375 -7e-5,1.21642 -0.24093,2.36364 -0.71875,3.40625 -0.43448,1.04264 -1.04965,1.9368 -1.875,2.71875 -0.78202,0.78199 -1.72649,1.4284 -2.8125,1.90625 -1.04268,0.43445 -2.15864,0.65627 -3.375,0.65625 l -0.28125,0 c 1.17291,0.73854 2.3773,1.53742 3.59375,2.40625 1.21634,0.82543 2.45885,1.71957 3.71875,2.71875 0.47782,0.34755 0.9024,0.77213 1.25,1.25 0.34749,0.43443 0.49993,0.95431 0.5,1.5625 -7e-5,0.86887 -0.29811,1.61056 -0.90625,2.21875 -0.36795,0.36792 -0.7858,0.6064 -1.25,0.75 l -1.875,0 c -0.44213,-0.14454 -0.87132,-0.38664 -1.3125,-0.75 -1.7812,-1.30327 -3.60075,-2.56485 -5.46875,-3.78125 -1.86808,-1.21639 -3.83323,-2.29425 -5.875,-3.25 -1.99841,-0.95573 -4.0779,-1.71647 -6.25,-2.28125 -2.17217,-0.56475 -4.43537,-0.84373 -6.78125,-0.84375 l -12.96875,0 c -0.56478,0.0868 -1.01528,0.34683 -1.40625,0.78125 -0.391,0.43445 -0.59377,0.97337 -0.59375,1.625 l 0,5.53125 c -2e-5,0.86887 -0.34837,1.61056 -1,2.21875 -0.36336,0.36336 -0.75393,0.60546 -1.1875,0.75 l -1.90625,0 c -0.46421,-0.1436 -0.88209,-0.38208 -1.25,-0.75 -0.60821,-0.60819 -0.90625,-1.34988 -0.90625,-2.21875 l 0,-6.25 c 0,-1.08606 0.17151,-2.10674 0.5625,-3.0625 0.43442,-0.99916 1.02366,-1.83614 1.71875,-2.53125 0.69507,-0.73851 1.513,-1.32775 2.46875,-1.71875 0.95573,-0.4344 1.99548,-0.62498 3.125,-0.625 l 34.53125,0 c 0.65159,2e-5 1.20959,-0.2218 1.6875,-0.65625 0.52126,-0.47785 0.7812,-1.08614 0.78125,-1.78125 -5e-5,-0.65161 -0.25999,-1.2096 -0.78125,-1.6875 -0.47791,-0.47785 -1.03591,-0.71872 -1.6875,-0.71875 l -39.28125,0 c -0.86887,3e-5 -1.61056,-0.29802 -2.21875,-0.90625 -0.60821,-0.60816 -0.90625,-1.34987 -0.90625,-2.21875 0,-0.86882 0.29804,-1.61052 0.90625,-2.21875 0.60819,-0.60816 1.34988,-0.90622 2.21875,-0.90625 z m 66.375,0 38,0 c 0.8688,3e-5 1.61049,0.29809 2.21875,0.90625 0.60814,0.60823 0.90618,1.34993 0.90625,2.21875 -7e-5,0.86888 -0.29811,1.61059 -0.90625,2.21875 -0.60826,0.60823 -1.34995,0.90628 -2.21875,0.90625 l -36.5625,0 c -1.52053,3e-5 -2.76302,0.27902 -3.71875,0.84375 -0.91232,0.52135 -1.654,1.18681 -2.21875,1.96875 -0.52133,0.782 -0.87656,1.63804 -1.09375,2.59375 -0.17378,0.91232 -0.28127,1.78055 -0.28125,2.5625 -2e-5,0.78199 0.10742,1.63802 0.28125,2.59375 0.21719,0.91232 0.57242,1.7493 1.09375,2.53125 0.56475,0.78199 1.30643,1.4665 2.21875,2.03125 0.95573,0.52133 2.19822,0.78127 3.71875,0.78125 l 31.59375,0 c 0.52126,2e-5 0.98397,-0.24087 1.375,-0.71875 0.43437,-0.47785 0.6562,-1.03584 0.65625,-1.6875 -5e-5,-0.65163 -0.20281,-1.20962 -0.59375,-1.6875 -0.3476,-0.47785 -0.82936,-0.71873 -1.4375,-0.71875 l -24.6875,0 c -0.86888,2e-5 -1.61057,-0.32929 -2.21875,-0.9375 -0.60823,-0.60818 -0.90628,-1.31862 -0.90625,-2.1875 -3e-5,-0.86883 0.29802,-1.61052 0.90625,-2.21875 0.60818,-0.60818 1.34987,-0.90623 2.21875,-0.90625 l 24.96875,0 c 1.08601,2e-5 2.1067,0.1906 3.0625,0.625 0.95568,0.391 1.77361,0.98024 2.46875,1.71875 0.73847,0.69511 1.29645,1.53209 1.6875,2.53125 0.39092,0.95576 0.59368,1.97644 0.59375,3.0625 l 0,1.4375 c -7e-5,1.08608 -0.20283,2.12582 -0.59375,3.125 -0.39105,0.95575 -0.94903,1.79273 -1.6875,2.53125 -0.69514,0.69509 -1.51307,1.25308 -2.46875,1.6875 -0.4779,0.1955 -0.95835,0.33794 -1.46875,0.4375 l -37.1875,0 c -1.13552,-0.18989 -2.17141,-0.56024 -3.125,-1.15625 -1.39018,-0.86885 -2.59457,-1.96577 -3.59375,-3.3125 -0.95575,-1.39016 -1.69745,-2.93071 -2.21875,-4.625 -0.52131,-1.69425 -0.78125,-3.33009 -0.78125,-4.9375 0,-1.6508 0.25994,-3.3179 0.78125,-4.96875 0.56475,-1.69424 1.39486,-3.21575 2.4375,-4.5625 1.04261,-1.39013 2.30419,-2.50612 3.78125,-3.375 1.47704,-0.86882 3.13194,-1.31247 5,-1.3125 z m -115.71875,6.25 c -1.52053,3e-5 -2.76302,0.27902 -3.71875,0.84375 -0.91232,0.52135 -1.654,1.18681 -2.21875,1.96875 -0.52133,0.782 -0.87656,1.63804 -1.09375,2.59375 -0.17378,0.91232 -0.28127,1.78055 -0.28125,2.5625 -2e-5,0.78199 0.10742,1.63802 0.28125,2.59375 0.21719,0.91232 0.57242,1.7493 1.09375,2.53125 0.56475,0.78199 1.30643,1.4665 2.21875,2.03125 0.95573,0.52133 2.19822,0.78127 3.71875,0.78125 l 26.3125,0 c 1.47701,2e-5 2.70045,-0.25992 3.65625,-0.78125 0.95568,-0.56475 1.69739,-1.24926 2.21875,-2.03125 0.5647,-0.78195 0.95117,-1.61893 1.125,-2.53125 0.21716,-0.95573 0.31245,-1.81176 0.3125,-2.59375 -5e-5,-0.78195 -0.0953,-1.65018 -0.3125,-2.5625 -0.17383,-0.95571 -0.5603,-1.81175 -1.125,-2.59375 -0.52136,-0.78194 -1.26307,-1.4474 -2.21875,-1.96875 -0.9558,-0.56473 -2.17924,-0.84372 -3.65625,-0.84375 l -26.3125,0 z M 141.84375,448 c 1.58131,2e-5 2.93648,0.56151 4.03125,1.65625 1.09474,1.09477 1.62498,2.41869 1.625,4 -2e-5,1.58132 -0.53026,2.90524 -1.625,4 -1.09477,1.09476 -2.44994,1.65625 -4.03125,1.65625 -1.58132,0 -2.90524,-0.56149 -4,-1.65625 -1.09476,-1.09476 -1.65625,-2.41868 -1.65625,-4 0,-1.58131 0.56149,-2.90523 1.65625,-4 1.09476,-1.09474 2.41868,-1.65623 4,-1.65625 z"
     style="fill:#000000;fill-opacity:1;fill-rule:nonzero;stroke:none;stroke-width:1.24999988;marker:none;visibility:visible;display:inline;overflow:visible"
     inkscape:connector-curvature="0" /><g
     id="flowRoot5491"
     style="font-size:9px;font-style:normal;font-weight:normal;line-height:125%;letter-spacing:0px;word-spacing:0px;fill:none;stroke:#ffffff;stroke-width:6.72671604;stroke-linecap:round;stroke-linejoin:round;stroke-miterlimit:4;stroke-opacity:1;font-family:Bitstream Vera Sans"
     transform="matrix(0.92816133,0,0,0.96873723,726.6774,820.87969)"><path
       sodipodi:nodetypes="ccccccssccsccccccccccccccccccccccccccccccccc"
       inkscape:connector-curvature="0"
       id="path3906"
       d="m -673.65625,-454.15625 c -2.81477,5e-5 -5.52761,0.68173 -7.875,2.0625 -2.17809,1.28128 -4.06289,2.96849 -5.59375,5 -0.009,0.0119 -0.0223,0.0193 -0.0312,0.0312 -1.50512,1.95235 -2.63704,4.16115 -3.4375,6.5625 -0.0106,0.0207 -0.021,0.0416 -0.0312,0.0625 -0.73694,2.33367 -1.125,4.71307 -1.125,7.09375 l 0,13.59375 c 0,1.85145 0.81207,3.78084 2.125,5.09375 1.31291,1.31293 3.24227,2.09377 5.09375,2.09375 1.85148,2e-5 3.78085,-0.78086 5.09375,-2.09375 1.31291,-1.31291 2.09373,-3.24232 2.09375,-5.09375 l 0,-13.59375 c -10e-6,-0.67473 0.0884,-1.48749 0.25,-2.375 0.006,-0.0246 0.0255,-0.0382 0.0312,-0.0625 0.004,-0.0232 -0.004,-0.0391 0,-0.0625 0.17689,-0.71673 0.44594,-1.3432 0.8125,-1.90625 0.39436,-0.53644 0.88943,-0.98591 1.625,-1.40625 0.0105,-0.0103 0.0209,-0.0207 0.0312,-0.0312 0.5008,-0.29591 1.39342,-0.56247 2.84375,-0.5625 l 28.90625,0 c 1.38465,3e-5 2.22985,0.25517 2.75,0.5625 0.0309,0.0213 0.0621,0.0422 0.0937,0.0625 0.7784,0.42462 1.226,0.85468 1.53125,1.3125 0.0306,0.0318 0.0619,0.0631 0.0937,0.0937 0.40843,0.56558 0.6537,1.14244 0.78125,1.84375 0.009,0.0628 0.019,0.12531 0.0312,0.1875 0.21649,0.90949 0.31246,1.69505 0.3125,2.34375 -0.005,0.10409 -0.005,0.20841 0,0.3125 l 0,13.28125 c -1e-4,1.85155 0.7807,3.78083 2.09375,5.09375 1.3129,1.313 3.24225,2.09377 5.09375,2.09375 1.85146,2e-5 3.78083,-0.78094 5.09375,-2.09375 1.3128,-1.3129 2.12488,-3.24243 2.125,-5.09375 l 0,-13.59375 c -8e-5,-2.33684 -0.39071,-4.70571 -1.125,-7.03125 -0.73797,-2.33663 -1.82355,-4.4985 -3.25,-6.4375 -0.0172,-0.0242 -0.0452,-0.0384 -0.0625,-0.0625 -1.3993,-1.95205 -3.13103,-3.62991 -5.15625,-4.90625 -0.0195,-0.0128 -0.0429,-0.0186 -0.0625,-0.0312 -2.20356,-1.43034 -4.77641,-2.21236 -7.46875,-2.34375 -0.0521,-10e-4 -0.10418,-10e-4 -0.15625,0 l -33.53125,0 z"
       style="font-size:80px;font-style:normal;font-variant:normal;font-weight:normal;font-stretch:normal;text-indent:0;text-align:start;text-decoration:none;line-height:125%;letter-spacing:4.57416677px;word-spacing:0;text-transform:none;direction:ltr;block-progression:tb;writing-mode:lr-tb;text-anchor:start;baseline-shift:baseline;color:#000000;fill:none;stroke:none;stroke-width:6.72671604;marker:none;visibility:visible;display:inline;overflow:visible;enable-background:accumulate;font-family:Space Age;-inkscape-font-specification:Space Age" /><path
       sodipodi:nodetypes="ccccccsccccc"
       inkscape:connector-curvature="0"
       id="path3908"
       d="m -609.65625,-454.15625 c -1.8514,7e-5 -3.78085,0.78092 -5.09375,2.09375 -1.31287,1.31292 -2.09377,3.2423 -2.09375,5.09375 l 0,27.21875 c -2e-5,1.85146 0.7808,3.78083 2.09375,5.09375 1.3129,1.31292 3.24226,2.09377 5.09375,2.09375 1.85148,2e-5 3.78083,-0.78085 5.09375,-2.09375 0.98467,-0.98468 1.5594,-2.33225 1.84375,-3.71875 0.18869,-0.43186 0.28521,-0.90373 0.28125,-1.375 l 0,-27.21875 c -3e-5,-1.8514 -0.81219,-3.78083 -2.125,-5.09375 -1.31291,-1.3128 -3.24236,-2.09368 -5.09375,-2.09375 z"
       style="font-size:80px;font-style:normal;font-variant:normal;font-weight:normal;font-stretch:normal;text-indent:0;text-align:start;text-decoration:none;line-height:125%;letter-spacing:4.57416677px;word-spacing:0;text-transform:none;direction:ltr;block-progression:tb;writing-mode:lr-tb;text-anchor:start;baseline-shift:baseline;color:#000000;fill:none;stroke:none;stroke-width:6.72671604;marker:none;visibility:visible;display:inline;overflow:visible;enable-background:accumulate;font-family:Space Age;-inkscape-font-specification:Space Age" /><path
       sodipodi:nodetypes="ccccccssccscccccccccccccccccccccccccccccc"
       inkscape:connector-curvature="0"
       id="path3910"
       d="m -578.40625,-454.15625 c -2.81477,5e-5 -5.52761,0.68173 -7.875,2.0625 -2.17809,1.28128 -4.06289,2.96849 -5.59375,5 -0.009,0.0119 -0.0223,0.0193 -0.0312,0.0312 -1.50512,1.95235 -2.66829,4.16115 -3.46875,6.5625 -1.9e-4,0.0208 -1.9e-4,0.0417 0,0.0625 -0.73694,2.33367 -1.125,4.71307 -1.125,7.09375 l 0,13.59375 c 0,1.85145 0.78082,3.78084 2.09375,5.09375 1.31291,1.31293 3.27352,2.09377 5.125,2.09375 1.85148,2e-5 3.78085,-0.78086 5.09375,-2.09375 1.31291,-1.31291 2.09373,-3.24232 2.09375,-5.09375 l 0,-13.59375 c -10e-6,-0.6756 0.088,-1.48601 0.25,-2.375 0.17614,-0.77501 0.45467,-1.43359 0.84375,-2.03125 0.39436,-0.53644 0.88943,-0.98591 1.625,-1.40625 0.0105,-0.0103 0.0209,-0.0207 0.0312,-0.0312 0.50079,-0.29591 1.39344,-0.56247 2.84375,-0.5625 l 28.875,0 c 1.38465,3e-5 2.2611,0.25517 2.78125,0.5625 0.0309,0.0213 0.0621,0.0422 0.0937,0.0625 0.7784,0.42462 1.226,0.85468 1.53125,1.3125 0.0306,0.0318 0.0619,0.0631 0.0937,0.0937 0.40843,0.56558 0.62245,1.14244 0.75,1.84375 0.019,0.0631 0.0398,0.12563 0.0625,0.1875 0.21649,0.90949 0.28121,1.69505 0.28125,2.34375 l 0,13.59375 c -10e-5,1.85157 0.81198,3.78084 2.125,5.09375 1.3129,1.313 3.24225,2.09377 5.09375,2.09375 1.85146,2e-5 3.78083,-0.78094 5.09375,-2.09375 1.3128,-1.3129 2.09363,-3.24243 2.09375,-5.09375 l 0,-13.59375 c -8e-5,-2.33684 -0.35946,-4.70571 -1.09375,-7.03125 -0.73962,-2.34188 -1.85008,-4.49516 -3.28125,-6.4375 -0.0132,-0.0187 -0.0179,-0.0439 -0.0312,-0.0625 -1.40135,-1.95935 -3.15645,-3.6263 -5.1875,-4.90625 -0.0196,-0.0129 -0.0428,-0.0185 -0.0625,-0.0312 -2.20347,-1.43016 -4.74534,-2.21237 -7.4375,-2.34375 -0.0625,-0.002 -0.12502,-0.002 -0.1875,0 l -33.5,0 z"
       style="font-size:80px;font-style:normal;font-variant:normal;font-weight:normal;font-stretch:normal;text-indent:0;text-align:start;text-decoration:none;line-height:125%;letter-spacing:4.57416677px;word-spacing:0;text-transform:none;direction:ltr;block-progression:tb;writing-mode:lr-tb;text-anchor:start;baseline-shift:baseline;color:#000000;fill:none;stroke:none;stroke-width:6.72671604;marker:none;visibility:visible;display:inline;overflow:visible;enable-background:accumulate;font-family:Space Age;-inkscape-font-specification:Space Age" /><path
       sodipodi:nodetypes="ccsssccccccsccccccccccscccccccccccccccccccc"
       inkscape:connector-curvature="0"
       id="path3912"
       d="m -514.40625,-454.15625 c -1.85139,7e-5 -3.78084,0.78091 -5.09375,2.09375 -1.31285,1.31292 -2.125,3.24232 -2.125,5.09375 l 0,13.625 c 0,2.33696 0.3906,4.67443 1.125,7 0.73864,2.33905 1.8058,4.52183 3.1875,6.46875 0.0103,0.0105 0.0207,0.0209 0.0312,0.0312 1.45487,1.96094 3.24892,3.63505 5.28125,4.96875 0.0206,0.0211 0.0414,0.0419 0.0625,0.0625 2.2114,1.38215 4.74841,2.11883 7.4375,2.25 0.0625,0.002 0.12502,0.002 0.1875,0 l 36.46875,0 c 2.81475,10e-6 5.52755,-0.68167 7.875,-2.0625 2.16972,-1.27634 4.0574,-2.92187 5.59375,-4.90625 0.0105,-0.0103 0.0209,-0.0207 0.0312,-0.0312 1.48781,-1.98382 2.59126,-4.20577 3.34375,-6.5625 l 0.0312,0 c 0.006,-0.0194 -0.006,-0.0431 0,-0.0625 0.78428,-2.37195 1.21867,-4.76566 1.21875,-7.15625 l 0,-13.625 c -1.2e-4,-1.85131 -0.81229,-3.78084 -2.125,-5.09375 -1.31291,-1.31272 -3.24237,-2.09368 -5.09375,-2.09375 -1.85141,7e-5 -3.78086,0.78084 -5.09375,2.09375 -1.31293,1.31292 -2.09385,3.24219 -2.09375,5.09375 l 0,13.625 c -4e-5,0.64877 -0.12105,1.45743 -0.34375,2.4375 -7.7e-4,0.0417 -7.7e-4,0.0833 0,0.125 -0.12113,0.63575 -0.35556,1.1918 -0.78125,1.78125 -0.0318,0.0306 -0.0631,0.0619 -0.0937,0.0937 -0.30484,0.45723 -0.78543,0.94708 -1.53125,1.40625 -0.006,0.003 -0.0256,-0.003 -0.0312,0 -0.53639,0.28749 -1.44109,0.53127 -2.84375,0.53125 l -31.8125,0 c -1.45204,2e-5 -2.38421,-0.25664 -2.90625,-0.53125 -0.70982,-0.45791 -1.23607,-0.93871 -1.625,-1.46875 -0.008,-0.0107 -0.0235,-0.0205 -0.0312,-0.0312 -0.38262,-0.59516 -0.61319,-1.2192 -0.78125,-1.90625 -0.002,-0.0131 -0.029,-0.0182 -0.0312,-0.0312 -0.15722,-0.92143 -0.21876,-1.74713 -0.21875,-2.40625 l 0,-13.625 c -2e-5,-1.85142 -0.81217,-3.78083 -2.125,-5.09375 -1.31291,-1.31282 -3.24236,-2.09368 -5.09375,-2.09375 z"
       style="font-size:80px;font-style:normal;font-variant:normal;font-weight:normal;font-stretch:normal;text-indent:0;text-align:start;text-decoration:none;line-height:125%;letter-spacing:4.57416677px;word-spacing:0;text-transform:none;direction:ltr;block-progression:tb;writing-mode:lr-tb;text-anchor:start;baseline-shift:baseline;color:#000000;fill:none;stroke:none;stroke-width:6.72671604;marker:none;visibility:visible;display:inline;overflow:visible;enable-background:accumulate;font-family:Space Age;-inkscape-font-specification:Space Age" /><path
       sodipodi:nodetypes="ccscccccccccsccccccccccsscccccccsscccccccccccccccccccccccccccccccccccccccccccccccccccccccscccccccccsccccccccccc"
       inkscape:connector-curvature="0"
       id="path3914"
       d="m -436.5625,-454.15625 c -1.85139,7e-5 -3.78084,0.78091 -5.09375,2.09375 -1.31285,1.31292 -2.09375,3.24232 -2.09375,5.09375 0,1.78041 0.75852,3.69609 2.03125,4.96875 0.0309,0.0213 0.0621,0.0422 0.0937,0.0625 1.13954,1.05196 2.59245,1.76605 4.09375,2.09375 0.0232,0.005 0.0393,0.0259 0.0625,0.0312 1.40326,0.32179 2.71693,0.76258 3.96875,1.34375 1.27676,0.59282 2.34102,1.25824 3.21875,1.96875 0.0512,0.0326 0.10333,0.0639 0.15625,0.0937 0.89644,0.65198 1.47162,1.28583 1.84375,1.875 0.0396,0.0639 0.0813,0.12642 0.125,0.1875 0.36449,0.50471 0.40625,0.75373 0.40625,1 0,0.24636 -0.0705,0.54292 -0.46875,1.125 -0.0214,0.0309 -0.0422,0.0621 -0.0625,0.0937 -0.38634,0.6117 -1.00979,1.31439 -1.9375,2.03125 -0.89258,0.67756 -1.98385,1.33514 -3.28125,1.9375 -1.24258,0.57693 -2.54364,0.98024 -3.9375,1.25 -0.0105,0.0103 -0.0209,0.0207 -0.0312,0.0312 -1.53778,0.32377 -3.01785,1.05603 -4.15625,2.15625 -0.0168,0.0155 -0.0146,0.0468 -0.0312,0.0625 -0.0166,0.0163 -0.0461,0.0148 -0.0625,0.0312 l 0.0312,0.0312 c -1.2821,1.24226 -2.0625,3.10793 -2.0625,4.84375 0,1.85145 0.78082,3.78084 2.09375,5.09375 0.97037,0.97038 2.29144,1.52064 3.65625,1.8125 0.45087,0.19741 0.94548,0.29418 1.4375,0.28125 l 0.34375,0 0.21875,0 c 0.35948,0.005 0.71972,-0.0478 1.0625,-0.15625 0.0327,-0.0109 0.1179,-0.0431 0.1875,-0.0625 0.0421,-0.009 0.083,-0.0225 0.125,-0.0312 2.59985,-0.54351 5.14503,-1.43188 7.59375,-2.65625 2.47873,-1.23937 4.6984,-2.72076 6.6875,-4.46875 2.01088,-1.76714 3.674,-3.78891 4.9375,-6 0.0105,-0.0103 0.0209,-0.0207 0.0312,-0.0312 1.29778,-2.33603 2.03121,-4.83218 2.03125,-7.375 -4e-5,-2.54279 -0.71818,-5.04579 -2.03125,-7.34375 -0.0104,-5e-5 -0.0208,-5e-5 -0.0312,0 -1.25285,-2.1924 -2.91811,-4.18134 -4.90625,-5.9375 l 0.0312,-0.0312 c -0.0169,-0.0153 -0.0456,-0.0159 -0.0625,-0.0312 -1.98408,-1.7949 -4.21081,-3.3241 -6.6875,-4.5625 -2.44878,-1.22434 -4.99384,-2.11271 -7.59375,-2.65625 -0.009,-0.002 -0.0221,0.002 -0.0312,0 -0.0322,-0.007 -0.0616,-0.0247 -0.0937,-0.0312 -0.317,-0.0744 -0.67131,-0.0778 -1.0625,-0.0937 -0.0696,-0.003 -0.11439,-0.0312 -0.1875,-0.0312 -0.18287,-0.0172 -0.39146,-0.0937 -0.5625,-0.0937 z m 70.09375,0 c -0.17131,0 -0.37946,0.0766 -0.5625,0.0937 -0.061,0.006 -0.12524,0.0231 -0.1875,0.0312 -0.38046,0.0154 -0.72231,0.0224 -1.03125,0.0937 -0.0518,0.0106 -0.10452,0.0204 -0.15625,0.0312 -2.58969,0.54412 -5.12299,1.43651 -7.5625,2.65625 -2.48436,1.2422 -4.73024,2.76039 -6.71875,4.5625 -0.0112,0.01 -0.02,0.0214 -0.0312,0.0312 -1.99588,1.7599 -3.64986,3.77001 -4.90625,5.96875 -1.31317,2.298 -2.0313,4.80088 -2.03125,7.34375 -5e-5,2.5429 0.73337,5.03893 2.03125,7.375 -5e-5,0.0104 -5e-5,0.0208 0,0.0312 1.26346,2.21116 2.92652,4.23284 4.9375,6 1.98906,1.74803 4.23993,3.22938 6.71875,4.46875 2.43941,1.21975 4.9729,2.11217 7.5625,2.65625 0.0726,0.0181 0.10421,0.0164 0.15625,0.0312 0.055,0.0157 0.12812,0.0531 0.15625,0.0625 0.34278,0.10842 0.70302,0.16139 1.0625,0.15625 l 0.34375,0 0.21875,0 c 0.44832,0.005 0.89751,-0.0803 1.3125,-0.25 0.0314,-0.01 0.0626,-0.0203 0.0937,-0.0312 1.37566,-0.28815 2.74122,-0.83505 3.71875,-1.8125 1.3128,-1.3129 2.09363,-3.24243 2.09375,-5.09375 -1.2e-4,-1.7357 -0.78054,-3.6015 -2.0625,-4.84375 l 0.0312,-0.0312 c -0.0163,-0.0163 -0.0461,-0.0151 -0.0625,-0.0312 -0.0148,-0.0145 -0.0163,-0.0481 -0.0312,-0.0625 -1.13854,-1.10068 -2.61803,-1.83237 -4.15625,-2.15625 -0.0207,-0.0106 -0.0416,-0.021 -0.0625,-0.0312 -1.39392,-0.26976 -2.69503,-0.6731 -3.9375,-1.25 -1.26,-0.58497 -2.33647,-1.23345 -3.28125,-1.90625 -0.87378,-0.7073 -1.52349,-1.38434 -2,-2.0625 -0.0114,-0.0181 -0.0204,-0.0136 -0.0312,-0.0312 -0.3406,-0.55351 -0.40626,-0.89173 -0.40625,-1.1875 -10e-6,-0.2946 0.0678,-0.58883 0.375,-1.0625 0.007,-0.0106 0.0239,-0.0206 0.0312,-0.0312 0.46328,-0.66909 1.07551,-1.34325 1.9375,-2 0.0104,5e-5 0.0208,5e-5 0.0312,0 0.95522,-0.73813 2.05307,-1.432 3.34375,-2.03125 1.25185,-0.58122 2.5965,-1.02195 4,-1.34375 0.023,-0.005 0.0394,-0.026 0.0625,-0.0312 1.50124,-0.32771 2.95422,-1.04191 4.09375,-2.09375 0.0316,-0.0203 0.0628,-0.0412 0.0937,-0.0625 1.27259,-1.27265 2.03113,-3.18847 2.03125,-4.96875 -1.2e-4,-1.85131 -0.78104,-3.78084 -2.09375,-5.09375 -1.31291,-1.31272 -3.27362,-2.09368 -5.125,-2.09375 z M -401.5,-441.6875 c -2.1628,5e-5 -4.37372,0.90497 -5.90625,2.4375 -1.16388,1.16388 -1.77874,2.74902 -2.09375,4.375 -0.004,0.0222 -0.0271,0.0403 -0.0312,0.0625 -0.20192,0.46034 -0.29882,0.96638 -0.28125,1.46875 -0.008,0.48166 0.0883,0.96487 0.28125,1.40625 0.29748,1.67223 0.93071,3.27452 2.125,4.46875 1.53253,1.53261 3.74338,2.43753 5.90625,2.4375 2.16284,3e-5 4.3737,-0.90498 5.90625,-2.4375 1.5325,-1.53253 2.40619,-3.71222 2.40625,-5.875 -6e-5,-2.16276 -0.87382,-4.37371 -2.40625,-5.90625 -1.53255,-1.53244 -3.74348,-2.43745 -5.90625,-2.4375 z"
       style="font-size:80px;font-style:normal;font-variant:normal;font-weight:normal;font-stretch:normal;text-indent:0;text-align:start;text-decoration:none;line-height:125%;letter-spacing:4.57416677px;word-spacing:0;text-transform:none;direction:ltr;block-progression:tb;writing-mode:lr-tb;text-anchor:start;baseline-shift:baseline;color:#000000;fill:none;stroke:none;stroke-width:6.72671604;marker:none;visibility:visible;display:inline;overflow:visible;enable-background:accumulate;font-family:Space Age;-inkscape-font-specification:Space Age" /></g><g
     style="fill:none"
     transform="matrix(1.6291051,0,0,1.6291051,-3.857267,-448.65371)"
     id="g3980"><flowRoot
       xml:space="preserve"
       id="flowRoot3958"
       style="font-size:9px;font-style:normal;font-variant:normal;font-weight:normal;font-stretch:normal;text-align:center;line-height:125%;letter-spacing:0px;word-spacing:0px;text-anchor:middle;fill:none;stroke:none;font-family:Space Age;-inkscape-font-specification:Space Age"
       transform="translate(-22.894753,-24.000009)"><flowRegion
         id="flowRegion3960"><rect
           id="rect3962"
           width="207.77582"
           height="45.768768"
           x="67.926712"
           y="543.33606"
           style="font-style:normal;font-variant:normal;font-weight:normal;font-stretch:normal;text-align:center;text-anchor:middle;fill:none;font-family:Space Age;-inkscape-font-specification:Space Age"
           ry="0" /></flowRegion><flowPara
         id="flowPara3964"
         style="font-size:40px;text-align:center;text-anchor:middle;fill:none">org</flowPara></flowRoot><flowRoot
       transform="translate(-35.986376,-40.844172)"
       style="font-size:9px;font-style:normal;font-variant:normal;font-weight:normal;font-stretch:normal;text-align:start;line-height:125%;letter-spacing:0px;word-spacing:0px;text-anchor:start;fill:none;stroke:none;font-family:Space Age;-inkscape-font-specification:Space Age"
       id="flowRoot3966"
       xml:space="preserve"><flowRegion
         id="flowRegion3968"><rect
           ry="0"
           style="font-style:normal;font-variant:normal;font-weight:normal;font-stretch:normal;text-align:start;text-anchor:start;fill:none;font-family:Space Age;-inkscape-font-specification:Space Age"
           y="544.06256"
           x="119.14418"
           height="62.478031"
           width="169.63513"
           id="rect3970" /></flowRegion><flowPara
         style="font-size:56px;text-align:start;text-anchor:start;fill:none"
         id="flowPara3972">.</flowPara></flowRoot></g></g><g
   transform="matrix(1.6291051,0,0,1.6291051,-36.734404,-444.54407)"
   id="g3990"><g
     transform="translate(-22.894753,-24.000009)"
     style="font-size:9px;font-style:normal;font-variant:normal;font-weight:normal;font-stretch:normal;text-align:center;line-height:125%;letter-spacing:0px;word-spacing:0px;text-anchor:middle;fill:#000000;fill-opacity:1;stroke:none;font-family:Space Age;-inkscape-font-specification:Space Age"
     id="flowRoot3992" /><g
     transform="translate(-35.986376,-40.844172)"
     style="font-size:9px;font-style:normal;font-variant:normal;font-weight:normal;font-stretch:normal;text-align:start;line-height:125%;letter-spacing:0px;word-spacing:0px;text-anchor:start;fill:#000000;fill-opacity:1;stroke:none;font-family:Space Age;-inkscape-font-specification:Space Age"
     id="flowRoot4000" /></g><g
   id="g4009"
   style="font-size:9px;font-style:normal;font-weight:normal;line-height:125%;letter-spacing:0px;word-spacing:0px;fill:#ffffff;fill-opacity:1;stroke:#ffffff;stroke-width:6.72671604;stroke-linecap:round;stroke-linejoin:round;stroke-miterlimit:4;stroke-opacity:1;font-family:Bitstream Vera Sans"
   transform="matrix(0.92816133,0,0,0.96873723,693.80026,824.98933)" /><g
   inkscape:groupmode="layer"
   id="layer2"
   inkscape:label="Livello0"
   style="display:inline" /><g
   id="g4247"
   style="fill:#e04535;fill-opacity:1"
   transform="translate(-6.5384001,0.7264889)"
   inkscape:export-filename="/Volumes/HDD750GB/Users/lux/Documents/DeskTop/Ninux/Logo Ninux/PNG/NinuxMarchio20121225-01.0.png"
   inkscape:export-xdpi="300"
   inkscape:export-ydpi="300"><g
     id="g4238"
     style="fill:#e04535;fill-opacity:1"><path
       sodipodi:nodetypes="sssss"
       inkscape:connector-curvature="0"
       id="path4133"
       d="m 641.8828,230.00707 c -14.39675,0 -26.23358,11.73977 -26.23358,26.01869 0,14.27883 11.83683,26.073 26.23358,26.073 14.39677,0 26.28836,-11.79412 26.28836,-26.073 0,-14.27897 -11.89159,-26.01869 -26.28836,-26.01869 z"
       style="font-size:medium;font-style:normal;font-variant:normal;font-weight:normal;font-stretch:normal;text-indent:0;text-align:start;text-decoration:none;line-height:normal;letter-spacing:normal;word-spacing:normal;text-transform:none;direction:ltr;block-progression:tb;writing-mode:lr-tb;text-anchor:start;baseline-shift:baseline;color:#000000;fill:#e04535;fill-opacity:1;fill-rule:nonzero;stroke:none;stroke-width:9.99062157;marker:none;visibility:visible;display:inline;overflow:visible;enable-background:accumulate;font-family:Sans;-inkscape-font-specification:Sans" /><path
       inkscape:connector-curvature="0"
       id="path4135"
       d="m 676.44104,220.28401 a 8.7554418,8.6837195 0 0 0 -6.29826,14.88334 c 0,0 6.95392,6.53245 7.01023,21.78183 2.3e-4,0.062 0,0.10064 0,0.16286 -0.0563,15.24939 -7.01023,21.78183 -7.01023,21.78183 a 8.7720651,8.7002065 0 0 0 12.54174,12.1674 c 0,0 11.25748,-12.15793 11.88453,-32.4283 5.7e-4,-0.0186 -5.6e-4,-0.0358 0,-0.0542 a 8.7554418,8.6837195 0 0 0 0.10953,-1.46661 c 6e-5,-0.0189 -4e-5,-0.0355 0,-0.0542 -3.4e-4,-0.3421 -0.0484,-0.64009 -0.0548,-0.97774 a 8.7554418,8.6837195 0 0 0 -0.0548,-0.326 c -0.51181,-20.47195 -11.88453,-32.75421 -11.88453,-32.75421 a 8.7554418,8.6837195 0 0 0 -6.24348,-2.71594 z"
       style="font-size:medium;font-style:normal;font-variant:normal;font-weight:normal;font-stretch:normal;text-indent:0;text-align:start;text-decoration:none;line-height:normal;letter-spacing:normal;word-spacing:normal;text-transform:none;direction:ltr;block-progression:tb;writing-mode:lr-tb;text-anchor:start;baseline-shift:baseline;color:#000000;fill:#e04535;fill-opacity:1;fill-rule:evenodd;stroke:none;stroke-width:9.99062157;marker:none;visibility:visible;display:inline;overflow:visible;enable-background:accumulate;font-family:Sans;-inkscape-font-specification:Sans" /><path
       inkscape:connector-curvature="0"
       id="path4137"
       d="m 707.93229,192.36417 a 8.7554418,8.6837195 0 0 0 -5.3672,14.82902 c 0,0 16.39121,16.16121 16.48499,49.70167 2.6e-4,0.0961 0,0.17521 0,0.27159 -0.0938,33.54045 -16.48499,49.70167 -16.48499,49.70167 a 8.7554418,8.6837195 0 1 0 12.48696,12.11308 c 0,0 20.7709,-21.80862 21.41406,-60.34814 a 8.7554418,8.6837195 0 0 0 0.10953,-1.46661 c 10e-5,-0.0381 -6e-5,-0.0706 0,-0.10864 -3.7e-4,-0.36323 -0.0508,-0.67172 -0.0548,-1.03205 a 8.7554418,8.6837195 0 0 0 -0.0548,-0.32592 c -0.54573,-38.71587 -21.41406,-60.61973 -21.41406,-60.61973 a 8.7554418,8.6837195 0 0 0 -7.11976,-2.71594 z"
       style="font-size:medium;font-style:normal;font-variant:normal;font-weight:normal;font-stretch:normal;text-indent:0;text-align:start;text-decoration:none;line-height:normal;letter-spacing:normal;word-spacing:normal;text-transform:none;direction:ltr;block-progression:tb;writing-mode:lr-tb;text-anchor:start;baseline-shift:baseline;color:#000000;fill:#e04535;fill-opacity:1;fill-rule:evenodd;stroke:none;stroke-width:9.99062157;marker:none;visibility:visible;display:inline;overflow:visible;enable-background:accumulate;font-family:Sans;-inkscape-font-specification:Sans" /><path
       inkscape:connector-curvature="0"
       id="path4139"
       d="m 744.13355,164.39 a 8.7554418,8.6837195 0 0 0 -6.24349,14.82903 c 0,0 25.88069,25.80104 26.01452,77.62151 3.5e-4,0.13436 0,0.2455 0,0.38023 -0.13383,51.82043 -26.01452,77.56719 -26.01452,77.56719 a 8.7720686,8.70021 0 1 0 12.54174,12.16741 c 0,0 30.13362,-31.44749 30.83405,-88.21368 2.3e-4,-0.0189 -2.3e-4,-0.0355 0,-0.0542 a 8.7554418,8.6837195 0 0 0 0.10953,-1.4666 c 1.4e-4,-0.0572 -8e-5,-0.10569 0,-0.16287 -8e-5,-0.0763 1.9e-4,-0.14097 0,-0.21728 a 8.7554418,8.6837195 0 0 0 -0.10953,-1.7382 8.7554418,8.6837195 0 0 0 -0.0548,-0.10864 C 780.39307,198.44483 750.4318,167.10594 750.4318,167.10594 A 8.7554418,8.6837195 0 0 0 744.13355,164.39 z"
       style="font-size:medium;font-style:normal;font-variant:normal;font-weight:normal;font-stretch:normal;text-indent:0;text-align:start;text-decoration:none;line-height:normal;letter-spacing:normal;word-spacing:normal;text-transform:none;direction:ltr;block-progression:tb;writing-mode:lr-tb;text-anchor:start;baseline-shift:baseline;color:#000000;fill:#e04535;fill-opacity:1;fill-rule:evenodd;stroke:none;stroke-width:9.99062157;marker:none;visibility:visible;display:inline;overflow:visible;enable-background:accumulate;font-family:Sans;-inkscape-font-specification:Sans" /><path
       inkscape:connector-curvature="0"
       id="path4141"
       d="m 605.46248,220.33833 a 8.7554418,8.6837195 0 0 0 -6.02441,2.66162 c 0,0 -11.25748,12.15796 -11.88453,32.4283 a 8.7554418,8.6837195 0 0 0 -0.10953,1.52093 c 0,0.0379 -8e-5,0.0707 0,0.10863 -2e-5,0.0189 0,0.0355 0,0.0542 a 8.7554418,8.6837195 0 0 0 0.10953,1.08638 c 0.47281,20.53931 11.88453,32.86285 11.88453,32.86285 a 8.7720644,8.7002059 0 0 0 12.54173,-12.1674 c 0,0 -6.95391,-6.53242 -7.01023,-21.78183 -2.2e-4,-0.062 0,-0.10064 0,-0.16286 0.0563,-15.24939 7.01023,-21.78183 7.01023,-21.78183 a 8.7554418,8.6837195 0 0 0 -6.51732,-14.82902 z"
       style="font-size:medium;font-style:normal;font-variant:normal;font-weight:normal;font-stretch:normal;text-indent:0;text-align:start;text-decoration:none;line-height:normal;letter-spacing:normal;word-spacing:normal;text-transform:none;direction:ltr;block-progression:tb;writing-mode:lr-tb;text-anchor:start;baseline-shift:baseline;color:#000000;fill:#e04535;fill-opacity:1;fill-rule:evenodd;stroke:none;stroke-width:9.99062157;marker:none;visibility:visible;display:inline;overflow:visible;enable-background:accumulate;font-family:Sans;-inkscape-font-specification:Sans" /><path
       inkscape:connector-curvature="0"
       id="path4143"
       d="m 574.02599,192.36417 a 8.7554418,8.6837195 0 0 0 -6.02441,2.71594 c 0,0 -20.69676,21.78954 -21.35929,60.29382 a 8.7554418,8.6837195 0 0 0 0,0.0542 8.7554418,8.6837195 0 0 0 -0.10953,1.46661 c 0,0.0572 -9e-5,0.10586 0,0.16287 -4e-5,0.0381 0,0.0706 0,0.10864 a 8.7554418,8.6837195 0 0 0 0.10953,1.19501 c 0.54573,38.71588 21.35929,60.61974 21.35929,60.61974 a 8.7554418,8.6837195 0 1 0 12.54173,-12.11309 c 0,0 -16.39121,-16.16121 -16.48499,-49.70166 -2.6e-4,-0.0961 0,-0.17521 0,-0.2716 0.0938,-33.54045 16.48499,-49.70166 16.48499,-49.70166 a 8.7554418,8.6837195 0 0 0 -6.51732,-14.82903 z"
       style="font-size:medium;font-style:normal;font-variant:normal;font-weight:normal;font-stretch:normal;text-indent:0;text-align:start;text-decoration:none;line-height:normal;letter-spacing:normal;word-spacing:normal;text-transform:none;direction:ltr;block-progression:tb;writing-mode:lr-tb;text-anchor:start;baseline-shift:baseline;color:#000000;fill:#e04535;fill-opacity:1;fill-rule:evenodd;stroke:none;stroke-width:9.99062157;marker:none;visibility:visible;display:inline;overflow:visible;enable-background:accumulate;font-family:Sans;-inkscape-font-specification:Sans" /><path
       inkscape:connector-curvature="0"
       id="path4145"
       d="m 538.70102,164.39 a 8.7554418,8.6837195 0 0 0 -6.02442,2.71594 c 0,0 -29.98059,31.3574 -30.77928,87.94208 a 8.7554418,8.6837195 0 0 0 -0.1643,1.79252 c 0,0.0765 -1.1e-4,0.14097 0,0.21727 -6e-5,0.0574 0,0.10569 0,0.16287 a 8.7554418,8.6837195 0 0 0 0.10953,1.68388 8.7554418,8.6837195 0 0 0 0.0548,0.10864 c 0.79869,56.58465 30.77928,87.94208 30.77928,87.94208 a 8.7720651,8.7002065 0 0 0 12.54174,-12.1674 c 0,0 -25.88069,-25.74677 -26.01452,-77.5672 -3.5e-4,-0.13436 0,-0.2455 0,-0.38023 0.13383,-51.82048 26.01452,-77.62151 26.01452,-77.62151 A 8.7554418,8.6837195 0 0 0 538.70102,164.39 z"
       style="font-size:medium;font-style:normal;font-variant:normal;font-weight:normal;font-stretch:normal;text-indent:0;text-align:start;text-decoration:none;line-height:normal;letter-spacing:normal;word-spacing:normal;text-transform:none;direction:ltr;block-progression:tb;writing-mode:lr-tb;text-anchor:start;baseline-shift:baseline;color:#000000;fill:#e04535;fill-opacity:1;fill-rule:evenodd;stroke:none;stroke-width:9.99062157;marker:none;visibility:visible;display:inline;overflow:visible;enable-background:accumulate;font-family:Sans;-inkscape-font-specification:Sans" /></g><path
     style="fill:#e04535;fill-opacity:1;fill-rule:nonzero;stroke:none;stroke-width:1.24999988;marker:none;visibility:visible;display:inline;overflow:visible"
     d="m 509.87107,135.75138 c -20.52068,0 -37.28125,16.72932 -37.28125,37.25 l 0,263.375 c 0,20.52068 16.76057,37.25 37.28125,37.25 l 263.34375,0 c 20.52068,0 37.28125,-16.72932 37.28125,-37.25 l 0,-263.375 c 0,-20.52068 -16.76057,-37.25 -37.28125,-37.25 l -263.34375,0 z m 0,14.53125 263.34375,0 c 12.72182,0 22.75,9.99693 22.75,22.71875 l 0,190.5 -102.4375,0 -31.25,-59.65625 c -2.5899,-4.94156 -6.87911,-14.90625 -20.625,-14.90625 -13.74586,0 -18.33404,9.93698 -20.625,14.90625 l -31.4375,59.65625 -102.46875,0 0,-190.5 c 0,-12.72182 10.02818,-22.71875 22.75,-22.71875 z m -5.84375,230.40625 31.125,0 c 0.0483,-9.7e-4 0.10789,-9.7e-4 0.15625,0 2.49893,0.12728 4.89224,0.89563 6.9375,2.28125 0.0182,0.0122 0.0131,0.0188 0.0312,0.0312 1.87973,1.23644 3.51372,2.85898 4.8125,4.75 0.0161,0.0233 0.0154,0.0391 0.0312,0.0625 1.32398,1.87838 2.34629,3.95517 3.03125,6.21875 0.68154,2.25284 1.03118,4.54872 1.03125,6.8125 l 0,13.1875 c -1.1e-4,1.79344 -0.75026,3.63439 -1.96875,4.90625 -1.2186,1.27177 -3.0003,2.03127 -4.71875,2.03125 -1.71849,2e-5 -3.50017,-0.7593 -4.71875,-2.03125 -1.21872,-1.27187 -1.93759,-3.11258 -1.9375,-4.90625 l 0,-12.875 c -0.005,-0.10084 -0.005,-0.21166 0,-0.3125 -4e-5,-0.62842 -0.11156,-1.36894 -0.3125,-2.25 -0.0113,-0.0602 -0.023,-0.12666 -0.0312,-0.1875 -0.11839,-0.67939 -0.33966,-1.23335 -0.71875,-1.78125 -0.0295,-0.0296 -0.0653,-0.063 -0.0937,-0.0937 -0.28332,-0.44351 -0.68377,-0.8699 -1.40625,-1.28125 -0.0293,-0.0197 -0.0651,-0.0419 -0.0937,-0.0625 -0.48279,-0.29772 -1.27732,-0.53122 -2.5625,-0.53125 l -26.8125,0 c -1.34614,3e-5 -2.19143,0.24459 -2.65625,0.53125 -0.01,0.0102 -0.0216,0.0213 -0.0312,0.0312 -0.68273,0.4072 -1.13397,0.85533 -1.5,1.375 -0.34023,0.54545 -0.58582,1.14943 -0.75,1.84375 -0.004,0.0227 0.004,0.04 0,0.0625 -0.005,0.0235 -0.0257,0.0387 -0.0312,0.0625 -0.14999,0.85976 -0.21876,1.62761 -0.21875,2.28125 l 0,13.1875 c -2e-5,1.79355 -0.71891,3.63439 -1.9375,4.90625 -1.21858,1.27185 -3.03153,2.03127 -4.75,2.03125 -1.71847,2e-5 -3.50016,-0.75937 -4.71875,-2.03125 -1.21871,-1.27176 -1.96885,-3.11263 -1.96885,-4.9062 l 0,-13.1875 c 0,-2.30625 0.34725,-4.61429 1.03125,-6.875 0.01,-0.0202 0.0214,-0.0424 0.0312,-0.0625 0.74296,-2.32628 1.79051,-4.45244 3.1875,-6.34375 0.008,-0.0115 0.0229,-0.0197 0.0312,-0.0312 1.42088,-1.968 3.16588,-3.60253 5.1875,-4.84375 2.17876,-1.3376 4.69994,-1.99995 7.3125,-2 z m 59.40625,0 c 1.71839,7e-5 3.50016,0.75949 4.71875,2.03125 1.2185,1.27187 1.99997,3.14398 2,4.9375 l 0,26.375 c 0.004,0.45654 -0.10612,0.89414 -0.28125,1.3125 -0.26392,1.34315 -0.80482,2.63985 -1.71875,3.59375 -1.2186,1.27186 -3.00028,2.03127 -4.71875,2.03125 -1.71848,2e-5 -3.50017,-0.75938 -4.71875,-2.03125 -1.21863,-1.27187 -1.93752,-3.11267 -1.9375,-4.90625 l 0,-26.375 c -2e-5,-1.79357 0.71894,-3.66563 1.9375,-4.9375 1.21858,-1.27179 3.00035,-2.03118 4.71875,-2.03125 z m 29,0 31.09375,0 c 0.058,-0.002 0.12949,-0.002 0.1875,0 2.49876,0.12727 4.86107,0.8958 6.90625,2.28125 0.0183,0.0123 0.0443,0.0188 0.0625,0.0312 1.88514,1.23994 3.51182,2.8519 4.8125,4.75 0.0123,0.018 0.019,0.0444 0.0312,0.0625 1.32836,1.88162 2.34476,3.95008 3.03125,6.21875 0.68154,2.25284 1.03118,4.54872 1.03125,6.8125 l 0,13.1875 c -1.1e-4,1.79344 -0.75026,3.63439 -1.96875,4.90625 -1.2186,1.27177 -3.0003,2.03127 -4.71875,2.03125 -1.71849,2e-5 -3.50017,-0.7593 -4.71875,-2.03125 -1.21869,-1.27186 -1.96884,-3.11257 -1.96875,-4.90625 l 0,-13.1875 c -4e-5,-0.62842 -0.0803,-1.36894 -0.28125,-2.25 -0.0211,-0.0599 -0.0449,-0.12637 -0.0625,-0.1875 -0.11839,-0.67939 -0.30841,-1.23335 -0.6875,-1.78125 -0.0295,-0.0296 -0.0653,-0.063 -0.0937,-0.0937 -0.28332,-0.44351 -0.68377,-0.8699 -1.40625,-1.28125 -0.0293,-0.0197 -0.0651,-0.0419 -0.0937,-0.0625 -0.48278,-0.29772 -1.27732,-0.53122 -2.5625,-0.53125 l -26.8125,0 c -1.34612,3e-5 -2.19144,0.24459 -2.65625,0.53125 -0.01,0.0102 -0.0215,0.0213 -0.0312,0.0312 -0.68273,0.4072 -1.13397,0.85533 -1.5,1.375 -0.36113,0.57898 -0.61776,1.21797 -0.78125,1.96875 -0.15036,0.8612 -0.21876,1.62677 -0.21875,2.28125 l 0,13.1875 c -2e-5,1.79355 -0.71891,3.63439 -1.9375,4.90625 -1.21858,1.27185 -3.03153,2.03127 -4.75,2.03125 -1.71847,2e-5 -3.53141,-0.75937 -4.75,-2.03125 -1.21861,-1.27186 -1.9375,-3.11268 -1.9375,-4.90625 l 0,-13.1875 c 0,-2.30625 0.34725,-4.61429 1.03125,-6.875 -1.8e-4,-0.0202 -1.8e-4,-0.0423 0,-0.0625 0.74296,-2.32628 1.82176,-4.45244 3.21875,-6.34375 0.008,-0.0115 0.023,-0.0197 0.0312,-0.0312 1.42089,-1.968 3.16588,-3.60253 5.1875,-4.84375 2.17876,-1.3376 4.69994,-1.99995 7.3125,-2 z m 112.71875,0 c 1.71838,7e-5 3.50016,0.75957 4.71875,2.03125 1.21841,1.27186 1.99989,3.14407 2,4.9375 l 0,13.1875 c -7e-5,2.31585 -0.42831,4.6397 -1.15625,6.9375 -0.006,0.0188 0.006,0.0437 0,0.0625 l -0.0312,0 c -0.69843,2.28305 -1.71282,4.42195 -3.09375,6.34375 -0.01,0.0102 -0.0215,0.0213 -0.0312,0.0312 -1.42598,1.92234 -3.17365,3.51356 -5.1875,4.75 -2.17881,1.33766 -4.69996,2.00001 -7.3125,2 l -33.84375,0 c -0.058,0.002 -0.12949,0.002 -0.1875,0 -2.49591,-0.12707 -4.85371,-0.81731 -6.90625,-2.15625 -0.0196,-0.02 -0.0121,-0.0421 -0.0312,-0.0625 -1.88633,-1.292 -3.5559,-2.91286 -4.90625,-4.8125 -0.01,-0.01 -0.0217,-0.0211 -0.0312,-0.0312 -1.28244,-1.88605 -2.28317,-4.01533 -2.96875,-6.28125 -0.68164,-2.25287 -1.03125,-4.51735 -1.03125,-6.78125 l 0,-13.1875 c 0,-1.79355 0.75021,-3.66563 1.96875,-4.9375 1.06627,-1.11283 2.55361,-1.80597 4.0625,-1.96875 0.0203,-0.002 0.0421,0.002 0.0625,0 0.31577,-0.008 0.62255,-0.0228 0.9375,-0.0312 1.61117,0.092 3.23617,0.81146 4.375,2 1.21852,1.27187 1.99998,3.14396 2,4.9375 l 0,13.1875 c -10e-6,0.63851 0.0416,1.45113 0.1875,2.34375 0.002,0.0126 0.0294,0.0186 0.0312,0.0312 0.15599,0.66557 0.36362,1.2672 0.71875,1.84375 0.007,0.0104 0.0238,0.021 0.0312,0.0312 0.36099,0.51347 0.84117,0.96266 1.5,1.40625 0.48454,0.26602 1.37102,0.53127 2.71875,0.53125 l 29.53125,0 c 1.30189,2e-5 2.12714,-0.25275 2.625,-0.53125 0.005,-0.003 0.0258,0.003 0.0312,0 0.69224,-0.44482 1.12331,-0.90081 1.40625,-1.34375 0.0284,-0.0308 0.0643,-0.0641 0.0937,-0.0937 0.39511,-0.57102 0.60632,-1.10288 0.71875,-1.71875 -7.1e-4,-0.0404 -7.1e-4,-0.0846 0,-0.125 0.2067,-0.94943 0.34371,-1.74651 0.34375,-2.375 l 0,-13.1875 c -9e-5,-1.79368 0.71889,-3.66563 1.9375,-4.9375 1.21857,-1.27186 3.00034,-2.03118 4.71875,-2.03125 z m 18.9375,0 c 0.15875,0 0.36152,0.0772 0.53125,0.0937 0.0679,0 0.0917,0.0283 0.15625,0.0312 0.36309,0.0154 0.70577,0.0217 1,0.0937 0.0298,0.006 0.0639,0.0245 0.0937,0.0312 0.008,0.002 0.0229,-0.002 0.0312,0 2.41314,0.52655 4.75839,1.37644 7.03125,2.5625 2.29877,1.19968 4.3772,2.69871 6.21875,4.4375 0.0157,0.0148 0.0468,-0.0148 0.0625,0 l -0.0312,0.0312 c 1.84531,1.70126 3.39965,3.65739 4.5625,5.78125 1.21874,2.22612 1.90621,4.63045 1.90625,7.09375 -4e-5,2.46332 -0.7017,4.89325 -1.90625,7.15625 -0.01,0.0102 0.01,0.0213 0,0.0312 -1.17273,2.14197 -2.72733,4.10061 -4.59375,5.8125 -1.84621,1.69334 -3.91809,3.11188 -6.21875,4.3125 -2.27281,1.18609 -4.61817,2.06723 -7.03125,2.59375 -0.039,0.008 -0.0859,0.0226 -0.125,0.0312 -0.0646,0.0188 -0.15715,0.0519 -0.1875,0.0625 -0.31816,0.10506 -0.63509,0.12984 -0.96875,0.125 l -0.21875,0 -0.3125,0 c -0.45667,0.0125 -0.92527,-0.0588 -1.34375,-0.25 -1.26676,-0.28274 -2.47434,-0.84121 -3.375,-1.78125 -1.21861,-1.27186 -1.9375,-3.11268 -1.9375,-4.90625 0,-1.68155 0.71625,-3.51533 1.90625,-4.71875 l -0.0312,-0.0309 c 0.0152,-0.0159 0.0471,-0.0156 0.0625,-0.0312 0.0154,-0.0152 0.0158,-0.0163 0.0312,-0.0312 1.05662,-1.06582 2.41644,-1.7801 3.84375,-2.09375 0.01,-0.0102 0.0215,-0.0213 0.0312,-0.0312 1.29373,-0.26133 2.50294,-0.65986 3.65625,-1.21875 1.2042,-0.58353 2.23404,-1.21862 3.0625,-1.875 0.86106,-0.69445 1.42266,-1.37617 1.78125,-1.96875 0.0188,-0.0306 0.0426,-0.0639 0.0625,-0.0937 0.36964,-0.56388 0.4375,-0.85509 0.4375,-1.09375 0,-0.23857 -0.0367,-0.47982 -0.375,-0.96875 -0.0406,-0.0592 -0.0882,-0.1256 -0.125,-0.1875 -0.3454,-0.57075 -0.88671,-1.1809 -1.71875,-1.8125 -0.0491,-0.0289 -0.0775,-0.0623 -0.125,-0.0937 -0.81468,-0.6883 -1.81496,-1.33196 -3,-1.90625 -1.16189,-0.563 -2.38505,-0.96952 -3.6875,-1.28125 -0.0215,-0.005 -0.041,-0.0265 -0.0625,-0.0312 -1.39345,-0.31746 -2.72357,-1.01218 -3.78125,-2.03125 -0.0293,-0.0197 -0.0652,-0.0419 -0.0937,-0.0625 -1.1813,-1.23287 -1.875,-3.08775 -1.875,-4.8125 0,-1.79355 0.71896,-3.66563 1.9375,-4.9375 1.21859,-1.2718 3.00036,-2.03118 4.71875,-2.03125 z m 65.0625,0 c 1.71838,7e-5 3.53141,0.75957 4.75,2.03125 1.21841,1.27186 1.93739,3.14407 1.9375,4.9375 -1.1e-4,1.72462 -0.69383,3.57964 -1.875,4.8125 -0.0287,0.0206 -0.0645,0.0428 -0.0937,0.0625 -1.05767,1.01896 -2.38786,1.71379 -3.78125,2.03125 -0.0214,0.005 -0.0412,0.0265 -0.0625,0.0312 -1.30267,0.31174 -2.55683,0.7182 -3.71875,1.28125 -1.19796,0.58052 -2.20715,1.2537 -3.09375,1.96875 -0.01,5e-5 -0.0217,5e-5 -0.0312,0 -0.80007,0.63622 -1.3825,1.28933 -1.8125,1.9375 -0.007,0.0103 -0.0247,0.0211 -0.0312,0.0312 -0.28513,0.45886 -0.34376,0.74586 -0.34375,1.03125 -10e-6,0.28652 0.0589,0.62004 0.375,1.15625 0.01,0.017 0.0208,0.0138 0.0312,0.0312 0.44228,0.65696 1.06399,1.31481 1.875,2 0.87691,0.65177 1.86177,1.27707 3.03125,1.84375 1.15321,0.55886 2.36247,0.95742 3.65625,1.21875 0.0194,0.01 0.0433,0.0211 0.0625,0.0312 1.42772,0.31375 2.787,1.02748 3.84375,2.09375 0.0138,0.014 0.0176,0.0172 0.0312,0.0312 0.0152,0.0156 0.0474,0.0156 0.0625,0.0312 l -0.0312,0.0312 c 1.18987,1.20341 1.90614,3.03731 1.90625,4.71875 -1.1e-4,1.79344 -0.71901,3.63439 -1.9375,4.90625 -0.90731,0.94689 -2.16067,1.50211 -3.4375,1.78125 -0.0289,0.0106 -0.0646,0.0217 -0.0937,0.0312 -0.38518,0.16439 -0.80264,0.22359 -1.21875,0.21875 l -0.1875,0 -0.34375,0 c -0.33366,0.005 -0.65059,-0.02 -0.96875,-0.125 -0.0261,-0.009 -0.1052,-0.0473 -0.15625,-0.0625 -0.0483,-0.0143 -0.0576,-0.0138 -0.125,-0.0312 -2.40357,-0.52707 -4.76708,-1.41213 -7.03125,-2.59375 -2.30074,-1.20062 -4.40383,-2.61912 -6.25,-4.3125 -1.86651,-1.71191 -3.38981,-3.67047 -4.5625,-5.8125 -5e-5,-0.0101 -5e-5,-0.0213 0,-0.0312 -1.20464,-2.26304 -1.9063,-4.69285 -1.90625,-7.15625 -5e-5,-2.46337 0.68742,-4.86759 1.90625,-7.09375 1.16613,-2.13 2.67875,-4.10762 4.53125,-5.8125 0.0104,-0.009 0.0208,0.01 0.0312,0 1.84566,-1.74577 3.94411,-3.23413 6.25,-4.4375 2.26426,-1.18161 4.6276,-2.03539 7.03125,-2.5625 0.048,-0.0105 0.0769,-0.0211 0.125,-0.0312 0.28675,-0.0691 0.61562,-0.0788 0.96875,-0.0937 0.0578,-0.008 0.0996,-0.0254 0.15625,-0.0312 0.16989,-0.0166 0.37225,-0.0937 0.53125,-0.0937 z m -32.5,12.09375 c 2.0074,5e-5 4.0463,0.85922 5.46875,2.34375 1.42234,1.48463 2.21869,3.6236 2.21875,5.71875 -6e-5,2.09517 -0.79634,4.20288 -2.21875,5.6875 -1.42245,1.48461 -3.46129,2.37503 -5.46875,2.375 -2.00749,3e-5 -4.07756,-0.8903 -5.5,-2.375 -1.10849,-1.1569 -1.69264,-2.69255 -1.96875,-4.3125 -0.17909,-0.42758 -0.25743,-0.9084 -0.25,-1.375 -0.0163,-0.48666 0.0626,-0.9603 0.25,-1.40625 0.004,-0.0215 0.0276,-0.041 0.0312,-0.0625 0.29238,-1.57515 0.85723,-3.12251 1.9375,-4.25 1.42244,-1.48462 3.49257,-2.3437 5.5,-2.34375 z m -188.4375,38.0625 29.71875,0 c 1.7811,0.0868 3.35977,0.58773 4.75,1.5 1.39012,0.86888 2.57545,1.9658 3.53125,3.3125 0.99913,1.34675 1.75987,2.8492 2.28125,4.5 0.52125,1.65085 0.78118,3.29889 0.78125,4.90625 -7e-5,1.65084 -0.27905,3.30575 -0.84375,5 -0.52138,1.65084 -1.30119,3.17234 -2.34375,4.5625 -1.04268,1.34673 -2.30425,2.44365 -3.78125,3.3125 -1.01768,0.59862 -2.13651,0.96734 -3.34375,1.15625 l -32.84375,0 c -1.21019,-0.22017 -2.30548,-0.65184 -3.3125,-1.28125 -1.39018,-0.91228 -2.59457,-2.02827 -3.59375,-3.375 -0.95575,-1.34672 -1.6662,-2.84916 -2.1875,-4.5 -0.52131,-1.6508 -0.78125,-3.26759 -0.78125,-4.875 0,-1.6508 0.25994,-3.3179 0.78125,-4.96875 0.56475,-1.69424 1.36361,-3.21575 2.40625,-4.5625 1.04261,-1.39013 2.30419,-2.50612 3.78125,-3.375 1.47704,-0.86882 3.13194,-1.31247 5,-1.3125 z m 50.71875,0 39.03125,0 c 1.21636,3e-5 2.33232,0.24092 3.375,0.71875 1.08601,0.43447 2.03048,1.03056 2.8125,1.8125 0.82535,0.782 1.44052,1.70741 1.875,2.75 0.47782,1.04266 0.71868,2.15863 0.71875,3.375 -7e-5,1.21642 -0.24093,2.36364 -0.71875,3.40625 -0.43448,1.04264 -1.04965,1.9368 -1.875,2.71875 -0.78202,0.78199 -1.72649,1.4284 -2.8125,1.90625 -1.04268,0.43445 -2.15864,0.65627 -3.375,0.65625 l -0.28125,0 c 1.17291,0.73854 2.3773,1.53742 3.59375,2.40625 1.21634,0.82543 2.45885,1.71957 3.71875,2.71875 0.47782,0.34755 0.9024,0.77213 1.25,1.25 0.34749,0.43443 0.49993,0.95431 0.5,1.5625 -7e-5,0.86887 -0.29811,1.61056 -0.90625,2.21875 -0.36795,0.36792 -0.7858,0.6064 -1.25,0.75 l -1.875,0 c -0.44213,-0.14454 -0.87132,-0.38664 -1.3125,-0.75 -1.7812,-1.30327 -3.60075,-2.56485 -5.46875,-3.78125 -1.86808,-1.21639 -3.83323,-2.29425 -5.875,-3.25 -1.99841,-0.95573 -4.0779,-1.71647 -6.25,-2.28125 -2.17217,-0.56475 -4.43537,-0.84373 -6.78125,-0.84375 l -12.96875,0 c -0.56478,0.0868 -1.01528,0.34683 -1.40625,0.78125 -0.391,0.43445 -0.59377,0.97337 -0.59375,1.625 l 0,5.53125 c -2e-5,0.86887 -0.34837,1.61056 -1,2.21875 -0.36336,0.36336 -0.75393,0.60546 -1.1875,0.75 l -1.90625,0 c -0.46421,-0.1436 -0.88209,-0.38208 -1.25,-0.75 -0.60821,-0.60819 -0.90625,-1.34988 -0.90625,-2.21875 l 0,-6.25 c 0,-1.08606 0.17151,-2.10674 0.5625,-3.0625 0.43442,-0.99916 1.02366,-1.83614 1.71875,-2.53125 0.69507,-0.73851 1.513,-1.32775 2.46875,-1.71875 0.95573,-0.4344 1.99548,-0.62498 3.125,-0.625 l 34.53125,0 c 0.65159,2e-5 1.20959,-0.2218 1.6875,-0.65625 0.52126,-0.47785 0.7812,-1.08614 0.78125,-1.78125 -5e-5,-0.65161 -0.25999,-1.2096 -0.78125,-1.6875 -0.47791,-0.47785 -1.03591,-0.71872 -1.6875,-0.71875 l -39.28125,0 c -0.86887,3e-5 -1.61056,-0.29802 -2.21875,-0.90625 -0.60821,-0.60816 -0.90625,-1.34987 -0.90625,-2.21875 0,-0.86882 0.29804,-1.61052 0.90625,-2.21875 0.60819,-0.60816 1.34988,-0.90622 2.21875,-0.90625 z m 66.375,0 38,0 c 0.8688,3e-5 1.61049,0.29809 2.21875,0.90625 0.60814,0.60823 0.90618,1.34993 0.90625,2.21875 -7e-5,0.86888 -0.29811,1.61059 -0.90625,2.21875 -0.60826,0.60823 -1.34995,0.90628 -2.21875,0.90625 l -36.5625,0 c -1.52053,3e-5 -2.76302,0.27902 -3.71875,0.84375 -0.91232,0.52135 -1.654,1.18681 -2.21875,1.96875 -0.52133,0.782 -0.87656,1.63804 -1.09375,2.59375 -0.17378,0.91232 -0.28127,1.78055 -0.28125,2.5625 -2e-5,0.78199 0.10742,1.63802 0.28125,2.59375 0.21719,0.91232 0.57242,1.7493 1.09375,2.53125 0.56475,0.78199 1.30643,1.4665 2.21875,2.03125 0.95573,0.52133 2.19822,0.78127 3.71875,0.78125 l 31.59375,0 c 0.52126,2e-5 0.98397,-0.24087 1.375,-0.71875 0.43437,-0.47785 0.6562,-1.03584 0.65625,-1.6875 -5e-5,-0.65163 -0.20281,-1.20962 -0.59375,-1.6875 -0.3476,-0.47785 -0.82936,-0.71873 -1.4375,-0.71875 l -24.6875,0 c -0.86888,2e-5 -1.61057,-0.32929 -2.21875,-0.9375 -0.60823,-0.60818 -0.90628,-1.31862 -0.90625,-2.1875 -3e-5,-0.86883 0.29802,-1.61052 0.90625,-2.21875 0.60818,-0.60818 1.34987,-0.90623 2.21875,-0.90625 l 24.96875,0 c 1.08601,2e-5 2.1067,0.1906 3.0625,0.625 0.95568,0.391 1.77361,0.98024 2.46875,1.71875 0.73847,0.69511 1.29645,1.53209 1.6875,2.53125 0.39092,0.95576 0.59368,1.97644 0.59375,3.0625 l 0,1.4375 c -7e-5,1.08608 -0.20283,2.12582 -0.59375,3.125 -0.39105,0.95575 -0.94903,1.79273 -1.6875,2.53125 -0.69514,0.69509 -1.51307,1.25308 -2.46875,1.6875 -0.4779,0.1955 -0.95835,0.33794 -1.46875,0.4375 l -37.1875,0 c -1.13552,-0.18989 -2.17141,-0.56024 -3.125,-1.15625 -1.39018,-0.86885 -2.59457,-1.96577 -3.59375,-3.3125 -0.95575,-1.39016 -1.69745,-2.93071 -2.21875,-4.625 -0.52131,-1.69425 -0.78125,-3.33009 -0.78125,-4.9375 0,-1.6508 0.25994,-3.3179 0.78125,-4.96875 0.56475,-1.69424 1.39486,-3.21575 2.4375,-4.5625 1.04261,-1.39013 2.30419,-2.50612 3.78125,-3.375 1.47704,-0.86882 3.13194,-1.31247 5,-1.3125 z m -115.71875,6.25 c -1.52053,3e-5 -2.76302,0.27902 -3.71875,0.84375 -0.91232,0.52135 -1.654,1.18681 -2.21875,1.96875 -0.52133,0.782 -0.87656,1.63804 -1.09375,2.59375 -0.17378,0.91232 -0.28127,1.78055 -0.28125,2.5625 -2e-5,0.78199 0.10742,1.63802 0.28125,2.59375 0.21719,0.91232 0.57242,1.7493 1.09375,2.53125 0.56475,0.78199 1.30643,1.4665 2.21875,2.03125 0.95573,0.52133 2.19822,0.78127 3.71875,0.78125 l 26.3125,0 c 1.47701,2e-5 2.70045,-0.25992 3.65625,-0.78125 0.95568,-0.56475 1.69739,-1.24926 2.21875,-2.03125 0.5647,-0.78195 0.95117,-1.61893 1.125,-2.53125 0.21716,-0.95573 0.31245,-1.81176 0.3125,-2.59375 -5e-5,-0.78195 -0.0953,-1.65018 -0.3125,-2.5625 -0.17383,-0.95571 -0.5603,-1.81175 -1.125,-2.59375 -0.52136,-0.78194 -1.26307,-1.4474 -2.21875,-1.96875 -0.9558,-0.56473 -2.17924,-0.84372 -3.65625,-0.84375 l -26.3125,0 z m -25.125,10.6875 c 1.58131,2e-5 2.93648,0.56151 4.03125,1.65625 1.09474,1.09477 1.62498,2.41869 1.625,4 -2e-5,1.58132 -0.53026,2.90524 -1.625,4 -1.09477,1.09476 -2.44994,1.65625 -4.03125,1.65625 -1.58132,0 -2.90524,-0.56149 -4,-1.65625 -1.09476,-1.09476 -1.65625,-2.41868 -1.65625,-4 0,-1.58131 0.56149,-2.90523 1.65625,-4 1.09476,-1.09474 2.41868,-1.65623 4,-1.65625 z"
     id="path4147"
     inkscape:connector-curvature="0" /></g><g
   id="g4149"
   style="font-size:9px;font-style:normal;font-weight:normal;line-height:125%;letter-spacing:0px;word-spacing:0px;fill:none;stroke:#ffffff;stroke-width:6.72671604;stroke-linecap:round;stroke-linejoin:round;stroke-miterlimit:4;stroke-opacity:1;font-family:Bitstream Vera Sans"
   transform="matrix(0.92816133,0,0,0.96873723,1129.2985,820.66233)"><path
     sodipodi:nodetypes="ccccccssccsccccccccccccccccccccccccccccccccc"
     inkscape:connector-curvature="0"
     id="path4151"
     d="m -673.65625,-454.15625 c -2.81477,5e-5 -5.52761,0.68173 -7.875,2.0625 -2.17809,1.28128 -4.06289,2.96849 -5.59375,5 -0.009,0.0119 -0.0223,0.0193 -0.0312,0.0312 -1.50512,1.95235 -2.63704,4.16115 -3.4375,6.5625 -0.0106,0.0207 -0.021,0.0416 -0.0312,0.0625 -0.73694,2.33367 -1.125,4.71307 -1.125,7.09375 l 0,13.59375 c 0,1.85145 0.81207,3.78084 2.125,5.09375 1.31291,1.31293 3.24227,2.09377 5.09375,2.09375 1.85148,2e-5 3.78085,-0.78086 5.09375,-2.09375 1.31291,-1.31291 2.09373,-3.24232 2.09375,-5.09375 l 0,-13.59375 c -10e-6,-0.67473 0.0884,-1.48749 0.25,-2.375 0.006,-0.0246 0.0255,-0.0382 0.0312,-0.0625 0.004,-0.0232 -0.004,-0.0391 0,-0.0625 0.17689,-0.71673 0.44594,-1.3432 0.8125,-1.90625 0.39436,-0.53644 0.88943,-0.98591 1.625,-1.40625 0.0105,-0.0103 0.0209,-0.0207 0.0312,-0.0312 0.5008,-0.29591 1.39342,-0.56247 2.84375,-0.5625 l 28.90625,0 c 1.38465,3e-5 2.22985,0.25517 2.75,0.5625 0.0309,0.0213 0.0621,0.0422 0.0937,0.0625 0.7784,0.42462 1.226,0.85468 1.53125,1.3125 0.0306,0.0318 0.0619,0.0631 0.0937,0.0937 0.40843,0.56558 0.6537,1.14244 0.78125,1.84375 0.009,0.0628 0.019,0.12531 0.0312,0.1875 0.21649,0.90949 0.31246,1.69505 0.3125,2.34375 -0.005,0.10409 -0.005,0.20841 0,0.3125 l 0,13.28125 c -1e-4,1.85155 0.7807,3.78083 2.09375,5.09375 1.3129,1.313 3.24225,2.09377 5.09375,2.09375 1.85146,2e-5 3.78083,-0.78094 5.09375,-2.09375 1.3128,-1.3129 2.12488,-3.24243 2.125,-5.09375 l 0,-13.59375 c -8e-5,-2.33684 -0.39071,-4.70571 -1.125,-7.03125 -0.73797,-2.33663 -1.82355,-4.4985 -3.25,-6.4375 -0.0172,-0.0242 -0.0452,-0.0384 -0.0625,-0.0625 -1.3993,-1.95205 -3.13103,-3.62991 -5.15625,-4.90625 -0.0195,-0.0128 -0.0429,-0.0186 -0.0625,-0.0312 -2.20356,-1.43034 -4.77641,-2.21236 -7.46875,-2.34375 -0.0521,-10e-4 -0.10418,-10e-4 -0.15625,0 l -33.53125,0 z"
     style="font-size:80px;font-style:normal;font-variant:normal;font-weight:normal;font-stretch:normal;text-indent:0;text-align:start;text-decoration:none;line-height:125%;letter-spacing:4.57416677px;word-spacing:0;text-transform:none;direction:ltr;block-progression:tb;writing-mode:lr-tb;text-anchor:start;baseline-shift:baseline;color:#000000;fill:none;stroke:none;stroke-width:6.72671604;marker:none;visibility:visible;display:inline;overflow:visible;enable-background:accumulate;font-family:Space Age;-inkscape-font-specification:Space Age" /><path
     sodipodi:nodetypes="ccccccsccccc"
     inkscape:connector-curvature="0"
     id="path4153"
     d="m -609.65625,-454.15625 c -1.8514,7e-5 -3.78085,0.78092 -5.09375,2.09375 -1.31287,1.31292 -2.09377,3.2423 -2.09375,5.09375 l 0,27.21875 c -2e-5,1.85146 0.7808,3.78083 2.09375,5.09375 1.3129,1.31292 3.24226,2.09377 5.09375,2.09375 1.85148,2e-5 3.78083,-0.78085 5.09375,-2.09375 0.98467,-0.98468 1.5594,-2.33225 1.84375,-3.71875 0.18869,-0.43186 0.28521,-0.90373 0.28125,-1.375 l 0,-27.21875 c -3e-5,-1.8514 -0.81219,-3.78083 -2.125,-5.09375 -1.31291,-1.3128 -3.24236,-2.09368 -5.09375,-2.09375 z"
     style="font-size:80px;font-style:normal;font-variant:normal;font-weight:normal;font-stretch:normal;text-indent:0;text-align:start;text-decoration:none;line-height:125%;letter-spacing:4.57416677px;word-spacing:0;text-transform:none;direction:ltr;block-progression:tb;writing-mode:lr-tb;text-anchor:start;baseline-shift:baseline;color:#000000;fill:none;stroke:none;stroke-width:6.72671604;marker:none;visibility:visible;display:inline;overflow:visible;enable-background:accumulate;font-family:Space Age;-inkscape-font-specification:Space Age" /><path
     sodipodi:nodetypes="ccccccssccscccccccccccccccccccccccccccccc"
     inkscape:connector-curvature="0"
     id="path4155"
     d="m -578.40625,-454.15625 c -2.81477,5e-5 -5.52761,0.68173 -7.875,2.0625 -2.17809,1.28128 -4.06289,2.96849 -5.59375,5 -0.009,0.0119 -0.0223,0.0193 -0.0312,0.0312 -1.50512,1.95235 -2.66829,4.16115 -3.46875,6.5625 -1.9e-4,0.0208 -1.9e-4,0.0417 0,0.0625 -0.73694,2.33367 -1.125,4.71307 -1.125,7.09375 l 0,13.59375 c 0,1.85145 0.78082,3.78084 2.09375,5.09375 1.31291,1.31293 3.27352,2.09377 5.125,2.09375 1.85148,2e-5 3.78085,-0.78086 5.09375,-2.09375 1.31291,-1.31291 2.09373,-3.24232 2.09375,-5.09375 l 0,-13.59375 c -10e-6,-0.6756 0.088,-1.48601 0.25,-2.375 0.17614,-0.77501 0.45467,-1.43359 0.84375,-2.03125 0.39436,-0.53644 0.88943,-0.98591 1.625,-1.40625 0.0105,-0.0103 0.0209,-0.0207 0.0312,-0.0312 0.50079,-0.29591 1.39344,-0.56247 2.84375,-0.5625 l 28.875,0 c 1.38465,3e-5 2.2611,0.25517 2.78125,0.5625 0.0309,0.0213 0.0621,0.0422 0.0937,0.0625 0.7784,0.42462 1.226,0.85468 1.53125,1.3125 0.0306,0.0318 0.0619,0.0631 0.0937,0.0937 0.40843,0.56558 0.62245,1.14244 0.75,1.84375 0.019,0.0631 0.0398,0.12563 0.0625,0.1875 0.21649,0.90949 0.28121,1.69505 0.28125,2.34375 l 0,13.59375 c -10e-5,1.85157 0.81198,3.78084 2.125,5.09375 1.3129,1.313 3.24225,2.09377 5.09375,2.09375 1.85146,2e-5 3.78083,-0.78094 5.09375,-2.09375 1.3128,-1.3129 2.09363,-3.24243 2.09375,-5.09375 l 0,-13.59375 c -8e-5,-2.33684 -0.35946,-4.70571 -1.09375,-7.03125 -0.73962,-2.34188 -1.85008,-4.49516 -3.28125,-6.4375 -0.0132,-0.0187 -0.0179,-0.0439 -0.0312,-0.0625 -1.40135,-1.95935 -3.15645,-3.6263 -5.1875,-4.90625 -0.0196,-0.0129 -0.0428,-0.0185 -0.0625,-0.0312 -2.20347,-1.43016 -4.74534,-2.21237 -7.4375,-2.34375 -0.0625,-0.002 -0.12502,-0.002 -0.1875,0 l -33.5,0 z"
     style="font-size:80px;font-style:normal;font-variant:normal;font-weight:normal;font-stretch:normal;text-indent:0;text-align:start;text-decoration:none;line-height:125%;letter-spacing:4.57416677px;word-spacing:0;text-transform:none;direction:ltr;block-progression:tb;writing-mode:lr-tb;text-anchor:start;baseline-shift:baseline;color:#000000;fill:none;stroke:none;stroke-width:6.72671604;marker:none;visibility:visible;display:inline;overflow:visible;enable-background:accumulate;font-family:Space Age;-inkscape-font-specification:Space Age" /><path
     sodipodi:nodetypes="ccsssccccccsccccccccccscccccccccccccccccccc"
     inkscape:connector-curvature="0"
     id="path4157"
     d="m -514.40625,-454.15625 c -1.85139,7e-5 -3.78084,0.78091 -5.09375,2.09375 -1.31285,1.31292 -2.125,3.24232 -2.125,5.09375 l 0,13.625 c 0,2.33696 0.3906,4.67443 1.125,7 0.73864,2.33905 1.8058,4.52183 3.1875,6.46875 0.0103,0.0105 0.0207,0.0209 0.0312,0.0312 1.45487,1.96094 3.24892,3.63505 5.28125,4.96875 0.0206,0.0211 0.0414,0.0419 0.0625,0.0625 2.2114,1.38215 4.74841,2.11883 7.4375,2.25 0.0625,0.002 0.12502,0.002 0.1875,0 l 36.46875,0 c 2.81475,10e-6 5.52755,-0.68167 7.875,-2.0625 2.16972,-1.27634 4.0574,-2.92187 5.59375,-4.90625 0.0105,-0.0103 0.0209,-0.0207 0.0312,-0.0312 1.48781,-1.98382 2.59126,-4.20577 3.34375,-6.5625 l 0.0312,0 c 0.006,-0.0194 -0.006,-0.0431 0,-0.0625 0.78428,-2.37195 1.21867,-4.76566 1.21875,-7.15625 l 0,-13.625 c -1.2e-4,-1.85131 -0.81229,-3.78084 -2.125,-5.09375 -1.31291,-1.31272 -3.24237,-2.09368 -5.09375,-2.09375 -1.85141,7e-5 -3.78086,0.78084 -5.09375,2.09375 -1.31293,1.31292 -2.09385,3.24219 -2.09375,5.09375 l 0,13.625 c -4e-5,0.64877 -0.12105,1.45743 -0.34375,2.4375 -7.7e-4,0.0417 -7.7e-4,0.0833 0,0.125 -0.12113,0.63575 -0.35556,1.1918 -0.78125,1.78125 -0.0318,0.0306 -0.0631,0.0619 -0.0937,0.0937 -0.30484,0.45723 -0.78543,0.94708 -1.53125,1.40625 -0.006,0.003 -0.0256,-0.003 -0.0312,0 -0.53639,0.28749 -1.44109,0.53127 -2.84375,0.53125 l -31.8125,0 c -1.45204,2e-5 -2.38421,-0.25664 -2.90625,-0.53125 -0.70982,-0.45791 -1.23607,-0.93871 -1.625,-1.46875 -0.008,-0.0107 -0.0235,-0.0205 -0.0312,-0.0312 -0.38262,-0.59516 -0.61319,-1.2192 -0.78125,-1.90625 -0.002,-0.0131 -0.029,-0.0182 -0.0312,-0.0312 -0.15722,-0.92143 -0.21876,-1.74713 -0.21875,-2.40625 l 0,-13.625 c -2e-5,-1.85142 -0.81217,-3.78083 -2.125,-5.09375 -1.31291,-1.31282 -3.24236,-2.09368 -5.09375,-2.09375 z"
     style="font-size:80px;font-style:normal;font-variant:normal;font-weight:normal;font-stretch:normal;text-indent:0;text-align:start;text-decoration:none;line-height:125%;letter-spacing:4.57416677px;word-spacing:0;text-transform:none;direction:ltr;block-progression:tb;writing-mode:lr-tb;text-anchor:start;baseline-shift:baseline;color:#000000;fill:none;stroke:none;stroke-width:6.72671604;marker:none;visibility:visible;display:inline;overflow:visible;enable-background:accumulate;font-family:Space Age;-inkscape-font-specification:Space Age" /><path
     sodipodi:nodetypes="ccscccccccccsccccccccccsscccccccsscccccccccccccccccccccccccccccccccccccccccccccccccccccccscccccccccsccccccccccc"
     inkscape:connector-curvature="0"
     id="path4159"
     d="m -436.5625,-454.15625 c -1.85139,7e-5 -3.78084,0.78091 -5.09375,2.09375 -1.31285,1.31292 -2.09375,3.24232 -2.09375,5.09375 0,1.78041 0.75852,3.69609 2.03125,4.96875 0.0309,0.0213 0.0621,0.0422 0.0937,0.0625 1.13954,1.05196 2.59245,1.76605 4.09375,2.09375 0.0232,0.005 0.0393,0.0259 0.0625,0.0312 1.40326,0.32179 2.71693,0.76258 3.96875,1.34375 1.27676,0.59282 2.34102,1.25824 3.21875,1.96875 0.0512,0.0326 0.10333,0.0639 0.15625,0.0937 0.89644,0.65198 1.47162,1.28583 1.84375,1.875 0.0396,0.0639 0.0813,0.12642 0.125,0.1875 0.36449,0.50471 0.40625,0.75373 0.40625,1 0,0.24636 -0.0705,0.54292 -0.46875,1.125 -0.0214,0.0309 -0.0422,0.0621 -0.0625,0.0937 -0.38634,0.6117 -1.00979,1.31439 -1.9375,2.03125 -0.89258,0.67756 -1.98385,1.33514 -3.28125,1.9375 -1.24258,0.57693 -2.54364,0.98024 -3.9375,1.25 -0.0105,0.0103 -0.0209,0.0207 -0.0312,0.0312 -1.53778,0.32377 -3.01785,1.05603 -4.15625,2.15625 -0.0168,0.0155 -0.0146,0.0468 -0.0312,0.0625 -0.0166,0.0163 -0.0461,0.0148 -0.0625,0.0312 l 0.0312,0.0312 c -1.2821,1.24226 -2.0625,3.10793 -2.0625,4.84375 0,1.85145 0.78082,3.78084 2.09375,5.09375 0.97037,0.97038 2.29144,1.52064 3.65625,1.8125 0.45087,0.19741 0.94548,0.29418 1.4375,0.28125 l 0.34375,0 0.21875,0 c 0.35948,0.005 0.71972,-0.0478 1.0625,-0.15625 0.0327,-0.0109 0.1179,-0.0431 0.1875,-0.0625 0.0421,-0.009 0.083,-0.0225 0.125,-0.0312 2.59985,-0.54351 5.14503,-1.43188 7.59375,-2.65625 2.47873,-1.23937 4.6984,-2.72076 6.6875,-4.46875 2.01088,-1.76714 3.674,-3.78891 4.9375,-6 0.0105,-0.0103 0.0209,-0.0207 0.0312,-0.0312 1.29778,-2.33603 2.03121,-4.83218 2.03125,-7.375 -4e-5,-2.54279 -0.71818,-5.04579 -2.03125,-7.34375 -0.0104,-5e-5 -0.0208,-5e-5 -0.0312,0 -1.25285,-2.1924 -2.91811,-4.18134 -4.90625,-5.9375 l 0.0312,-0.0312 c -0.0169,-0.0153 -0.0456,-0.0159 -0.0625,-0.0312 -1.98408,-1.7949 -4.21081,-3.3241 -6.6875,-4.5625 -2.44878,-1.22434 -4.99384,-2.11271 -7.59375,-2.65625 -0.009,-0.002 -0.0221,0.002 -0.0312,0 -0.0322,-0.007 -0.0616,-0.0247 -0.0937,-0.0312 -0.317,-0.0744 -0.67131,-0.0778 -1.0625,-0.0937 -0.0696,-0.003 -0.11439,-0.0312 -0.1875,-0.0312 -0.18287,-0.0172 -0.39146,-0.0937 -0.5625,-0.0937 z m 70.09375,0 c -0.17131,0 -0.37946,0.0766 -0.5625,0.0937 -0.061,0.006 -0.12524,0.0231 -0.1875,0.0312 -0.38046,0.0154 -0.72231,0.0224 -1.03125,0.0937 -0.0518,0.0106 -0.10452,0.0204 -0.15625,0.0312 -2.58969,0.54412 -5.12299,1.43651 -7.5625,2.65625 -2.48436,1.2422 -4.73024,2.76039 -6.71875,4.5625 -0.0112,0.01 -0.02,0.0214 -0.0312,0.0312 -1.99588,1.7599 -3.64986,3.77001 -4.90625,5.96875 -1.31317,2.298 -2.0313,4.80088 -2.03125,7.34375 -5e-5,2.5429 0.73337,5.03893 2.03125,7.375 -5e-5,0.0104 -5e-5,0.0208 0,0.0312 1.26346,2.21116 2.92652,4.23284 4.9375,6 1.98906,1.74803 4.23993,3.22938 6.71875,4.46875 2.43941,1.21975 4.9729,2.11217 7.5625,2.65625 0.0726,0.0181 0.10421,0.0164 0.15625,0.0312 0.055,0.0157 0.12812,0.0531 0.15625,0.0625 0.34278,0.10842 0.70302,0.16139 1.0625,0.15625 l 0.34375,0 0.21875,0 c 0.44832,0.005 0.89751,-0.0803 1.3125,-0.25 0.0314,-0.01 0.0626,-0.0203 0.0937,-0.0312 1.37566,-0.28815 2.74122,-0.83505 3.71875,-1.8125 1.3128,-1.3129 2.09363,-3.24243 2.09375,-5.09375 -1.2e-4,-1.7357 -0.78054,-3.6015 -2.0625,-4.84375 l 0.0312,-0.0312 c -0.0163,-0.0163 -0.0461,-0.0151 -0.0625,-0.0312 -0.0148,-0.0145 -0.0163,-0.0481 -0.0312,-0.0625 -1.13854,-1.10068 -2.61803,-1.83237 -4.15625,-2.15625 -0.0207,-0.0106 -0.0416,-0.021 -0.0625,-0.0312 -1.39392,-0.26976 -2.69503,-0.6731 -3.9375,-1.25 -1.26,-0.58497 -2.33647,-1.23345 -3.28125,-1.90625 -0.87378,-0.7073 -1.52349,-1.38434 -2,-2.0625 -0.0114,-0.0181 -0.0204,-0.0136 -0.0312,-0.0312 -0.3406,-0.55351 -0.40626,-0.89173 -0.40625,-1.1875 -10e-6,-0.2946 0.0678,-0.58883 0.375,-1.0625 0.007,-0.0106 0.0239,-0.0206 0.0312,-0.0312 0.46328,-0.66909 1.07551,-1.34325 1.9375,-2 0.0104,5e-5 0.0208,5e-5 0.0312,0 0.95522,-0.73813 2.05307,-1.432 3.34375,-2.03125 1.25185,-0.58122 2.5965,-1.02195 4,-1.34375 0.023,-0.005 0.0394,-0.026 0.0625,-0.0312 1.50124,-0.32771 2.95422,-1.04191 4.09375,-2.09375 0.0316,-0.0203 0.0628,-0.0412 0.0937,-0.0625 1.27259,-1.27265 2.03113,-3.18847 2.03125,-4.96875 -1.2e-4,-1.85131 -0.78104,-3.78084 -2.09375,-5.09375 -1.31291,-1.31272 -3.27362,-2.09368 -5.125,-2.09375 z M -401.5,-441.6875 c -2.1628,5e-5 -4.37372,0.90497 -5.90625,2.4375 -1.16388,1.16388 -1.77874,2.74902 -2.09375,4.375 -0.004,0.0222 -0.0271,0.0403 -0.0312,0.0625 -0.20192,0.46034 -0.29882,0.96638 -0.28125,1.46875 -0.008,0.48166 0.0883,0.96487 0.28125,1.40625 0.29748,1.67223 0.93071,3.27452 2.125,4.46875 1.53253,1.53261 3.74338,2.43753 5.90625,2.4375 2.16284,3e-5 4.3737,-0.90498 5.90625,-2.4375 1.5325,-1.53253 2.40619,-3.71222 2.40625,-5.875 -6e-5,-2.16276 -0.87382,-4.37371 -2.40625,-5.90625 -1.53255,-1.53244 -3.74348,-2.43745 -5.90625,-2.4375 z"
     style="font-size:80px;font-style:normal;font-variant:normal;font-weight:normal;font-stretch:normal;text-indent:0;text-align:start;text-decoration:none;line-height:125%;letter-spacing:4.57416677px;word-spacing:0;text-transform:none;direction:ltr;block-progression:tb;writing-mode:lr-tb;text-anchor:start;baseline-shift:baseline;color:#000000;fill:none;stroke:none;stroke-width:6.72671604;marker:none;visibility:visible;display:inline;overflow:visible;enable-background:accumulate;font-family:Space Age;-inkscape-font-specification:Space Age" /></g><g
   style="fill:none"
   transform="matrix(1.6291051,0,0,1.6291051,398.7638,-448.87107)"
   id="g4161"><flowRoot
     xml:space="preserve"
     id="flowRoot4163"
     style="font-size:9px;font-style:normal;font-variant:normal;font-weight:normal;font-stretch:normal;text-align:center;line-height:125%;letter-spacing:0px;word-spacing:0px;text-anchor:middle;fill:none;stroke:none;font-family:Space Age;-inkscape-font-specification:Space Age"
     transform="translate(-22.894753,-24.000009)"><flowRegion
       id="flowRegion4165"><rect
         id="rect4167"
         width="207.77582"
         height="45.768768"
         x="67.926712"
         y="543.33606"
         style="font-style:normal;font-variant:normal;font-weight:normal;font-stretch:normal;text-align:center;text-anchor:middle;fill:none;font-family:Space Age;-inkscape-font-specification:Space Age"
         ry="0" /></flowRegion><flowPara
       id="flowPara4169"
       style="font-size:40px;text-align:center;text-anchor:middle;fill:none">org</flowPara></flowRoot><flowRoot
     transform="translate(-35.986376,-40.844172)"
     style="font-size:9px;font-style:normal;font-variant:normal;font-weight:normal;font-stretch:normal;text-align:start;line-height:125%;letter-spacing:0px;word-spacing:0px;text-anchor:start;fill:none;stroke:none;font-family:Space Age;-inkscape-font-specification:Space Age"
     id="flowRoot4171"
     xml:space="preserve"><flowRegion
       id="flowRegion4173"><rect
         ry="0"
         style="font-style:normal;font-variant:normal;font-weight:normal;font-stretch:normal;text-align:start;text-anchor:start;fill:none;font-family:Space Age;-inkscape-font-specification:Space Age"
         y="544.06256"
         x="119.14418"
         height="62.478031"
         width="169.63513"
         id="rect4175" /></flowRegion><flowPara
       style="font-size:56px;text-align:start;text-anchor:start;fill:none"
       id="flowPara4177">.</flowPara></flowRoot></g></svg>